<mxfile host="Electron" modified="2024-12-28T07:11:05.569Z" agent="Mozilla/5.0 (X11; Linux x86_64) AppleWebKit/537.36 (KHTML, like Gecko) draw.io/24.6.4 Chrome/124.0.6367.207 Electron/30.0.6 Safari/537.36" etag="ss1Azsz8CDmSm0_hCEWZ" version="24.6.4" type="device">
  <diagram name="Страница — 1" id="OVGTFvMvCaBaLEwrtuDq">
    <mxGraphModel dx="1434" dy="875" grid="1" gridSize="10" guides="1" tooltips="1" connect="1" arrows="1" fold="1" page="1" pageScale="1" pageWidth="1169" pageHeight="827" math="0" shadow="0">
      <root>
        <mxCell id="0" />
        <mxCell id="1" parent="0" />
        <mxCell id="YuigB9lIJlG0n0kZsv7W-65" value="" style="rounded=0;whiteSpace=wrap;html=1;" parent="1" vertex="1">
          <mxGeometry width="1160" height="760" as="geometry" />
        </mxCell>
        <mxCell id="YuigB9lIJlG0n0kZsv7W-3" style="edgeStyle=orthogonalEdgeStyle;rounded=0;orthogonalLoop=1;jettySize=auto;html=1;entryX=0;entryY=0.5;entryDx=0;entryDy=0;" parent="1" source="YuigB9lIJlG0n0kZsv7W-7" target="YuigB9lIJlG0n0kZsv7W-8" edge="1">
          <mxGeometry relative="1" as="geometry" />
        </mxCell>
        <mxCell id="YuigB9lIJlG0n0kZsv7W-4" style="edgeStyle=orthogonalEdgeStyle;rounded=0;orthogonalLoop=1;jettySize=auto;html=1;entryX=0;entryY=0.5;entryDx=0;entryDy=0;" parent="1" source="YuigB9lIJlG0n0kZsv7W-7" target="YuigB9lIJlG0n0kZsv7W-9" edge="1">
          <mxGeometry relative="1" as="geometry">
            <Array as="points">
              <mxPoint x="82" y="107" />
              <mxPoint x="22" y="107" />
              <mxPoint x="22" y="227" />
            </Array>
          </mxGeometry>
        </mxCell>
        <mxCell id="YuigB9lIJlG0n0kZsv7W-5" style="edgeStyle=orthogonalEdgeStyle;rounded=0;orthogonalLoop=1;jettySize=auto;html=1;entryX=0;entryY=0.5;entryDx=0;entryDy=0;" parent="1" source="YuigB9lIJlG0n0kZsv7W-7" target="YuigB9lIJlG0n0kZsv7W-34" edge="1">
          <mxGeometry relative="1" as="geometry">
            <Array as="points">
              <mxPoint x="82" y="107" />
              <mxPoint x="22" y="107" />
              <mxPoint x="22" y="307" />
            </Array>
          </mxGeometry>
        </mxCell>
        <mxCell id="YuigB9lIJlG0n0kZsv7W-6" style="edgeStyle=orthogonalEdgeStyle;rounded=0;orthogonalLoop=1;jettySize=auto;html=1;entryX=0;entryY=0.5;entryDx=0;entryDy=0;" parent="1" source="YuigB9lIJlG0n0kZsv7W-7" target="YuigB9lIJlG0n0kZsv7W-12" edge="1">
          <mxGeometry relative="1" as="geometry" />
        </mxCell>
        <mxCell id="YuigB9lIJlG0n0kZsv7W-7" value="File Common Property" style="rounded=1;whiteSpace=wrap;html=1;fillColor=#60a917;fontColor=#ffffff;strokeColor=#2D7600;" parent="1" vertex="1">
          <mxGeometry x="2" y="47" width="160" height="40" as="geometry" />
        </mxCell>
        <mxCell id="YuigB9lIJlG0n0kZsv7W-8" value="Common" style="rounded=1;whiteSpace=wrap;html=1;" parent="1" vertex="1">
          <mxGeometry x="42" y="127" width="120" height="40" as="geometry" />
        </mxCell>
        <mxCell id="YuigB9lIJlG0n0kZsv7W-9" value="Redis" style="rounded=1;whiteSpace=wrap;html=1;" parent="1" vertex="1">
          <mxGeometry x="42" y="207" width="120" height="40" as="geometry" />
        </mxCell>
        <mxCell id="YuigB9lIJlG0n0kZsv7W-10" style="edgeStyle=orthogonalEdgeStyle;rounded=0;orthogonalLoop=1;jettySize=auto;html=1;entryX=0;entryY=0.5;entryDx=0;entryDy=0;" parent="1" source="YuigB9lIJlG0n0kZsv7W-12" target="YuigB9lIJlG0n0kZsv7W-17" edge="1">
          <mxGeometry relative="1" as="geometry" />
        </mxCell>
        <mxCell id="YuigB9lIJlG0n0kZsv7W-11" style="edgeStyle=orthogonalEdgeStyle;rounded=0;orthogonalLoop=1;jettySize=auto;html=1;entryX=0;entryY=0.5;entryDx=0;entryDy=0;" parent="1" source="YuigB9lIJlG0n0kZsv7W-12" target="YuigB9lIJlG0n0kZsv7W-38" edge="1">
          <mxGeometry relative="1" as="geometry" />
        </mxCell>
        <mxCell id="YuigB9lIJlG0n0kZsv7W-12" value="&lt;span style=&quot;color: rgb(240, 240, 240);&quot;&gt;File Module Property&lt;/span&gt;" style="rounded=1;whiteSpace=wrap;html=1;fillColor=#60a917;fontColor=#ffffff;strokeColor=#2D7600;" parent="1" vertex="1">
          <mxGeometry x="202" y="47" width="160" height="40" as="geometry" />
        </mxCell>
        <mxCell id="YuigB9lIJlG0n0kZsv7W-13" style="edgeStyle=orthogonalEdgeStyle;rounded=0;orthogonalLoop=1;jettySize=auto;html=1;entryX=0;entryY=0.5;entryDx=0;entryDy=0;" parent="1" source="YuigB9lIJlG0n0kZsv7W-17" target="YuigB9lIJlG0n0kZsv7W-35" edge="1">
          <mxGeometry relative="1" as="geometry" />
        </mxCell>
        <mxCell id="YuigB9lIJlG0n0kZsv7W-14" style="edgeStyle=orthogonalEdgeStyle;rounded=0;orthogonalLoop=1;jettySize=auto;html=1;entryX=0;entryY=0.5;entryDx=0;entryDy=0;" parent="1" source="YuigB9lIJlG0n0kZsv7W-17" target="YuigB9lIJlG0n0kZsv7W-20" edge="1">
          <mxGeometry relative="1" as="geometry" />
        </mxCell>
        <mxCell id="YuigB9lIJlG0n0kZsv7W-15" style="edgeStyle=orthogonalEdgeStyle;rounded=0;orthogonalLoop=1;jettySize=auto;html=1;entryX=0;entryY=0.5;entryDx=0;entryDy=0;" parent="1" source="YuigB9lIJlG0n0kZsv7W-17" target="YuigB9lIJlG0n0kZsv7W-40" edge="1">
          <mxGeometry relative="1" as="geometry">
            <Array as="points">
              <mxPoint x="482" y="107" />
              <mxPoint x="422" y="107" />
              <mxPoint x="422" y="227" />
            </Array>
          </mxGeometry>
        </mxCell>
        <mxCell id="YuigB9lIJlG0n0kZsv7W-16" style="edgeStyle=orthogonalEdgeStyle;rounded=0;orthogonalLoop=1;jettySize=auto;html=1;entryX=0;entryY=0.5;entryDx=0;entryDy=0;" parent="1" source="YuigB9lIJlG0n0kZsv7W-17" target="YuigB9lIJlG0n0kZsv7W-45" edge="1">
          <mxGeometry relative="1" as="geometry">
            <Array as="points">
              <mxPoint x="482" y="107" />
              <mxPoint x="422" y="107" />
              <mxPoint x="422" y="307" />
            </Array>
          </mxGeometry>
        </mxCell>
        <mxCell id="YuigB9lIJlG0n0kZsv7W-17" value="&lt;span style=&quot;color: rgb(240, 240, 240);&quot;&gt;File Group Test Property&lt;/span&gt;" style="rounded=1;whiteSpace=wrap;html=1;fillColor=#60a917;fontColor=#ffffff;strokeColor=#2D7600;" parent="1" vertex="1">
          <mxGeometry x="402" y="47" width="160" height="40" as="geometry" />
        </mxCell>
        <mxCell id="YuigB9lIJlG0n0kZsv7W-18" style="edgeStyle=orthogonalEdgeStyle;rounded=0;orthogonalLoop=1;jettySize=auto;html=1;entryX=0;entryY=0.5;entryDx=0;entryDy=0;" parent="1" source="YuigB9lIJlG0n0kZsv7W-20" target="YuigB9lIJlG0n0kZsv7W-37" edge="1">
          <mxGeometry relative="1" as="geometry" />
        </mxCell>
        <mxCell id="YuigB9lIJlG0n0kZsv7W-19" style="edgeStyle=orthogonalEdgeStyle;rounded=0;orthogonalLoop=1;jettySize=auto;html=1;entryX=0;entryY=0.5;entryDx=0;entryDy=0;" parent="1" source="YuigB9lIJlG0n0kZsv7W-20" target="YuigB9lIJlG0n0kZsv7W-27" edge="1">
          <mxGeometry relative="1" as="geometry" />
        </mxCell>
        <mxCell id="YuigB9lIJlG0n0kZsv7W-20" value="&lt;span style=&quot;color: rgb(240, 240, 240);&quot;&gt;File Test Property&lt;/span&gt;" style="rounded=1;whiteSpace=wrap;html=1;fillColor=#60a917;fontColor=#ffffff;strokeColor=#2D7600;" parent="1" vertex="1">
          <mxGeometry x="602" y="47" width="160" height="40" as="geometry" />
        </mxCell>
        <mxCell id="YuigB9lIJlG0n0kZsv7W-21" style="edgeStyle=orthogonalEdgeStyle;rounded=0;orthogonalLoop=1;jettySize=auto;html=1;entryX=0;entryY=0.5;entryDx=0;entryDy=0;" parent="1" source="YuigB9lIJlG0n0kZsv7W-27" target="YuigB9lIJlG0n0kZsv7W-33" edge="1">
          <mxGeometry relative="1" as="geometry" />
        </mxCell>
        <mxCell id="YuigB9lIJlG0n0kZsv7W-22" style="edgeStyle=orthogonalEdgeStyle;rounded=0;orthogonalLoop=1;jettySize=auto;html=1;entryX=0;entryY=0.5;entryDx=0;entryDy=0;" parent="1" source="YuigB9lIJlG0n0kZsv7W-27" target="YuigB9lIJlG0n0kZsv7W-39" edge="1">
          <mxGeometry relative="1" as="geometry" />
        </mxCell>
        <mxCell id="YuigB9lIJlG0n0kZsv7W-23" style="edgeStyle=orthogonalEdgeStyle;rounded=0;orthogonalLoop=1;jettySize=auto;html=1;entryX=0.5;entryY=0;entryDx=0;entryDy=0;strokeColor=#FF0000;" parent="1" source="YuigB9lIJlG0n0kZsv7W-27" target="YuigB9lIJlG0n0kZsv7W-20" edge="1">
          <mxGeometry relative="1" as="geometry">
            <Array as="points">
              <mxPoint x="882" y="27" />
              <mxPoint x="682" y="27" />
            </Array>
          </mxGeometry>
        </mxCell>
        <mxCell id="YuigB9lIJlG0n0kZsv7W-24" style="edgeStyle=orthogonalEdgeStyle;rounded=0;orthogonalLoop=1;jettySize=auto;html=1;entryX=0.5;entryY=0;entryDx=0;entryDy=0;strokeColor=#FF3333;" parent="1" source="YuigB9lIJlG0n0kZsv7W-27" target="YuigB9lIJlG0n0kZsv7W-17" edge="1">
          <mxGeometry relative="1" as="geometry">
            <Array as="points">
              <mxPoint x="882" y="27" />
              <mxPoint x="482" y="27" />
            </Array>
          </mxGeometry>
        </mxCell>
        <mxCell id="YuigB9lIJlG0n0kZsv7W-25" style="edgeStyle=orthogonalEdgeStyle;rounded=0;orthogonalLoop=1;jettySize=auto;html=1;entryX=0.5;entryY=0;entryDx=0;entryDy=0;strokeColor=#FF0000;" parent="1" source="YuigB9lIJlG0n0kZsv7W-27" target="YuigB9lIJlG0n0kZsv7W-12" edge="1">
          <mxGeometry relative="1" as="geometry">
            <Array as="points">
              <mxPoint x="882" y="27" />
              <mxPoint x="282" y="27" />
            </Array>
          </mxGeometry>
        </mxCell>
        <mxCell id="YuigB9lIJlG0n0kZsv7W-26" style="edgeStyle=orthogonalEdgeStyle;rounded=0;orthogonalLoop=1;jettySize=auto;html=1;entryX=0.5;entryY=0;entryDx=0;entryDy=0;strokeColor=#FF0000;" parent="1" source="YuigB9lIJlG0n0kZsv7W-27" target="YuigB9lIJlG0n0kZsv7W-7" edge="1">
          <mxGeometry relative="1" as="geometry">
            <Array as="points">
              <mxPoint x="882" y="27" />
              <mxPoint x="82" y="27" />
            </Array>
          </mxGeometry>
        </mxCell>
        <mxCell id="YuigB9lIJlG0n0kZsv7W-27" value="&lt;span style=&quot;color: rgb(240, 240, 240);&quot;&gt;System Common Property&lt;/span&gt;" style="rounded=1;whiteSpace=wrap;html=1;fillColor=#6a00ff;fontColor=#ffffff;strokeColor=#3700CC;" parent="1" vertex="1">
          <mxGeometry x="802" y="47" width="160" height="40" as="geometry" />
        </mxCell>
        <mxCell id="YuigB9lIJlG0n0kZsv7W-28" style="edgeStyle=orthogonalEdgeStyle;rounded=0;orthogonalLoop=1;jettySize=auto;html=1;entryX=0;entryY=0.5;entryDx=0;entryDy=0;" parent="1" source="YuigB9lIJlG0n0kZsv7W-33" target="YuigB9lIJlG0n0kZsv7W-41" edge="1">
          <mxGeometry relative="1" as="geometry" />
        </mxCell>
        <mxCell id="YuigB9lIJlG0n0kZsv7W-29" style="edgeStyle=orthogonalEdgeStyle;rounded=0;orthogonalLoop=1;jettySize=auto;html=1;entryX=0.5;entryY=0;entryDx=0;entryDy=0;strokeColor=#FF0000;" parent="1" source="YuigB9lIJlG0n0kZsv7W-33" target="YuigB9lIJlG0n0kZsv7W-20" edge="1">
          <mxGeometry relative="1" as="geometry">
            <Array as="points">
              <mxPoint x="1082" y="7" />
              <mxPoint x="682" y="7" />
            </Array>
          </mxGeometry>
        </mxCell>
        <mxCell id="YuigB9lIJlG0n0kZsv7W-30" style="edgeStyle=orthogonalEdgeStyle;rounded=0;orthogonalLoop=1;jettySize=auto;html=1;entryX=0.5;entryY=0;entryDx=0;entryDy=0;strokeColor=#FF0000;" parent="1" source="YuigB9lIJlG0n0kZsv7W-33" target="YuigB9lIJlG0n0kZsv7W-17" edge="1">
          <mxGeometry relative="1" as="geometry">
            <Array as="points">
              <mxPoint x="1082" y="7" />
              <mxPoint x="482" y="7" />
            </Array>
          </mxGeometry>
        </mxCell>
        <mxCell id="YuigB9lIJlG0n0kZsv7W-31" style="edgeStyle=orthogonalEdgeStyle;rounded=0;orthogonalLoop=1;jettySize=auto;html=1;entryX=0.5;entryY=0;entryDx=0;entryDy=0;strokeColor=#FF0000;" parent="1" source="YuigB9lIJlG0n0kZsv7W-33" target="YuigB9lIJlG0n0kZsv7W-12" edge="1">
          <mxGeometry relative="1" as="geometry">
            <Array as="points">
              <mxPoint x="1082" y="7" />
              <mxPoint x="282" y="7" />
            </Array>
          </mxGeometry>
        </mxCell>
        <mxCell id="YuigB9lIJlG0n0kZsv7W-32" style="edgeStyle=orthogonalEdgeStyle;rounded=0;orthogonalLoop=1;jettySize=auto;html=1;entryX=0.5;entryY=0;entryDx=0;entryDy=0;strokeColor=#FF0000;" parent="1" source="YuigB9lIJlG0n0kZsv7W-33" target="YuigB9lIJlG0n0kZsv7W-7" edge="1">
          <mxGeometry relative="1" as="geometry">
            <Array as="points">
              <mxPoint x="1082" y="7" />
              <mxPoint x="82" y="7" />
            </Array>
          </mxGeometry>
        </mxCell>
        <mxCell id="YuigB9lIJlG0n0kZsv7W-33" value="&lt;span style=&quot;color: rgb(240, 240, 240);&quot;&gt;System Test Property&lt;/span&gt;" style="rounded=1;whiteSpace=wrap;html=1;fillColor=#6a00ff;fontColor=#ffffff;strokeColor=#3700CC;" parent="1" vertex="1">
          <mxGeometry x="998" y="47" width="160" height="40" as="geometry" />
        </mxCell>
        <mxCell id="YuigB9lIJlG0n0kZsv7W-34" value="..." style="rounded=1;whiteSpace=wrap;html=1;" parent="1" vertex="1">
          <mxGeometry x="42" y="287" width="120" height="40" as="geometry" />
        </mxCell>
        <mxCell id="YuigB9lIJlG0n0kZsv7W-35" value="Group Test 1" style="rounded=1;whiteSpace=wrap;html=1;" parent="1" vertex="1">
          <mxGeometry x="442" y="127" width="120" height="40" as="geometry" />
        </mxCell>
        <mxCell id="YuigB9lIJlG0n0kZsv7W-37" value="Test 1" style="rounded=1;whiteSpace=wrap;html=1;" parent="1" vertex="1">
          <mxGeometry x="642" y="127" width="120" height="40" as="geometry" />
        </mxCell>
        <mxCell id="YuigB9lIJlG0n0kZsv7W-38" value="Module 1" style="rounded=1;whiteSpace=wrap;html=1;" parent="1" vertex="1">
          <mxGeometry x="242" y="127" width="120" height="40" as="geometry" />
        </mxCell>
        <mxCell id="YuigB9lIJlG0n0kZsv7W-39" value="Module 1" style="rounded=1;whiteSpace=wrap;html=1;" parent="1" vertex="1">
          <mxGeometry x="837" y="127" width="120" height="40" as="geometry" />
        </mxCell>
        <mxCell id="YuigB9lIJlG0n0kZsv7W-40" value="Group Test 2" style="rounded=1;whiteSpace=wrap;html=1;" parent="1" vertex="1">
          <mxGeometry x="442" y="207" width="120" height="40" as="geometry" />
        </mxCell>
        <mxCell id="YuigB9lIJlG0n0kZsv7W-41" value="Test 1" style="rounded=1;whiteSpace=wrap;html=1;" parent="1" vertex="1">
          <mxGeometry x="1035" y="127" width="120" height="40" as="geometry" />
        </mxCell>
        <mxCell id="YuigB9lIJlG0n0kZsv7W-45" value="..." style="rounded=1;whiteSpace=wrap;html=1;" parent="1" vertex="1">
          <mxGeometry x="442" y="287" width="120" height="40" as="geometry" />
        </mxCell>
        <mxCell id="YuigB9lIJlG0n0kZsv7W-49" value="CI-CD Jenkins, Gitlab" style="text;html=1;align=center;verticalAlign=middle;whiteSpace=wrap;rounded=0;strokeColor=default;" parent="1" vertex="1">
          <mxGeometry x="902" y="9" width="160" height="20" as="geometry" />
        </mxCell>
        <mxCell id="YuigB9lIJlG0n0kZsv7W-53" style="edgeStyle=orthogonalEdgeStyle;rounded=0;orthogonalLoop=1;jettySize=auto;html=1;entryX=0.501;entryY=0.035;entryDx=0;entryDy=0;entryPerimeter=0;" parent="1" source="YuigB9lIJlG0n0kZsv7W-49" target="YuigB9lIJlG0n0kZsv7W-27" edge="1">
          <mxGeometry relative="1" as="geometry">
            <Array as="points">
              <mxPoint x="882" y="19" />
            </Array>
          </mxGeometry>
        </mxCell>
        <mxCell id="YuigB9lIJlG0n0kZsv7W-55" value="COMMON_SETTINGS" style="edgeLabel;html=1;align=center;verticalAlign=middle;resizable=0;points=[];fontSize=10;" parent="YuigB9lIJlG0n0kZsv7W-53" vertex="1" connectable="0">
          <mxGeometry x="-0.4904" y="-1" relative="1" as="geometry">
            <mxPoint x="-49" as="offset" />
          </mxGeometry>
        </mxCell>
        <mxCell id="YuigB9lIJlG0n0kZsv7W-68" style="edgeStyle=orthogonalEdgeStyle;rounded=0;orthogonalLoop=1;jettySize=auto;html=1;entryX=0.527;entryY=0.018;entryDx=0;entryDy=0;entryPerimeter=0;" parent="1" source="YuigB9lIJlG0n0kZsv7W-49" target="YuigB9lIJlG0n0kZsv7W-33" edge="1">
          <mxGeometry relative="1" as="geometry">
            <Array as="points">
              <mxPoint x="1082" y="20" />
              <mxPoint x="1082" y="27" />
              <mxPoint x="1082" y="27" />
            </Array>
          </mxGeometry>
        </mxCell>
        <mxCell id="YuigB9lIJlG0n0kZsv7W-69" value="&lt;span style=&quot;font-size: 10px;&quot;&gt;TEST_SETTINGS&lt;/span&gt;" style="edgeLabel;html=1;align=center;verticalAlign=middle;resizable=0;points=[];" parent="YuigB9lIJlG0n0kZsv7W-68" vertex="1" connectable="0">
          <mxGeometry x="-0.5376" y="-1" relative="1" as="geometry">
            <mxPoint x="37" y="-2" as="offset" />
          </mxGeometry>
        </mxCell>
        <mxCell id="ekqCBltRWSEwKB1lwB7P-1" value="" style="shape=image;verticalLabelPosition=bottom;labelBackgroundColor=default;verticalAlign=top;aspect=fixed;imageAspect=0;image=data:image/png,iVBORw0KGgoAAAANSUhEUgAAATQAAACyCAIAAABDfaS5AAAACXBIWXMAAA7EAAAOxAGVKw4bAAAgAElEQVR4nO3deXwUVbY48HOrekt30kmnu7MvQAiELexhlU1QQQVEHcURfgw6OgwqyriOC28cdx3HbZ4640/HNzLIzMgDcUEdFlkcZQmQBLLve3pJOt3ptaru+yMJJNCdtaCrw/l+8uGTFPeeul3dp29VddVpkpI6AhBC0iMDgLB4RbCHgVAHV7032EOQCibYA0AI+YfJiZBEYXIiJFGYnAhJFCYnQhKFyYmQRGFyIiRRmJwISRQmJ0IShcmJkERhciIkUZicCEkUJidCEiUbQJ+Y8NRbJz88XJ/5XcHHALAk4/+VW3L+efK1Jkel2MND6MrFRkbp5BFsv/psmPtmpfXM+0c2F5qOlZpPfl+8PU47fGH66h/Kd16iUV7hSGTWmrtXRFdlV7TRgUVgdDPWrr8xoiK7yjnACJcN5+CDPQSp6PduLcvIEyJHfl/6Dw/val/i4V37iz9NiBwpY+RiD++KxaZe+8wzN6R1PD2U43wcRweeV1TgfT4vf7kSM06fpI80dl2ijzTG6ZMu0+qHigEecwq029sbBaFv/ViVLiFWq2QvXBhnUHdZRuQarUZBGFVUQkK0hgEAIEptQrxBI+tjg14iE0VEXLxBq+jh0Xe0BLk2PsGgYS9czqr1qck6ZW8ruqj7+fbxxogu6+8eVqaKNCSkpcXHRms1SgaoPffzT7ceMwsBuwMAAKOIjI1PiFL52Q+irad3bd+ebRV6bDmIzdWd2+PMHD1dHxXT/qchKiZz9HS3x9nX/ggABnDMqVFoKaU+3tN1oZdzU0rVishWtzlQR1Xq8gcf+MVUVatdoYXCv734zo5iN6hSlz+0af1Uld2pjBSKt7/2p7/n2Sko525+60bbPpo52RAWrWvZ+8Y/hOVrp0bKIo2Q+9bjb35br+itgdBTZMs33imz4pgwY3jjZ8+/8NFpv3t6yrmb31xWt8s5+9oRDERGtB15/403vqvxgHLu5rdWtB2WT8uKrN3z7GM7ihSBVuS3e8d2WDdF5XAqwj15H7/2/ufFbto97HMfkXvumx2rJxueTzu19YXXD3rnbn7r+uyHHvmymfrvDsrh1zz221UZXmubVs/mbH3q9YN1/AUPpyOCwm/LwW6u7loc1pP5P00eMyOn6DgATBg17WT+Ty0Oa99eYqhD/5Jz9ZTfxmlH7Cv+xOlt7brc5bPvK/7krpkvNbSWbct+wd96xvz8gbXafb9Z82WZW550w2/+uHl5zsb/Vdy5aU3E3s13flnmliUs2vjqYz8v3fD+jw4AYNNTWh+876FSLv62l1995OZdmzY+VOSNXPj4y2uuG773o9reGlSNDhw5YxS/+YFNBU5F2uqn/7ju6m8e3l3r/yhHPnHBsFcfvX9LPa9Jv+n55++/rey3/1MKAOzI5NZH7rk330EB5GMDrshvdzLmjvtXy796cM3eKo88cemm1x++qfDX2wr4C8LCIy8q/vKE4o+//jiXBwDV+c3ot7sQMX/dauO3T675Zx2vSL7h7sUZsYfr6vztzRC/LdnAj6Lvm6u7FrvlVMHRSRlZAHC68KcWu6UPnVA3/dutbXY1AQAhfnac2he2N7gYO3LhHPn+bd+UuQHAV/PFK7ff/1kZSVswW37w0/aFXN33O762TV0wob2eEV965Ei5G4BrKihtaco9VeoGEOyFhSadUcf02oDtIbJQeuhgkZMCeCqO5jQa4+JIoEfL1+3bva+eA6BtxV/987hu9owEFgCAL/l+f6GDAgD0tCJ/3dm0hVfJjuw57YyINhgiPCd/zNFmTktqfxK6hA0kUHfqa2nxGCdMn5aqVfiqv/jvj/b5zUwA/y3F2VxIbP2bOffkf3C49F+/W7Z7X9FWp9d2brlaoV04cvWWr250eFv8dmQj9ZEt+ecPmgSeA1Bo9drms6bOhby50SyfqAsj4AYAzst1vk4pf+5MBqUAHa+OnhqwPUSmHrenozXH+QgT+O2JWs22zrg+s6lVG6UFMAEA5+tcdY8r8tOdDdfrdJn3Pj7p3OTTYi1VdD6ic2EDYaMCdHcf++APW9euuuv5VQlQe2zPv97blt3of37z11KczdVdVIR+UkZW+27txNEzTubj5Nlv/T7mdHFthBA5261gn5xVEkLcXFugXrzNYotOjGWhXgAAIDJVGOvztFpadQlGpmMha4wz+CzNLgqDfnPmRYlMjHHRDLS/oyhi4yJtFbYLm/S0In/ded5ibf73a4+9X3BB6vg7z31xpvK2AN2B2ot3/+nl3X9iw1Nnbnjmvo31D27Z2+o31f20PCD2ExEVHj15zIzcouOWliYAyC06PnnMjJNnf8TDzn7p99la0vGvn+fN78J2fMn+I555q68fpSYAipQbHv3bi0uToGT/Yc/81UvTwwiAPHHRzUu1J/bleALF6AdelMhs7MIVS5MVAEzE+JW3TTEd/qH+wpzoaUX+uvOlB47wV99xzYgwAsBoM1e//NLNY5UXrxrA4/VFxCbpuh9ABOrOJizf8rtNM7QM8I7GBouLUShYAEY3fvHPFg3TdH1W/LYUZ3N1oVKqcwqPmVs6jnHMLU05hcdUSvXAI16R+j1zcoLP7KiZkXrDvqJPfIIXAOSMYuawG02O6vY/A3TL3/rWR5s2vvS3ZW4nE+bK/fClryt5Dra+9dGm+17eutzrkYU5z/z9pb8dCzj59m+U+SJE5s7sL5749Ntr1Ixaad3/7hv/rOQvmuJ6WJHf7vzZrW9+fN/GV/620m2HCIXpu3ffKvSXBXzN95/+OGfzxx9d/d5Dj+4+N3RfgO4NR74uWbzpj9vcdiFCYz/+ycv7minIh8+/6c4x+04eqCg+N4fyfluCGJuriwZLzQVLLDbTIOJdoUhK6oj+FpVOiky/ZfIjKbqx3+R/CADXjllfaT372alXa2zFva5OEaEP51uanV2ProgiQhfms9ncol8a0rfIYUv+6y+Pz+ySdXzjZ48+nr/qv6/PfujRPS6tTuFubu05xEUrUi18+r0euhOZJjqKbeslLGFVYXKv033RyR3/3RmVTh8O9ubm80sZlhV4HgDClmx59+qfHnhiTyv139LvowgGLCp9zkCura2xFb9x4J5zf35T8GGfu1Kv3XzRYQf12q2X5gnpW2TX3mfXHei6/0hB4GXzVgEAUN7dYnYPeEWBulOuzRLwE+GuvZ1+88R/d8HdbLpgXQLPAxD1iKtWLR3TUrC98+o/Py0BLuUTgQZiIMk55AgCJ1w0O5nOHjs98DdxbnDdRUXUScMVJ9/7w2eFeNVqSBnIbi1Clw7u1p6D93MiJFGYnAhJFCYnQhKFyYmQRGFyIiRRmJwISRQmJ0IShcmJkETJACBBnxwXndzDPSUIXQYUaIO1urS+NNgDkQoGAOJ1KZiZKOgIkHhdSrBHISG4W4uQRMkAoLGxXm8wymR4ETwKJo7jLGZTYhJOnh1ISuqIYI9hsPTGGIupCQDSR2X4bVBcVHB5R4SQCHC3FiGJwuRESKIwORGSKExOhCRq6CYnYZXh2gg1noJGoWpovnYZw6TlNy8eo5N7z/zrjd291gRESIpESk6i1CaMTDKG8015RXUD/YZX0bApU+eN0bmKvt+TU16HRa1QiBIjOUlY9IgMg9DQZJVFixBOBIIgUN5UeDKvuPeqlghJlDjHnFxzcVlFg/OyfXNyLwSH3SEQTUQ4XjCMQpgYMyd1tVoBgAS/wCajCI9QyxhFvEHDkLa+ft02QpI0tE4IaSfedO+SJAYo11q6b88xq0RmcoQGYmglp6PkwA5bGKtKnLJoxrwF4wu3n/L/NXgIhYChlZxcc3VxMwBp0k7KStKEqwBagz0khAZKlBNChBBCGMIQAoRhGEKCfCKGCY/QEHC0OoI7DIQGRZSPUiLix2Xo5e0ZOXZsDHXV55Y2uIK4QylXKAhExCYadXXNLW2+4A0EoYET5Wxta13e0ToRAolFqDuT1zQ2a9otd2Xm4RVCKFQNrWPODtRTtfev7+YkxkUpnHiFEApVQzI5AQB4p6mqDL/qHIWwoXtXCkIhDpMTIYnC5ERIoobUMSdW2UNDCc6cCEkUJidCEoXJiZBEYXIiJFGYnOgSYONmrH3q1Xc/fOWOUWywxxK6htTZWiQRYVNvuXNcw0dPvnLS6sUbagdMnORkwowJyUmRahn12q21ZY22kHlKGO01z944M+er57+M3vDeZOvLO/6eJwCQ2OVLt/zcwAJQQXBZzKd2Hdv+b4ubdlnOc601dQe3Hv3qtFMAAEaVsXLmrdclxGsEa2HZzr8cP17fQxxQz1v4ysZk+blhcE3bH/hmnwX8x5clrH336jnarjfiCQUf7HjjOyc7be4fHh6h6vwfPv/Y08/mW4RA8SkwYWNumnHLkoQ4NW/KL975wclTJhp4OwwQkavVbEtxVXPIvAykSZRbxtSGlCRZc3FhqZuNTB2WkuLOL2nhRAh8OfA+H+V9lHI8Jwh8lxJlvuNHHn693E1Y/fgJ6zfNv6l+17Y84dxyj0yRNH/mhgdmNj+y/4iVqqZOXb8Yvnh+x49NsozVC9ffM7ri9/lmIVAcHgD44uznO9sAFXiOApAA8es/2bB1GyHK2fNeWGZ9dUteA08FXqAAXPaR39z5H/VVC55bZnn96dwan8B15pS/+BA2der6RcKuFz87alJOWLNw3Qbnc88VmIWetsMAUJfdQcPDNQyY8baDQRDjmJPIqLO+yeTgeM7TbLJTtUopQtTLg/Kcj3KcQHmBEwSO6zI7USrwgsD5TDmFP1WoUkdomC7LeY+7cl/RGV4/PIkAMMbh0YrC8v9Uur0uR973tbZUfSLTWxwQOB/va//hqNB9vd3jU4ETfD7exwFQgfPyPp/At3cQKMfxHC8ApZyP57ol1cXxiTZeqyivOV7p8Tpbs7cd+uALk6fX7UC0M375h7+89dvrk/t8+Cg421yqCHVfmyP/xEhOodVU3eCkAABEoQkjbrdHhKiXB+Ws5U0VTV6gzpozpkZ/9bBVSSmZSb6GGlf3/TwSNSklXdlaW08BgGEZSoWOzoIgMMzFGzZAnEC6xRcJNZ+urs+YsHblsPQEFdtqzcu22Dum1h62g89uqa+vb2xx93EkRGlMimEbakxY/XBwRD0hxITpk+PBVGgLlX1aAODObNt7BgDAvec1c9f/kE/Keu7P0yhhwxSe4q8O/+8pX/tuZ/tyYGVhYD/20cHDpo7d0UD8xQEAYNOnPbdtWvvv7iP7f/NWNdelfff4A+E3Pl+Z9/aLziVL02+/bpbB27T3gx9257SXrAi4HYC6zu547Zk+rTNszv1v3jtZJnhMJ//59kEzHnEOjnjJSVRRKaP0XFW53+kn9HBnTr78bqVHoJ42j4e/YHmNcfniuxMKdh609VoDJVAcvvj47545e/Hs0t/4gQSIT9tKS3e+U7qTyOIXzdm0cWrVQ4dPOQe6jgu5jrx9zxEgCuP8+566e1nx73dW4zHnIIj0OSdRaJNHxTENlVXmoXKGjvp89hZ3a2u3jOpc3pb/ZX7FqLGL0jq2n8ALhDAdEyjDEF4QeovT43ovjC8SNmXB5EXjVQQAKFd/sKxYrks2iv5RN/VaTc2COjxM7MBXGlGeGZkmflS8ylxVZfIAQwjpcTdvaKCWsm8OM3OWD9MSABBM5Vbv6OGzUpUKVfi4eYlR1Zba3g+4GJmclbf/yMgFT0T3+D3EIDIZK2MZIEQmZ2Vs19YXx6eCIXHF2omTk5QymXLYkvTRXmtVr0eGJGzsqod/98Rdc/qexorIKKWjGWsGD5I41feiDRoFq0mbkAwAAIKt/HhVy1B/ZrjirwrqXxw7P6V8dyV1n8j+67CZtz51y2o1by0q3/Z+obm31zybPuW//mdKZ7COzzkDxQ8URDZlTufnnIlPfJx57nPOAPGFms8PfaKZvmLLLb/UCK2VtXvfPJHT+z6tPEIfnxCviFL19T2XyFgWlNGGcFljKzfUXweXEElJHRHsMQyW3hhjMTUFexToPBKWtmTduqUTE30HX3ri70V44DkwmJwISRRe+I6QRGFyIiRRmJwISRQmJ0ISdYUmp94YE+whINSLKzQ5EZI+TE6EJAqTEyGJwuRESKIwORGSKExOhCRKlLtStAnjMvTyjnsWqK+x4kyFY4jejHBJq/UFrrJH/Vf3AyDKtOuzbluWnBQJrRWV33x49ECpjwaKDwCy5Lv+MsXy3O6dpUIfHlf/EWP6nM0pprf3lSXMXLzMdez5U2YegAlPu2+h7vDXx7P91MhgMqdfu9h+5I2CVqFPy/ux3hAnRnLS1vozx+qBAlHrh6dr28zOIZqZAJe2Wh8XsMpeoOp+inGT7lqhOvj6ztfLIXHZ3I2bJtVsPlbMBWw/gMfVTz6ep4LAg8AJlBeEy/ZKCNZ6LyVxypRQSoGoolNHRrnLKxocQ7iwk58qdZ2vg/YqeyCYcgp/qsiYOULD5NnPLed5d+W+ojO3zBmeRI5YiXF4tKIw5z+Vbh9A3ve1tif1iQyYBSpwVABgzlXZ69iSTID2JHJYtKak6GC+0w1Q9vXJnQqdoADgArUf0OMi2hl3b7l7gmXnqy9/2WvZEcoJAhV4HignAC/Q83sBRJY8ctrVaQYduAoKT28vafGAMmvO1T+LaT+ymvfKGACgZTl73y2l0/0vd5PwtPsWxVQVuRPiI/VKWl16+tPiFnfP6w1hYtUQInLD8HgtaTOpFDI7N3TvsO1epc7RQ7W+3f6r9e2vpwCkL9X6ugrUnmEI8B1lNanLdPBTU8/tB/S42qvvNfet+p7PZStvdrkptdvMFV7f+S4kPNp79J2vTihixv8ya/zsxiP77Z5jP+zJZpgJU5csdPzwTqFdABAEgQIEWk4AADRq+6n3ClwkfNhd8zPnNR361kZ7Wm8IEys5KW+rqvQoVdFJqcPZspJ6z5DYOn5c8mp9QSJK9T0A8DQWfNAIAOAoOl7ZLUxrbk2ri4KrqbbYGx+jBrADpQLHA08BBMp1rbsUYDkAANgKm1wCALRZK90ZMRoCNtrTekOYaNX3BG+bw9vmcBD1uBiNvMEzVOp89ZlY1fqGKip0JhnlBUpIlx3n/sWh9PyBBDCMBN/oxCLGRykyrSFer2zfSFSgcGGxqiuDWNX6/ArUXhAosB3bm4QZ590+Kk09kPghhJzfRScEhsipH/9EqfhOVPqkGF0Yy8hU0Ua14HQN3WPOgRpctb5A7amtwto2csS8DI1KFTbiuskrZ0cy3t7js2xnVT45w/b6ChhA9b1+oR6OU4drwmWMjO06EQZarp2QHKkmRBMdn6F2NvblMzvZ6Fuf2fKLGRGhNsmKsVsr2BoqzUlJY8ekMILbZq6oaRsyb9MiGlS1vkDtvWdO/f9dM25/cPlyLdgrar58+3QJ11N7AAAm8prfr76m4w9avf2LF3Y097jyflff6x9aWlpUmZX51I1yBoS849/+taP0faDlrU1M2oalMQbiLiw4fagP9TeZmLQxqcp8U8h9wneFFvjCmmAhqceLGQJSTr/39XW+Pz/04WnvJRvZJXFFHh6iKwkbk5zIVBSXhd6pOJw5EZIonDkRkihMToQkCpMTIYnC5ERIojA5EZIoTE6EJAqTEyGJwuRESKIwORGSKExOhCSKjYzSiRWLiRg+Kl3ntbZc5hut1RqNy9l2qbu0Y7TX/P6WnxtqDlckbvzw6pHFBblNFIDELl/24krh+x+afQDs2KwXnk2u+6bGLAAwqoyb5m54aPbtt4+bNV7dWlRf136PExM2ZtXcDZtm3/azsVkZypbChgYngCxh7fsrf33npBtvndj5MyHdVvJTmS/AevuPGNPnPj05LL+idfSsa+82tBxukOK9Gkx42v3XpvnK6uqDeH8TiV5x7dxMR/nZgbxOAgbtz/YXrRICMBExiTp3fZ4j9EsS9qR/VeoCVcELmzp1/SJh14ufHTUpJ6xZuG6D87nnCnqovhf61fFQu/5sf9EKfKmMKTqurrR5iJcn6aFKnR8Bq+Zp47WK8oLjlR4veLK3HfKMJB4AgEDV9y51dTxGm/7gAu3er06c5gCI7obF08Jz937aIACwKWkTbx5lNLCECu7Sstx/FFjaJxKNYeTNmalpYSzvsR0/k/NNvYuH9r7TjfWVQnRsvEbhs5RsP1FRw0MPcQIibMKIqQtHGvXEXVR0qr3KXuBxMrGpE24bG58g81VV1tnjE50n937WRAOPJ8D4gRiTJ6wenxDHeqoq6uwUernJLED8wOPsV5VAcZKTKIxxRmIpbfQSpToM3E7PUL3dug/V97oKUAWPmk9X1y+fsHalsP9oQ3mdNS97MOsVpzqeP0SVeN248MLD/37DyrOapJWTksdprEfbKJHHrZie7M058mytRxk96u5Zk+wHfjzUPijCGhjLnw4WOmVRS6+adX1q45/LXBAgTo/r1sbwx979OptEj7p7duZVjYe+C3xfNVEm3jBBbzp16L1alzp27PpUOF/jy+94AoyfKBJvyDSYcg69V+OOSBi3fjip6HWD+o0fWH+2vyjJKY9MTFS0lFS5KFHHJqVCdUGVa6hOoAGr1Mkys559fyoFAFam8ZX1HIWvzHv7ReeSpem3XzfL4G3a+8EPu3N63mSXvDqeX4LgE9gorS7R57C01f7rSE37YhIRnUzNO+rdPICzuSbHMTxNxx5q4wAAKF9jsjoBgLOVtXCZahUBFw0QpyfUllPd4qQA1voC5/DYcAKBk5MJU0dD8091bV4K3sb6Um/c+de1v/FAgPEzmggjNH9Z2+alYKmrLRkf23t++I0fWH+2vwjJSVQGfbijKd8uSLLm4+XC5Z967Z0KFwAzavJjv+i1OW0rLd35TulOIotfNGfTxqlVDx0+5bwMw+wX6q3bna25dnjG6gxNtBIs9QVbT1TW8wAMI1cm3rEkpr0gASvjy7t06qyORwtPfvdy+6+B4vS07nPV+gZZZc/PeJgA46cEGDhf3K9vu3/+4g90rN2J8l0phGGjEsdMjQcAwrC+RhFihiCft9XmclJgHRyFnqvssSkLMkea8/fnuSnl6g+WFf98UrKROVUZtIMBCgIwna8FhmWA73jFCea6wq11hQDAKuNuXZA5z1C9vVEAQfC5a7Z9m1fa1x2kAHF6QIifKnsBxim4nBZIGB+vKapzqWNiRyihqpfh+B8/oSAA6XwbGEQVyYDbs19EyHHqbiw7c7qoMLekMLek0hRidVouqYBV8wRD4oq1EycnKWUy5bAl6aO91irTQDNThOp4gqulxqObMixKzciMiclj5LYqGwAAE5F23/WzFkayBIAwLEsoDxQAqMNawximJ4QrCQmLTL3tqqlzeixtFyhOO038xCeXX/urtPBu4yeRE5K1YYTR6OJHdVbZCzRO6qn5/LRZP27uM8vm3xELFk8vjzfQ+IU2uwl0E+LVCsLq4uNHKLo9KP/j7M/27CdRvsiI5318+z4KkQ3VM0EDE6AKnlDz+aFPNNNXbLnllxqhtbJ275sncga+TytCdTzO9PXx0lWZ058aL+faLEdP5Bx3UwAQ7NV7SqJXzl1yrYyhvLu6Ku/TJgoA1Nuw61jEqsxZW6bJqceWV3I2297TzBAozvkG50+bdaJ2i2zUr5ca2qvsHW4/4AwwTgBqrs79U3UuAACjX5UQT3qcqAKNn3prv8iJXj1h/rOTPZWVtQ0XffTgZ5x+BRxnv2ANITREMCwDhDBa45j107Un9v+wP+S/hlK8ixAQCiLGMPaJucMiCfW57WfO5PwQ8pkJmJxoiBDMec/tzAv2KMSFF74jKdIYwq978jqNIVwivweFmBe+B8vlvPAdXQZxGXEz1mSd+uzUjDVZDpMj6L+XHCoJynbAE0JIcq578rpD7x9uMzs0hvCr7p0b9N/bzI6gbIcrNDkRkj485kRIojA5EZIoTE6EJAqTEyGJukI/SulA9Isff/vRW7JS2ZqzJZbQ+wJHNKRd2ckJrrLDX+4vCL9q/fWRpw8U9OErzBG6bES5n1NlHJUZp+64J4K660tDqRIC31ZX3czPYthgDwSh7kS6tpa6zcV5DW3t94uRgdxYGjwkKtbAWs5aQmrQ6AogWvW9ruUaRIp5mTD6GJ2zySzF+q3oiiZSchKlfsSUKCrwHntzbYWpvdRTqLC32GVpsQZlQaMHExRJhygnhHiPrclqabJarG4mOi5R4zFf1qLvg7yKndprrVHXrLvnzptX3nTDFHryIJ4YQpIgysxJec7XXqbE19hgNySHKYk9dM4IsWk33jGr6e+PPXvEhDMnkhAxLkJgtTGp8eqOSJQCJaF12MnzArjsLZiZSFrESE5BYNRxsXqNjJGpdMZwcDpDqgIf31BTL4uL1+PFUkhaRKm+52iqrE9MGT06kRU8NktlpT2UvsuIUekilBCh1VzBBbGRJIlztlZwNlQXNIgS6rIi+sWPv/KzRGvx4e37KkLpHQVdCfBma4QkCg+0EJIoTE6EJAqTEyGJwuRESKJkAKAKC1rZXLG0P4Tk5CS//1td3Ycva0VIYnDmREiiMDkRkihMToQkCpMTIYkaYsnJqsK14SoZXiaLhoCh9f2cjCHr9l/MMQj2qv/s2nG4eiBf9Y2QVIg3cxLN+FWb1s2NC2YVO2rL+27XntPmsJTZszPUOH+ikCZacsqTZs+Ozvvux4Zg3txB3dbK/NNn61wgcF4fzpsopImUnEz05PnDKv59qDb4lb2IMipKDXarDW8BQ6FNlGNOoh49f1ZMmGvpr+7zNeYe+PpQSasgRtyBkbNEAGV0jFHncAuCx2F3BW8sCA0cGxmlk8kVg4rBxMy4cQ756R/bv9ifa4mbu3waW5hb5xZpgH2gUMh9Xh8AREZqAcDT1OCKGTs1a1ZW1vRpGfKK7NLqltbLNxqERCLCzMlEp6erCveebPAI4Kk4fLzugfHD1Cea24J0yEfCMuYtSFc1nfj6p8o23tdiDqHkwHIAAAD4SURBVOIkjtAgiLFbq1QpGQLt50YJwzAgCMFMCJlSpaD2itzTBQ2YlyiEiXBCSGgqr6Rj585IDVeo9KMXZMVVF1UE8RNG2tbS4ma0UVH4zUQotIkxc/rK9/7rwDVLV/zqKjXfUn7i892nbcHKTValjTLGaAmwGrWSAH6agkKYOBXfvY3ZX/w1+wsxYg0KY8j62S/mGInQWphbGqyDXoTEMbQu36O2vG8/qyV2U11jK86aKMQNseR0W6uKrcEeBUKiGGJ3pSA0dGByIiRRmJwISZQMANwuR7CHMSiacHX7QyguKgj2WBASDc6cCEkUJidCEoXJiZBE/R/ZsN+IuK0iLAAAAABJRU5ErkJggg==;" vertex="1" parent="1">
          <mxGeometry x="20" y="339" width="157.46" height="91" as="geometry" />
        </mxCell>
        <mxCell id="ekqCBltRWSEwKB1lwB7P-2" value="" style="shape=image;verticalLabelPosition=bottom;labelBackgroundColor=default;verticalAlign=top;aspect=fixed;imageAspect=0;image=data:image/png,iVBORw0KGgoAAAANSUhEUgAAAXAAAADBCAIAAABZmnwMAAAACXBIWXMAAA7EAAAOxAGVKw4bAAAgAElEQVR4nO3deXwU9f0/8PdnZq/sbjbZbO6TEBLCEe5LsCiK9wVoW2nVUrX68+tBtVat2tpaqfWo9Wi/avWrtRWRqhSKAmo5BZXDhISEXOS+s9nNXtlzZj6/PxJCEnY22eyEZZP388HDhwwzn/nMJ5v3zszuvD5k6pJ8QChkrjZvuLuAwo8JdwcQQuMHFhSEkGSwoCCEJIMFBSEkGSwoCCHJYEFBCEkGCwpCSDJYUBBCksGCghCSjCyotRO1Wd+f+3C2YdaXFe8BwGX5P6kzlXxU9GKno2FsuocQiiRsfHr8yNe+58JXGsxlbx56qNJ4tKaraH/15mRd9orctV/XbZW2W0Q3Y+XyLEd9q1O36NY7b4hrLKzvodLu4hwgMaF2ntEvvu3266LrCxud5/vhcw4+3F1A4RfEJQ/LyFNjpuyv+ZeHd/Uu8fCuvdUfpsZMkTFyibsVM/eGVctSGQDKcT6Oo+f7r9NpbNYVv/nNtTl9wxpy56nA+3xe/lwdfbIh3RCTMHCJISYh2ZB+jnaPIl/Q91AEOuiNiIIwzAZErtFpFIRVG7Iy9MrTS1mVPiUhWjF090SuS0hLULP9v0HUfuI/H2482tW3F0YRk5SSGqtih9sdyHUpqfEadujys7uRHK9mh99crNuDm5WpYuJTc3JSkuJ0GiUztPNiRx3goKiteNvmzYXmwIcvdhREEZ2cEq87a5RFuT3OWVMXGmITe/8aH5s4a+pCt8c50u3RhBfEPRSNQkcp9fGegQu9nJtSqlbE2Nxd/jdTXvjQqzf0HJQvWBTTsuvpR7dUKbKu//kD6+apHE6F1lP63otv/qfaTQGIdsqahx74ySyZtQfcJ/ZVMMCd3vyawgd/+Vm3IvvyRx9fk+819+gMbMnGJ1860OrnJFt54UOvXN26zbn0iskMxET3HHrz5Ze/bPb47caD62+fr7I7lTFC9eYX//pBqZ2Kbg6g8tvtQc0+8y65676lSQZyz4ac4xv/8NIBb3/nqf/NQTnMQQ13+Cqxo3j1OtPn3nkXJDNRCdqOTzb84d3iEVw0WRzmovLDc6ctLqk6BgAFeQuKyg9bHOYRvkIQGmlBWTvv8WTd5D3V7zu9toHLXT77nur371jyx3Zb7abCP/jfmJ2SYfvlXXeXOyiAbNqP7l8r3/HzW3c3euRpV61/6eHVlf+zqYJXzv7JAzfLPr3/x180eJTZq3/x0gpm38A2SPRF69YmfPHErR+18oqMa+9cmZ90sLXV7+mRfPbFk1545P6n2nhN7uoNG+7/Ye3j/6gZ0g359FvW3xq9+6FbPqt1y1IvufeFR39cc8+b3zrENici3R7SLPzyWcVbv1L8+X/eO8EDgKp/mP1vLoz4oPwfPit+FGx+Hv/QA+srnIqctb/+87pLP394e8tIbnJY7KbjFUfm5C8CgOLKwxa7aQQbIdRnpGfD3a5OACDEz2l578LeFfzjT+3fW+mgAABszorvyQ7tKnZGx8XHR3uKvi3RzVqQzgCbc+EiunfzngYPAHjqduw4aB38hkp9FosnoWDhgiydwtf06f++u8d/NQEAvnXP9j1tHADtqd7x0TH90sWp7FnduHip/MCHn9e6AYBr3b9lp3X+xQUK0c3Fuj2kWTFim4/8oPyuGegohJqvDlQ5KYCn/khJR0JyMgnUQYSkMdIzlF3lbx+s+fh3V2/fU7XR6bX2L1crdCumrH1qx3UOr0V8a87H9f3CsbEGvX7W3Y/N6X+3tJhrFATYaL3WevL0vQLwdXd1Q+ygNtxH3/7TxtvW3LFhTSq0HN318RubCjv8v+VSc1d/NfJ1GW26WB2AcXA3dAZd90nj6d3xXR1d8tn6KAJu/5uzWv/dHnJ0YsSOOoiD8rdmwKPwuD19veI4H2FG+s4RG22Yk7+o95Jn9tTFReV4koKCEMQ9FBfXQwiRs4qBC+WskhDi5npG2AhvNZm7//vio29WDP69YW0mW1xaIgttAgCAIj7FAK7Bm1J79fa/Prf9r6w2a8k9v7nv3rafP7Xb5u83mSQkxzHQeytUkZQcY623Dl2Ft5ls+tQEpm93bEJyvM/U7aJA/G/O8/67Df4+3Tq7T2JHHcRB+VtzX4CjGJVYbdzcaYtPVB0zWToB4ETVsbnTFhed/BZvo6ARCuJTHtL3Xz+vVr8L/eJr9h3iL/3R5ZOjCACjm7X2uT/eOF0JwNccPMwtv/nKHBUAiZq66toLtIObZFOvf+p36xfrGOAdHe0mF6NQiH3UwyatuOGqDAUAEz1z1Q/nGQ9+3Tb095g/tfeg56K1V+VGEQB52iU3XqX7bk+JR3RzsW6fzeP1RSel6wf3TWxz/wfF6Geu/MElkzQDB8DvmoGOYlRUSnVJ5dEuS9/Va5els6TyqEqpHn2LaIIJ4gyFE3xdjubFWdfuqXrfJ3gBQM4olky6zuho6v3riPhObnzlvfvuff6fq9x2iFYYv3z91UoPAHhP/OOVf/58/Z83Xed0CdZvP/v81JWD3v359kM7T61c/+dNbrsQrbEfe/+5Pd0iFxpc2d7q2b9+7VY1o1aa977+8kcN/FmnElz5xlffXX/fcxuv93pkUc6yD/74z6M9ATbnRbo9FN+8/8Nvlz303ruXvvHgI9v7z9vEjtrvQcmzL1p9y7Q9Rfvqq/uPUOTwxY9iVNpNzUOWmKzGENpDEw4JKqQ6PSb3prm/zNRP/7z8HQC4YtrtDeaTnxx/odlaHex+ZZq4WLan2+YecumjjtXLnGab1//NSUalN2jB3t3t5gGiLvvtW48tGVAp+I5PHnmsfM3/XlP44CO7XDq9wn1W+0O7oYjWR/ms1v61VCt+/UaAzcW6PaRVVhUl9zrdZx2D/80HHVTfIpYVeB4Aoi576vVLDz/wq1026n9Nv0cRDhhSjSDYZ3mardUv77ur/6+fV7wz2v1Srsfk74srvNMi8n0WAAAQ3N1G9+m/uHY/vW7fwGsLCgIvW74GAIDybkuX+6ztz+qG127293sgtrlYt8/a2un3d9v/5oMOqm8RzwMQ9eTvrblqmqVi8+lv7vtZE0D8KBA614IrKOcZQeCEs84CjCePFo/+zZILbXNJEXV6tqLojT99UolPyaAIEdwlD0Ji8JIHAeahIIQkhAUFISQZLCgIIclgQUEISQYLCkJIMlhQEEKSwYKCEJIMFhSEkGRk83KXjvxZYYTORoG2m5tq2mrC3REUfgxWExQiAiRFnxnuXqDzAl7yIIQkI+M4TiaL6EcEUZhxHGfqMqal40kKApKZNTncfRg9Q0KiydgJALl5/h9xrK6qOLc9QmhCw0sehJBksKAghCSDBQUhJBksKAghyYzHgkJYpVYXrcaPrhA618bbbx0TP+f6G1dO08u9ZR+/vD3YLH6EUEhCLihEqUudkp6g5TtLq1p7hpmSc8yxmfOXT9O7qvbvKqlrxWhnhM6x0AoKiYqbnB8vtHeaZXESdShEgiBQ3lhZVFo9/BwaCCGJhXoPheuurq1vd/LhPjXpIzjsDoFoorX4gBJCYRDaGQp12cwAQBTDrjnWGIU2Wi1jFCnxGob0gP95BxFCY2u83JTVzV5992XpDFDOVrNn11HzeXLGhNDEMl4KiuPUvi3WKFaVNu+Sxcsvnlm5+bgNawpC59p4KShcd1N1NwDp1M1ZlK7RqgBs4e4SQhNPiDdlCSGEMIQhBAjDMISE+WYoo43WEHDYHOHtBkITVIgfG0enzMg3yHuryPTpidTVdqKm3RXGiw25QkEgOiktQd/abenxha8jCE1EIX7KY2stPdIqUVekILSWlXZOX7TgpjtmleI3ZRE618bLPZQ+1NO4+++vl6Qlxyqc+E1ZhM61cVZQAAB4p7Gx1hjuXiA0EY3Hp40RQmGCBQUhJBksKAghyYyTeyiYbo/Q+QDPUBBCksGCghCSDBYUhJBksKAghCSDBQVJik1efNuTL7z+zvM/ymPD3Rd07o2TT3nQeSJq/k23zGh/94nni8xeDKSZgEItKExUQmpGeoxaRr12c0tthzViXkaM7vKnr1tSsmPDZ3H3vDHX/NyWD0oFAJJ0/VVP/TieBaCC4DJ1Hd92dPN/TW46YDnP2ZpbD2w8sqPYKQAAo8pfteT7V6amaARzZe3Wt44dawvQDqiXr3j+3gx5fze4zs0PfL7HBP7bl6Xe9vqly3QDQyGEire3vPylk11w4Z8enqw6/S98+dFfP11uEsTap8BETVu9+KbLUpPVvLG8euvbRceNVHwcRonI1WrWUt3YHTEvAyStEOML1PGZ6bLu6soaNxuTNSkz011+ysJJ1LWxxvt8lPdRyvGcIPADYrZ9xw49/FKdm7CGmQW3r79oddu2TaVC/3KPTJF+0ZJ7HljS/cu9h8xUNX/+7Svh0w1bvu2U5a9dcftdU+t/X94liLXDAwBfXbjh9DpABZ6jAESk/bb379m4iRDl0uV/uNr8wlOl7TwVeIECcIWHfnHLN+rvXfzM1aaXfn2i2Sdwp+uAv/Yhav782y8Rtj37yRGjsuDWFevucT7zTEWXEGgcRoG67A6q1WoY6MJHMyek0O6hEBl1tnUaHRzPebqNdqpWKSXq19ijPOejHCdQXuAEgeMGnAVQKvCCwPmMJZWH61VZkzXMgOW8x92wp6qMN2SnEwAmITtOUVn3TYPb63KU7m+xZhnSmOHaAYHz8b7ePxwVBu93cPtU4ASfj/dxAFTgvLzPJ/C9GwiU43iOF4BSzsdzgwrB2e0TXYpOUdd8rMHjddoKN3319qdGz7DjQHSLf/ant159/JqMEd8OEZw9LlW0eqSro/EmtIIi2IxN7U4KAEAUmijidnsk6dW5QDlzXWd9pxeos7nM2OFvjjJVeuasdF97s2vwNQCJnZOZq7S1tFEAYFiGUqFvY0EQGObsIRVpR8yg9iVCu4qb2vILbls1KTdVxdrMpYUme98pTIBx8NlNbW1tHRb3CHtClAnpiWx7sxFnHZioJLopy0QZMlLAWGmNlOsdAODKNu0uAwBw73qxa+A/yOcseuZvCyhhoxSe6h0H/33c13tJ0rscWFkU2I++e+Cgse9SRYy/dgAA2NwFz2xa0Pv/7kN7f/FqEzdg/cHtj4bf9vmG0teedV52Ve7NV14Q7+3c/fbX20t6o/VExwGo6+SWF38zon1GLbv/lbvnygSPseij1w504R2UiUqKgkJUsZl5Bq6xzu/bfOThyoqee73BI1BPj8fDD1nenHD9yjtTK7YesA6bLynWDl997He/OXn2u3iw7YsRaZ/21NRs/UvNViJLuWTZ+nvnNz548LhztPsYynXotbsOAVEkXHTfk3deXf37rU14D2VCCvl7KEShy8hLZtobGrvGy5196vPZLW6bbVAVOL28p/yz8vq86Zfk9I2cwAuEMH0nKgxDeEEYrp2A+x3avkTYzIvnXjJTRQCAcm0Haqvl+owEyb+ERL1mY7eg1kZJ3TCKFCG+pmSalLwUVVdjo9EDDCEk4CXA+EBNtZ8fZJZdP0lHAEAw1pm9U7MvyFIqVNoZy9Nim0wtw99AYGRyVt77R0aG/AgGtx+gDSKTsTKWAUJkclbGDlz77PapEJ92w22z56YrZTLlpMtyp3rNjcPe6SBR09c8/Ltf3bFs5KVHEROrdHTjnEgTVqip93HxGgWrySnIAAAAwVp3rNEy3l9NXPWOirZnp1+UWbe9gbq/K/z7pCXff/KmtWreXFW36c3KruF+T9nceb/9x7zTjfV9D0WsfbFGZPOWnf4eStqv3pvV/z0UkfaF5v989b5m4Q1P3fQzjWBraNn9ynclw1/vyKMNKakpiljVSN8niIxlQRkXr5V12Ljx/jpAfpDMrMnh7sPoGRISTcbOcPcCnUGici5bt+6q2Wm+A3/81QdVeCNlosGCghCSDD4ciBCSDBYUhJBksKAghCSDBQUhJJkJV1AMCYnh7gJC49aEKygIobGDBQUhJBksKAghyWBBQQhJBgsKQkgyWFAQQpIJ8WljXeqMfIO871lU6uuoL6t3jNOHTIdNyR+chj9Muj2lvNvZcrzq47+XVlooAMhEUuxF0+rFEGXONYt+eHVGegzY6hs+f+fIvhofBQBZxh1vzTM9s31rzaCnocX2K9b/tBuveeIm5Vcbtm4q5Zms2Y8/qd12z6ETIJrOL9JXiWYXEJ8VgPqfjUB8fMTWFxk3yWYLIAm5yx7KNL62pzZ1ycqrXUc3HO/iARhtzn0r9Ad3Hiv0k4HIzFp4xUr7oZcrbMKIlgex35CFVlCora3saBtQIGpDdq6up0vs9TMeDJOSPyQNHwKk2x89+NCLtb5o/QW3r7j7btfTL5yyCKIp9uJp9f4pZsy54wbVgZe2vlQHaVdfeO/6Oc0PHa0WT+YMMj2fAIDbwc7+Xuq/S5u8Z1oRTecPQILZBcT3KzYbgdj4BJi9QIRUswX4eJ4KAg8CJ1BeGGbMJDQ2+w01ApJSCkQVlzUl1l1X3+4Yx+HEftLhT/8MetPqeXfDnqqym5Zlp5PegtKXPi8yJry9+5sdDVc8lpTJnLIIAALlhIEp9r1r9abVVxxr8HjBU7jpK88UEjAHnMRMitOcqjpQ7nQD1O4s2qrQCwqAAFG//vcL4v2n3vKWlhnZM7VNhQMWChwVAJj+dP6RvBJ6ZwUAwVhSebg+f8lkDVNq718+eDxJQnacorLkmwa3D6B0f4v1CUMaA12C2H4ZkfXFxkds/QCdF389EN3iO5+6s8C09YXnPhs2CpNygkAFngfKCcAL9MzZFpFlTFlwaU68HlwVlcWbT1k8oFy07NIfJPbep1j+/DQAoLUlu1+voQv9L3cTbc59lyQ2VrlTU2IMStpUU/xhtcUdeL8hCT1Tlsjjs1N0pMeoUsjs3PhN1RmcDu/wE5/bl1a/d8Rp9ZTjOZYNOEUF7Spuaru+4LZVwt4j7XWt5tLCQGsDAMMQ4Pum5qAu44EPjSPszIgR1tV6uGre4oVRRbXStNg3K8B2/7ML7G2jAGQkswsMJLa+2PgE237A10PvbAHdI5stwOey1nW73JTarV31Xt+ZTYg2znvkLzu+UyTO/NmimUs7Du21e45+vauQYQrmX7bC8fVfKu0CgCAIFEBsOQEA0Kjtx9+ocBHtpDsumrW886svrDTQfkMSekGhvLWxwaNUxaVnZbO1p9o847WkDJOSf3ZavVi6fVDE0+rHnFj/GYYrO9B6w3VZcaEVFKlmFwgTSWYLAABPR8XbHQAAjqpjDYOasZ1otrkouDpbqr0piWoAO1AqcDzwFECg3MD8YpHlAABgrex0CQDQY25w5ydqCFhpoP2GRILUe8Hb4/D2OBxEPSNRI2/3jJes6hETS6sXS7cP0pim1Qci3n/qKas9sW7eguTWUNqXanaB8YoKpwsD5QVKyICLquDaofTMxTkwzJgW59A+Npbp4lMMyt4OUoHC0MDliWHUafVExso4PuBFdtBp9YJAge37OZCohOU35+WMxTx+vs7DR+QLFkeHMnOpVLML+CW2vtj4BNt+BCFnLt8IgTG+7RvizIFEZUhP1EexjEwVl6AWnK7xew9lOP7S6gOl27PR+guuztJUdzT2vnL9p9gHm1ZPrfXmnimTl+drVKqoyVfOXbU0hjnzYQyw7On+yBmWCbDfYftPGw420IK0hDF7uwttdgGx9cXGZ5j2/YxbAKOYLSAo1MNxaq1GK2Nk7MATDrHluoKMGDUhmriUfLWzYyTf65BN/f5vnvrp4ujgf7qhXfII1vaGrvT06dMyGcFt7apv7hk3ZX0UhqbVi6Xbyxde+MqHy3iPs+V41d/erLH0ft3Bf4p90Gn13rLj/7dt8c0/v/56Hdjrmz97rfhU/50bJuby36+9vO8vtGnzp3/Y0s0El55/ZkdCc92RjoI1KaGPm5iQZhcQW19sfAK172/cAu486NkCgkNraqoaFs168jo5A0LpsS/+3ndzS2y5rZPJueeqxHjirqwo/moEc5wwiTnTspTlxlF8C2TChVSPj1xr1nDDsytXDHoD5Eve2PLO4fNsKthI6ee4FfALcqKUC+9+aZ3vbw++U+wdfuXBJJrbGJ1bvGnbI5u3hbsXw4uUfqKB2MSMNKb+y9rR3A7HMxSEkGQm5McyCKGxgQUFISQZLCgIIclgQUEISQYLCkJIMlhQEEKSwYKCEJIMFhSEkGSwoCCEJIMFBSEkGWme5WGis3MzobWizi5FcPb5CVPvpU69f2Ja5WPP1zgpsNMXPXM/84/7vy3nxNPn/Y5DoNT7MUylZxK/f9XCxQoCAFxb0W+/bXGPpmVx4u2P7mE/sd34S8kPMQ1fioLCRCem6d1tpY7xW00AMPVe8tR7v8TS5/2PQ6D9jmEqvWDcsnPnvwmTOOWCe/WjbTeAsW4/oNDS8CUIqVYlZOq51prucR79iKn3p49WstR7P0TT6kXGQXy/Y5pKT3mBAlCOnv2aJ9qEKTcVTMqLlnOu7qKTJ7Y3O3pHX2OYvHrW5Gk6JXisZafKtp7qdvZ2JjHvxoKsXC3Lu+1llSX/rrd5ArXvNw0/wH7ZzJzZN+YlxLOECu6a2hP/qjD1iKbnu2moafihFhSiSEhOIKaaDi9RqqPA7fSM14glTL3vI33q/UAi6fNBj8M5SKX3hyiSb1iYyZ88vKHJKYvP++nC2Rdavt7noCBLum5hTlTNsefq7FSXdfOS+Vfb9n7cyYM86dr5Kc6Sg79tdSnip929pGCZ6es99sAXtWen4VOx/RJV2pUztJUH//uymWc16avmZMzQmI/0iKbnB3u8ZwmxoMhj0tIUllONLkrUSelZ0FTReI4i2c89TL2XOPVeNmvR02/OpwDAyjS+YdoKfhzGPJXeH6LVZ0DX1kZbjwDQ2XSiJysrlgUHx2pi0+SmL2u7bTyAuW7LEWecmwAA+No/2Nneu623q+OUNy1ODWAPuA9/afhi+wVB8AlsrE6f5nOYelo+PtTc14Z4Sn5oafghFRSiijdoHZ3lduG8nOfgXMHU+9Hhyo+/+Jd6FwCTN/fRnw67etjGISgMwwr09JAJlFKGEAAAQhgK/Wdepq62vjRNop41Y+ZladFRABQYtYocH3YXftPwRfZLva3bCzVXZOevzdfEKcHUVrHxu4a2MbzZGdrHxoQwbGzatPnTCubnT0lSSNSnSIOp96NtxGuzuqwWl81xJttcJH0+6HEIF0Hgmf48b4YQIvTeB6FUINB/XIb4lFytDADUadNvSnF9tm/PM5/v3vDFd0dGffIptl8QulorNx46+MKuz5/cVdysn7o8fkyHLaTGqbujtqy4qvLEqcoTpxqMQedPjiuYei8F0bT6IMchIKlS6anbxxG1LlXBylhGxhACQB3dzRC/MEOnZtmYhPQCta3BwgMA32Np8RkWZcdGy1itftKaRdNnaygAEIawhJERAGD1ScmTlCRw+6JdEdkvE51z3zUXrIhhCQBhWJZQ/szkPmIp+eKGT8MPcbJ0nvf1vcMS2Xi9GztimHovAZH0+aDHISCpUuntLVV7UufccXWOggC1Vv55b3Wbt/0/x6JvLFjy5Fw57zIXlhw/2DttBdex/VjtmoIFj81UgsdWUV20s4MHgJ6Wim0Js1dfftVa3tXU2GocPO/m2e13iPSEiuxXsDftOhW36sLLrpAxlHc3NZZ+2HmmoIik5IsaQRo+ZspGpEhJk4+UfqIRGUEaPqbeR6RISZOPlH6ikRhJGj6eoSCEJHM+3ihHCEUoLCgIIclgQUEISQYLCkJIMlhQEEKSwYKCEJIMFhSEkGSwoCCEJIMFBSEkGSwoCCHJhPYsD1El5M1KVvc9s0ndbTXjN7ENU++lTr3vGzdBcJm6jm87uvm/JjcVS70XGecwpd4DAJDohCmrC7KmRss5Z3dheelnfRmuJDYpb/XMzCkameCxFFeU/afB5h3V+qGlz4dLyA8HUndXdWl7T+/PivgN1R0nMPVe4tT73nFzE9Yws+D29Retbtu2qZQXS70XGefwpN4DEEXq6kVZbMWxZxscUYn5t82fs9x6aI+dkqj0Gxek9JR883SzUxWfe+uieStt+3d002DXF9vveS/0Sx4CQCkFSoGO53LiL0W9/5+owAu8x92wp6qMN2Sn9/+TwPl4X+8fjg4pAr2p9z15SZm9PwOBctzA9Pm+F64uRaeoaz7W4PE6bYWbvnr7U+MIUu9rD5Q73W5n7c6irV9bhcBJev73G6D//an3g0ZH4ASfj/f1p8/7BH7YEwJKBV4QOJ+xpPJwvSprsobpS72v+6bB7XU5Sve3WLMMacyg9QePs/h+A/y8iG7xz/701quPX5MRMCC8b6d+U+AZtTYRTEfqLA6OM7Y1ljm1qToCAIxOn+ZpP9Ts8FDBaqw72h2VqVeS4NcX2+95L+SCQpSGyfOmFczNy5uSoBnPYQiDU9Q7xFPvWyRPvc8vuG3VpNxUFWszlxaa7AF/Uc9Kva+qkTh4tTf1PmHxwiipXuOq9MxZ6b72Zpcgmno/qAMjGudAP6/e1PuOUaTeO/pS4HmHsdwduzArRiOTGZIzp8uMZX1TpxBGoDwQhUzGAOVpX+xjsOuL7fe8F2Jim8dcU2RhCACristKz85wn6wL/HqPYJh6L3Hqfe+4UcJGKTzVOw7++7gv8Buc2DiLGNvUe657/4m2dQsv/O0cApzju+KjJwb8VBjt5P+3Iqft2/11o14/1PT5cAnxnILynK/3VpGvo90enxGlJPbxeldWFKbejw5XVvTc6w0egXp6PJ4R3HAUG+dwYGKm3DHfcOq7/f/X5VbqMlYtXLzG+9VH7X19EnoaPzzU5bEIuTmjXD9ihXbJw+oSs1LUfW1QCpTARKsmgKn3o0V9PrvFbbMNqiYiqff9649mnKVH9AmJidam/e0OF8dZzPVfdzJ5Sb0fNlGBISz1dZqsVp6wpHfqjGDXj1yh/VgEgVEnJxk0Mkam0hcqthMAAAS8SURBVCdowemcuMn3mHovBbHU+wE79jPOQQo99Z7aLNYefcbFKVoNK4s1TFqWxLR0OyiAYOtuUSYvS9MqCaOLz16gdzV2e2jQ60euEO+hODob2tIyp05NYwWP1dTQYI+Ej8rHCqbeS0Ak9X6goeMcvNBT731dFe+W5F83Y+kTi2SC21ZR+93WJg8FAFfzJ8fUa2YufWo+y7ksJaWF/+39DDjI9SMWZspGpEhJk4+UfiKpYEFBCEkGn+VBCEkGCwpCSDJYUBBCksGCghCSzIQrKHhHFqGxM+EKCkJo7GBBQQhJBgsKQkgyWFAQQpJhY2L14e7D6Kk1GpezZzRbEsPKx1575KZFWWzzyVOmsD4Jj9D4MVELCrhqD362t0L7vduviSneV2GL6AeyEDpfSHLJI4/JnpvTH34fMfie1qZunmVGECyKEBoJCQoKo01NVHa1dorNmHD+IrFJ8azJaIq4jiN0ngo9pFoVl6LraWl1RWCULGNI1Ds7uyKvEiJ0ngq1oMhi0hNUrCa9ID8/LylGEWFXPXaLXWZIildGWLcROl+FdlOWRBmy0sBYVd/YbPFoEjKTiNXkOoehbSHclAUAoPYWc+zl6+665cZVq6+dR4sO4M1ZhEISUgQkUep1bHd7l1OgINhbTc45sdEykydiPoRlc6770QWdHzz69CFjROd4InS+CO2ShxmUaUwIRFhmN88L4LJbsJogJI2QCgp1Wx0Ql5iokzMyRWy6Icphc0RSSjXf3twmS04x4NeFEZJGaKn3grW9tjk1Y3JeslzwWs0Ntd3eCHqzZ1T6aCVE6zR4TxYhaYQ6G7Hg6myu6myWpC/nEjGsfOz5H6SZqw9u3lMfSWdVCJ3PJlzqPUJo7ODtA4SQZLCgIIQkgwUFISQZLCgIIcnIVFHacPchJL39z8hI9/uvTU2R9wEUQpELz1AQQpLBgoIQkgwWFISQZLCgIIQkM24KCqvS6rQqGT6Wg1AYhfosz/mCiV9080+XxQv2xm+2bTnY5I6gZxQRGj9CKyjyGTc+tCb/TBvU/O3f39zdHIZ4WWot/XKbffoFK2cvXZpf+K/jPVhREDr3Qj5D4Wt3/nXTcScAiVt8y7qMzu7w/CZTt7mh3AJZy2YbOK8PqwlCYRHaPRS+o+xQcYtbEAQB4mfOiD1VXB3GUwOijI1Vg91sxTgChMIjxIClropvunrbSZ81Q1W5s9YtRadGS84SAZRxiQl6h1sQPA67K5y9QWjikeimrGLSrHz+5Cf1Yc2nprbiL3dn/3DlFbfnEaC2Yxvf+KI+nP1BaMKRpKCQqNw5uT2l77eHd7IvEpW//OJcVed3Ow839PA+S1cEzj2GUESToqCQ6Omzs4wlX4b9F1imVCmovf5EcUWYSxtCE5QUcxvHzSxIai4uD/skWbTHYnEzuthYnP0cofAIvaAwiQWzYmuPV4X5mx+sSmdIS9QRYDVqnFoUofAI/ZJHaN/3xssS9CQ0TPyiH/x0WQIRbJUnavBbbQiFx3j56j21ln7xSQuxG1s7bPi9NoTCZNwUFLe5sdoc7l4gNMGNm6eNEULhhwUFISQZLCgIIcnI3C5HuPswehqturf/1VUV4e4LQgjPUBBC0vn/D5PxJ5VZUikAAAAASUVORK5CYII=;" vertex="1" parent="1">
          <mxGeometry x="20" y="439" width="154.45" height="81" as="geometry" />
        </mxCell>
        <mxCell id="ekqCBltRWSEwKB1lwB7P-3" value="" style="shape=image;verticalLabelPosition=bottom;labelBackgroundColor=default;verticalAlign=top;aspect=fixed;imageAspect=0;image=data:image/png,iVBORw0KGgoAAAANSUhEUgAAASEAAADICAIAAAAoQ8CyAAAACXBIWXMAAA7EAAAOxAGVKw4bAAAgAElEQVR4nO3dd3wUdf4/8PdnZrZvNmU3vRJISCAJJVTxaAcqKlY85b5+PQXLcc3fVXs9POvd6envbOjpnYp4iiACNkCBoECAEBLSE9LLliTby8zn8/0jCRDYTWOGTTaf54MHD5h89jOfmex7p+zMa1BKajpQFCUZDgBU8fJgD4O6UK5Wb7CHQPnHBHsAFBXiaI1RlLRojVGUtGiNUZS0aI1RlLRojVGUtGiNUZS0aI1RlLRojVGUtGiNUZS0aI1RlLRojVGUtGiNUZS0uBG8JkabetOMP0zQ531d/i4ALM/6WZ25+L/HXuiw14s9PIoa89jwiEhZGDus16y79KV6S+nrBb+rMB6uMR37rmpTnG7CkozVB+q2DLUL9YzEqRP59kZ+2APugwxReSvVzjKXl4y4j8Fnol2UuexmWcf3do+EcxEFbxeCPQTKv2HvK7KMLCF80nc1H3kEV88Uj+DaU/VhQvgkjpENsROknpc278fqgDNntTP/PnN2Fhqoi7joWWtiIqTd1yWEx7yXXKz6itMn6cOjz56iD4+O0yddpNlT0hjhexSTfp+aBPCQXobksvBUpeL8HVQZp0tVqRW9Y5JHKaOydJEJCnUYi/y3OavLWHWEnj23HP00RlykKjJZLj9no82y2iSlSuG/np2H6/e9ZbLhwXpI7LdQSC5ThbEIsapEtS7ivLEF5PY48ybP1kfE9PzXEBGTN3m22+Mc6uupUWnYx2MauY4Q4hM8Z0/08m5CiFoebnWbArwOyeJvy135Kz1r8YHLcuIEgA8AAOSaqY9NW7RI7jYTVZSv/KHC3QfUs16Ymp2ggPtnxx+s/ujRVpfsvDZ7vQAAjGLCA/OvXioTlHKmtG7Hn6obLP463OslyrAZT0+fn4ftNlkYZ/n2FydKGwgAG7M65+pfG+RWgdMJDa8c/2Kj9Zw9T9my3LtvMr21psGuCNRD7sp7DfJuXhYJLW8Vb3/D4iIgW5Z7983uY15DViJSxHGd7xb99x/mIextdtktx8oOzsieW1xZCAC5mbOOlR3ssluG+zuiRpXh1djqmQ/G6dJ3V73n9FrPnu7y2XZXvbd23jNt1tqNR//i55WyOZkr1zKHb9l9rEaQZaRd9+8EZicAADvJkM61frqirtUGyiV5t/9pwslrKw6sKeK2Tpc9tn/XEeK/TUFFOwCKi0npPvT20i4Pq8p+Zu7V99nevr/d569x1xWZC+Oa/3N5rYVnDT+ZPD1XdbLByUybdPVdzJFb9xyvxWxq8jXvTpt3Yv/eE/5LQeW3h+kZK38hO/6zPYUVApuccNW/8hZXFHzxrQ8A2Lxw/LMDbxbzXNbEm/+dOW3LD4fqh7LL2WUzF5Ufmp41BwCOVxzsspmH9QuiRqHh7St2ujoAACE/50h6JvY08PPTuGXRZGdNcY0AAL6qxsJvejcYwsn6bffVtTpZTUqYwYBwrPL8EzAB27hNR/7V5SEAvKv8zWbngtgkhf/GgsXri4vKuESrVgimj05+s91JAMWtiGN2NdU55NpYpcptqiiUpV2qCbRf57eH+BWx7Jc1xyoEABAaWw984p20IqrnUwuXt5WW8ATAV2U81aKMSBzyDiMVaoa3HfuibMP+mo+fuHLb7sr3nd7u09PVct2SSasf27HS7u3y+0JGreecxz19R23Y0e6BKAAAFBd96cOZudPl7mZHZzNCyHP+mzFQG2J1O1x9jdpddkW4SgUowk9j777yLa9nzv/t7PkpYNnXWPBcTU0Lo41RaGdlr5p7evPitZUzCMDv5sZvD+pomeO4u2+hiK3Zw8yWyxH4AIhb8PV2hAUfYob6WRYRpp+eNadnX3Ha5LnHyuimbMwb9vGYi3cghGRsvygrGatACLl5R6BXYafRp01RMeAUAAAYXZICnADApNyTM9Vd8Z+lLTYvoOQJP700/LzXBmyDwlXhYQCdAAAoUa3zeJ1OJuU3/hoTX8uHpZ98WMrotJPvm3nVg643f93iMHrs24rfeb5rSOdr/PXg7PBpkpV9C4V0SQps9HoJjHSbFaGNmpE990RlobmrAwBOVBbOyJ577OQP9JBsTBv2eUXU+7ef95HfiT1I69cd+PKJ+VksAChy0mYtkZ1uK1g9Xh8AK0++OSG29+y/wHtl4WkKZqA2ADL9jLv0agZAoclZl6j4rrXJ47cxilo986ePxqgZwFZXZwePFAwLpHVnG7564ozJHAJAEVELN8y5ZDoLAEgfNW1NQkxYv0UL1AN/xaT8KRwCYFMTLrlRXrXd4hvuGj1DqVAXVxw2dfXub5u6OoorDisV6pH3SI0Cw96O8dhnsjfNTb16d+V7PuwFABkjn5e20mhv7PlvgJcdqfrsnzkr/7N0tl0gnR2FW6wRMgDADRvKm16bcc83XjeDur7pNPkYAADBUbKhI/vJxfdefXLD2gb/bQBIfXM5zvzZXgVSyIXC6s+eN3oA/DUmnbsaW1fm3rmbd2K5stv43QPNdgJQVL3tlalXvbVknssLOrb7s5OflwgAwGTGzf95RPEPrR0nT+82BujheNW2l3Kv2rBkjkdg1XzDG0Xf7ruAEoM2c9M5U8zdxgvojxoVUEpq+nAzTJPCM1bN+GNK5JQvy94GgMuz19RbTn5S9HxTd9VgL2U5jQF5jD7+7P0zhlXHyhm7x27rt9eGOFYuwx4XGaANALA6hYr4+k333xjJ9EoVeO1mof9sGGW0HNk8LteZAzHEIiIQAFBcM/PnK41v3t3oJAP0wKoMrGDxeoN5pQXNMB21RlJj44Vicvz8B6dMOnHk7ReGdswWTLTGRq2RXBM8TiBFWhh3sGzLu6O/wKjRjG7HQgTdjo1a9P4xipIWrTGKkhatMYqSFq0xipIWrTGKkhatMYqSFq0xipIWrTGKkhYHAIrktYqUtYBovY1NBHsa3nK1vhrscVD+MQBAC2xsQ4wiZW2wB0EFREuLoqTFAQBb/pSQ/gtQ6IM9GGpEPGa29p+JSSnBHgflH0pJTQ/2GC6UPjrGbOwAgIzMLL8NqirLL+6IKOqMgPe2KKKywievAoDuio89FvoepagRCng8Fj75RlYRzirCwyffeDEHRFEhJnDkvCLinH9QFDUC9LwiRUkrdGsMsQqtLkxNwxSoIAvNtyBjmH7NjcuyI2Xe0o9f3DZoWhZFSUikGkMKXcKkpGit0FFS2eII9vPw2JT8hdmRrsrvviiua6GPvqOCS4waQ6qo9CwDbuuwcFEidCcCjDERjBXHSqrcwR4KNe6JczzGd1bVnmpzCsHegPXCdpsdI02Ylj4shQo+MbZjxGW1AAAKfoIcI9eGqTlGHm/QMMgxxId7UpSkQuuch27a9fcsT2KA8Naa3V8ctoyS7So1roVWjdmrv93crWKViTOXzl24OKdiU5GVlhkVZKFVY3xnY1UnAOrQTZ+TpNEqAayDv4iiJCXKOQ+EEEIMYhACxDAMQkE+18BowzQI7FZ7cIdBUQAinbsPi5+ape99aN+UKTHE1Xqips0VxL00mVyOICw2MTqypbPLcSGPBKOoCyXKeUVrS8mhFhE6EgtuKS3pmDJn1qq1eSX0Og8qyELreKwX8TTseufV4sS4CLmTXudBBVlI1hgAgOA0NtTSB71SwRe6191T1OhAa4yipEVrjKKkFVLHYzR/ihqF6HaMoqRFa4yipEVrjKKkRWuMoqRFa4ySABs397aHn3/17ed+mskGeyxBF1LnFalRQpW/6tapbf966LljFi+9gU+cGmNU0QnJSeFqjnhtluba9u4xs2YZ3WVPrpxXvOOp7VHrXptheXbzByUYAMVes+Kx/zGwAARjl9lUtPXwpm/MbnLWdIG3NrXsff/QjuNODACMMuu6eTddkRCvwZaK2i1vFha2DtAPqBcuee6XybLTw+A7Nv3my91m8N8/l3Dbqz9eoDv7jiFcvmHzi1872VmX/vUP6cq+nwhlhx95ssyMA/VPgFFlXz931fKEOLVgLKvasuFYkZEEXg8jhGRqNdtV1dA5Zt4GkhLl3ha1ISWJ66yqqHGz4alpKSnusuouXoSOLwbB5yOCjxBe4DEWzkr98RUW/OFvdW7E6nNy19y76PrWrRtL8OnpHk6etGjeut/M6/zjngILUebnr1kGnz+1+YcOLmv1kjV3Tz715zITDtSPAABC1dGn+toAwQJPAFCA/lvfW/f+RoQUlyz8y5WW5x8raRMIFjAB4I8W/P7W79U/Wrz+SvPfHjnR5MN8X2n46x9U+flrluKtT39yyKjI/d8lt69zrl9fbsIDrYcRIC6bnWi1GgZM9IpscY7HEEecrR1GOy/wnk6jjaiVChF6vTiIwPsIz2MiYB5jnj9rW0EIFjDmfcbiioOnlKnpGuas6YLHXb+7slTQT0hCAEz0hCh5Rd339W6vy17yXXN3qj6RGawfwLxP8PX84QnuP9/+/RPMY59P8PEABPNewefDQs8LMOF5gRcwEML7BL5fbZzfP9LF6+R1TYX1Hq/TenTjvg2fGz2Drgekm3vXX9/8x4NXJQ/50Ao7HS5lmHqozUOcGDWGrcbGNicBAEByjQq53R4Rer04CG+p6zjV4QXibCo1tvuLX1UmpeQl+dqaXP13nlDE9JQMhbW5lQAAwzKE4N4XY4wZ5vwVG6CfQPr1LxJiOt7YmpV723VpGQlK1mopOWq29W7oBlgPPpu5tbW1vcs9xJEgRXRSDNvWZKS5YAAg8jkPRqVPjgdjRfdY2VEEAL50465SAAD3Fy+Yzv6BbPqc9W/MIohVyT1VO/Z/WuTr2ZfrmQ4spwLb4X/t3W/s3ccLxF8/AABsxqz1G2f1/NtdsOf3/2jkz2rfv/+R8Nu/UF/y8tPO5SsybrlivsHbsWvDgW3FPTesB1wPQFwnN7/w6JDmqVrw65fumcFhj/HYf1/ea6JHYwAgZo0hZURKpp5vqPO7MRh7+NJjz75a78HE4/B4hHOmN0Vfs+zOhPIte7sHDTII1I9QVfjEoyfP/6wfbv+BBOifOGpqtrxSswVx8UsX3PvL/Ibf7i9yjnQe53IVvHx3ASB59KJfPXznlVV/3tJIj8dE+34MyXXJmXFMW32DKVTOJRGfz9bltlr7FUbfdEfZ9rJTmVOWTuxdf1jACDG9mzOGQQLGg/Uz4HzP7V8kbMriGUtzlAgACN+6t7ZKFpkcLfpXpMRrMXZitVYldsdjlCgrmNPEZ8YrTQ0NRg8wCKEB951CAzHXfrmfWXBNmg4BADbWWbyTJ8xPVciV2qkLEyMazc2DH4wwnIyV9fzh0Dm/iP79D9AH4jiWYxlAiJOxHHt26/P7J9iQeO1t02YkKThOkbY8Y7LX0jDoURNSTbnhD088sHbB0KtRHh6hsHfSbMse4uRSRRk0clYzMTcZAABwd11hQ1eor2C+akd569NTFqXUbasn7iNH30mbd9PDq1arBUtl3cbXK0yDvXXZjJmP/3tmX2e9348F6j9QJ9zMBX3fjyU+8G7e6e/HAvSPmz7b955m9rWPrbpLg631zbteOlI8+I6iLEwfnxAvj1AO9aMTcSwLiiiDlmu38qH+PhgcSklN9/uD+MXPn/5367d/vFjjGQl9dIzZ2BHsUVBnINXE5bffvmJaom/vMw98UDnOD8rotVSU+Iir5qtXH/kq2MMYJeg1wRQlLVpjFCUtWmMUJS1aYxQlrXFaY/romGAPgRovxmmNUdRFQ2uMoqRFa4yipEVrjKKkRWuMoqRFa4yipCXKdfe6hDPPgwbiaz9VesoeopdbD5xjRYjgdjYXVX78TklFF+mXS8V7LTX1O98q3Fc/wF2XKPaaFQ9lV9z/XI2TADtlzvpfM//+9Q9lfKDcK/CfMxU4x4qIlT+FojMW/C7F+PLu2oR5y650HX6qyCQwMTetmD1XjgCAbz32+A/N7pH0HFjg/hntxF8tidy/s/CoCHfgM3mzL19mK3ix3HrWmvG3vEPtUJznQbeWHm4FAkitn5Chc5icIVpgAAPlWB3e/7sXan1hkfPXLLnnHteTz1d3nZVL5VVoc25ZdMcvsmsfKB7CrWXnCpR75T9nig+YYyVe/pRPEAjGAmAeEwFjAgDYuHnnzk8REzNp/i8jR9rvAKTuf0B+lneoxLnunhACSBmVOinCXXeqzR7CWSl+8pv6rW7B1vn9jvrL749NYXprrCdnindai3c1mi/VGRgYfo315F4Vf1/v9gGUfNfc/ZA+kQET7smZKi+s93jBc3TjPs8k5AEAIJgnGIA5nWN15q7swONHurl3PnZnrnnL889uHzQjgPAYEywIQHgMAiaop3NMAAhPzn8HIm30pFW5aZlhMt7VeezkiW1N9p5Njkaffn1eerZOAZ7u0urSLdWdzp7BxGTemJuaoWUFt620ovjTU1bPQP0DIC550qwfTzREgqu84vim6i7PQPNlUyZOuzEz2sAigt01tSc+Kjc7QDFnwY9/EtNz+LTwuWwAILXFu16tcRP/yztEYt3bgmSGCfE65DAq5ZyND90b8/rnN9n9RZcQXuBZ9pycNKTQTFmcqCgqPTWim6kC5F4R0/HG1mtyb7sO7znUVtdiKTl6IePvyZ/qHFr+lM/VXdfpchNi6zad8voGfgmSx107O0U4efCpRidnyLxj9rRLuw58ayfAxa6cPVFVU/hsnY3oUm+Zl3+ldc/HHQLIYq/Oj3cW73+8xSU3ZN8zL3eB+cBu24AzQdoo76FXdhyRx+TcNSfnkvaCPTYSaL5ImXjFVG3F/m9etAisJum66clTNZZDDs/hA18cZZjc/OVL7AdeqbBhANy3yRrW8vYnVo0Robuh3qNQRiWlTmBrq1s9oVplgfObApDlL/jr+5cgBvmaq//zTEP3YCuGy5vz5Ov5BABYTuOrHbhx4Jyp4Y9/GPlTAOBpL9/QDgBgryysH6wx0kYmg2lLg9WBAToaTzhSUyNYsPOsJiJRZv66ttMqAFjqNh9yRrkRAICv7YOdbT2v9Zraq72JUWoA24DzINYTTVYXAVdHc5U3PkYNYAs4X8DYh9kIXWSiz252NH9c0NTbB8G8AAIBwIQ/K5NluMvbn2j3aGKvw+512O1IPTVGI2vzhEp0zgXzHSm474VaN6tIWXbJz++f0fXQkeoB4yf5sqIXXjnlAmAyZ9x3x6DdS5ozJRqGYfHpmFZMCGEQAgBAiCFwevtsNrX2xi0gdd7UnOWJYSoAAoxaiYoGnQXBfTVBBEwQQgAk0HyJt2XbUc3lE7JWZ2miFGBuLX//SH2rVLdri1FjnM4QLbO1mT0EgGAC5+a/jDOIYzleOPcXJngadlVVrsrPSTpWXTPgAZnPa+12OQmwdp7AwLlXbMrivEmmsj0lbtKTM/U/05OjmaL6UXdAjLHAsH1vCwYhhHuOqQjBCE4vl94QG+U2Vtl5deKUVfGuD749XO4hgKKuXZ4vF3e+gE0tFe+3VAAAq4i7aXHeQkPjpnaJVpsoOcFIqU+KiVSxDKeMilZjpyt0j8cGw4ZFzr8yVVPV3nD6F4YQwzKsXJmyOD2Ts7WbR/CbDJR7NaKcqUBGkD/lF3H7eKTWJchZjmU4BiEAYu9sAsPsZJ2aZcOjk3LV1vouAQAER1ezTz9nQkQYx2oj026YM2WahgAAYhCLGA4BABsZG5emQAP3H3AoAebLhE381VXzl4SzCAAxLIuIcObUFfHwvFqr0XIMxzLMUE5ucJNvevSxO+aGBWgrxnYMd7fVm5KSpmSnMNjdbTrV5Bh1n6MXgWz2pS99uEDwOJuLKt94vaarbx3IZi34+wcLCBYcre0F//z+YNdIOg+QezWynKmASzDc/KkAbM2VuxOmr71yohwB6a74+56qVm/bZ4VhN+bOe3iGTHBZjhYX7e/5ApVv31ZYe0PurPtzFOCxllcd29kuAICjuXxr9LTrL1uxWnA1NrQY+x/dn99/e4CRkADzxbbGL6qjrrt0+eUcQwR3Y0PJhx1naqymprJ+Tt7DK2UM4JLCr95pHORLNyZmYnaqoswY6CurcZpLFdwoK1Z/7dPLlvTbXAjFr21+++AYyjCnTlPMvudvt/ve+O3bx71+f05zqYJAMG/906atwR4FJQ42JjmROfV1bcDrd2iNUdQFERo3P7puoAbj+xQgRUmP1hhFSYvWGEVJi9YYRUmL1hhFSYvWGEVJi9YYRUmL1hhFSYvWGEVJi9YYNeYgZeaE9JkRsjHy2HExr6ViwiZkpEBLeZ0tdB9OKm0uFQCXvPbNmeb127acc49ZwFwqZdZ18266LCE+jHTVNXzx1sF9dTwB4GZd2vecaACAvudEo8Qbr3polWLfU1s2lghM6rQHH9ZuXVdwgg+0XMN3AflNKOray/LlRd/8t32QO6OQMmZRblZcfffxLvNgnV9InpRYxKsxJiwmMdLdWmIP3QIDGG25VOr8WWsvQzv/+umBRpSycuG6e/Maf3+0TgD+aMHvb/1e/aPF6680/+2RE00+zPfN1G1np/0o4dOSxv4XiUuYVyU24mp4e0czEs67DzZI4xmMaJk5yuiUSL6lpjPEMwZGVy4Vo0+PlJUV76ty+QCqth9+36p2MwACACY8FngBAyG8T+DPvBuJt6y5eeqEHG1jv3wdSfOqIEDOFACg6OTc1TkJcayn4VSLjYAXAACl5S66OayzhYuKc7eXCmFZkWxZ0eEvTD7CxK6+anY+BwCk6eR3/6jojUBjtBN/tTSmqdoXH6vVK8ip6tO5VBeSJyUWcY7HkDw6LhqZm9u9SKFWK0L4IK9/rlP7sHOpmkTNpQKGOTOdOM2FXza2DrgrCoBYV8vByui5s1X93m4DLVdPXlX7CPKq7H35TT05U+X7H//si2ePWhJzcxeEIQBA8sSr8wzGkn2Pb9/7305Fwpn7nRHnaNpYUNqg13WVHn63Hs1L07MAgDs2bd9x/2dff+gnfEOj7C59dc+3z3zfGpmdc0nfTcn+x3NRibIdk4UnJsq7qhtcBKljk1Khsbxh4HCkMUzyXKoRQMrUNS/Oy+EA+LaP/vTdD9aBGjMMX7q35dqVqVH9Mq+kzasKkDPFaMKioXN7s8NLwNzSXJ0T2/d+JD5BwBi8guDFxMcLHNsTy0EwJhh4f3sC3ZUdLgzgtZrqPGkxfTlWF5AnJRYRagwpDXqtvaPMhgHGyJmei2m4uVQjQDxNmx78fIt+0t0PxwzhZBvxlNaeuH3mrLgWkccRWICcKYKAgdOJpOSCIirObOcJJn25VKOCKHn3iGEjErPz4wEAMawvULrCOHGhuVT+BMilAowxQgwigsPicMl5AlgYSt++joOHZLfODfOfuCu+QDlTiACG06E3oZpnJsJiEXd7benxyooT1RUnquuN/jMNxgtRcqlYlpXJev70JJcFyqXC5tpOX1b6gnSFTK7OWJIW325q6MnMYRDHsRzLAEKcjOXYc7ZupH5/PclNjB7KfocIeVWBcqaww2aEyNx4tRyxkfHx6fJBx8OwDMOxHAMAiOFYhhtacpR/g+RJiUWUZ0oIgq/3cxtx4zGSCgBEzKViwi/78+rLev9DGjd9/pfNnQFyqcB5pPCtlHk33XfjzVrSWV236eXSJgEAgJu5oO/7scQH3s3r+37szExwU92h9twb4oe0ZBecVxUoZ4p4mz8vjlqdu+jJGZ76+ua2wU5KM/qs+36UHtUzjviFf8kG7Kj959cnG0Y0qsHypMRCc6mCgOZSjQqD5UmJhWbmBAHNpRoNBs2TEgutMWqcGjRPSiwheiqHokYNWmMUJS1aYxQlLVpjFCUtWmMUJS1aYxQlLVpjFCUtWmMUJS1aYxQlLVpj1Lh1kfKtRLl/TBmdmRen7h0pcbfWhO590NLmUp3VHmOX2VS09fCmb8x99/jLZ//uxrWzbJ/dt31HY9/qZVTZ189dtTwhTi0Yy6q2bDhWZCSBpivmL3pmSeujT1fJV1z2xA32139ecHJC/iO3e19/5EQr+M29Oms8Am9tatn7/qEdx5044PLSfCt/RLpekbhNVSVtvc9aRxfpzr+gkDyXqqe9G7H6nNw19y66vnXrxhIBAEAenZ1hP1WvzZ6q3tnYG7ihys9fsxRvffqTQ0ZF7v8uuX2dc/36chP2P73T5LBGqCIYUMey3U6VPhyxkZqwTksnBuVs/7lXp8fj4eRJi+at+828zj/uKbAMsLw03+o8ouVSAZC+0grhCrsYuVSEYAFjwMbiioOnsuala5gSKwZg0xMy+fbPD0TdnBen+bLGTgAA6eJ18rrywnqPFzxHN+7zTEI9aU9+p2OLrVunD2cUEQZfXQ2r16Mwg8re4fABk+A/9+rMeATBXb+7snTVgglJqMByZpHPXV6ab3U+kY7HkEKfPjM7d0Zm5qRoTShfy38Rc6mUSSl5Sb62JldPWGl8bpy6uv3EyfaujPhJit5ZmY43tmbl3nZdWkaCkrVaSo6abTjgdNLt6ETqiDCNQWOvqheiomURemV3hwMHzr06ewkipqdkKKzNrecucr/lpflW5xPlPmiPpeZYF4MAWGVUatKEZPfJOluo3g8teS6VbPqc9W/MIohVyT1VO/Z/WuQDAGDUk3PCmgqMzgZfrXBJ9iSmqAQDgFBf8vLTzuUrMm65Yr7B27Frw4FtxS4SaDpxmLuUUdE6PbEdaWPy47RRelnnyUHe8j3jAZZTge3wv/buN5IBo5FovtV5RNnmEIH39Xwe+NrbbIZklQLZQvWkx7ANN5eKLz327Kv1Hkw8Do+n71MWaeOmpNoq33YT3lxVK1uRG8WU9OzKEUdNzZZXarYgLn7pgnt/md/w2/1FzgDTXU6TRTk5QxfR2W02yZk8vSHCZTYN8oviS489+2pT9DXL7kwo37K3W/I7Ggc0JvOtxNhXZHUxqfHq3p4IAYJC+pBsMAPlUoUn5SQNssqJz2frclutZwoMABTZCemK8Msev/nFt29YnctG58TFMADApiyesTRHiYEHZNMAAAVpSURBVACA8K17a6tkkcnRTMDpxGcx4cjJUZzR7jHZ3IaYxAin0YwhcO5V33gcZdvLTmVOWTrRz+D9L68kevKttn+7e/2Xu5766sihvg/y0Z1vJcZwMGbUcbF6DcdwyshoLTid4zebSpRcqvMw6Xkxwv7v/njHxv93x8bfPljckhSfGYEACDYkXnvbtBlJCo5TpC3PmOy1NBjxANM7jS7DxEhnux3bHV1hhjTWaXFB4NyrM4i59sv9zIJr0nT99xP9LG8goZtvNQhRjsfsHfWtiSmTJyey2NNtrq8P4ee2BCZaLtX52KisqUzFh209+5i4pfmEccqUbNm+Am/TZ/ve08y+9rFVd2mwtb5510tHip0AgANMJ11GpzZSYzF6CXZZkDaq29ZzjjBQ7tVZ+Kod5a1PT1mUUretfqDlHWANhWi+1WBoLlUQ0FyqcSWUz7OPWjSXalwZZYeHFBVyaI1RlLRojVGUtGiNUZS0xmmNBfGkIjXejNMao6iLhtYYRUmL1hhFSYvWGEVJa3zXGNIvu3/Day+u/+VVmRr6uHhKGuO7xoj5m2fu+f2Lh8Ou/tnywe45oaiREfGNJQufMGPi6XiqMUNwtDR2CizDDt6UokZAtBpjtAkxClNLh9QPsBYfiog1sGajecwNnBobxMrMUUbF6xzNLa4xGOPB6GMinR2msffhQI0N4tQYF54UrWQ1SblZWZmx4YPfhTq62LpsnD7WoBhjw6bGCFFyglWRsWHOtopGk4vVJqekTuTd5WbPmNksCM27Nv8wZ93Tb96GQGjY/MQTW5rG4NaYGrVEqDGkiNSxnW0mJyaAbS1m5/SIMM7sCW6A0TCwE1f+dH7HB/c9WWAcOx8M1Nghxr4iw7Fn7WYhBCBJdLJkBAGDy9ZFC4yShAg1RtzddoiKidHJGE4ekaRX2a32sRSaI7Q1tXJx8Xr6/RglCTGOx3B3W21TQnJ6ZpwMe7st9bWdg+UCjSaMMjJMAWE6eqEHJQ1xMnOwq6OpsqNJlL4uJqRfdv9zP0m0VO3ftHvoQfQUNRzjO5eKmL95eu03wR4FFdroQQhFSYvWGEVJi9YYRUmL1hhFSYsDAKVKO3CjQRsEXc8Ik5OT/P60sXHsnfKkQgbdjlGUtGiNUZS0aI1RlLRojVGUtEKsxlilVqdVcvTSQ2r0CK1rqRjDnFvuWGDAtobvt27e3+geQ5cmUyFLjBqTTb3xdzdknemJWH545/VdwbiZmHSXfL3VNmX+smmXXJJ19KMiBy0yKuhE2o4JtTv//8YiJwCKmnvr7ckdncF5cxO3pb6sC1IXTNPzXh8tMGo0EON4TGgvLTje7MYYYzDkTI2oPl4VxA0IUkREqMFm6ab3qlCjgij3aJrKvzf19JaUN1VZsbPWLUKvIyZjEQZFVEx0pN2NscducwVzNNS4J+o5D3laXpZw8pNTQY3LIdbjX++acPOyy9dkIiDWwvdf++pUMMdDjXci1hhSZUzPcJS81xbc5DSkylq4OEPZcWTnwXqH4Osy0SA3KqjEqzEUNmVaqrH466C/pzmFUk5sp04cLw9ytVMUgJh591E5ubFNx8uswT6bRxxdXW5GFxFBHxJBjQpi1RgTk5sXUVtUGeRvpFilTp8Yo0PAatQ0W5saFcTaV8Rt3772okh9jRxjmPOTOxZEI2ytOFFDv4CmRoXQupaKdJd89Ukzshlb2q30K2hqdAixGnNbGqoswR4FRZ0t4PEY9naf8w+KokYgYI0567ZjrxV7rc667RdzQBQVYgLuK/q6qrqP/f1iDoWiQhIHAG6XPdjDuCAarbpnEaoqy4M9Foo6V4jdB01Row6tMYqSFq0xipLW/wEVMz9yXOCH0QAAAABJRU5ErkJggg==;" vertex="1" parent="1">
          <mxGeometry x="414.58" y="339" width="174.85" height="121" as="geometry" />
        </mxCell>
        <mxCell id="ekqCBltRWSEwKB1lwB7P-4" value="" style="shape=image;verticalLabelPosition=bottom;labelBackgroundColor=default;verticalAlign=top;aspect=fixed;imageAspect=0;image=data:image/png,iVBORw0KGgoAAAANSUhEUgAAAbwAAALACAIAAABn2lCvAAAACXBIWXMAAA7EAAAOxAGVKw4bAAAgAElEQVR4nOzdeXwTdf4/8PdnZnI0adMzvQ8otLSFIqegKNeiKx6ogAe7nqDrl69fb12PVTwWdD3W9djv1/X4oburW9lVFkSqrooCReWQo7T0oveRtmnSNGlzzfH5/ZG2tCVJO01oS3k/H334kHTmM5+ZSd6dK58XmTI/CxAaQQ6De7S7gNDwMaPdAYQQOptg0UQIIRmwaCKEkAxYNBFCSAYsmgghJAMWTYQQkgGLJkIIyYBFEyGEZMCiiRBCMmDRRAghGbBoIoSQDFg0EUJIBm6I08WGpl038+GJ0dO/Lv0rAFySdWu1qfBfR15p7aw9k91DCKGxhY1JjhnKdOsver3WXPz2vgfLjAcr247srtgSr5u4JGPND9XbzlDPSPj5N99xdVTd4Zoueja2L68zIVkr/uupR25aPaHt24NdM2/ydMyZeuHymcr6mnZh8BaYyHm3rL0qrOZwnX30V8c/oVMc7S4gNHxDOj1nGUVi+OTdlf90iQ7PKy7R8V3Fx4nhkzlGcaa6RgWBFwTqqwSwab/csOHKSXKuL/SfZZD2RxIbv+zuW+OOvPHCk387bqe9HVOk/+L6K7NCyFCaoJLI825xpNYmPjo5Olzf95XocH18dPIILR6h0SOj5ki03wECBWmQGYhCq9MqCauJTkuJVPW8yqojE/RhyoELJgqdPkmvYYFRheo0HAC1Hf/s448OtnUvhVGGxyUkRqhZzz85dXhM4qRJCXFROq2K8bUsLjQmKV6nJN5mGdA+AKuOjI/RsKf1nyjD4hNidKf1+PQ1BYUuITFGyw58/fQt0G9BCk1EYoyus768qavLydPTOgZ9ZvS26QAAgFqPbd+y5bDZ++YKwjr253TZp0+ZGx0R6/lnTETs9ClznS77UOdH6Kw1pGuaWqWOUsqLrr4vugUnpVSjDLc627zPprrowTeu7ipQzDk/vPHL5x7dWq5MW3H/vbfNUnfalaGuor++8vZnFU4KQEIzVj10z625nMVOXMe/KUxaSj647/Wj3EUPvnHF4Qce2dmunHjpo0+szHKbu3TRbOFHT766p2XyFU/+z4Vx0WT9pklHP3r+1T3uAcuqTlx4/6O/mqfrtIi68K59Lz/195/jvcziaZ+q01Y8cN/a2WqbXRUuVWx55X//UWSjoLrowTeuMn3lnnVBPBOiD235dNPz7x/zevKruujB1y9v2m6/8JfpDISHde17+7XXvm5wed0Cpy2Im75q092ejk2u2P7qpnxLT8ccp5ag9r7pBmxtX5urSQQIdB37s3Saj5Tsn5k9r7D8EADkZs45UrLf0mkedEaEznaDF801s56I16XvqvjQ7rb2fd3B23ZVfLhu/h+arVV5h5/3PjM7OcX6yG/uKumkAFz2r+5Zo8i//+Zv61yKpOX3vfrwtWX/nVcqqmfceu/17Gd3//rrOpdqwjUP/Wkx833fNkjYotvW6P/zu5v/1SQqU668Y1lWXEFT6aePvKB893Hln/77r8dFAFD3X5YiY9YMdvcrt356sgtCL3jwxf9aue/OzafP4qHIuem+m8O+ffCmnVVOLnHp3S8/+uvK9W//1AkAbFam+OC995XalZPWPPWn237x1cM7Gr1fkFOct3jCy7+952mDqM24dtOme26oeuJvlQO2gI8F/fz3u/8geOvYqb3kY9N564jXzdXEBmMd+7PYTEdLD8zIOh8AjpXtt9hMQ5gJobPe4Odj7Y5WACCEPf1Xnhc9E3gnntz9XVknBQBgJy25mNv35TF7WFRMTJjryE+Fuulzkhlg0y+aJ363ZVedCwBcNfk791r6H+hQ3mJx6XPnzknTKfn6z//v/V1NXi8M9FkW8BWfvfGHT046VRGJE1KiWDEmNsrnmrKTFl+o2PPxV1VOABCadm/9omP24lwlAABIlXv3lNspgKvmQGGLPj7e5/VFsWnXjl0GAYB2VeT/61DkhfMS2dO2gO8F+eVr03nldXMFZx0RQkM50vyy5L2Cyk+evXzHrvKP7O6O3tc1St2SyWuezr+q023xPbfAC90lkI2IjoycftdjM3qPYizmSiUBNjRCYy0x9xRKwWLugPB+bTgPvvfHj25ZuW7TykRoPPjlJ3/JO9zi7VDo1LKA0Z9/3T23Lc4Js7c0GJpZhrT7rgSsLlrXfsLYU4jFtpY2xXmRIQScANTldHW3KQg8YXz/jaHmto6epfNtRqsuQgdg7L8FfC3I5aW9fj30sem887a5grOO/UWERc/IOt9zen7elHlHSvBgE50ThnRN0yF0EUIUbL+DIgWrIoQ4ha4hLknsMJnbv3nl0bcHnFWy7S2WmAkpSjA4AYBoElJiwNp/Vmqr2PG/L+74XzY0bf76Df9zt+H+p7+1AgD4uvbG5fz63oWu//fkmu9MPDCJq56Zm9nb1ukds5qskYl6BgwSAACrj4/hTe0OCrKOuIg+PooBz90bZVx8eEdNx8BJfC5oML42nQ9eNtf3QVnHPiJCo2ZmzztefshkaQWA4+WHZmbPO3LiJ7ysica9IR1WkO7/evmEeX3RK7Hy+33iL351aXoIAWB009e8+IdVOSoAserrr80L1t2+fGpifFL25b+56rwBhZxNXPH0s/fN0zEgdrY0mxyMUskCALjcfFhccqSXywYABIDvtNgFAFaXdeXiid1Nep1FPPldgWvRmuUZIQRAkbR01XLdz7sKBzv6G4iNW3L18hQlABM27ZobZhkLfjAMrHDDXpCvTQdM5LRl1y+doO27D7xuruCsYx9qlaaw7GCbpfvKTJultbDsoFqlGX6LCJ0lhnSkKUh8W2fDvLQrd5V/yEtuAFAwyvkTrjJ21nv+OST8iY9e/+v/3P3S369x2iBMafz6rTfKXAAgVv/rpSedN95818NrlKaDn+zIn3hzWN/5xOZ9X5xcdt+f8pw2KUxrO/Thi7vaKYDYsPvjnxY8+Nf3f/GXB367o//xrlD88Xulmx7/80fWLoZtKSiuFxQAPmcRSj564/37/ufFj1a4XVyIvfgff/j7waEeP/dZ5HcV5z315s0aRqMyf/fWa/+qFQEGPMM67AX52nTsxEXX3pS968j3NRW9x6s+Nlcw1rGPZlPDgFdMHcYA2kPorEGGmHueHJ6xeuYjqZE5X5VsBoBfZq+tNZ/49OjLDR0VcpfIaaMi2K52q7P3SIxRhyhcDs+FNTbrv99dD3988P+K+x+oMerI6FCwtbc7+75OWHWIwm13erszxKh0MZFcV5u5q98XanzOQpRhkSF8R4fT7zlwyCXPvPvY/D7VUGz59LePlaz8vysOP/DbLx26SKWz76p5M7QFeZvx9E0HDMtKoggAIZc8/dYv9t/7+JdWCr421/AXHUyYe47OakP97nlDR8Vr3/+m959flW4e7hKp0GXq92Ank7ryiZcuqNz8990V1pBJy361jBzbWHnah1pythudpzcmOu2+Pv+Sy9ra7GX5vmahbpt58E+z49vnbvu+7/k9BUnkFq7sbtrSdnonh7cgbzMO3HQAIIkiANGkX7xyebaldEvPV0K9b67hLxoh1G2o3z0/g2hH2fFKdfayXy5ZdsGUGOvPm9/c+rNlsG8bjR5KpQEoQKg+gdT/XGjgR6dPTHjuohzHtx9u+dkySj2QA797js5qQz09RyhY8PQcndVwPE2EEJIBiyZCCMmARRMhhGTAookQQjJg0UQIIRmwaCKEkAxYNBFCSAYsmgghJAM3O2PBaPcBnSso0GZzfaWhcrQ7gtDw4ZEmGjkESEJk6mj3AqGAYNFECCEZhjrKEUKBEwTB1GZMSsaDTXQWI6lp6aPdh+GL1seajK0AkJHpfdiRivLSke0RQmicw9NzhBCSAYsmQgjJgEUTIYRkwKKJEEIyjMeiSVhVqC5Mgw8GIISCb7xVFiZmxopVy7IjFe7iT17bITcpEyGEBhFw0SQqXeLkZH2o2FpU3tRFB5/hjGJTZy/MjnSU7/6ysLoJ47sQQkEXWNEkIVHpWTFSc6uZiwpShwIkSRIVjWVHiioGj9JFCCHZAr2mKbRXVNU028XRPsTsJnXaOiWiDQslo90ThND4FNiRJnVYzQBAlMHpTAAYZWiYhmOUCTFahnTB2I1NRwid3cbLjSDdedfedUkyA1SwVu768qB5jBz5IoTGm/FSNDtPfr+1I4RVJ81aOm/h4mllW45asW4ihIJvvBRNob2+oh2AtOpmnJ+sDVUDWEe7Swih8SjAG0GEEEIYwhAChGEYQkb5BgwTGqYl0GntHN1uIITGrQAfOQpLmJoVrfBUypycWOowHK9sdoziibFCqSQQFpekj2xqt3Txo9cRhND4FODdc2tT0YGmIHUlGKSm4qLWnPPnrF43vQi/EYQQCr7xck2zG3XVffvBW4VJ8RFKO34jCCEUfOOsaAIAiHZjXZVxtHuBEBqfxuMoRwghdMZg0UQIIRmwaCKEkAzj5Jompk4ihEYGHmkihJAMWDQRQkgGLJoIISQDFk2EEJJhnNwIQoHg5tz95/+epyQgNmx/7plP6/GrVAj5hkUTAQBI9Vs3PLutAUe8R2gwgRZNJkSfmJIcruGo22ZurGrpcJ8tY/8yukufu2p+Yf6mnVHr/zLT/OLWfxRJACRuxfKnfx3DAlBJcpjajm4/uOUbk5P2eV0UrA1Nez46kH/MLgEAo866Zv51lyUmaCVzWdW2dw8dMkgAJGr5LzfeFsv2Lk40f/bYzp11lJtz0R8fTlf3DKEnlhx86rkSkwTApax7d5Zp445tlf0ql2bhkpfuTlH0/lto3XLvV7tM1Ef/EUJnWIBDw2liUpO59oqySicbnjYhNdVZctIiBKlrZ5rI81TkKRVEQZLEPtFw/KF9D79a7SRs9LTctfctutawPa9I6n3dxSmTF81ff+/89ke+22em6tmz1y6Dzzdt/amVy1qzZO1vptT8vqRNAgDgj/74+CtVdk+jlHoWIRze99BNP2ouXrzxctOrTx1v4CVhsFonVhze1NMmUEkUqP/+I4TOoMBuBBGO2g2txk5BFFztRhvVqFVB6teZR0WBp4IgUVESJEkQ+gyfTKkkSpLAGwvL9teo09K1TJ/XRZezdld5sRg9MZkAMPqJUcqy6h9rnW5HZ9Huxo606KTebSpJvCDyvMjzIi9IkqesSVQQREGUgFKBF4UhFTtJ4HvbodKg/Se6eXf+8d03nrgihfXeHkJo2AIrmpLVWN9spwAARKkNIU6nKyi9GglUMFe31rS6gdobio0tXV6Klzo5dXoy39zg6H8sSCJmpGaorI0GCgAMy1DaXQ9BkiSGGaEHEvz1n7eZDAZDi8WJh58IBVuQbgQxIdEpCWAs6zhbzs0BQCjO+7YYAMD55SttfX+hmHH+xnfmUMKGKF0V+QX/PsoDkN7XgeVCwHbw/T0FRup53Rdu+ryN787pXlht4aubSpqHddWRzZizMa+7Hee+7x56o17w23+gjhNbX9kwnEUhhAYTjKJJ1BGpmdFCXbXXw7Wzj1B85MW3al0SdXW5XOKA1xv0K5bdkVi6bU/HoFkaYkXhn/5c3UkBACjvsg73Po1YcejZDSeMeJsHobEg4HNJotSlZMYzzbV1bWfNjfNBUJ63WZxWa7+K2fN6V8nOkprMnKWTurecJEqEMN0HnAxDROlUcRNcVlNXu6mr3dRlsQ56vwchdDYIsGhy2oTMBHVbXZ3RBQwhxO/p6vhATVVfFTALVkzQEQCQjNVm95SJF6SplOrQqQuTIupNjf6rI0M4juVYBgjhFCzH9ttiLMsqFJ4fhj21bxhO0fM6RwbfZSQkZ+XDzz6+boEev/CFULAFmkYZFaNVstpJuSkAACB1VB+qs4yTA06fhIr8UsMLOYtSq3fUUufPhz+YMP+6J1ev0Yjm8uq8t8va/BZNbtaCnuc0kx7/6/RTz2kCABN+6e/XXNo9Ia3f8vnzW9sBgM2Y9czfZvUsvOc5TX8UYdEJiQnKCPX4/xuG0EgjqWnpo92H4YvWx5qMraPdi7Mefo0SoaHDookQQjLgRS+EEJIBiyZCCMmARRMhhGTAookQQjKcc0UzWh872l1ACJ3FzrmiiRBCgcCiiRBCMmDRRAghGbBoIoSQDFg0ZWLj593y5MtvbX7pV5k4LDpC5yBMo5QnZPbqm6Y2v/+7l46Yx8tIeAghOQIc5UiXODUrWtE9lg7lW2qKazrHcy0hCo2GtVTUtWPFROgcFVjRpFZD8UEDUCCa6IkZuq42+zivJdRh66ShoVoG2nAoIITOSYFe06SUUlBHpk2OcFbXNXeO+9HJJXuXQx2mGe1uIIRGS+A3gogiZmKCjghUreTG+5i3RKVPjmWbGzCvB6FzVuA3gqjYUVfrUqmjktMmslUnDa5xeYYesuCe1++ayUku45F/vbmnbVyuI0JoCNjwiMgAm6Ai73Y57FZBkxgN7SbHCF7s02i1DnvXmZ4FAECoP7Dj39s/yz/Az//NypjivaVWrJsInZMCOz3ndDEJ0SrPSTmVKAwh9OusRt1mY7ukCQ0Z7Y4ghEZLYFVOIuro5NjIEJbh1FF6jWR3COP8AEwZHqHqbMfDTITOWYFd05Q6mmvbkpNzslMZydnRVtPQNc7vkBCOZUEVFRPKtVjH+98HhJA3gV7TlNw2S5uhtbnJ2Gbq4ke6ZI7cNc0evLGFT//F9Tf/eqmuZNfxQZJ0EULjzzmXRokBlgihQIzzOzcIIRRcWDQRQkgGLJoIISQDFk2EEJIBi+YgML0SIdQXFk2EEJIBiyZCCMmARRMhhGTAookQQjJg0UQIIRmwaCKEkAzBifBlwiZmpEJTabUN48Z6MLpLn7tqfmH+pp1R6/8y0/zi1n8USQAATEj2tfNWX5IYrxGNJRXb3jty1EgBAIhq0hXn33B5SnI4WGtqv9p84PtKngJoFi556e4URW+zQuuWe7/aZYKkVVf8brVq76ZteUUik3beE0+Gbl+/77jgmUg598FV6+bYPnt0Z369Z0wRErdi+dO/jmEBqChYG5r2fHQg/5hdAuDmXPTHh9PVPUElYsnBp54rMUkAjDrrmvnXXZaYoJXMZVXb3j10yOBnPBYirz9EfdFj114/xfrVU/k7G5TnP3DVmmnu3Zs+31Yp+Vhf6nN7ykX0GQseTDW+uasqcf6yyx0HNx1tEwGY0En/syw7lQAFiXd2lleXbC0zWimAIvn25TOmnoq4p1WF375V6aRAQvWTV+VOmKJTSg5LUXnRv6s7XADAxK25Yu7s3o+VZN7+9Y977RSAhMVOXjVtQmYYx3eZDxQXfmFwSECmzLrkjjRl35gYwXj8+YLaTl/9AQCAkOTZT86Nbzux5/UymwQAvtux+u5PqH7y6twJmTqFaG//ubjw88YuAYDRZdy/NFNTvf/FY2080V26eH5UyTcfN/vb897WCwBAE5V+7XkTc3RqcHUUVRT9u9LiBJ/bk/hd7mnr63t/yVxfX+8Hv4JRNJmw2KRIp6GoEytmXyLPU5GnVBAFSRLF7jd8yOzZa5dK21/49IBRlXvzktvW2zduLG2TQDl1xrqr1Xte3fZqNSRdftHd981oePBghQAAIFYc3vT7kjbPu4VKokABCAA4O9nzLk78d1G9e8CSlfrsjM6a2tDsqZov6rt6R2LiD+17+NVqF6dMXjR//b3z2x/5bp+ZCof3PXTTj5qLF2+83PTqU8cbeEmQAADUs2evXQafb9r6UyuXtWbJ2t9Mqentgw8y+yPVVojZs8K+MEedF9NeZT4VVudtfX1uT/l4UaSSJIIkSFSUpFPtiC15X/18lCch4Smr5s+6zrF7c62TAgC15H/z456eoFVJkigAUcStmJvGlB36Q62VREy6ad6sZR3f7zRTkFq37Mz/lyLp1ksnNhb88E1HzxIUcVfNSRVP7N/U4NDEZd82e4blu5/2ddHyI988fgyATbz5svTG3T/s6pRAooLnDNBXf4CdEBtpNlujYqPDy23tFAB8tuOzP1zclXNSoXT/pnq7Kibr9jnTL2j/aa+dAgDleUVCUmZxW/FQPs8+1gvYmMvmTtJW//zS3g4anv6r+TN/2bF7u2efet2e/pZ7+vr63l/y19fn+8GnIASrqfWpkUKTAaPA+6OiwFNBkKgoCZIkCJ6jAKJL0CmrGw7Vutx26+G8ve99bnQBAJDwCVHak1V7SuxOp73qiyPbfuiQlL1tSQIv8p4fgfYULuouaWycOnFa6MAls+mJmULL9z9YkqfHa/sefFAqiZLoctbuKi8WoycmEwAAiQqCKIgSUCrwotBdjBj9xChlWfWPtU63o7Nod2NHWnTSIO8Vmf0hjKOkSZqelDwjJepEk7FfKJ+39fW+Pbs36rw7//juG09ckcLCoKggSVQSRaCCBKJE+7RDqSSJVOy01P7UIiVFhfWsMBUlSRC7fzyfKkYTnsCYf65ptwpiR1v19qPVNXxPgoEkCRKVCHT/j2d7qrQxbEdxg7VL4I2NZR8drKwVuhfpaZYCFSVRECWB0kH6Q8IzY6SqqkaDTj9JcWpSH+147w8bGp7Eth+us3YJgrmlodSpSw4nPWtrKrHGzIxXDCUm0dd6EbUuUWk5XGPuEESrqfrLE02tlOlp0Mv29Ldcb+vre/vIXV8/7wefKz2EDeMPUerj9cTU2OImKo1GhZdIe1HBXN1a0+oGam8oNrZ0H2DRtmP1hqzcW66ZkJGoZq3mosMmzwkHwxAQu/cwdRj3fFxeafe/AMI6mvaX6+fNDem/n5mE3HjNyZbjJ1osGQmTVV5mjJiRmqGyNhr8/ZVjWIZS6dTRAMMMtm9l94e0NxUxE1YvCys7YCEKGIT37enB20wGg6HF4hzK323e0VHd7nBSautoq+nkT5+FUcfmxnBGq99AakIYgJ7twzc01hTb/E0udRmLbVHLZk0+LyZUy7iaWlobhpxAOKA/rC5mksJS2WKudkVmRg/7VLFv/6kIhCW9vxDK6s1pKfGn/fXzwtd6EUIYoFL3JhFqqst+NA0yarev5Q66vkPaX77Xd9D3w2kCPD1XhCclKS0n6xyUaOKS06C+tM6BB5weQnHet8UAAM4vX2nrfVWsLXrzBfslyzNuvOyCGHfrt+/9sKNwkE3GZszZmDfH8//Ofd899Ea951IhwwjFe5quviotqqrP1IxmyrSwhn1Gex1fJV6YPZk52nPtTzHj/I3vzAGWCwHbwff3FBiDvKfk9oeFrsLDcOWS5q11sKBPofWxvt63JwAAdZzY+sqGoXbT1VL6XgsAQGf5odp+/Y+99tJLVgCjVICpoejvNT27hURedekVV3mWJDT9defhUxdTCTd9zuJVcQwArSzc8/d634WQWnf9cKBj8sR50yderxWqTxZtKTXa/O8A7/0h4fqY6I6mWt7qMtHrY8M5g0kY6qoPDSHuloaK7EnTNR2DTzyM9fK1Pb0v1/f6+tpfMvl8P/gUUNEk6pjo0M7WEpvkuciGhoJ2VVZu+3PlNsIlLF1w392z6x4oOOr3oFKsOPTshhPestapq7jq+G2z5sQ39b5EQuNz0mzlm51UMFVUKZbnRjFF3ZcHheIjL77VoF+x7I7E0m17Ovjgrpbs/hAgtGXHF/fuAOASL+rz/vG9vmcWbfti97ET2kl3zg3dW9zQ2ntljbbv+M8Pu7u8fSSpUFJY8CdOff7c+RMGuzRA3ZZDJ44cOgGqsNQbFsy40vJdnsFvufPeH8XkWJ2praiTSg1tFvUUfSIx1QX7OIUKpp9bpi1P1pYP4WMtf718bk9vy/W9vr721xkX2Pk0IQwbkZQ9Ozt3dtbkOOXgM5zz2NTFM5dOUxMAoIJhT1WFIjJFzwCAJFFgu9M8SYh+4Y2ZkzR+W/LgW/cfUMyZF9Z7X0SVnZiuCr/0mRte27xyTS6rnxYf23tpjudtlq6SnSU1mTlLJw2y5yVRIqTnKhTDEFEaUhGT05+xhkpOl8tirN5riVw0OWKQwwlKJQCGAO92Why8G0Ck/kqXIiJl+aRoz4mny9ZwuI1JjNAMUma99oeLzoxkYzMvfPbKyx6fEcOFxkwOHd7xSnf/AQCAsED731mTquua1UkJMYPdF/G1XpRSCUjPJR1uwsQpF0RzQ+joacv1s76y9tcg6ytLQG9g6mypKj5WXnb8ZNnxk7XGgTdN0emoFJN09S3nzUxWcZxqwiUZU9zmOqMEQDtqzF2T0xdmadXqkPTLZl5zYThzansynIJVeH64ATHJtLagluYm6XvKW/r0WLFg9yO3591/e94DTxQ2JSdkRvR7s1JT1VcFzIIVE3SelxnCcSzHMkAIp2C57ks9krHa7J4y8YI0lVIdOnVhUkS9qXFIVVN2f7zxs77ekJCclQ8/+/i6Bfog1GPqOFzexKVNmn7q6ithGYZju388HzzJ3mGQomanhWtZVheTcl6Yvc7iuWZHGIbhGMJQ6P4fAACQaEh2ztRLEkM1DKONTDtfLzVZ7EM6NurfHy4qZiJt/PvOL5/8/MsnPy/4piN0cozK7/b03h+xs6NJjJyZotOybGRccpba2tDRv2paGo9B9BTtIPvK13pRp7XJHTFrQlQEx+miJl6WkxRLeguhl+3pa7mDr+/A/TXM9fWOm3LdhqdvnxfWv4+BXdOkosiLnl1PuHEeRBkcUsNnez/Uzr366dV3aiVrbeO3r/9caAcAcBcf/X/b5914/4oVOrDVNOx889jJnnMcNmPWM3+b1f2Pnuc0+7RYfaAld2WCZ9KorKlM2cfNLs+vmhqPG3NyshV79/U9Fxcq8ksNL+QsSq3eUUu5WQt6ntNMevyv03uf03T+fPiDCfOve3L1Go1oLq/Oe7vM//NG8vrzg78WvK2v/ze4Iiw6ITFBGaEOykUid1vVPuvFi9N1R0usEgCQiMuXLb+8+5c9z2nyLZ8dDFude/7vpislR/vRwiO7Ozw39GJv6HlOMHvxZct6nhMUOyo/PKK4JueCp85XSmgrngMAACAASURBVC5r6cnDn/k/h/Xen87E2BiurbTS85mjXSUtjoWxUerqJoevmX30B4SWnYd1q6bNe3KGUnCYjxwr/NHefxtT29F6x7KpWv9987leYtuXhypXTZ/1SI4KXB0nyg7/p/f94217+lgu42t9Xd63j1Ua9vp633iTstNUJcYBk2KwWvAXMY6x0Ve/sGxJvwM6sfAvWzfvD/K9CDS2MCk5F92Zrum734XmY88fMozvs0vV3LtevY1/54HNx/qtZ3C+EYTOEaJp+2+3bB/tXqCRJtWf2LPhxGj3YqSxsSlJTM3XVQNvmWLRRAghL8T6rRvWe3l9rN7JRAihMQmLJkIIyYBFEyGEZMCiiRBCMmDRRAghGbBoIoSQDFg0EUJIBiyaCCEkAz7cjmTj5tz95/+epyQgNmx/7plP6zHmBJ1LsGii4ZDqt254dlsDDtKCzj2BFU2i1mdOj9f0hIs4DZU4cnsPWWmUXOItb/1iga5fTk7pe1tf+9oe4iON8lS6pCQ5TG1Htx/c8o3JSX2nXQYrzRGhc1zAR5rU2VZR1NzVPWC934FYzzFy0igFw4frP8ojRHXhwucvN7/8dFGzSCWxewBCX2mUnnRJJ2Gjp+WuvW/RtYbteUWir7TL4KU5InRuC/z0nADQnlqJH8RTvKQn0p40ytJDtS43uA7n7XVNJi4AACoJVAJgBAAqCW6R73cUKAn8gFc8i6CSKEkgGQvL9tdkzU/XMkU2H+376g8AABDdvDueviPXtO3lF3fiBUqE/Av47jlRRafPys6dmZk5Wa/FK6SnyEyjDIQ6OXV6Mt/c4JD8tB+0NEeEzm0BDkJMWI5jGALAqqPSkmNcDSeqA68BQ3dWDkJMtJPSL1menjst5vQ0StWCJS9f1fbCE8cNPVtR0/+aZk86I4lbsfzp63V2u0QJG6J0VeT/+MG/DB3SIO0HBzfn7jeuanwebwShc1KAx4ZUFHjP+Rzf0myLSQlRERveCfIvaGmUQvGRF9+qdUnU1eVynTqrlt0+QkiGwE7PWV1sWkLPIPiUAiV4WdM/n2mUw0B53mZxWq19K2Yw20cIeRHY50mSGE18XLSWYzh1pD4U7PbxnRkSOF9plP4NPZ1xWO0HNc0RoXEuwDTKztZaQ1LqlClJrOTqMNXW2vDeq38+0yj98J9GGXj7wU5zRGhcwzTK4C9i3MOvUaJzGRbN4C8CITSO4UUshBCSAYsmQgjJgEUTIYRkwKKJEEIyYNEMsmh97Gh3ASF0BmHRRAghGbBoIoSQDFg0EUJIBiyaCCEkAxbNMYaNn3fLky+/tfmlX2Wyo90XhNDpcKz1sSVk9uqbpja//7uXjpjdOMoeQmNQUI40FeETZ07qDaVEw0cUGg1rqa9rx4qJ0BgVhKLJhCbGqtqaWu34OQ8Yddg6aWioFq+aIDRWBR6spo5K0HU1NjkwLiYYJHuXQx2mGe1uIIR8CbRocuHJejWrTc7NysqMC1fiGXpAiEqfHMs2Nww+ljtCaJQEdiOIhETGhdmby+rbHGxoSmraJMFZanLhabp8IQvuef2umZzkMh7515t72nATIjRWBXSkSVSROra9rc0uUcrbmkx2bVgY3o4fFse+N39zy9p1v9nwBXv1HZen4NNGCI1VgZ2eMxzb54ScEAAJj5ECQN1mY7ukCQ0Z7Y4ghHwJqGhSZ0cnRMXG6hQMp4xIjg7ptHZiXkxAlOERqs52K/7pQWisCuxsWupormpITEnPjFdI7g5zbRU+XxgYwrEsqKJiQrkWq4CbEqExiA2PiAxkfip0WU3NxpamtjZTl3ukDzM1Wq3D3nVGZznT0w/AG1v49F9cf/Ovl+pKdh03Yd1EaKzB+zZjC3VU/uetp/4z2t1ACPmCXz1BCCEZsGgihJAMWDQRQkgGLJoIISQDFs1RhumVCJ1dsGgihJAMWDQRQkgGLJoIISQDFk2EEJIBiyZCCMmARRMhhGQI7LvnTHRa7mTdqcJLXa0nyhs7A+0UGgJGd+lzV80vzN+0M2r9X2aaX9z6jyIJAIAJyb523upLEuM1orGkYtt7R44aKXCJt7z1iwW6vmkkUul7W1/72pOGp5z74Kp1c2yfPbozv94zRgiJW7H86V/HsABUFKwNTXs+OpB/zO4zhcNn+47Y3nYkyWFqO7r94JZvTE7qo59+1ku2iKmqlddyk/VE6hCPfuH67EfJHdTp0bkq8AE7OhqLytoFChASnZGjdbiC0Ck0FCLPU5GnVBAFSRLF7gGRQmbPXrtU2v7CpweMqtybl9y23r5xY2mbYPhw/Ud5hKguXPj85eaXny5qFqkk9owYrdRnZ3TW1IZmT9V8Ud/VO7ISf2jfw69Wuzhl8qL56++d3/7Id/vMPoZd8tk+6W3HSdjoablr71t0rWF7XpHovZ+Sz/WSiURwq25j7f90PHtYUk9W3nKHelmTPb82aNOjc1hgp+fUbmk22kVKKYA6OlJpae/gg9QxNAgqCjwVBImKkiBJguA5yiO6BJ2yuuFQrctttx7O2/ve50YXAACVBInnRV4AoJLgFnleEnsO4Nj0xEyh5fsfLMnT47V9DxYplURJdDlrd5UXi9ETk/3E5vlr39OOJPDGwrL9Neq0dC3js5++1qt75ebd+cd333jiisHjQJhENskmFPwsuUToKOcP1DKpacRP/+VOj85hARZNR0eLySkBANFER7MdbThw+4ihgrm6tabVDdTeUGxs6T5ApG3H6g1ZubdcMyEjUc1azUWHTbZBzm6ZhNx4zcmW4ydaLBkJk1WnT0AiZqRmqKyNhkBH91Qnp05P5psbHJKffnpfLw/eZjIYDC0W5+A9IcAIIAIo1YQBEEVg/b/V5U6Pzl1BGk+TCY8Ip5ZqK0bPjhyhOO/bYgAA55evtPW+KtYWvfmC/ZLlGTdedkGMu/Xb937YUejwV2MYzZRpYQ37jPY6vkq8MHsyc7TnGqJixvkb35kDLBcCtoPv7ykwDrNoetqhhA1RuiryC/59lPfbT+/rBQBAHSe2vrJBxpKZOMX6x5SGt+1VZ2Z6dE4KTtHkwvU6wVTl98OJRgjtqqzc9ufKbYRLWLrgvrtn1z1QcNTuc2oSGp+TZivf7KSCqaJKsTw3iilq81RNofjIi2816FcsuyOxdNue4V94EYqPvPhWrUuiri6X69SpiLx+DovUKnz8huisg4xFZ2R6dE4KxjkIUYZH6VzmNswHGn1s6uKZS6epCQBQwbCnqkIRmaL3t5NV2YnpqvBLn7nhtc0r1+Sy+mnxsT2TU563WbpKdpbUZOYsnTT8dwrleZvFabX2rZiy+yl7oSBxwFLaUil1CMCyIA04CyIyp0eoWxDep0QZHamxtbe7sGaOPirFJF19y3kzk1Ucp5pwScYUt7nO6Ofjz6RPjxULdj9ye979t+c98ERhU3JCZkS/ekJNVV8VMAtWTNAF876I3H4CAAAJyVn58LOPr1sweHmVmsSmMG7BLEbFQHiGcm6aVFdHe9+g2umqJ/+k/a/FDDO06YGbct2Gp2+fF4a3hlAwTs+JOlqvsNZ3CEHoDQqU1PDZ3g+1c69+evWdWsla2/jt6z8X+jnnZaOypjJlHzd77lxLTY3HjTk52Yq9+/qeiwsV+aWGF3IWpVbvqA3WH0aZ/eymCItOSExQRqgHLV7UInzyAbPq2pBnbiGCRSzc6vy6ps+vCZEo0CFPz8ROyk5TlRjteFyAAEhqWvpo92H4ovWxJmPrGZ1lrE0/utjoq19YtqTfgZ5Y+Jetm/eP7z+Zqrl3vXob/84Dm4/h8+4I0yiRHKJp+2+3bB/tXow0NjYlian5ugqfQUYAWDQRGpRYv3XD+tHuBBoz8AlehBCSAYsmQgjJgEUTIYRkwKKJEEIyYNFECCEZsGgihJAMWDQRQkgGLJoIISQDFk2EEJIBiyZCCMkQ6NcoiSo6IS05MkQpuTtMDdVGG48DwYwMH6mNmoVLXro7RdE7mdC65d6vdpkgadUVv1ut2rtpW16RyKSd98STodvX7zsu9KROUio67Y1Hyz/5oKjM4nsXjsXUSaJlF9youmIWY9/t2PRPcdBGMHUSBSawoklU0WkTQjoryk/amYi0CWmpzhOVGHkxQnymNooVhzf9vqR7+HUqiQL1DLnr7GTPuzjx30X1A4oEf7DgwVeq+LDIC9Yuuesux3Mvn7T42odjL3UynLvxIVV8qTv/gGLhUKbH1EkUqABPz0PUSofVZOMlwdXe1klD1EocpnWE+EltBEngRd7zI9CeAkjdJY2NUydOC/Xenmhr/zG/tiszLtXfe2KspU4CSys/cbz5D97gGtI7D1MnUcACTKPssnUqdFGhCpZVRsRopQ4bRl6MFH+pjV4R1tG0v1w/b26IryJBBVFg2cEL1WBGMHWSmsUDhZKM0TwxdRIFKsBrmrzV0KiblJUVz1Cxs6261oHn5iPGZ2ojmzFnY94cz/8793330Bv1nqLCMELxnqarr0qLOjNhi6OXOikXpk6iAARWNBldwqQk0nyixOIkmviUtMyYkyVtmBU0ysSKQ89uOOEtcYe6iquO3zZrTnzTmVju6KVOyoWpkygAAZ2bEHW4FjrM7V2CJPKdLWaHJkwb+MkdOoP41v0HFHPmhXm970I4lhNE0ctvhmRUUicHhamTKMgCev9Sd5eTiYiK0nAMqwiLi9K67a7xHRZzlmA4Bavw/HCk/y6mtQW1NDdJf9p1TTYs8oLL07QVLXXBrCJnOnUSCLAccApgGUoYUCiA6/NnG1Mn0RkQ2Om5YDbUqBOTsjJTOOA7O5pOGruC1C80fGzGrGf+Nqv7Hz3PafaSGqoPtOSuTDj1imLuRa9/vEB02RuPlr/zdqXP542G40ynTjIJyvsfVyZ2F8qQ5xeCcNT51DtC91NVmDqJgg/TKM+y6UcGpk6OdlfQ2IXBasgLTJ1EyBcsmgh1w9RJNBT4ZC9CCMmARRMhhGTAookQQjJg0UQIIRmwaCKEkAxYNBFCSAYsmgghJAMWTYQQkgGLJkIIyYBFEyGEZAj0a5SMOiY+JTlCo6BuW3tTdXOHKyjdQoPynubYky4JQEXB2tC056MD+cfsPeMWKec+uGrdHNtnj+7Mr6cAAER90WPXXj/F+tVT+TsblOc/cNWaae7dmz7fVknjfKVLeuUzpdLOzrnojw+n9w5XJJYcfOq5EhP1tVzJR5omDVJ6JZOofODUqEgAgvDPJ5z7O/3NgumVqL8A0yhD9RNSVO2VFZV2RpeSmjpJqChpGzzYBQWDzzRHTyqki1MmL5q//t757Y98t89MAQCU+uyMzpra0Oypmi/qe0N5pNoKMXtW2BfmqPNi2qvMmgHtDEiX9N4XnymVIBze99BNP2ouXrzxctOrTx1v4CVB8owM7HO53tI0/a2vHJLB/doDbkIAlOyC29VzzUKZ35HqML0SnSbAkdsjdWx7a6uVlwSXpd5k14RpcQSQEeInzZFSSZREl7N2V3mxGD0xuftXbHpiptDy/Q+W5Onx2t7JCeMoaZKmJyXPSIk60WTkBrbTP13SZ298plRKVBBEQZSAUoEXhd5i52e5XtM0g5ReSUEUQCDM/FtVc9tc734s+B8+FNMr0WkCu6ZJ+o3wKlEqYXjASBk8jZJEzEjNUFkbDZ5fMQm58ZqTLcdPtFgyEiar+kzX3lTETFi9LKzsgIUoTmumX7pkMA263H6Ck17pWXDqcvXVmdDuJrG6QafF9Eo0QEAHhtTZ0Uknx0S3OkwOJjQxWmMz1Q07YQbJ5DPN0ZMKCSwXAraD7+8pMFIAAEYzZVpYwz6jvY6vEi/Mnswc7bkmyEJX4WG4cknz1jpYQAa2MyBdMoh8LddHmmbw0iup8SfXuydJwmzlrQ8wf3veVT7YhXhMr0R9BHY2LdlaapsSkzMy4ihllNRU2jG+R/Y+OwjFR158q0G/YtkdiaXb9nR4Sh0Jjc9Js5VvdlLBVFGlWJ4bxRR5LhsSILRlxxf37gDgEi8iA9o5PV0yWHwu13eaZrA4WsTyFigvB/2zytwJUF42yPSYXon6CPQSpGRvaShvIar4iZO0ptZOvAc0BlCet1m62naW1Lycs3RS5dYKCQBU2YnpqvCMZ25YBkA4VhEeH8u0NfvdX550SecI9XpkqCYqlqVJ3+0W7RRAorxAVAOugxLoHyrUnV7ZVEmBEEyvRMF5TpOoIpITwNhgxcPMMYSaqr4qYBasmKAjAMCkT48VC3Y/cnve/bfnPfBEYVNyQmbEiNzQYAjHsRzLACGcguXYoSzUT5qmNzLSK3lgpl2lXJJNVEqSMEeRoxXrDKd+i+mVaAiCcLObi0iJU5hqTS48zBxbhIr8UsMLOYtSq3c0RGVNZco+bvZcvJOaGo8bc3KyFXt/OOOd4GYt6HlOM+nxv07veU7T3yze0jT9v7eGnl4p1bj+/m/1ql9pfx8BzhZh/99cB9r7/BrTK9HgMI3yLJt+dJ2jKZW+YHrlOQkfq0QynJsplb5geuW5CYsmQsOE6ZXnJnxSFyGEZMCiiRBCMmDRRAghGbBoIoSQDFg0EUJIBiyaCCEkAxZNhBCSAYsmQgjJgEUTIYRkwKKJEEIyyPkaJVHpEicn60PF1qLypu64AUYdm5CaFBHCSrytvbG6pcONA76MDN9plL/LLnvspUo7BTbn/I33MH+756cSAYBRZ10z/7rLEhO0krmsatu7hw4ZJAAALmXdu7NMG3dsq+w7UGRPqiWlotPeeLT8kw+Kyiy+d+1Zk0YJAOE5ypUrFZlxRGgXj+W7PvtpkHRJTKNE/Q25aJKQqPSsGKm51cxFnXpRE5OWrGgvK62wM2FpE1LTnF0VlnNzwJuRJy+dUT179tpl8PmmrT+1cllrlqz9zZSa3sRHH/iDBQ++UsWHRV6wdslddzmee/mkzxCysyaNkkQqbrid69ji+H2hpM1R3XqrenGj4z/1PhvDNEp0Ghmn50J7RVVNs73vu5XRhKg6LaYukVLe1tLhDlGrcDjWEeInndELRj8xSllW/WOt0+3oLNrd2JEWnTS0fS/a2n/Mr+3KjEv1N/3ZkkbJaMFU4P76Z8nuBmOhcNxIUpLAz6bDNEp0miEXTeqwmjuFAX+RCSEgUQqEYQAohSGMso2CZPA0yn4YlqFU6p5IkiSGGfq+ooIosOzg8bgyjUYapdjAf7pd8MTAkzCSGkWbDeBvLkyjRAMFY2g4Vp+WneyuLsVhBUeUz3RGbvr5z709mwIAy2n5sRugOGpplAAAoGAW3KzSF7ry6gY/0cc0StRHMIqmaDactEtOGhGEtlDghJKjr/y5xgHAZM589PbR7o1Po5hGCQpm/rqQJaL7vTxhKGGAmEaJ+gisaFJKgSFEdNm7gIQQoHjrfCzg3dYOh50C2ynQngswkigRwnSXJoYhooxURcKxnCCOm0R7BXPhupAlkuud94WW08+OMI0SDWLoF2gIIYQwhCEECMMwhBAAye5wh0ZEa1nCKHRx4UqHA9PVxibJWG12T5l4QZpKqQ6dujApot7U2OfTz7I96Y8KZsBFOzYs8oLL07QVLXXDqxZjK40SlMyCO0OWSO7NfxdMAJyi3zVK2WmU6Fw09EeOwhKmZkUrPG/5nJxY6jAcr2y2t9U0JKRlZiVwEm9tr6/uwOeNxijnz4c/mDD/uidXr9GI5vLqvLfLTj1vxIRf+vs1l3b/g9Zv+fz5rRYAUMy96PWPF4gue+PR8nfervT5vJFfYyyNkklSXJxDohjVwzNUAABADV84/rRD6j6MlplGic5JmEZ5lk0/ujCNEiEMVkMyYBolQvjQGUIIyYBFEyGEZMCiiRBCMmDRRAghGbBojrKz6NY5QgiwaCKEkCxYNBFCSAYsmgghJAMWTYQQkgGL5thAopc99t5fXtt49xWZWhwYHKExDIvm2EBN3/zhrodeOxh25a2XJONOQWjskvP5JCpd0tScGfOmJPY5GPL6IhoOsaupvl1kmaDnSiCEgmfIRZOERKXnxCvNreY+QSxeX0TDRSLiYliTcZBx0BBCoymwNEofL6LhYaJjI+2tbXbcmAiNXYGlUXp9EQ2bzWLjouNiMAcZobEL7zmMIWLjt1t/ir7+hXf/3/t/e/fZa/CGEEJjEA5CPIawk6761QWt/3j0uX1GzFpCaIzCg5mxRBQlcNgsWDERGrsCS6P0/iIaJrG5wcDFJ0SfvlO4KddtePr2eWG4eREabYGlUbYovEVUOvBAaVgYdWSYCsJ0pz/wysROyk5TlRjxvjpCo27IRZNam4oONA181eHtRSQfiV722EvXJ5krCrbsqhEH/laRlBLnPLm94bRfIIRGGt4IGhuo6ZsX1n3j45dsbEoSU/N1FT+iXUIIeYNF8ywg1m/dsH60O4EQAgC8e44QQrJg0UQIIRmwaCKEkAxYNBFCSAYsmgghJAMWTYQQkgGLJkIIyYBFEyGEZMCiOcaw8fNuefLltza/9KtMzApCaAzCbwSNLSGzV980tfn93710xOzG0TkQGoPkFE2i0iVOTtaHiq1F5U1dno80E6JPTEkO13DUbTM3VrV04Ec9EESh0bCWirp23IwIjVEBplFqYlKTOUtF2fEjlc18eGpqOB65BoQ6bJ00NFSLV00QGqsCS6MkHLUbWo2dgii42o02qlGrgt/Fc4pk73KowzSj3Q2EkC+BpVFKVmN9s2dkXKLUhhCn0xXc7p1jiEqfHMs2Nxil0e4JQsiHIJ1OMyHRKQlgLOsQgtPeOSdkwT2v3zWTk1zGI/96c08bXtFEaKwKRtEk6ojUzGihrrqlCz/sw+TY9+Zv9gFR6hf9z5N3XF7x+231OEo7QmNSwHcciFKXkhnPNNfWteEd30BRt9nYLmlCQ0a7IwghXwJMo+S0CZkJ6ra6OqMLGEIIYFxiYJThEarOdiv++UForAowjVIdFaNVstpJuSkAACB1VB+qs+AnftgIx7KgiooJ5VqsA++6IYTGgkDTKOsL99cHt0fnNNp56N/bpt227qV3+D1/ePwf5XhhE6GxBh9GH1uoo/I/bz31n9HuBkLIF/zqCUIIyYBFEyGEZMCiiRBCMmDRRAghGbBojrJofexodwEhJAMWTYQQkgGLJkIIyYBFEyGEZMCiiRBCMmDRRAghGbBoIoSQDIGlURJd4qmhj4DyLTXFNZ04OM+IYHSXPnfV/ML8TTuj1v9lpvnFrf8okgAAmJDsa+etviQxXiMaSyq2vXfkqJECl3jLW79YoOs7cJ9U+t7W1772ZJUo5z64at0c22eP7syv9+w+Erdi+dO/jmEBqChYG5r2fHQg/5jdZwqHz/Ydsb3tSJLD1HZ0+8Et35ic1Ec//ayXbETLLrhRdcUsxr7bsemf4qCNRExVrbyWm6wnUod49AvXZz9K7mEtF413Qx8aLiQqPStGam41c1G9L1KrofigASgQTfTEDF1Xmx0r5ogReZ6KPKWCKEiS2JN3FzJ79tql0vYXPj1gVOXevOS29faNG0vbBMOH6z/KI0R14cLnLze//HRRs0glUeqeR6nPzuisqQ3Nnqr5ov7U6Pv8oX0Pv1rt4pTJi+avv3d++yPf7TP72L8+2ye97TgJGz0td+19i641bM8rEr33U/K5XjKRcO7Gh1Txpe78A4qFQ5k+glt1G2v/p+PZw5J6svKWO9TLmuz5tcNaNhrnAkujBKCUUlBHpk2OcFbXNXdiINiIoaLAU0GQqCgJkiQInqM8okvQKasbDtW63Hbr4by9731udAEAUEmQeF7kBQAqCW6R56XeYy82PTFTaPn+B0vy9Hht34NFSiVREl3O2l3lxWL0xGQ/I0z7a9/TjiTwxsKy/TXqtHQt47Ofvtare+Xm3fnHd9944ooUdtDNw9LKTxxv/oM3uIY0LjaTyCbZhIKfJZcIHeX8gVomNY3giNrIm8DSKAEAiCJmYoKOCFSt5PBdNnKoYK5urWl1A7U3FBt74plo27F6Q1buLddMyEhUs1Zz0WGTbZC/ZExCbrzmZMvxEy2WjITJXjKYScSM1AyVtdEQ6GmEOjl1ejLf3OCQ/PTT+3p58DaTwWBosTgH7Qk1iwcKJRkxfwQYAUQApZowAKIILF7uR94FPp4mFTvqal0qdVRy2kS26qTBhWfoI0Mozvu2GADA+eUrbb2virVFb75gv2R5xo2XXRDjbv32vR92FDr87RJGM2VaWMM+o72OrxIvzJ7MHO25hqiYcf7Gd+YAy4WA7eD7ewqMw9yznnYoYUOUror8gn8f5f320/t6AQBQx4mtr2wYXieGhIlTrH9MaXjbXnUGF4LOdkEYhFhyd3W6uzo7iWZqrFbR7MJ8tdFFuyort/25chvhEpYuuO/u2XUPFBy1+5yahMbnpNnKNzupYKqoUizPjWKK2jxVUyg+8uJbDfoVy+5ILN22p4MfboeE4iMvvlXrkqiry+U6NRa9vH6OCKlV+PgN0VkHGYtGtyNoLAvsHITTxSREqzwn5VSiQPCUZpSxqYtnLp2mJgBABcOeqgpFZIre315RZSemq8IvfeaG1zavXJPL6qfFx/ZMTnneZukq2VlSk5mzdNLwdy3leZvFabX2rZiy+xl0Ay4lUZA4YCltqZQ6BGBZkPD6PPIusDRKiaijk2MjQ1iGU0fpNZLdgWlgo4tKMUlX33LezGQVx6kmXJIxxW2uM/r5+DPp02PFgt2P3J53/+15DzxR2JSckBnRr55QU9VXBcyCFRN0wbxiLbefAABAQnJWPvzs4+sWDKG8EmA54BTAMpQwoFAA1+fmkXa66sk/af9rMdPbjtQkNoVxC2YxKgbCM5Rz06S6OnrqvcxNuW7D07fPC8OL9ijQNMrmjubatuTknOxURnJ2tNU0dOGf59ElNXy290Pt3KufXn2nVrLWNn77+s+Ffs552aisqUzZx82eO9dSU+NxY05OtmLvvr7n4kJFfqnhhZxFqdU7aoP1N1FmP7spBSXGkgAAIABJREFUwqITEhOUEepBixeToLz/cWVid6EMeX4hCEedT70jdD96SYhEoe+6UIvwyQfMqmtDnrmFCBaxcKvz65o+rcVOyk5TlRjxiToEACQ1LX20+zB80fpYk7H1jM4y1qYfXWz01S8sW9LvQE8s/MvWzftl3Kc+C6nm3vXqbfw7D2w+hs+7I0yjRHKIpu2/3bJ9tHsx0tjYlCSm5uuqYd8KQ+MKFk2EBiHWb92wfrQ7gcYMvN2NEEIyYNFECCEZsGgihJAMWDQRQkgGLJoIISQDFk2EEJIBiyZCCMmARRMhhGTAookQQjJg0UQIIRkCS6PswYRNzEiFptJqm+hzbhRcPlIbNQuXvHR3iqJ3MqF1y71f7TJB0qorfrdatXfTtrwikUk774knQ7ev33dc6EmdpFR02huPln/yQVGZxfdYPmMxdTI8R7lypSIzjgjt4rF812c/DZIiiamTKDCBpVF6MGGxSZFOQ1EnVsyR5DO1Uaw4vOn3Jd3Dr1NJFKhnyF1nJ3vexYn/LqofUCT4gwUPvlLFh0VesHbJXXc5nnv5pMVX+Rp7qZORihtu5zq2OH5fKGlzVLfeql7c6PhPvc/GMHUSBSzQNEoAotanRgpNhnaMuRhRflIbQRJ4kff8CLSnAFJ3SWPj1InTQr23J9raf8yv7cqMS/X3nhhrqZOMFkwF7q9/luxuMBYKx40kJWngoOz9psfUSRSoQNMoiVIfryemxhY3UWk0KrxEOmL8pTZ6RVhH0/5y/by5Ib6KBBVEgWUHj8cdzAimTooN/KfbBU8cOwkjqVG02QD+5sLUSRSoAIeGU4QnJSktJ+sclGjiktOgvrTOb/QhCh6fqY1sxpyNeXM8/+/c991Db9R7hghmGKF4T9PVV6VFnZmwxdFNnVQwC25W6QtdeXWDvwExdRIFIKCiSdQx0aGdrSU26bScKjR6xIpDz2444S1xh7qKq47fNmtOfNOZWO4opk4qmPnrQpaI7vfyhM4h/NHG1EkUgMDOTQhh2Iik7NnZubOzJscpg9QndObwrfsPKObMC/N634VwLCeIw76dN1qpkwrmwnUhv5Bc77zHG04fXB1TJ1GQBZRGSZ0tVcXHysuOnyw7frLWiE9ujBUMp2AVnh9uQKwyrS2opblJ+tPODNiwyAsuT9NWtNQFs4qc8dRJJbPgzpAlknvz3wUTeOInT/0SUyfRGRBgGqVD5LuPTAiHf7HHCDZj1jN/m9X9j57nNHtJDdUHWnJXJpx6RTH3otc/XiC67I1Hy995u9Ln80bDccZTJ5MUF+eQKEb18AwVAABQwxeOP+2Quo91MXUSBR+mUZ5l048MTJ0c7a6gsQuD1ZAXmDqJkC9YNBHqhqmTaCjwyV6EEJIBiyZCCMmARRMhhGTAookQQjJg0UQIIRmwaCKEkAxYNBFCSAYsmgghJAMWTYQQkgGLJkIIyRBYGiVR6zOnx2u6x6KhTkMljtw+UrynOfakSwJQUbA2NO356ED+MXvPuEXKuQ+uWjfH9tmjO/M92WNEfdFj114/xfrVU/k7G5TnP3DVmmnu3Zs+31ZJ43ylS3rlM6XSzs656I8Pp/cOVySWHHzquRIT9bVcyUeaJg1eeiXRsgtuVF0xi7Hvdmz6pzhoI5heifoLOI2SOtsqipq7PG89QrFijhifaY6eVEgXp0xeNH/9vfPbH/lunydER6nPzuisqQ3Nnqr5or43lEeqrRCzZ4V9YY46L6a9yqwZ0M6AdEnvffGZUgnC4X0P3fSj5uLFGy83vfrU8QZeErrH+fe5XG9pmv7WVw4Szt34kCq+1J1/QLFwKNNjeiUaKAhplACUUqAUKJbMEeQnzZFSSZREl7N2V3mxGD0xuftXbHpiptDy/Q+W5Onx2t7JCeMoaZKmJyXPSIk60WTkBrbTP13SZ298plRKVBBEQZSAUoEXhd63j5/lek3TDE56JbC08hPHm//gDa4hDTSM6ZXoNIGmUQJRRafPys6dmZk5Wa/FMZNGzuBplCRiRmqGytpo8PyKSciN15xsOX6ixZKRMFnVZ7r2piJmwuplYWUHLERxWjP90iWDadDl9hOc9EpqFg8USjJGBcX0SjRQYGWOusyVRywMAWDVUWnJE1OcJ6ptOIL7yPCZ5uhJhQSWCwHbwff3FBgpAACjmTItrGGf0V7HV4kXZk9mjvZcE2Shq/AwXLmkeWsdLCAD2xmQLhlEvpbrI00zyOmVcmB6JeojwGNDKgq85zIX39Jsi0kJUREb3gkaZULxkRffatCvWHZHYum2PR2eUkdC43PSbOWbnVQwVVQpludGMUWey4YECG3Z8cW9OwC4xIvIgHZOT5cMFp/L9Z2mOVowvRL1EVjRZHWxydrOeoNdAgBKgRLAijnqKM/bLF1tO0tqXs5ZOqlya4UEAKrsxHRVeMYzNywDIByrCI+PZdqa/e4tT7qkc4R6PVYQ6B8q1J1e2VRJgRBMr0QBplGCJDGa+LhoLcdw6kh9KNjt+DTGWEFNVV8VMAtWTNARAGDSp8eKBbsfuT3v/tvzHniisCk5ITNiRG5oMITjWI5lgBBOwXLsUBbqJ03TGznplQRYzhNaSQkDCgVwfW4eYXolGoIA0yg7W2sNSalTpiSxkqvDVFtrC/5ZHBouoSK/1PBCzqLU6h0NUVlTmbKPm10AACA1NR435uRkK/b+cMY7wc1a0POcZtLjf53e85ymv1m8pWn6P4GRkV6ZoLz/cWVid6EMeX4hCEedT70jdP+xx/RKNDhMozzLph9d52hKpS+YXnlOwoeEkAznZkqlL5heeW7CoonQMGF65bkJn9RFCCEZsGgihJAMWDQRQkgGLJoIISQDFk2EEJIBiyZCCMmARRMhhGTAookQQjJg0UQIIRmwaCKEkAyBpVF2U4RPnBbjKKtqxtFeRo7vNMrfZZc99lKlnQKbc/7Ge5i/3fNTiQDAqLOumX/dZYkJWslcVrXt3UOHDBIAAJey7t1Zpo07tlX2HSiyJ9WSUtFpbzxa/skHRWUW33v3bEqjDM9RrlypyIwjQrt4LN/12U+DpEtiGiXqL+A0SgAmNDFW1dZQixVzZMlLZ1TPnr12GXy+aetPrVzWmiVrfzOlpjfx0Qf+YMGDr1TxYZEXrF1y112O514+afE1/dmTRhmpuOF2rmOL4/eFkjZHdeut6sWNjv/U+2wM0yjRaQJOoyTqqARdV2NTkEO30GD8pDN6wegnRinLqn+sdbodnUW7GzvSopOGtu//f3v3Hd9Wfe8N/HuGtre8Z5adxBmELBLMCk3Ye7X0tpRZHh66Sy+0l9GmUMpoS0vvQ4Fc6O0gpKVpAiSUXTIY2XGceMV7SLYs25JszXPO7/lDduIklqxj2ZZsf94v/gjS0dFP6+Ojc45+H9nV89n2pv6SrMJwy0+WNkreRPZd/vf3K24/2cqlIzauII/CPHVoo4QzRNtGKSbnZ+gFU/6iefNKspK1eDtNmJHbKE/BCzxjysBCiqLwfOR/L5kkS4Iwcj2uSrFoo5RbA//YKgVr4LlErjCNWS1hK1rQRgmni25qOM6QmpXotla3dHmEhILCotmSt8ruw9f0CRGynVFcvHL9i8sYEQmiKRC/BYqxbaPU8GVf12WU+zY2j/x+RRslDBFVaHK61CShx9rlVhgprna7e0lKomj3YU7W2JIqDz37+0YPEV9y9oN3xHo0IcWyjVLDr7rLsEb2b9go9UXwNx5tlDBEdFua/Ck9WRxHpGAzM/YCfqfD42Yk9ElscAeMIiscxw+8WjzPySpaFTlRECV5ytQ/afhz7zKsUXwvvSp1nPkHHm2UMIKo2iiZ19FHaZmZSRpe1Kbkmw19zr4p89GaWhRbQ7d/7szVRTqtPmHBBXkpLfa2IZ9+QRhsf9Twp+20ExJTV19RZKrtaB5dWsRZG6WWL7vHsEbxv/JnyU7BWsqTV6puo4TpKMo2Soe1vjW3YFZJtkbxO7qb6nv8eEPFJ+/+A3+csermh2+61Sh31zRsfLH65PlGfPIlP7/1koH/YS2b3v7F5l4i0qw477evl8k+d9uhmpderAt5vlFY8dZGmac5v5RL43UPLNERERGzvOP5zVvKwN96lW2UMC2hjXKSLR9baKMEQLEaqIA2SgCcdAYAoAJCEwBABYQmAIAKCE0AABUQmjE2iQ6dAwAhNAEAVEFoAgCogNAEAFABoQkAoAJCMz5w5rUPbfjDc4/ff2WJCTM5A8QxhGZ8YPYPfnnvD5/bm3jVN9bl40UBiF/RtVHy5qJFc5JOfsaZr/NYTVvfmI9yepD721t65NX8mPdKAMDYib6N0tFWUd0jMSKDubjU5PGN+RCnDy4lK12wHxthHjQAiKXo2iiZu9dqc8uMMSK9OVXb2+NA18Xo8ebMVHdnF7qQAeJYdG2UzOPosHsVIuKMZrPg6MLE7VFx9bpEc1a6DoeCAOLWGB1z4JNTklmv3Yn+lGjIbR9u/tx8y5Mv/8+rf3r5Z9fhgBBAHBqbSYjF5IwkyV7vwffKqAizr/7q6s7XHly/24YeZIA4NRYbM5w2OS3J192FfqBoybJCHlcvEhMgfkXVRjlwhdacanT19OCjHi3Z2moRs3PMZ74o4tybH33sjnMSsbMTINaibKP0MOL05gyNs8WBaq1o8frURB0lJp35kyA+c/b8Il2lDcfVAWIu4tBkzvaKPe3DXeFpL68cwxFNT5x57UNP35LXXbtr00eNZ5yCoMkryPIe39qKcxMAYg5tlPGB2T948q4PQlwpZBbk8Y3v1+McWIDYQ2hOAnLL5kfvi/UgAICIMGEHAIAqCE0AABUQmgAAKiA0AQBUQGgCAKiA0AQAUAGhCQCgAkITAEAFhGacEbLPue3hZ1545emvlqArCCAO4RdB8cWw7KavLbC++l9PH+zGTHsA8Si6NkoiTmfOKcpPNWgVv8Pe2mBzBfBRjwKnMRqF3trmHiQmQJyK+Os5Z0ibVZqt7e7s9p78PHM6c9EMQ19DzZGD9R1yalFhIr7uR4V5XH0sIcGEpxEgXkXXRkkGvdbjtLsCiuTr6epjBr0W0+RGRXH3e/SJxlgPAwBCibKNst/Vp0lKS9AIgjYl3aQ4XPhaGQ1Ol5GfKVhbbSioA4hXUR4ICjgtbUmz583L5pnc19XQ5MGnfXQMZd/+7b1ni4rPdvDvz+/owp8egHgVXWjySTmz8zjrscpeL2fMLigqST9e2YWuoFHw7H7+m7uJ02Zc+K2H776i9udbWjBLO0BciuqIA6dPNpGju6dfUuRAX0e3x5howsmFUWD+bluPYkwwxHogABBKVG2UzN/v5VPS0owiL2gSs9JMfrcP/WpR0San6Pp6nNhYB4hXUbZRdlsa9bl580oKRAr0OdqP2/rHbaTTAicKAunS0hPEDufpR90AIB5E20Yp9bU3Vw9XUgmjwfr2/XPLwtvvevqlwI5f/vi1GuzYBIg3+BllfGGeuvdeeOS9WA8DAELBT08AAFRAaAIAqIDQBABQAaEJAKACQjPGzBmZsR4CAKiA0AQAUAGhCQCgAkITAEAFhCYAgAoITQAAFRCaAAAqRNtGyevTswvyU4wa5nf1tDdYHb7xGSecjk+6ZP3Vq8q3P7Et7b4/nN391ObXKhQiIt4w//pzblqXm22UbZW1WzYcPGRjJObe9sKXypKGFjgpVRs2P/e+mxERaVf84Ma7lrvefHDb9paBltGsay5/7D/SBSImS87W9h1/3bP9sDvkvPwh1+/JPLEeRfHYuw5t3bvpA7uXhRhnmMelWnKp9oYbNCVZnNQjH97ue/NzxR92+ZQFuhuuF+dkcIpDPvSO783PRlgepqvIp4YzpM2al65YO7vFtJMXJmTMKND11NXWufmkgsLC2VJtZZcXU5pNCDkQYHKAMUmWFEUe7LszLFt258XK1if/scemW/T1Nbff53788aouyfKX+/66keN0517wiyu6n3mswiozRVYGbqPNmF/c19iUMH+B8Z2W/hMvX2Df7gd+3eATtfkXrrrvO6t6fvTx7u4Qr23I9XMn1uPlBPPCRXd+98LrLVs3VsjDj1MJ+bhU4lI1X75DdGzy/LxcMZXqvvEN/UVtnvdaQq6MSxFvvF1w/83zswOKfo72trv1a9vd25tGdd8wxUXVRsnpU5OEns5OZ0CRfL0tdrcx0YRpkyYIk6UAkySFyYqkKJIU3MrjknKStA2t+5p8frfzwMadG962+YiImCIpgYAckIiYIvnlQECRBzfghFm5JVLHvz/tzV+cbRq6sciYIiuyz9v0Uc1R2TwzP0zTaLj1B9ejSAFbefUXjfqiWSY+5DhDPa6BB3fOPb96+Xc/ubJgxH4A3kT2Xf739ytuP9nKpSM2riCPwoyfzxXyXNKu/YpPJkdNYE8TX1jEoVkVhhNdGyXHaMglCmOKgma1CcKk7obOxk4/MXfrUVvHwAYi6zrcYpm36LbrZhTn6gVnd8UBu2uEl4TPWZRtPN5x5FhHb3HOHN2ZC3ApSwqLdc42S7RfIfT5hYvzA9ZWjxJmnMM/rqCAy26xWDp6R/4yI7cG/rFVCm4Yc4lcYRqzWijcrTjiJZKJtHqOJ5JlErC7H4YX1YYh8zr62Jx0c6fH7uETcs1Gl70Z0+ZOFOnoxg+PEhF5//Vs14lL5aaK5590r7u8+CuXrU73d3644dO3yj3h0oI3zl2Y2Lrb5m4O1Mvnzp/DHxrch6hZsvLxl5aTIBrItffVHbtsowzN4HoYJxi0vtrtu/55KBB2nMM/LiIi5jm2+dlH1d47X/Z1XUa5b2PzyMPnszT3PaS1vOiuV3knMJ1E921acXU0tefmFxdnMcZrmb3KgYqgmGP9dXVbfl+3hRNzLi777v3Lmr+/65A75NJcQnZpkavmFS+T7LX1mssXpfEVXcHUlI4efOqF1oxr1t6dW7VlhyMw2gFJRw8+9UKTT2G+fp/v5B9VdeMcHQ2/6i7DGtm/YaPUF0HkK53S67+Tvc1UfOEYDwSmkGi/gyjujtaawzXHOyW5p7MzkjcmjCeh8KKzL16o54iISZYd9bWa1IKMcC+ybn7uLF3yJT/98nOv3HDrIiFjYXbm4OIsEHD19lduq2wsKb149ujfKSwQcPV6nc6hial6nKOg4c+9y/AlxffShoDlzMQ/bYclI0UkgbGOOsUhkSAQdjRBCFG1UQ5eo0vJzyFbqxObmTHHlPS8a2876+x8nSjqZqwrnuvvbraF+fjzsxZnyrs++dEdG793x8bv/6S8PT+nJOWUPGH2+nd38WXXzEgay+MiasdJREScofSGB37247vKIohXLV92j2GN4n/lz5KdSNScso/StFj38G9M/+ci/sRlSrvcniiWLeV1PCUXa1cUKc3N7OQmgDj35kcfu+OcRBwagqjbKD2MSEwpyNLYm+w+bGbGntL65s6/mFZc+9hN95gUZ1Pbh7/dXx7mO6+QNm8BX/26NXjkWmlvO2IrLZ2v2bl76JaZVLu9yvJk6YWFDW81jdVrrHKcAzSJ5pzcHG2KfsTw4vM055dyabzugSXBQ1vM8o7nN28pA9u6HKeccgyTWK/0xh/5G683/PQ2TuqVyzd7328csrbM2fOLdJU2N97iQMQVFs2K9RhGz5yRabd1jutN4m352BLM1z65ds0pG3py+R82v/LF1P6SoVtx769vD7z0/VcO43x3QBslqCHbt/7npq2xHsVEEzIL8vjG9+tHfSgMphSEJsAI5JbNj94X60FA3MAZvAAAKiA0AQBUQGgCAKiA0AQAUAGhCQCgAkITAEAFhCYAgAoITQAAFRCaAAAqIDQBAFRQ8TNK3pCRW5CfbBSZ39XdVt/h8DMiXp+ZU5iXYhCUgKunrSF4IUyAEK2NxgvWPH1/gebEYlLnpu+8+5Gd8m688r9u0u18YsvGCpkvOusnDydsvW/3EWmwdZIx2etuO1Tzxh8rqntDv4Tx2DrJmYSyr+iuXMq7P/E88Td5xJWgdRKiE/nUcMb0wnyxp7a6ziskF80oLPRWHu+VjelF+Zqe6qpaN59YNKOwyNtf2zu1J7yJHyFbG+XaA0/8vHJg+nWmyBILTrnr7RPOOj/3nxUtp4VEYO+uHzxbH0hMXX3nmnvv9ax/5nhvqOSJv9bJZPErP9RlV/m379FcEMnyaJ2EaEX89ZwTmdvSaeuTZMnXY3Mxo15HxBsNur5ee7/MWMDV4fAb9DpM0zpBwrQ2kiIF5EDwP4kNBiDzV7a1LZi5MGH49cmuns+2N/WXZBWGe0/EW+skCazuDc/zrwUsvojeeWidhKhFHJqK09ZiDU7CymlNBs7r9RFxHEcKY8TxPBFjxGEX6YQJ19o4LE7wtH9Rk3HOCkOokGCSLAnCyEE1kglsnWTd8p5yRcWXG7ROQrTUTw3HG8wFOWSrdkiDtxYyiubn+xuqMN3ghArZ2igUL3984/Lgv727P/7h71qCocLz0tEd7ddeXZQ2PmWLsW2dVAOtkxAFlaHJ6VMKS8xSc8PQLQO523LcrXhZyhiPDUZHrt33s0ePDde4w3xH64/cvnR5dvt43G8MWydVQuskREHNdxNOm1RQks1bm5q7Bo6RM8aI5zjZ5+4PMI4jhkPncS7Q+cUezfJzEoc97sKJgijJo26uj1XrZHhonYQxFvn7VzTllOTou5qbbT7iOY4jjkhxe/wJKWaTwPGapKxkrceDdrV4wIsaQRP8TzxtPzNr2tXEFuVlnLFfU0hMXX1Fkam2o3ksU2TcWyc5EsRg2STjeNJoSByyTxatkzAOVLRRpqWbtIJp9qICIiJSHA37mnvdXY2tOUUl83JEJeDsaWlw4Hyj2BOKl/70T0sH/mfwPM0TlNaGPR2Lbsg5eYlmxXm/fb1M9rnbDtW89GJdyPONRmPcWydztN/7sTZ3ICgNv7iApEPeR16SBs6qQuskjD20UU6y5ScGWidjPRSIXyhWg2GgdRIgFIQmwAC0TkIkcGYvAIAKCE0AABUQmgAAKiA0AQBUQGgCAKiA0AQAUAGhCQCgAkITAEAFhCYAgAoITQAAFaJtoyROl5Q7Jz8jQe6sqGkfuXMBxsrwbY6D7ZJETJacre07/rpn+2H34LxF2hU/uPGu5a43H9y2vSXYXKI/76Hrb5nrfPeR7dtatSu/f/WtC/2fPPH2ljqWFapdclghWyrdwvLzfvXArBPTFcmVex9ZX2lnoe5XCdGmydBeCfEiyjZKQ9qseemKtbNbTBvPUcIwQrY5BlshfaI2/8JV931nVc+PPt7dzYiItBnzi/samxLmLzC+03LiD5zSVCvPX5r4TnfaWek99d3G09ZzWrvk8GMJ2VJJ0oHdP/zaZ8bzL3r8CvuvHznSGlAkJTgzcMj7Ha5NM9zjVQPtlRC16NooiaSe2vpGq3uUb2EYvTBtjowpsiL7vE0f1RyVzTPzB64SZuWWSB3//rQ3f3G26cTiHO+pbFcW5+UvKUg71m4TT1/Pqe2SIUcTsqVSYZIkS7JCjEkBWTrxTglzv8O2aaK9EuJEdG2UzOPs7pMQmLEwchsll7KksFjnbLMEr+JzFmUbj3ccOdbRW5wzRzdkuZ72Cn7GTWsTq/f0cpozVnNKu+RYGvF+T4H2SogT0bVRQgyFbHMMtkKSIBrItffVHbtsjIiIN85dmNi62+ZuDtTL586fwx8a3CcoUH/5AbpqjXVzM5Vxp6/ntHbJMRTqfkO0aaK9EuLDWLRRQnyRjh586oXWjGvW3p1btWWHIxh1XEJ2aZGr5hUvk+y19ZrLF6XxFcHdhhxxrOOtd77zFpGYex532nrObJccKyHvN3SbZqygvRKGUBOag22UjY2DbZQQj1gg4Ort79pW2fhM6cWz6zbXKkSkm587S5dc/NMvryXiREGTnJ3Jd1nDvozBdknvBI06XnB0aqnQQHtlex0jjkN7JUTbRkkcx3Ecz/EcRxzP8xz2kccNZq9/dxdfds2MJI6I+FmLM+Vdn/zojo3fu2Pj939S3p6fU5IyIS8Wz4miIAo8cZyoEUQhkjsN06Y5HLRXwkSKro3SkZizYJ5ZE3zLlJZmMo/lSJ3Vg83QuCDVbq+yPFl6YWHDW61p8xbw1a9bfUREpLS3HbGVls7X7Px03AchLi0bPE8z78f/u3jwPM1wNxmuTTP8WwrtlTCB0EY5yZaPrWnaUhkK2iunJRSrgQrTs6UyFLRXTk8ITYBRQnvl9IQzdQEAVEBoAgCogNAEAFABoQkAoAJCEwBABYQmAIAKCE0AABUQmgAAKiA0AQBUQGgCAKgQbRvl8BWVMP5Ct1H+1/zqh56uczMSSlc+/m3+T9/+vFIi4vXzrlt182W5OSalu7p+y8v79lkUIiKx4K6Xl9off2tL3dCJIgdbLRmTve62QzVv/LGiujf0SzuZ2iiTS7U33KApyeKkHvnwdt+bn4/QLok2SjhVlG2Uw104PSe8mXjq2hn1y5bduZbefmLz553ivFvX3PnNuY0nGh9DCOzd9YNn6wOJqavvXHPvvZ71zxzvDbX85GmjTNV8+Q7Rscnz83LFVKr7xjf0F7V53msJuTK0UcIZomujDFFRCRMgTDvjMPiMmWna6obPmrx+T1/FJ22OInNeZK+97Or5bHtTf0lWYbjlJ0sbJW8i+y7/+/sVt59s5dIRG1eQR2GeOrRRwhmia6Mc9kKYECO3UZ6CF3jGlIGFFEXh+ch3ZzNJlgRh5HpclWLRRim3Bv6xVQrWwHOJXGEas1oo3K3QRgmnG6M2SlRUTryQ7Yzi4pXrX1zGiEgQTYH4LVCMbRulhi/7ui6j3LexeeQv+mijhCHGoo0SFZXxRao89OzvGz1EfMnZD94R69GEFMs2Sg2/6i7DGtm/YaPUF8F7Fm2UMETUbZSoqIw/Ab/T4XEzEvokNrgDRpEVjuMHoonnOVlFqyInCqIkj32Jb4xo+HPvMqxRfC+9KnWcOek62ihhBFG2UQ4S/qAfAAAd+ElEQVR7IcQfxdbQ7Z87c3WRTqtPWHBBXkqLvW3Ip18QBtsfNfxpO+2ExNTVVxSZajuaR5cWcdZGqeXL7jGsUfyv/FmyU7CW8uSVqtsoYTqKto1ymAvDnM4HMePdf+CPM1bd/PBNtxrl7pqGjS9WnzzfiE++5Oe3XjLwP6xl09u/2NxLRJoV5/329TLZ5247VPPSi3UhzzcKK97aKPM055dyabzugSXBEz2Y5R3Pb95SBjajVbZRwrSENspJtnxsoY0SAMVqoALaKAFw0hkAgAoITQAAFRCaAAAqIDQBAFRAaMbYJDp0DgCE0AQAUAWhCQCgAkITAEAFhCYAgAoIzfjAmdc+tOEPzz1+/5UlJkx6AhDHEJrxgdk/+OW9P3xub+JV31iXjxcFIH5F10bJJeUumGfWDGwasUBH49HGSCZ1heHI/e0tPfJqfsx7JQBg7ETXRik5LUf3WogRZzTPLE7q73IjMaPApWSlC/ZjI8yDBgCxFF0bJRFjjJE+tWhOireh2dqHWa2jwZszU92d+MsDEM+ia6MkIuI06TNzkjiJ6bUiDmFEx9XrEs1Z6To8jwBxS/0xh4HiybbB4kkmO5qbGlr6tNlFM7PxcY+G3Pbh5s/Ntzz58v+8+qeXf3YdDggBxKExaKNU/P19/v6+Ps64INOksfrQrzZawuyrv7q687UH1++2+fAkAsQnNRszg8WTTc2DxZNiUnqOeWDrkimMIijBgjBkWSGPqxeJCRC/omujVDi9OT8z1SDwoj4tw6i4PRI+76MnW1stYnaOGX96AOJXdG2UvQ5rU1d+fun8Ql7xOroaW/tx+Hz0eH1qoo4Sk/CTIIA4FnFosp6W8i9azrhYcrU1VraN6ZCmJc689qGnb8nrrt216aNGOdajAYCQ0EYZH5j9gyfv+iDWowCAEWH3GQCACghNAAAVEJoAACogNAEAVEBojjG0SwJMbQhNAAAVEJoAACogNAEAVEBoAgCogF8EjRfOdP53n7tnsUgk17/xyPrtFvwsH2AqQGiOF9a/87l7dpKh7Nu/XhfrsQDAmImujfLEVYkziwupvarBhbkmAGBKi7xYzZhemC/21lYfOVhnDSQXFiafyFs+MTMv1Wtp60NiAsBUF20bJRGnzyhMldotPai5AICpL9o2Sk6bkZ3B2ds6/JzOaNThYDwATG1RtlFqkvPytL1NXR7G6bPyi7LQRgkAU5vK0Bxso2zp6GdEnD7dnNDXaXXhbBoAmCbUnHI02EbZ2DjYRslxvJCSN39ZDhFxvBDoGJcxAgDEjchDc7CNsj7YRskYMebtqD/axQe/khtyZ+aO1ygBAOJElG2UshyQgycacSK+owPA1BdtG+XJ693NNZVjMaKpYujPKOtiPRgAGCv4GeV4GfgZJQBMLTixEgBABYQmAIAKCE0AABUQmgAAKiA0R4B2SQAYCqEJAKACQhMAQAWEJgCACghNAAAVEJqR4cxrH9rwh+cev//KEhPmDAWYxhCakWH2D3557w+f25t41TfW5eNJA5i+omuj5PQZJYuzjQObXsxrqatq9kzZqiC5v72lR17NC7EeCADETuRTwxnTC/PFntrqOq+QXDSjsNBbebxXJmLertoKa39wXjiOTdnEJCLiUrLSBfsx+5R+kAAQ1hi0URIxxogxYlM7Mol4c2aqu7PLPcUfJgCEEfGWpuK0tTiD/wy2Udp9wf/RmWctTWGK7HP1tDXa+qVxGWaccPW6xNlZ6bqqDh+CE2B6EpJTUtXdgjekz5ip722wOgNEss/R2W3v7LZ3e/m07DyTr6t3IuvPjSaTx90/3jc5gbnaulMuuf2bX7vxuuuvWsoO7qhyIjsBphmVkxAPtlE2dPQzIiImS4Fg3UWgw+pKLzDoONfUPRIkzL76q6s7X3tw/W4btjQBpik1Z88MtlE2NQ+2UQpJmUU5xoF1MEaMoykdJrKskMfVi8QEmL4iD83BNsrmYBslRxyRovDG7CyzSeRFfWpGArnd/nEca8zJ1laLmJ1jxnmaANNXlG2UfZ1NlrzCuXPzBMXnsDc1ueRxG2ns8frURB0lJuEnQQDTWLRtlIrb2lJlHdMhxSXOvPahp2/J667dtemjxqn8lwEAwuMKi2bFegyjZ87IVDtJ8ChuAgBwAnbPAQCogNAEAFABoQkAoAJCEwBAhWkXmjgKBADRmHahCQAQDYQmAIAKCE0AABUQmgAAKqicGm4K4Uznf/e5exaLRHL9G4+s325RYj0iAJgEpm9osv6dz92zkwxl3/71uliPBQAmjejaKAeu0STPXJjuqa63oj0HAKa4yIvVjOmF+WJvbfWRg3XWQHJhYfJg3vIJuZm6rvZOJCYATH1Rt1Fy+rScpP62dg92CQLANBBtG6WYnJ+hF6T8RfOYu8fS2OmYyF41AICJpv5AEG8wF+SQrdohEXGG1KxEt7W6pcsjJBQUFs2WvFV2NOgAwNSl8jzNwTbKlo5+RsTpUpOEnq4ut8JYwNVud5sSE6fv4XgAmA6ia6PkRWFIXw7HESnYzASAqSyqNkrmdfRRWmZmkoYXtSn5ZkOfs29q9OeIc29+9LE7zklEhRoAnCrKNkqHtb41t2BWSbZG8Tu6m+p7psZxID5z9vwiXaUNZ1EBwGmibqP0dLbWdLaO6ZgmxtCfUdaddp0mryDLe3xr69TYbAaAMTR9j9sM/IxyOEJmQR7f+H59YIKHBADxb9pV+AIARANTwwEAqIDQBABQAaEJAKACQhMAQAWEJgCACghNAAAVEJoAACogNAEAVEBowpgSss+57eFnXnjl6a+WCLEeC8B4mL4/o4TxYFh209cWWF/9r6cPdk+NuVsAThddGyVvLlo0J+nk1irzdR6raesbh3GOPT7pkvVXryrf/sS2tPv+cHb3U5tfq1CIuKxrLn/sP9IFIqYoHnvXoa17N31g97Ihl8uSs7V9x1/3bD/sVoiI18+7btXNl+XmmJTu6votL+/bZwmzHjJesObp+ws0J4YhdW76zrsf2Wn49Yu5t73wpbKkoTPUKVUbNj/3vltYft6vHpilH7xGrtz7yPpKuxJq/Yx4w/zrz7lpXW62UbZV1m7ZcPCQjYV+HkaJ0xiNQm9t8xSZ7QpgGJFPDWdML8wXe2qr67xCctGMwkJv5fFehYgcbRXVPRIjMpiLS00e3zgOdmzJgQCTA4xJsqQosnzyUx7Yt/uBXzd4OcG8cNGd373wesvWjRXKict9ojb/wlX3fWdVz48+3t3N9MuW3bmW3n5i8+ed4rxb19z5zbmNP6/sUkKtRyYiufbAE4PLEFNkiRFxIdZv+ct9f93IcbpzL/jFFd3PPFZhlZkiK4xIOrD7h1/7zHj+RY9fYf/1I0daA4o0mHXDrZ8My5bdebGy9cl/7LHpFn19ze33uR9/vKpLCfc8jALzuPpYQoKJpy7MEAVTVHRtlMzda7W5ZcYYkd6cqu3tcUyamYGYLAWYJClMViRFkaQhW3OMKbKiSAFbefUXjfqiWSZ+yOWyz9v0Uc1R2TwznyPiM2amaasbPmvy+j19FZ+0OYrMefxI6yFFCsiB4H8SU06931PXzxRJCQTkgETEFMkvBwKKHLyBwiRJlmSFGJMCsnRK2J25fi4pJ0nb0Lqvyed3Ow9s3LnhbZtvxOeBSzrnnl+9/LufXFkQ8e5Jxd3v0ScaI10cYPKJODQVp63FGpyUN9hG6fURMY+jw+5ViIgzms2Co2sSTdzOpO6GzsZOPzF361FbR/8wW1j6/MLF+QFr62n1xFzKksJinbPNwoiIF3jGBks+FEXh+TOf0hDrCeWU9Y8R1nW4xTJv0W3XzSjO1QvO7ooDdtfApmiY5yHgslsslo5eb4Qj4XQZ+ZmCtdWGPmeYuqJrozx5YXJKMuttcE6mD4t0dOOHR4mIvP96tmvoFZolKx9/aTnjBIPWV7t91z8PBYJfn4OXkyAayLX31R27bANfq0MZbj1ERELx8sc3Lg/+27v74x/+rkUasvyp6x+NYdcvN1U8/6R73eXFX7lsdbq/88MNn75V7mFhnwdinmObn300ovs0lH37t/eeLSo+28G/P7+jC3s0YepSGZqDbZQNp26RiMkZSZK93jM1PivS0YNPvdDkU5iv3+eTT7u8NeOatXfnVm3ZMfKOiFDrkWv3/ezRY2dujaldfygh1s/66+q2/L5uCyfmXFz23fuXNX9/1yH3aO/jdJ7dz39zN3HajAu/9fDdV9T+fEvL5PnOAaBKdG2Ug5cnpyX5urumyhFTFgi4er1O5ylJN3h5f+W2ysaS0otnDzxziqxwHD+wwcnznKwoI60n7P2evv4xIhRedPbFC/UcETHJsqO+VpNakDHmJ+kyf7etRzEmGMZ6xQDxI6o2yiBOa041unp6fFMkM0fA7PXv7uLLrpmRxBGRYmvo9s+dubpIp9UnLLggL6XF3jbyPgpe1Aia4H8id9pLcOr6w6yDE0VBFHjiOFEjnNKlPMz6mZKed+1tZ52drxNF3Yx1xXP93c0j7nnkDKU3PPCzH99VFnm8apNTdH09zunxVoDpKco2SkbE6c0ZGmfLKbs4pzapdnuV5cnSCwsb3mpi3v0H/jhj1c0P33SrUe6uadj4YnXXSFkkFC/96Z+WDq5s4DzNUOsPtRJxadngeZp5P/7fxSfO0wyxfqX1zZ1/Ma249rGb7jEpzqa2D3+7v3zk7+aaRHNObo42RR9plTEnCgLp0tITxA6nhOSEKQkdQTCWOMPsdbfffvlZeYEdv/zxazXYsQlTD0ITAEAFTNgBAKACQhMAQAWEJgCACghNAAAVpl1omjMyYz0EAJjEpl1oAgBEA6EJAKACQhMAQAWEJgCACghNAAAVEJoAcBpOXzJz1tIUTaQTtUwv0bVREnE6c05RfqpBq/gd9tYGmyswVee2GbG98tSWyhFaJxmTve62QzVv/LGiupcRkRiiXTJki+TwuKxrLv9JSdWDz9Z7iThz8beeWmD91dt/r5SGHc/HnrzbnjlH2fDmnw8Ggo/xS49eftZn23/zrivsy6hd8YMb71ruevPBbdtb2In7He5xhbp87FowuYzish8U2p7/qD531dorPHufODRtOt24tGsvWaY99MHfO0b3oeMXr7h0rWv3c1WnNy5w+swLF83LbnIc7rWHezL5zJsvX3GOliMiyXLwp5+3eSMY9OR/vaJro5R15qIZhr7amuNuPqVoRlGh91jdpKq8UGOE9srTWiopTOvk3l0/eLY+kJi6+s41997rWf/M8V4lZLtk6BbJEYkl1y6YUXXkz9UDs/adOR5Gbe/+y/2f1xW/e/hYp0L6RaUXpzb+6ZPwiUmkzZhf3NfYlDB/gfGdlpNT+A/7uEJfPlYtmAFZZooikyIpTFaUqfpHeyIxT/Mr29s4WR4hzhTb5nfe+SfHZ85ZfX9qpCuf/K9X5KE52EbJSOqxuXJn6HVEboNe63HaXQGFUU9XX06BXss5I23hmmSGaW0cfKDBFknZ2/RRzdGbymbmc8HQHGiFDBFwsqvns+1Nlz6UVcgf71WIFCYpQ9slg0sFWySr9jX5/OQ7sHGnbw4XYUkyn1189fnyJz9r6D05gDPHw6wflB+8bNWli2v/XG4497rCzm3bakbaXBBm5ZZIHW9/mvblxdmmd+v6Tn29T39coS4P83xySefc/djdi+xbnnlq24i1GUxSFKbIMjFJIVlhwW11Pqn4exclfbh9/2GJiEu9au3yhCMfvm5ViITC2WfdWJKRLnBM8dbVH/lblb2fiIhM6XNuXFw02yDIPse+o+XvWjwyBW+7IsPSpKRl5Zi0AfvxTfsbW2UKs55QTOZZ1y+eNT9JRz7H0eNHtxzvcYdbf4jxEJdRsOjWhbnZgq+5sd3FyH9i/cMtzyfM/tbFma3HAzlZCWYdazx+eNPxXh/pVpZ96ZbM4L65C56eT0SsvvzDF+q8jM+69coVy0QiYq3HPvlddd/gS8glZZbcuKioOEGQva6j1eX/bHT6iMkKI2ISO/MzH+r5Gf71mlQiDk3FaWtxBv8ZbKO0+4hYv6tPk56W0Nvp5pLSTYqjZapUXpzp1NbGvmHaKwdaJD+OuEWSSbIkCGHrcVnX4RbLNYtuu075eI+1ob274kBkq+a0C69fkLF/zwtNI22Uetr/ta3/x9cVf0LJX0pp+N9PhqvlPAWfsyjbeLz8yLHApdfkzNHVHTojZEM9rlMuD/d8BlsweyJrwQx4HA09Hi9jLkdXo3+E3UOcPu+yBQnVuz54rlsWTPnXLSlYYOre0884Tfa1Kwr85bvXt/l0aSV3r17i+vfnO4OD4oR03v7fO6rdYsrl56++sqjjpXoPhVhPyDsWs65eMdtQt++pBhdLKvrKqmVXOD9+o1MOuf4Q4+G0eVctTreV7/xDqzcxd8GdM7nG4OMKM34y6R27XzjmEZNL7rtg4bkduz92+fZ++q8DPL9o2bo1fZ/+vtqlECnBjT6lc9O27X/nNEtWrDlv6Pg1WVcty3GX7/ppu0ebPv/eVYvK7J9+FPorSajnWe3rFZeibKMMOC1tSbPnzcvmmdzX1dAUYUntpDRCe+WZLZKhWidVCd0iGZJmWdmv/sJ43rvrydahH+MQ42G2jw7vv/y8//tNvv0fb9WOuB3LG+cuTGzdbXM3B+rlc+fP4Q+Nbl/k2LRgEpGvo2pDBxFRX82+phGXVpSAIqQkpeYF+uz9bW/sbg1ezCWmFbCuzRavTOTuaS3vmzk7VdjZH3yC5FZbt5uIJEd9r7TYqOfIw0KsJxTBlJKnsb9f3+OUibobNu9xp3kHt7GGWz+FGA9vSsygnm1t/X5G9va24wuzxBHHT46aTo9C5Hd2NfhmZBqJXMSYIskkMyKFSUN6rYiYojCFpNNf04D1tXeswX/6uzqO+/PSjEQu1c8zqX294lF0bZR8Us7sPM56rLLXyxmzC4pK0o9Xdk2TrqCTQrVIhmqdVEl1i2Rg/+4Hf902//6r/2PdjLeP1DsGX4+Q4/Fa33uvf/Vl9vd2uUd87biE7NIiV80rXibZa+s1ly9K4ysi28UaF5i//a0Dpktnzrt1nilNR3ZL1V/3N1lkIp7X6PK+ui4zGDOCKDcMudHgt09WffD9p4L/DLWeUDiOZzS4A0+xd1mGNJwMs34+xHgYRzyd+DLMTj7xYcbP2OD9MoUxjhuyIyRynHHxgoXr8hINRIx4o547FHbxkM/zVKAmNAfbKBsbB4onOX2yiRyWnn6JEfV1dHtyUk1Cl2/6tAUFBVsku7ZVNj5TevHsus21kWYIJwqiFH5nu1B40eI5XZUfV3hZsEXyP5YUZPCHRvzSrfgOv3H0S08uvmx+86ZjI74gzNntUVzuSFqDdfNzZ+mSi3/65bVEnChokrMz+S7rqcMJ9bgieLxjhpFC/OC7mxd4kgeiRulqr/5rezURCbrsmy9afEF6y6YOhRQl4G3d+F5FXaR5EmI9IcfDFI5OtJaa07PSvLbavtCvTIjxcIwU4k50GvIjLT9WjHmlN+V4Xvv33iofIy7t2nXLtCPcQuXzM5lE1UbJ/P1ePiUtzSjygiYxK83kd0+7xDxhuBbJcK2TQmLq6iuKTLUdzcF30vDtkqNqkSQiIsVS+88P2bm3zs0+ecfhxhMZftbiTHnXJz+6Y+P37tj4/Z+Ut+fnlKScsi//9Mc10uXDGEUL5ukUT2+rL3XpjBQjL2bkFczXOJodRER84uxvXbl6TbLAEXG8IHBMJkZErK+7lU9fkZug4zhDctGXz19WlhjuEEWo9YQi9/e2BcwrZ6YkikJC6owbVpaeZQq3fKjxKP0uG6UuyjFqOSE1J2eWlgu/fFjMJ0nGBFOCyIsCfyLQBZ4XBZEnIo4XBV7keY6I4zmB40WOiITUrOwZuqErZ96AxBmTcrWCKPAiz3Hqn59JJco2ym5Loz43b15JgUiBPkf7cVv4A4hT2+ktkqFaJzUrzvvt62Wyz912qOalF+uCh5hDtEuOrkVy4C7rtx6ueGbl1avqNnzqDTEelW9kIW3eAr76dWtwz6fS3nbEVlo6X7NzdyDU4wpzeWiqWzDPJNne2Vd3w+IVDy/USP32PfvL93kZESmuln8dT7vuvHWXijyTvS3NFa93MiJifuvWvYk3LF792HIN8zkqjh87EPbEq1DrCT2ejrf21d+waPlDC3Xkc1bVHnynI9wmd6jxMH/b2+Vpty66cP3ZvqamNuvggVe14w/eqK6upmnl4oev1vCkVOx7748tEm+e9+D5s9KCz3vOBb+YT0p//f97/1hjW9XWjLOuv+TyW2VPS3O77dR9cK62mo9yl9x1xWwtR8xR/ZuPay1qn5/JZNoVq02NLjbBfO2Ta9ecsiEml/9h8ytfjNGG/nivf6riC0rPu2eWcejzJlkP/2KfxR/yJjDpIDQBAFTAb88BAFRAaAIAqIDQBABQAaEJAKDCtAtNHAUCgGhMu9AEAIgGQhMAQAWEJgCACghNAAAVhOSUiOepjz9Gk8njHtXP3Tnz2oee/8+bVhYJrceO2yOY3QcAgGj6hiZ56ndt+7gq4fw7r0w+/O8q55SZTAAAxle0bZS8Pj27ID/FqGF+V097g9URYYNNPJD721t65NV82L4JAIChIt6nGWyj7K2tPnKwzhpILixMFom4hIwZBTpnfe2Rg/UWX2Lh7PQoJvOaeFxKVrpgt6mdHw0AprHIQ3OwjVKWfD02FzPqdcTpU5OEns5OZ0CRfL0tdrcx0aS+dCh2eHNmqruza+SOBwCAARGHpuK0tViD8RJso/T6iDg2dDpmhTFFmVQT2rt6XaI5K103mTaPASCm1B8I4g3pM2bqexuszgCTmc6cl8icLo8kJObnZCg97V3eCYzNKA4EERExV1t3yiW3f/NrN153/VVL2cEdOCAEACOIro1ScXU0tefmFxdnMcZrmb3KMalm9hZmX/3V1Z2vPbh+t23aVWgCwOhE1UZJRIq7o7Wmg9Nlz5xtsnf2TbLokWWFPK5eJCYARCqqNsoBnC4lP4dsrc5JtZlJRLK11SJm55jxsygAiFSUbZSMiMSUgiyNvck+6bbXeH1qoo4Sk0w4DgQAkYo4NFlPS/kXLcNdI/Ucr+oZuxFNDM689qGnb8nrrt216aPGcF2qAABDTbs2SgCAaGB3HgCACghNAAAVEJoAACogNAEAVBD1hoRYjyEqwfEXFOQPe21LS+vEDgcApjhsaQIAqIDQBABQAaEJAKACQhMAQIUpE5qCPiEpQS/iZ+QAMK4mUztFOHz6yq/cUZauuJo/27p5V4t3sk0eAgCTRMShKcy4/P6vLU0c2JJTnHtf++9/NSmkyTz70isumJdpUFzNhz54+9+1ztj0XTBHxftbXaWr15517rnzDvztUD9SEwDGQ8ShKTf96/dPvEscabJW3nhDcXO5hRHxWauuvijx6Ou//5NNO3PtLVdf0vHSP47GpKeMebubKnupqOwss+QPIDEBYJxEvk+TMYUpXMqiq64v7dj+xu52PyPSZuaktJUfsHgVydmwr8qRmZMWw52KnC4lxUiubgemegOA8aLqQBCXvOTKS2dzfZScZuCIiON4jmRZ4UStlidFZhwf0wNLGoFTSJeWmZGanJKcaBBiORYAmJoEc3pW5Esr7q6WJqucf95lS/naI20eMXvBirTOI9o199+Y23bUP2OBrmFfnWPivhxrtZqAP0BEyclJROTrtHoyS5etXL1y5Yrl8zSNB+paep0TNhgAmA7UHT0PONobHe2NLZT3rWUzE/Z0B4iImKfy/b9a/DZ50biMMHKcYd4FFxXrO/e/80VTvxzo7ZpUHewAMClEGpqcceaKFcb6nUe7FCJZCjCB54kxhZEgcL7u9g7i0wVOkWO6O1HU6bXM1XjkcJUVeQkA4yLSfZAsIGScdfF5CzP1GmPWWUuKAh2dfYz8nRZH3uKluXpeTJ61fF6yzdodwwPXrL+318snpaRgZyYAjJeIv54H6j558/AVl9723Ss1vq66PW/+u0kioo7P3/zk0itv/vaFBtnZfGjb25WeWIWmoE9KychM4kgwGXUc4awjABgXXMm8xbEew+iZEoz9fW4iKihadsGdd5RlcIqzevtf/nlk8GAU5tMEgLE1VX5GyRwV7/2jjXPZ2juc2MoEgHEzZULT291c2x3rUQDAlDdlZjkCAJgICE0AABUQmgAAKoheT1+sxzB6pgRjcPy1NVWxHgsATAvY0gQAUAGhCQCgAkITAECF/w/jU8fn7EycJgAAAABJRU5ErkJggg==;" vertex="1" parent="1">
          <mxGeometry x="598" y="177.0000000000001" width="194" height="307.6" as="geometry" />
        </mxCell>
        <mxCell id="ekqCBltRWSEwKB1lwB7P-5" value="" style="shape=image;verticalLabelPosition=bottom;labelBackgroundColor=default;verticalAlign=top;aspect=fixed;imageAspect=0;image=data:image/png,iVBORw0KGgoAAAANSUhEUgAAAiMAAAJyCAIAAACZmle0AAAACXBIWXMAAA7EAAAOxAGVKw4bAAAgAElEQVR4nOzdeVxTZ7o48EdCNhJCwEBQiWxRQgGVRQSqIlY6UG2pVetYR692qh1bemvrtHqdVm/t8munV9temaGjneroqEVrKa0WWlSqcoEimywSJGwmSEIiJCGRbCf+/ghBUJaABFCe78c/zFmfnITz5LzvOe8zydvbG8aNLVu29Dk9NTV1lCNBCCE0UhzHOoB7pXydcs+U5BeTxyQShBBCI8JhrANACCH0iBt31zRdKMbNW9v/FG501zHSc8c6GIQQQg/A9kxD4QRFB0z1cGE7k7WVv2YVqsx2DIs6R/v6XPhm95S/XnPY9KIdd4QQQsjebG89I5FJhjbx1euSDjuGY0WdTFBvU4pEDvpR2BlCCCF7sv2aprOlPL8FwGVWMLjaMSALKgDAJL3J7jtCCCFkb+P0jgAa+Q5gmkEIoUfCeMw0VJbx2XAjSMi19uwKQgghNDrG3b1n4etav19pAC1t/y4n8VgHgxBC6MGNu2ua4qMe/HXcv9YbN6+7zRvrYBBCCD24cZdpAECvJn9fSAYv44zxGB1CCKGhGULrGZkx2YkMzjQSkOjO7MlgNtxWdhjtE5bOOGn8NewhhBAaDttP5yTO7GWRPBIAADiHx/sD0VSYfr6FsEtYegCAO1RHAINdto8QQmjU2J5piJa8f2XYMZJe9LdIeidDBN984Rq2oCGE0MNtnJ7H9WWML67A8t0ton8pZ5LGOhqEEEIPYLx2hhjIB/7qcQAAAJJx3DOEEHqYjdNrGoQQQo+McXdNg3XPEELoETO+Mo1UKk1PTx/rKBBCCI0kbD1DCCFkX5hpEEII2df4aj1DE0Rk6PEPfVwBDLmFq95rxqdzEXrE2ZxpnL0Dg0OmeLAZFBKhbb1ZU1hed+shHtSfkrD8mz3GjxdkuaS+taH16PodEgKYq0+/sTns/mVF+2afECVv2b+J0/PJnra0o7/f0UgAuMREbNkWHR3EpoNGLpLmH81MTVPy39vy9/Wc+zalu7Dl0w+zHP3Xx7/ykuAxHhPUSnFlw5m9Z34oGShaUtyyb74OdQMAAEKvuVFceXx3zgWRtYIP1Ss5e90zHoqjKw4erbJM8Xwle9MKywilep1c1HguJfNQlubugA78+X8/E+fbWvB2fHaF/u4uXKqyX1pWcAMAeKGfZC+LAOHHs09l6/s8XA/IcPPz5b/9jEkGoYnA1kxDnuzDgZaG0jKVlnDymjMrLJFiPF14o9OuwY0yTdaug+VUAHCcsWlVclDtvh1FTToA0N1UgycAqIUpWy4LdV1LG+QKAgB4oTtS4z3zsj/d2ygH5vSwwEgvJoCy4atTr2Q4OgA4xsT/dRvt7JYfz7cCgKldBMykpz/e6VVzMPO/chR6F85ji0I8PRxh8MJvirNbT6WLgMnnr9wWt+NraInPrrYkiaDAcJowO48/L459tErZvYI8I/0vB6WOLuzHno/f/Pka04qDh6u6Zk1LmDGtuDR3Bn9BeHZF3t0joPIIiQ0qOFoF7gnBfmqNgTUiBxYhNMHZmmmMjRcvN3b9v+1Wp5PncwHTPBxuND3ElzX3U1VJVQAAQFWZALQNxdIafdcsTwDQa8TF0mp9r1XoMYI5VNGn24ty1QCgqMlrzAYAAEKsqBEDAFB4OgIc5SJptahrleg4H2bV5X17hW0AAIrqHKGN4anFioYqgCqFiMY79TH/8aDs6hIAAH4C36U453gJ8+8JfM+UIql1eYNK2VilIEBRU+kcmbQsIo55uEoDAADMqDiOKCs9V71p3SJPUp606wJFr8i9wFyQwDlepVuYwC67IIl81qbA6GwPZ9C2K7V2Gm8VIfSQG9YdAQ4UMgl0us6HOM0Qeo2iVWsAU2erUi4ffiFpQqXrpHLmxDBtHzJHqTKReLxw/vC7yAidiQCgdL3iRMexa/MbpTm1zUGB0ffX9KHSAlYL+GDS661vkyeICVKW5SjL8iXucfzpdxc1NfwsdEgI4fMFC9wbLpbePSwDHi72E2+npn75yjzysN8QQujRNpzTnZPvHG9aS7WodcSjGT1ETvbmHAAA2JGaa+M67hGfCCO6XxXt/nT7EZ0hJ+dAxprk1Nfmi6XXShqLs0qzspQDtylWf5X5Q/jyt7Lf2FAlqSiuzT9ZdrFqCKmOwvfZsJ7PlFeXWi6S+IJInvRino4QNZaJ46LiaOlHuhr4pq3f+Mv6rrU6RQVp33dNd4ubEdAqOiAGVU5tw87Q+UG5DdZWNaKyogBWrUzWuefllOlCu3c6nMOFEEJdhpxpyB6RkbNdbv52pqHDHvGMZ737adRiHQCAXpm1NTU3xSsyzickesYLn0c98/2prTtEqgG2IxalLPvs2xh+ZDQvJCb6rfULFu84uDtNM9juOWtOv7sGAAAMctGJ7efy1QAA0xJm+Iob94oAQFpSrHlmEd/lSKVl7/Ks9N0HFc4zQta8xL6wJbtQbtkOLXKRlyYvX6QHEDeWieN79e7oFeezTP9IZp59sdHACr03hL4pz+xccca2RRFCE9LQMg3ZPTwqxvt2SVZZ8yN1L4Bt+uqnsdCIJBdEkgsHcw+vXnXoveglfxOdFg+8LZM0T/hDnvCHvTmRH2/54KW5/mk5dYPsXpm19dR3YpNRrZGKdNZ7tphRcZ4Uvldqw3zLa5I+MJJVma0HADC0KkUlUqJE2uK+bv/nUdeWFTQAAIs/P4bmTl2XubprE0Qc3zOlSG7dTcPJ7BS9Y1kOQNKgRwQhhGwxlJqb7uFRj8/UXz1T2DjhLmdspRErO6k+zkO4ZcsklevAheZM7Sr/NsCS7WJp3T03Q/MEMUG6i7tPHC02AQBQ+X86viA6zjE7q9dSzUfyC9cv/+PqsnfSdPS4GSEgOrA2u1AFAEAJX/DBzsBoXtEP3UuLG39IAbjbDzQ4OtuDTTEoWwdpNkQITVS2ZhoHt9lRC4JJjbmidooLezIAANGh6phQj0NQmbxwT6219cysVtaIdKS4+L0vOeb/UHutVmny4D2ZPMddXFYsGmgzAdvWbOY1ZGdJGsQm5+DANes9VTk5okHSTN/c4mYEgOSL76UNassEXWFV3NoEH3pW77Y4tSgjU7PvpeiA7y+7J/ApVTkX8hRdFzHi6ms7l0fF0X4Y5CJsAOwn3k7d6Ffw2bpPc/HmM4RQH2zNNDSujxuZBDNiF8ywTmrNz8rpsy3pUcUSJB8TdL8i8s48t7ZUI26oVEfHbwve4E4j6TU3iss+3Z5TMeBRkZY0yMNC1n0S585yNKgVNZln3vlINGgvTV9okYt8SFXZZeruKZqSPMXL6wVzqEX3LFp9tLRu9YJ1K2WaGFpzWmNb9wx1Y1kx/PF3fNZXw4kAIYRsMMnb23usY7hr+fLlOJbzRBAZenw35V84RgBCEwSOsInGwh2geG49m/Tt7qm2dwchhB5WOMImGgOFZS/El411EAih0YKZZpxg+azeGTitrzmik5kDj7+JEELjG2aacULdmLajcayDQAghe5iI/TS+vr5jHQJCCE0gEzHTIIQQGk2YaRBCCNkXZpqhuTNjjyG5XL+r0RDFH+tYEELo4WDzHQGsmXPCgz1dnakkMGpvyUSF5ddbJ97YI3xz7Po7sl2UL49MGn5NG4QQmlhszjSTCH1r9VWhUm8AqvtjwbOfDDeeLmiYYEMqOnjccdJPqszBNIMQQrazOdOo6qq7a67c0jC8Vs30mAwNEvtENY45ANwZ6xgQQuihMox+GpLTlMApLELVNlC1r0cUFRwATLrBF0QIIWQ1pCc32TPjnwt0AzAbFNW/FNZOtCo11Dv+CWZmq4NMPfiyCCGErIaUaZQNBd/JyHQnj8cCBdFB7WfKmifMULyOq407PiEc9ZPK3iZJJlKpBIQQemBDaz0zdihVbS0twl/LxVTvwEAnOwU1DpnSyB/Mop74ftKsPxNe1LGOBiGEHibDfZ5mEgDZkTyxnsZRT6rNctB4mLlDKN6MEELI1tYzl5nzvUmt8nal3khy8ngs0IfeUStWme0a2zikBzOAI22sw0AIoYeJrZnG2GlwEsyeHehEJYGxU6kQnq+81mrXyMYpM8CksY4BIYQeKrZmmtviwgJxoV1DeQiYWyfdpt7hxd0pwjECEELIVhOrp+WBiRwuHpk05c+GnTjuGUII2QoroQ3NpNpdlNpdYx0FQgg9TPCaBiGEkH1hpkEIIWRfmGkQQgjZF2YahBBC9oWZBiGEkH1hpkH34kUpv/taUnP2xneriLGOBSH0KBj6Xc6MwMd/F80xXv+/s7mKCTcazRAFvvfaPl5O0hbN65dX0T/8bE+G9XFP99BPCpdFWP6vrtwdmZ5rGR+axXlmz9Or4zzdqSZpcdnh3dkXRAAA07ZtOpTsSQIAAINaWZeT/48PiyrklvXZa85seTxr/+t5c7867pW+4OgP8gcLmkh6Qc1v5Cz9k5NowgzVjRCyqyFmGgc2PzLQQd0BdPuEM1HIq/93RQsLYHLS07ue7Z7qGLlzTXKc8uSuQ5flnPidiW+lmlqW5VRbkpBamLIxp0zvyOT7vPCXxPf2KNduEdmjuDaJ8HAB0WUqphmE0EgZWuuZc8B8X93VqhY8CT0oXXOJtLpEKpL3GNSGxV/6LLvxSOahDGlNXmXqR2Vy/pzEmO7ZndIqRUOVtCKj4Ic8DZPPm2rDbkgMtocHm0EeSmh3qACAY+0ghEbOEDKNAzs83LezsrTOaL9wHjEGtVLaqgMwqVqVbfpBzt6kYJ4vVVNbpbB0jhDF4gY9kx/EvmcxOl8wP4ypEollXRNM2lblLTWAvrO1VdPZu0qbb9J7Kal71wmGFrYD6Mw4jChCaMTY3HpG8giY53e78kyLDpztGdAjpW7v0Y0AAHBg2cFBFyaxqEzQae+WjtZp1ODrTrN0zwAr9D1hKACQAFQlOXu2izRdi2l+eDH1BwCAgu0LHzjiO7x5t2PcHPMa8VYRhNCIsTHTkNxmzffuKMm5YY+eAWQLtTC1q5/G65nkuB2fKF7ZImwbbCXR8defP27rHii3D30rj6NMEp93T7n6YMEihFAPNmYaZw6HTWXHJqyK7ZrgMPnx53hNuSfKpHYLbSIg9fg/odZrgMa4W9CTxmSBRq6z3mncKa1SNOgBqqQ1et43n0fH84VpopEMxuC0cfl0/jzlob+0b8qk76ocyW0jhCYyGzONsiHvuxbradGJvzhquqosp1CqGXAl1CcSFQhrbwrTnQZ6neUwEpXiBn3UjCAOKUtBAJDCeb5UTVmVsq9tGAkqzdmGItMkBtuDQdG2t6pt61wjJol+c8pr6+D7m6ESG9AQQiPD5pqbWuXdc5WeAEKv7ejQ4/M0Q0b1XPd1vEt+aX6JVMXyWZfI6SzOEXXdxyw6+73yg/WJG0XZl+Xs+J1z3EVFmXnda9I9gzi+eqDxeE8mB7qIK8uqBt+bb9J7H61gXvjvP35ZMYQYzUBzuDPE94UQQv3C+jSjTK+szNesSYpfnMykg6a5OPfTj4TWS0NT4UcnUmhPr/5k0/Ogk1ZVfrrV+jANALAEyacFAEDoNTeKy/ZtzynS972HBzVJD/i9QAiNpEne3t5jHcNdy5cvT09Pt/defH19Gxoa7L2XhxaR/L/NmxWc5z7GMQIQQiMD2+LRPUgZ37BEPm1n03HcM4TQyMBWEnQvcR77ubx7HxhFCKFhw2sahBBC9oWZBiGEkH1hprELX1/fsQ4BIYTGC8w0CCGE7AszDUIIIfvCTIMQQsi+bL7L2SlwwdJot+7EZG4tP3um4bZ9gprA+i7VTIpb9s3XoW4A0DVGQOXx3TkXRCYA5orTb7wS1nMLpvwdn77zPeeV7E0reAAAoNfJRY3nUjIPZWmsj8c4+q+P37xOEMRnglrZmJf72ZbSOoCAnVv2b+L0HPSzLe3o73dI5qe+tSvBlL9j/ztpOrCUml4t2bngsv/xNzb32rWFaN/sE2fV90+36BmwSSWWFp7MTk2RqKieAwRM4gu2vBe3OJxD1yvrcnI/21Vap773sFgQVdkblxVIYxKPHIvw7DG9LiV1y14FATA/9a1dvMsblxU09w6rj02Jcl+Lz6np/0MZDufgNc8+MXfq9Olu9NZLn752tuHuA0vOAWueXf2kwJNhvCW8cjrlbFlr14zJjy/9w9q5fh5kk0SUffjbrLKO4e4doTEzlOdp7nQ05V9o6DqHGG7r7BIQ6o/i7NZT6SJg8vkrt8Xt+Bpa4rMtY9UYSnLe/lDUXWdNbf2vPCP9Lwelji7sx56P3/z5GtOKg4erAACmb1qzbyf7WkrmOzlK8JgSmcT2oEJddw3pLZeF1o/WIFdYT4W08OeDp6UV9ThBa7J2HSynAoDjjE2rkoNq9+0oatIBgO5mv2nGutm87K0fiUxU5oykuC3b1jDVqe+k9R8w1XNj6vIEfdkXL6ZL3Pkv7Vn24c72jTsarfUrlFk7Tp2p7Xph1ivlAETl5V0rSikeIW+kRnSkHP0qx6QTK2x4CPWeTWlGfhwJMp3cKf6/SzWtC5+Z3msGK2Hl5uVupV8eOHDDOWbTyo1vdf6/HRekBID34s2vzzVlffs/5zs8n1n5hz+vVL95KK+1n80jNF4N6clNQq++pepzbGE0CtRiRUMVQJVCROOd+pj/eFB2dQkAAKgUNSXSXiPHUAEADCplY5WCAEVNpXNk0rKIOObhKg2w+OuSfVRHDu3eKzEAAEjLsnqsqNeIi6XVvUZUcwQAokp0jT93aVjRgZK7M1RVUpVlbyoTgLahWFpj41BsemVDlcIAirqSH71itqxY5EVJU/YXMCkmdAlfk702MzsPAKT7+IGHNs2d/1Fjdlc+M7XXSqtLem9frakr0QDP6zZAp0RaXWJjreq+NjUYEoM9mQHadqXWltGy264c+fYKAG99TO9M4xbzhAAKjqZdaDICfHfYO/T9ubEzL6RVg2/8XF572af/qhQTIP7q5+CIdbGL3PJODlqYCKHxZSj9NJOcfRf94emV/5GQ8GTQdDb28NjDQKWauxE6EwFAsXGTVFrAagEfTHq9CQBI4TNCWMrCnyVDGtOMUNWezXRcvN7H1p3ayqTXA4Bjzya7ewL2DPJ00yuuWavlSEskKqrnjOARjmPgIEe8fvY96NOnT4MbNU1dyUrUJDa4Tec7AzhP93MzNogklguyzrr6JvDkTyc/0M4QGgM2X9MYlZLK/Nu3lLo7dHe/8MB5iWTidFkzDsE4wgYv1Uzh+2xYz2fKq0utZdAocasy7zb0SA8vO3hUBAAwbf3GX9Z3Te0UFaR9rwMACo/tBhq5uJ/9u0d8IozoflW0+9PtRywXBETxyUrNobmx7o3Xhv3m7kGlBayOSwgyNWRJOoHWX8Asdxro5Zru87tKpwEa625tHs6a0++usb7I3/H/3kmz8Qrmfr02pck6sWqLZYzREa2f3RcG3YViUqk7fddvS3686dD2UpUWPF2cgQQuTtAp7nSct3LXa96ln3xRf9tEZrHoALaVG0JovLA907Q0VLdY/quSt4HzqkBfXlVzHX7jR83d86BBLjqx/Vy+tTukdz+NSWbNQPKs9N0HFc4zQta8xL6wJbvQln7s3v00arGu+ytClFzJFG1Zuppd88DvpEdq1NVlZH16UAngOcyAe3euqEXDTjP3bsqsVtjyO2pI9bMHY9J2qJQdxvvLPuk71Yo2dVfXFP7NoYfP8EbY7OhQGxxcmGT81o8iZdbWU9+JTUa1RirS9ToJ9tdP06oUlUiJEmmL+7r9n0ddW1bQAGAQK1XAd+cB9HlZ00c/TTfNuZONa18K5Wf1OXcIDHnZb+4VGfSmdrGyTT1IwGq5DqjOTCqAJSoXGhN06rs3HQync6UfI7ipodF2qgyOdBZdfPrAntMA5OBYBnSqOoAA1W2gu9BNZWc/3QoA9FgnR6Oms3PQDSI0zgyvt8XZmUUxd2owzYwmU7tYWleiuHFPmrFB85H8Qo8Ff1xNAwCiuLZMzY78ndcwelxU31/Jpc5ZGvbAA4DrlXUliroqa5q5T8+ApVXSNirnMWvHjGeYl4teWlvZ94qjj8RgT/HwYD1Y10nnjRvNMD3Au2srfG8epe2GqAOg40Z9G9nX28vSj0X39vMGqehGz787BtvDYzIDe27QOGfrScPZP9qfdkt2S6kn6C6+c2a6dopzxZhpxgcXTkCYZ3ezkVYsvXHPGVwtysjU7HspOuD7nBq16OjBxv3Jy3eps7/NURIenPAEds323HzLFQOVyQv31Fpbz8xqZU3P9ih9Y0aWJnWTJ0neaN931DPgvNJzojnP7oy/9lGFxJ2/Yb1nW1Z27sA3UrOY/nwmxcPVCYDw8gwMM+nE0obutjiqKz/Gk9XrPVpeOLrO8Ay0LmUGXXOJUgODGGL9bPqUqRxnsqerI5BZU/ynmsw6haitE9ryzgvjX/zd6sUd527QIzfMZTVcungdAKDh/BXxkwtX/kfTN+fbPJ9aOockTPu1x41nJN+k3f+zgnX+w81/L8FaQmgcszXTGIwk54BI3mMUByD0HS1NBReqW/B2gPGBEhb3+em47pc1KftfSbl3meqjpXWrF6x7Nv+dNN2NlBNvq+NfXJf4QTKTpFbW5eVe7llD+tjd+6iIvDPPre11Bq07WlqxPnGOfd5IPwFLD21Jp70Xn/x1FB2U17PO/GVX48DtR6TgBXu6n9xM3piSfPfJTQAg8SN2Hbt71wORd+a5taWdAADshI83JXTPUFfujkzPHdkS2o7BG1/dONfyR+f2h0/mgLHy0NqjV4ygzvr2gOvK1f+xeRfdeEt45VDqBakl2oYLB76g/2Htyj8/RTZJRef3fdv7YRqKEw1AqcQHbNA4h9WdH9ZdIATTVvzPZ0myv2359KJ2rENBaCD4VAxCDytGcIhXc9a3uZhm0HiH1Z0Relhpf/7v3/881kEgZAPMNGikTV8dtzKUdv90Ql57fK9o2KNTIoQeWphp0Ei7kZazL22sg0AIjSPYT4MQQsi+MNMghBCyL8w0CCGE7Av7adDEQVr4zIo3+CQA0Aovbvzp5sgNckFauGzFZnPuiG4ToUfHUDINebL37MiZXh5OjqDXtNQU/NKAVdFGWr+FhEk8nxd2xiXEeLpTTXKRKDsl+3CWpv/qzp6vX974DEtyYNmhNBEAOC499l/J+lNJLwoN1OAPri6PpvZcRfL3hYdOtw5UXxkA3NavOfIe35B1Yu0WUScAAHP16YGqO7snxL2+bU44n0nIpYVHMr9IkagAgB/19+z4AACwlqlO+ygnu6prwJvA917bx8tJ2qJ5/fIq+oef7cl4gIGZSUuWr0iSZ792lfPxRv+iI1nfKgGAuPTDyUuWrDD8LT+iGDP2/FEgOfXjgZYH3RJ3bvx+v8bXTikS/xDvV/r9rgocTAQNIdM4e0cnzmK01BT/orgNZGc23D+2ObIXlk/ysTWL1WWHt2dea6V5hvtGB7FJ1jTQX3VnoHolPO/57UfS+0fEqjty4rOM7jG9dDeto5n0VxAagBa5yKsxo5QWI5hDFeXrYZDqzvyIv3we5ZKV9e72FoeYBa9vW/OmfP/uNMvwYrr8j47+M89E8+A9sW3JW6mO8vjMspEd9AUhNL7YnGncg2dylNXZ50UdAABw64F/+SDbTd8Un+DRmLo28wcxAEBNSePFnrP7qRrQkNfIfDYifO+ZwvvO47cl0uqS3qNHDlAQGgBY/PnhyqKNlS5hy+fHOeZnmWDA6s7+z899TC/8cFdpkRqg5Mfj0W8kPx/snlZkuULrFEstZarrqD7xqT6RQVA2+Fj9ZBbblQbtrUp7NU8xuGuXRCzhsdigq2+sPpwtrLC8G7b35rjAME8WlwpapexSQfEhYdco5tyZoW8s9PNzAlljVTHJWtZgQFx+6BuL/AKcQFJfVUCalWjsbnCjhMyN2DB7Co9JMihl53KLD4s0AMANi98/R3XyOj02iMMlm+uv5n18WdbVlEBxTYwNTeJzuGRCJmv6Nrv0XFvXbwqyf8yhRIdTme0hj8+c5UY2aG4eO5mbeds18YnQp6a7chkU6Gwvryo/mHdTZgZgC/ZuCPVzAAAIWbMmEQDMsgMHL2RqAQAYUwTJcYHhHjToVJdXlKbk3exuyAhY9PT73Pp9tS6rwr38GKBsLn//lLB+ZD4M9KixeSxnjgeto8Xo/eRifw8a3FaJr5ZfrevA4WNHWp+FhJlzYzyh+MzF/gpl9rMpQ8mVCx5PP/PsucKhlqG01le+oe9akR434zFVY1qVxKUEtizyImU1DvjROwqC2CAqrekacVknrFKSVvMCqEU9H9sksTixCV5M0BmsZ2iDWilt1QGYVK3KTn3vmMlRr3y5NUz41eb/zrStzVZzW9uuJ8BsaFdrtINffzOTlsUmkWpT0i7WO05e9bt52xM6kzOalABAp5NltYcL5A1a8PANfvXJWIPy7GEpgJvg7Sf9jGX5Oyo1Ho9FJEeS4PpgO2EL3kjwI18t3FahchVEJEfdXcUvMnb7bENmzoXPWglX/+BXE+Yb07KOyQEAyCxehOHCjn+0g3fEx0mRz9b+eFgKAMzEpYvXUuoPfF9U00kJmTtv87OhsiNFFd1HzZH7bKThWObZT9qBy+O6EgAOFDeTLOOXUmG7kTLZa8OT89+4/dOOEg0ohds+F/bdesbwfuPZWdz639796ZbRY8arT87fYfxpx5W7P1HInJmrtJWHv/lNaKALvBldo+LoOmVagx6I9g5tuxHPEQjA9kxDdXJycJ45U19RfrlQR/cPnhsbBbfPl7RgE9rI6quQMJXJdQdNSbsGAMBzc/am1XwAdeWeyPSLeoD+qzsDSM9mSP/+/JxpaUX37CZk5xvnd1pfiAu2xmdbRmzus74ygGN4gg9R8mON3kTJlzBfnfEYtbFioB/wTJaLI6g0KutrtVoHLJpLV+cQbXHqu4u75pikGdlnuxrooG7v0Y0AAHBg2cEBj5INiBA63WQAACAASURBVIKfzxYAAKg/Odw0+OJu3gundJ47XXpJDgCalLxphxL8YxlNGVqAFuHfrCdf2dXKy7MTQqYyQarxE/j46Zp25d2sN0N9QalAkLBksJ14CXwCdE27/k9cbwYoLL3YvYrj1KRQlvDyj8dEBgCQlJZk8p9ZEuB6TN4OAGBs+b6kXQsA4sYKjZ8flwZSHXjOSOKpTx0qvdQBACC7WB6+KWLhtKKKu+/VXJRbfE5OAICkQSwBAJAdOy/rmqkWnhIFvsubTC4ZqMoUm+8/y0GSktNUYwBQlh6e5rUn0M/vSnmPCxd5RnZthR4ANBXXuzKQrCL3tQoAgIz0s4MdEjRRDOWOAJJSVHRVdhsAisvZ3ov9/N3KWhSYakaX4tutqfkJT+/ddHdSf9WdAUCaVlq2acHSsLLm3lvp2U9j1mtu6Ltaz/qur0z1mR/ueG1vowHAkNcgem/ugvDsirxhvwVd4UdHDxc7esYtWBvWsHe70KbxaYyXP/795WHvcjBkVxeuWXvO2l1lbFXJHCZz2QBaAKpr0qLQRD8Ol26pRwYSmgMAyYPNgPbaesv336yW3Br0xzvJy41hvHV3lfp26ypMVy86xS9hRfrdmgWgVdPJ0A4ARm1ne9cqhMEEDIojADDcWVxHzoZNazb02EExgwRg3aa5rUZ2T0i08MiwF2ZN4TEpZMvTDWIKA2CAS0SuKwPaZfXWhtl6hRqCmF6OUG/9shnbFDXYxYZsYGumMer1YOy4bS0fpdVqgEqlTbJXWKgHvUYmB6a7KxMaVWBqq1J0hut6nUP66acBAEIu/DEz7s/rfU713mQf/TQA0E99ZUqMINyd5vbxf/3yMQAACcBtkScpr48bDaw0apUJaEwXAEshGRaLBmqlynpO0oilNSVQU5JO+XrLjp2Sl3dLxu/dSaSoRYvWTmk+8G3eRbnOCKy16xKirPOM5rstfIY7D7YfsyYzrb/7vvo+0MbOpn3/yCvo76eemTD0nsUOmvdGJOVSZvauJrXWBCFxT7/LGU6kvT4rE4GJBtnC1ic3O9pVRkcnJ2tJYAaDDka97gH/upBtNCV5UlKwINp9GOuaSk9WauLmRroMbbWe9ZUf+50vsyp3+7LUl5elvrwsdXeawjOOP33AnQqrlMCfEsCyvKQJgtiESHzfr1/dha8qSavjl/NtiYjM9vCYwh6JMsaEwURQHEk9JxnbVe0ODJ71zEv2cOGatTI1ADD8uWTxtWvn5DojAFCYXkzLioSkTQvOLtyuNRg8l14b7HO/kjYteTLL0vcODiw/V+sqmnaJnh7gxbT9PWjl6jaqq8DD9jXAf6obpbn+WJ1aawIAipcbvdfBNJsBgNz7l6esXQuuLn7Wv3o/DgvUmtYHuPccsBz1RGVrpjG3XrupmxIQEcxxcXb2DA7iT74tqWvDprPR0XAkJ0vls/lQ/NI4T/8wn4RoTq/TmgsnIMwz0Ppveu+ERJRcyRR5RQT1mujkdXf5wDCOe6/HawCgq75y+EvRASyv+THs5rzq0ipFQ5WioUqR/3Ojih84P+i+VXqoO3nlGlWwYU9oRJhnZPLTL8SYik9W3t9KRuRdyRR5Lk/2oQ96CMhRf/rf1C+2LmEPuuTgGmRqmOb31BQmm0FjWM6tbU0XZfQlsaEL3Zlent7JMV4gbrrYAQA6mZLgTpvi5QjgQAuPmRVuPVQSYWM9yzuJTwMANl+wYPLg+5UIG2tofmtjpno5M0MiZsWyrDNMNzOuqnmR818N4nixmH48XlLc/A2+A25LWpshpj2VEJPkzeKyWSH+/hueCl044GGU3NIAhxvOAAASVzAnaVrv1KjXyPR0gT+XTSF15xulqK7c7LUqzjuAzfTjh24IotcLGx/o7jKSb9Lu1NS//kfIoHkZPVps7qcxtpRfzoXw2ZHxkWRzR9uN3IJyvB1g1MhFX6w91bYzbt3nEW4saBOJTm7PybdeIgxW3Vnz80nR2jBBz9OQ//o1Keu7XynT1+5PKb53n131lf9Em87TlOXfbSsjihuuqSOi49hHq/pv4hcVfbjV+fVti94/zSTk0sK9J75I0/W1nPLnk42/3xn3DN/yhOnokFUUHZsWs2r10xsciIIzpz+5TgBovj2Ty1wcunmNgGHWSW5UfZJdpwQAMJz7tdAvcc7HLwcbOzvFtXXnWkNDukIXfpZFf2PR0n8/YW5XNFY0E9GD7rhrlfn7wwhJfdW5Jm6i9U+ovuDC+4aItdGx++Ip0KkRt0gy2gfelibzxwsQG5r0VMIGKmg1amFD7aUBbwCXlf92yH3exg0rNuoNba3152o0z7N6zDbLMi43+j0eeyiMdPcuZ23TZz/QkxeHvb+BBnq18Gru34rUg77LAWE56gkKqzs/rLtADzla0qpnEqXZf7o8SEp5pGA56okKR9hEaNTQQoL8wzk0hiPFa2bwEq62oHYipRksRz2B4QibCI0e16kzXlgYzqWCVq3Iv3DxmHSsAxpdWI56wsJMg9DIcXBNjPX366ulQHK9PEOsu5SddSl71KNCaKxhpkFo5JjbM3PuHZABIYT9NAghhOwLMw1CCCH7wkyDEELIvjDTIDQs7rP2/2d8EmvwBW1H9o/5d3JMlH07T5krX3h+b9SIxt0fB86rm57fE0IZfEkAoPrv+c+nN0+zc0hojNj6pXYLW7VghnOvSerKX38uVOE4ASOqj+rOlIRl36SG3j9uWfORQxt3K5/ts7pzmgmo7NidiesSfaa7Q6dcKSouPbq9oEwf/IFw+f3PshNV2RuXFTTfNx0AABxjU9/alWDK37H/nTQdAEzbtunQasnOBZlFlkEKqF7J2eue8VAcXXHwqGX8f0sBaRDtW3DirBwA2OvOvLYhSJO15bNPs/opR51mglGo7twlYNHT78+hi/N+2lbYxyijfWGtXZ8QJrR9+WEyqmX5NQ7tI/A3NUDABkljY4V8RMY0Za584am1nM7MkagJDYSqvEaiHPxJG9KSpOdf9b9vsllx7HD2t8OsN9/P4XKY+sbL8ww/pR+gzz82X/v+16UVeLobLlszjVKY/Wu9dawiB7ZvVKz7zTpMM6PBkPfrWyuKKADgEfha6nxDyqF/5JgAQCdXEECDvqs7O87ZuWbHs5r0j058Wqtz5k2Zk8BxdwEQi1JXHDwGADR24serYkWZ76RITABmvXKwoftp4c8HT0sruj8bkYICw2nC7Dz+vF7j05ja1J4LE5lnj2hIQcELPDRtPd9Rf+WoR4WDa7SPY3HVzRB/L26hUDb4CqNIXvc3u98DbSjIKywYkS2xvCJcZOdErBC+K7Q88COoJsW3PytsWI7Iz8kS/wYAwA2KeUOgOvxdlfAOAGGUPeBAOciebM005ttK1W3rCzd/N6dbTQ237BQT6k2tqbOM8O/u1QnQKZFWl/Q+NfdRNYATGcduTjv1zzQFAQAl0qIMywxdc4m0GQDANE8PhPq+FftBVImu8ecuDSs6cF8ZZn4C36U453gJ8+8JfM+UIuujiKZrFxr5vxO4HyliJQU6XBDeeFYwUMCDG7HqzpN54XTZqd9kjHXeUc7CDEu1cgfuG5tiGZdPf3CNAACyYP6xOMO+fxQWgOvmDQmJlmE95z+dPh8AuodKAwBw5QW9M1cwiw1tDVWfZQprLG/KgblwYeQLgRwumZDJxRnnijPl1mHjqP57Xp4lO1+kFcxaMo1FITQXf/75byID2TvywAp/NgAYmj75Mq+g+wOeEvrlagG3RyN3xc8nd1URlmrQa4O4XiwahdCIG2oP5wgrOgEcBgiYlrR6+YZpAAD1eWe3FfQ4MfcXsPus/Wu4FbntfnN4fkyHtqYe7xGA7T/Vq1X82XXj3hie3+V268ibtPCYeZtCuW7QKbxa332J4jd/6ce+GiGZI3CQZZTooqL9XDvqU04VFXQCOHq/kxwT7gAAmsy0Hw90/5rpZ+9adbulmqvWhwCTQSJrr+nxk5fM5m2Mm7WQx2KYdfWiygMXau9+KLGRLwg4XMswcSW/fVDSPuDhQiNpGE3CJI6fP+NWWRP+grCDPqs7D51e16EG9yCf6SxFw0h8ToSq9mxl9Ob1PodLGnvP4UTHsWuPNkrz2M3bAqN5RenWEtSG/IqymOiFfIlrHBR+JPXvmWn6MSrVnb38p3KltcVqmUdbeLgfLeNqnyN/WpnbD3x94kC/rSuuS4LbD/ycfZzms/mpWZtnS7Zd0QBAQExscmBnRlbWORUlan705mfDW/9VWHw3s5Kjo2dc+vXyyxlasutUAYkAAGNT4cZ9hWT/mEOJvQNoKX0tpdzyX25A9Ptx9PKu+mYOrtTOory8A61aLdk1cUnk9ic7kzOalAMFrMtIO5EBzJUvPHVPA+pAATtwor0a3/13kYTK2/776O73CECL9uPIxIUysUHoHBjtVl7fBmCpghNGzz+XndFKCV8Qs8GZVNH9tqmd577PlTy1eGWwcNeJ3IXPzl/iV15QZQBT0wefNwHVf8/Lj917/Pvdez/ovORVkV6NZZ/8W9ZOcV0SF7ljiS75J7EWgB0UniyAjJ9+OtcGDDduNNOGzxcM7SoNmACMOlmHYfwWUXoYDD3TkH38plPkJXVYAcke+qruPJg+qjtXKX/ceznik8R/FC5oLG6sKqn95UhltU21LftDFJ+s1ByaG+veeK3nZL4gkie9mKcjRI1l4rioOFr6EeuZW9+Yk5e4ITmaAaIPKqFnw3pfAQOMTnVnZpQfq17YrAVdiVj7vN809tW6YbbtAwAY8wtKL7UQAFU/Nc1I5rqSQWN04MQKWLLSy8ca1ACQcV4Y/sfQJX7FxULrz2QHUvu1ogMiNQCAXDxoQ5bRRAAAuAmSF7nX5WR/29XCpLuUW2pdRHOs2PupJ7j+Dk3Fw2jQHiRgTf6VWokBwHDzYjPxpuU9AgB9WvQUbcUlDehNFYp5C/nMY4UaAFrsY1yozz8gbDcCSHKqF/qG3n0jclm+QmZoNSy8IxO2ybi3IMmFdk9ltfv0s/d+cAMF0cbaHefr6s0AoDmWy41N8o6miM8ZwM2ZDp2yIrFGZgbo0NhU+8CsOHzc0ppZ9FqdLSugfg0501C9Z3LNjUXNmODHjT6rO2tycrctKAuImxEWPW1OUuIX60P/+cLRtKrh74UouZIp2rJ0Nbumx8RpCTN8xY17RQAgLSnWPLOI73KkUmWNpPxnkevXEZ0pqY3AGzTgQYxQdWeWVwRHXXFDBwD1TTLtHK8Iat25Yf9oMmtkXRWaCa3eDE4OAABkFy8ng0RhbTfqbJfcJgWwGQDWi0uzob5liBeaFM6GpbPYotz3q+7+6ObyZ22K9he4WkvsGMQMB4BhZJqBAzbr2rrmEEaj9T0CMHyn+Ollp24BgK64Sb3W0unlwOS6kGRN7V3JQNMu6SRcrfsxEGYAMBJmo5kwAhgIAkiDlanpZ+/98fVkkd04e7f2KJ5kVrBpAAaov94onB36/ouccrGi4ebNc9Uy2ah2D050Q800bG9/D6PkF9mDNpajEdRft4deU5NVWpNVeuKjopfObFq5zufbHY0P0P6sOXeyce1Lofys7inMqDhPCt8rtWG+5TVJHxjJqsy2nrkNOfmpH0l1WQqid6YZVj/NiGD7T/VzdA34w5qVltcOhihfyjnh8EPp9Xdgc1lBw9DOcZSouOinQPhuzs27d2axBW8/NUNbkLutTCYzAJkfcyzBXk8s9PUeSeF8LsOZsuc/Z3RNNxuinIUZWgAgoEcp3n6ObNe30JbKm0M9wsaGvI3pTX3cwqYQ7vqnJMRvyqxpU6MWChJnFm47XTe+7gd5pA0x00ye6c26Lb6CNdAeLnpla6uJ7kIj9VeT3jaq76/kvrp8aZi1fYwniAnSXdx94mixCQCAyv/T8QXRcY7Zd1ORMvdgKQDAcOpS34PM9nClG9pbHuSOAFq0H0crzHu/oN0AAEAKj41fxeeShWIjEFoCXEldB8jNmU6+5yR5BygOtp3KjSpJJyWEwwBL+xjdxcuJaLfh7t3+cIOik/naYyfKa3pERPbg8IiWfSVdP8y5biyyQ+8+BrsGTJkaPY1U8WvWAcsvF5Lr2ufmhfvRMq5qxCqIZjEANAAAVCaXOqrFNRvkagjjhlCaCvpMcQZNhbC2Qlh7UhxzKMErhFIn617M9sPVjcxguzKgo1XZ+WBBTwxDOrgkLt/fSX39Rtvgi6JR1Ed1Z+by1I1/2RkaG+fpH+a1eNvTq2NMFfmSB72M0DdmZGlCYrpqS7vFzQgASf73UkvV54aSysIqxzkJNpRqHrAcdd9GorozfVr0FKKuXlLfppa0qSVt7RfrFRQeL9wRwKyulxN+fG+uAwBjalKga+81dTI1cL15AXQS2XHQBh/FRaGaGxqx1pfFZXOSnngsRC851zDcDM8RvB3nJrxUeE5DIlNIZArJch1gbFfLSK6zplAAgMyZsWH2qAZM5vFCyIri2naJ5UjKJfnNhMBvGht0+ddukvmCRDYJgBISMUMwukP4yiqFxeDzcmJQlDuT6+YaHhT0Rry/FwAA+IWEbgjh+rFobDZnyczJDI1afPfKciiHy4o875UvU1PffmIk6o1PAEP5IlD9fadR2irqO+wWDRqOPqo779UIS6SRSfOT1zNdqKARS4v3nkg5MgKPHdYdLa1YnzgHAIAWuciHVJVddrfLQVOSp3h5vWAOtXHoAT9At7ytGL5TBA7tx8R3z6FKsUxMnRnNIxU0GC5eLgtfNmf/luC2tubMepkxpOeqhot5peGJwe+/PIvsMPhdsDX5F1McI194KmElmVDKWg5n/FYwSFcQc+ULT6/17Hqx/T+9wXojMoPL9aPQIP7pf8d3ze26y1lelZLLSn7q6X+bDRrNrcwKsSBikIDJ/jGHkrwZlvmeS9Nj7t5RPcSASbP4XIayruLuiYAob2qHWK8Iet25qsLPXKI3rX52LRgkjS3lWtagIwQELHr64zDLrWAQsnpNIgA0FW48Paw7NTrF+07BxthZL6+exXYwKJXt5ZXllid9tEaSX2Tkklgmw8Egk4kP/Fje497ooX2+FhQGA0Db3oZV3WyC1Z0f1l0ghMYOOeqNf741PevPfz4+7OvVCQXHPUMIoSEiCYJnGgtOZ2CasRFWQkMIoSEiKr7a8sexDuJhgpkGAQAw529bENlXz7ym9ErXkDYIITRMmGkQAIAmd29m7lgHgRB6RGE/DUIIIfvCTIMQQsi+MNMghBCyL8w0CA0HO3Rx+ptr0t9ck/5SaEhff0ajUqr5kYb1sx8hQzjkTrzIWcEz3ZkUIDqUksry0moVjrM50sZhdWcgxS375utQN8uSes2N4srju3MudI/FfF915wEC/uPJGaln5tRs+exTy9hoVMF7V1dNTvksOUUDo1fdeej6qF+iLL2wvBTYsxcfmNv3OiNXqnkiwPrZ9xvZ7/AYsznTuMyOnBdIXD//q+gWwfCfFRMdbVb+UoRDbdrf+KjurDi79VS6CJh8/sptcTu+hpb47Go9QF/VnQcI2MyaMeBeHimjUaoZDdHDVT/7EWJrpnFw4TpPai2vlnQYAW5XNrTMiWJPpkHL7cFXRQ9oHFR3BgC1WNFQBVClENF4pz7mPx6UXV0C0Gd15/4DJgX1u/3BjFB1Z0pIVPSr4Vw36BSW1muDghgF3++qMAyrWHL/ofZXqnmAYskU16Qn563yc6V0Ks5dbQ+J4lwc+Ddsf+WozQBA8gsJ3zyP58ckQWdnfWN5ys9NEktg/VU+BghY9PT73Pp9tS6rwr38GKBsLn//lLAegDFNkBwbGO5BA6NO1tp47KfSgoEH+mJ7b44LDPNkcamgVcouFRQfEmqMAwSM9bP7r5/9KLE105jbbyqJkCnT2eI6pdnJewqHpGrCNDPyxml1554InYkAsI6b2G9152Gwf3Vn9mOR2yOZ+eeyM26SwhdGb2B01x4eRrHkfvVbqhn6K1dMCo+dv8Gz/fDp3GJi8qon53k5PMCn5iZ4NW5a68WLb9ZrgOEWwrNWgem/8rEFmTNzlbby8De/CQ10gTdDCwAOnLW/m+XV/Nu7Z2RKR2aAN2fwjl06nSyrPVwgb9CCh2/wq0/GGpRnD0v7Xx7rZ/dfwbq/CuUPI5tbzzoqC/OcIqOeezoMwIHoEP36f1W37BnYBDVuqztb98X32bCez5RXl1oKZQ5Q3blfzITUdxN6vK62/sfu1Z1p0UFTQZR/4Fq7EUDya220X3ft4ZErljyIvsoVO05dMpNecSk7o1kHoDlQxIt+kjn8PTDobg6a/AaFpAOg46bEepYfoPKxlTwju7ZCDwCaiusaAAAHuqsTyMQtNWoDgE7Wphh87y3Cv7V0/Vd2tfLy7ISQqUyQDrv3ZQLXz+63QvlDyeZM4+QdHOZvrr94uekWwfQODFsQrdNcqrr1kCfaR8KoVHfmrDn97hrL7uSiE9vP5asBBqnu3B9d/kcnjlmKp9F8Xvo6nmrL/keiurMDk+cCPWsPizsJrnXmiBVLHlif5YpZLA9SZ42iK0dr5WqZ+QEyTUvjxVbvtWuXRojlQpks/1pTjRZgwMrHFsY2Rc09V9Em2cVq7ZtLlu4PlAll8oqapkuDdnRTXZMWhSb6cbj0rkIvEtoD3OA6getnP2JszTQu/HAvqPu1sk5lBlApyxm8+MeC3YUXZTgi1tgbjerOyqytp74Tm4xqjVSks+6rn+rOg/yRm1RiiaWPB6hsDYBNmcbOxrhY8ogyKQ5/8+M53pRwHjc8ZF5S2LTPjuRd6gQYoPJx14rEfc21hoLzZzeXT43w4Ybwg5MjBILTPx0QD/AdIkUtWrR2SvOBb/MuynVGYK1dlxD1YO9motbPftTY+rbIFGrP8uAEADg6PqLH5NHTo7rzcJnaxdK6EsWNu2mmu7rzwZeXpb68LPXlFdlF4BMdZ6dnFchsD48pbFsqz/fLrBG3A5fj2rURhivP+rvbUiz5pxKZpdwv141FvufL3U/1X6OJABJ50GJfg1CrWwm6F6drMwx3FveeXVFoXBaT3evIEloCKKSu+N2c6b2OjNkgaWrKyC3cdaK0gjol3BPAUvnYgxsy9FiV8pvnrpR+duJ8xi16mE+vx0TIdCaXReuxa4Y/lyy+du2cXGcEAArTi9n9nRswYBhyOWovTldRtxGrn322j/rZw/hKjELADyNbk4Wq5aaeOTP4MW8XZ2dnz+DZMz2MreI2vKAZF0atunNvw6/uPAwjUd0ZdPnVN4E/a7PAlctyTYyd4WedMexiydrWdhmdu1DgymXQ2MNOOKab5653CuZFJE5hct29N4RPvecszA6K+fKlp17267HrAcpRT5mxOco7hENjM5jhwVP9QC1uBxiw8nG/KFNXxgkWTmFxGTQ/f58QFiHpVWKSFB3/1JcvxixhdE/RyZQEd9oUL0cAB1p4zKzw7gtWrJ89UgE/nGz9AWpszs8vJWbNXLAwkOJAdLS1FBaUXB/2rVFoJI1mdeceBqjuLMofp18N5bXCT9jRrz6RsGSSpqKkvlgbxDATADCMYsldc+TCAwWury5O+JICyqvZG88rBijV3H9cRPHF3GNPzlu76umNnYpzZfWSaNf+F7aG1F85aqOZ4R38Zvg8Nhm0StmlrPwMy916/Vc+7pfZAM68F54JcqNToLO9vDQ3pWrgXyuGc78W+iXO+fjlYGNnp7i27lxrqDUurJ89pIAfNVjd+WHdBXpQFN72TRGGn9I/G28fFC/iUBLj2IGL5x7F5yrQxIRdLWgicXRdMntqAItCpjDDIwUhhuZL/Y3BM8o4vKSZHC86iezMWRnJI99oLMI0gx4hOP4fmkgcKF6PhW9YwGQ4GpSyllM/FhePkxO6IyM8JmIti0Y26+pvXP8ku+lhHuMKoXthpkEAE6e6s0F2+MSPh8c6ij5IhbsOC8c6CITsBTMNAsDqzgghe8J+GrvA2wEQQqgbZhqEEEL2hZkGIYSQfWGmsRvK7UPpN2pO3zz75m3+WMeCEEJjyPY7Akgu/PmzBDw3OsXY2SoT5peKcCDnARmcNi6fzotqP/6uav0Zp13XxzoehBAaI7Ze0zhMiY4OnaqvOX/hp1P/V37LedaTodMedFzBiUBcQhUZCA/OWMeBEEJjx9ZM4zaVR1Vfq65t6dB2qG4UVjeTpvr6PNDAuhPFpAk2vhFCCN3L5n6aSQAEYX2AjyAIwoE92Rl7eQY3Ccx38LElhNBEZnPVAMUtI3smfwodAMhuwfxpdKBQqJPsGdqjweBY2XwnfP7tILuMpY8QQg8BWzONsTG/tIHwmr8madWLCY9PbbvRYgYw3xl8xQnP8cg/XVRz5WfTb3y36pEZ1AUhhIbA9madjpbijJYyCpUKxtsGRtBzgbpbOjsG9sgwrf+jyuWK+9IvnKomVpE9hBDqMsSeFsKgv20wO0z24rH1ipsdeJvzoCim4GmTivP6SDNkBtvDg814gIrLCCH0ULA907C9AoO9PD3cPP1nxizmO7WKaiSYaGxwBxwmQV9D0wvW7U1NeS/Jd9QjQgih0TWEm6JIbP/AwHCqA3G7TVx9MV+ksl9UjxQqQF83OpMZdDIY2tsHqa+LEEIPPdszjbIpP6PJjpE8mtzDdHwKKUdx3wySX/BMRmvu6XO3xiAqhBAaTfigh91Qbh/6Vh5jJIvOs4/cPxSNZ7CAUZGZUWEcg8gQQmhUYaaxG4PTxme8+53bfPrP60+PYjQIITRm8Cl/hBBC9oWZBiGEkH1hpkEIIWRfmGkQQgjZF2YahBBC9oWZBo2BhDebG7OaGrPEhxaNdSgIIfu77y5nsgc/bM6UyR5sZwrR+MtPv0m65ziw/IMjwrzcnEn6WzeFuaW1WN15MIHvvbaPl5O0RfP65VX0Dz/bk2ECAFLcsm++DnUDAABCr7lRXHl8d84FkQn4UX/Pjg/oMT3to5zsKpNlU+4Jca9vmxPOZxJyaeGRzC9Sj7YN1AAAIABJREFUJJYxGgJ2btm/idNz8LTmI4c27pZM27bpq2TPHtOVP7y4/4scAKpXcvbGyJxDG3dL7hla+v5NtaUd/f2ORgKAkrD8mz3GjxdkuaS+taH16Pod9647dPoC91n/7YRl4hCaCO5/nobiQChl18Ud/OipPSeTPAIfj516u7gwu8nMCQ8PezL09uni5r7G80I2UJzdeipdBEw+f+W2uB1fQ0t8djUAgC7/o6P/zDPRPHhPbFvyVqqjPD6zTA/Aj/jL51EuWVnvbm9xiFnw+rY1b8r3706zjqWtFqZsuSy0vtLJFQSA9Ej6azmOlLj4vybTftzyY06rSSGyIa7emzLIFVjoACH0wO7LNEbJ9SIJAN13eq9M4+AZ6M28Jcq9qugAUF2+Pm3NLH+f8ubr+Ij7MKnFioYqgCqFiMY79TH/8aDsajUAQKdYapleR/WJT/WJDIKyEvB/fu5jeuGHu0qL1AAlPx6PfiP5+WD3tCK5ZVt6jbhYWt378sAgV9TIgTJDB+Aoq5JWi20Lq69NDYrO9nAGbbtSi98GhFBfbO2nYbhOJutaFV1D3xvabikdXDxcsJdnYAa1UtqqAzCpWpVtelOfyxA6EwFA6T2RxOLEJngxwWTQA4CjIIgNopYatWWmTlilJPF5AVT7Bt8rSL1G0ao1gKmzVSmX3/NG2E+8nZr65SvzyKMXD0LooWLraDRUKhUMBiNtZmR8JLX6TKHeAFQqGas7D6xu79GNAABwYNnBPheg8H02rOcz5dWlIgAPAKAtTn13cddMkzQj+2wVADBZLo6g0nQPnq1W64BFc+keJNo94hNhhHWm5ED8oTRbGsr61GtTULT70+1HdABA5GRvzgEAgB2pucPdNkJoohrSuGcmMOt1tzsIIwFYv+vBcNacfncNAAAY5KIT28/lqy2ZRlf40dHDxY6ecQvWhjXs3S6U27KxXp0rups2NpQNvilQi20pq6o8s3PFmQfYJ0LoUWdrptHr9UBxIhuulmc3AYBzEAX0HcY79gztkabM2nrqO7HJqNZIRbqe91VoxNKaEqgpSad8vWXHTsnLuyUG0KhVJqAxXQA6AQCAxaKBWqnq7k0ZVudK30ZwUwgh1MXWnhZt+y0jzcONYXlFcXNlm1WtKrzNebhM7WJpXYniRu8004PuwleVpNXxy/kAYBJWKYE/JYBlmUUTBLEJkbhm3OQDOttjigebPtZhIITGq/uvaUhUFzaNRHciA5DZbuxOguhQdRjM0uom7TJ+6Gzl1SYzZ/bMKYabeY14q5EdEXlXMkURy5N9ftjaWHfyyrX18Rv2hGqPtDjELHghxlS8o3LghjWKO8eX50jxogE4coM8A91NCpFCrrbO9XCfGXa3Y18rlt6wbI7K5IV7aq1tZma1skY0aAMa+4m3Uzf6FXy27tNc/EYghPpwX6Zx8AhYmOjrBAAA7MgF0wBa87NyqvVEa3VuLiliduST4STdrZtlv5TiwzR2pvz5ZOPvd8Y9wz+UJir6cKvz69sWvX+aScilhXtPfJE2SALwXL98v/XJzRWpm1Z0P7kJAADuCctSEu4uXJOy/5W9SgAAliD5mKB7OpF35rm1pZoRfVcIoYlnkrd3/9W6Rt3y5cvT09PtvRdfX9+GhgZ77wUNIOHN5i9YrjhGAEITBD4Rg8aAngDqXEXNWcmXC8c6FISQ/WF1ZzQGcr6Y5vPFWAeBEBoteE2DEELIvjDTIIQQsi/MNHbh6+s71iEghNB4gZkGIYSQfWGmQQghZF9479k4xJgzY/tr/NnTKbJvf938D9XgKyCE0Hhme3VnCicoOmCqhwvbmayt/DWrEAc9sxfy/FWC2W3Vya/XizV4kBFCD7/7W88s1Z2Lxff+lCaRSYY28dXrko7RiWziorq6TZKJ5JhmEEKPCFurOwN0tpTntwC4zAoG11ELb+IyYEUGhNCjAu8IGH8cqBQwAGYahNCjAjPNOOPgOmfaXE/TjdrOsY4EIYRGCN57Np64b02b/zs3c3vh1Q9yTYMvjhBCDwW8phlP5J+v/uGFt0Rtcx5bPx9/AyCEHhWYacYZor1MfEXqOH0GFktGCD0qbK3uDABkxmQnMjjTSECiO7Mng9lwW9mB5XxHnllvAApMGuswEEJohNhc3RlInNnLInmWcsHO4fH+QDQVpp9vIUY33gmDgpkGIfSouC/TmFvKf/y6vI8liZa8f2WMQkRI3952h8t351FUYsNYx4IQQg8O+2nGH2PuqZqrbjNSziYdeNllrINBCKEHhnc4jUPasuu7/nh9rKNACKERgtc0CCGE7AszDUIIIfvCTIMQQsi+MNMghBCyL8w0CCGE7AszDUIIIfuyubqzs3dgcMgUDzaDQiK0rTdrCsvrbmFNyPGAvebMlsez9r+eN/er417pC47+IAcAACo7dmfiukSf6e7QKVeKikuPbi8oU1tWcfRfH795nSCIzwS1sjEv97MtpXUAATu37N/EIfXYdFva0d/vkMxPfWtXgil/x/530nQAMG3bpkOrJTsXZBbpLTvySs5e94yH4uiKg0erulaM/vytD5JoAABg0oilhSezU1MkbQAAtGeOvfV6TI996Cv3zE6/qAcAWkhy4pb1Ar47qESNP+/98asszUDvm+r1+uWNz7AkB5YdShMBgOPSY/+VrD+V9KLQ8ryr2/o1R97jG7JOrN0ispRgsLxB6ZFDG3dLCAB60vJjnwczSzLXrihqi1v2zdehbj02T4hyX4vPqRngCA+LZ+iXzzOO/z1XG7f8DfJvG3+62WM8J+bKF55ay+nMPPXjgRbLFFrS6uVrtblrz4iNAACUxBUrNpvynv9Rl7xp8ULGfRtXCnccrov4w9IlLRc2ZssAAIC0cNmKNxilf0qrlQEwpgiS4wLDPWjQqS6vKErJkykBgPL/2bvzuKbudHH8T8luAoQtBiWyhU1A2UShKGJLi9VWrdu1Vqoz1X517G071NHxduq1nXF0HKbtr9zS0bZ69aqlat0HWlSqUmAQAhUioMEAAQkkQBISsx76+yOACAQCEgF53i//8KyfT0hynpzzWR7PD7bERpp/cxp09U2Sf/1UkikjAADYwanrZ/j0+DnaVJL9/3LkAKwVr728lvto6a3CHUduVXUAAATMf/njMIYk718phWoAALvJ71mscEl9cPz/JfZMu2goOH92n4gASxVm+H70VnSopvrPhwqLTQB2TpvWJ4VWXno7T2Xxz072/GBrLDXn9Ie/GAAAyLzt/y/OKe/MDoEOgB4ZHfHaDHcei2TQauobak7mCIs1AHaTf7dxwfM969yhOnXs0jEZa8Wal9e6m9cQitam/MLiQ5XqQeblorkumR++0MdpMg00qrbKe5UHf5I0dW7rUQGNqlJ4Ky3vvgJI815Z/h6/57cRqnLO7Cihrl23aIWL6tyxS4dlAABzkpZvt7+14eRdhXknhu9Hv40OJWr3Hcwr6JwP3nKFLb6/AHasefOiXwtynUwhmpok564UZ8q75oMZ6DNs+R3os8ac3VnSzn8k5ybFxcsVGsUlpUoNMckjbEbEQqrxdGEdJlEZo8hhO9fsWKo+s+fE/rs6e557WJKrmyOACgBg2sY1/9jJvp2W+UGOAjju0UvYHBpUm8OGqjJt841KXedZDLLuTxc9clXI1Iyihj4lkYKDIumV2Xn82Qnso0JF93pCVLBre0kz0D1iYzalrNuu/3z7QTWA7tqug3cdyIFb12zmV+zfUVSn0zXoAQCcV7+8O4V7O/XkO3k6n+SXt366sr0zhAyI5pG0intqj7TPrEj06PkeNedK6LGBYTRRvr5rtUrNSAgK3VNfqifHJHkRMl2PAxVZO05evNu50KFXiwcrfGQ5eEQ5Nl0WOYTynaCxbaA9O+THT2f9iwwA1JgFC5YQtz68dt8AYDRoJR3UKEtHMTy3Lg0PbCjZd7XJ4OK36bn4Hdp/7SjpjOZVuVlpIoLKdIyJjtr0KrXtcF6BHkB195Nj95nkyWtXhjNLrh24qzVqzFdz9eV/ZZXRu888ZcOiGezapnrzb087pxgvcrHwfqivx+TCyqZBKgzGO8UpsluUycF/SnDKz8q93EIolMSgFQYmbyG/tLjycafR8Iieu30W6dr13AONBqq9QwDfjUMD0HRubSrL/aSsq0SCaOp6WzTVRR/eaAIqwydwxvqkBGj/14GGASbmoi98KX6tY+OxrKIyNcnJxTXSi8m2g6YOACBFJjy3fTpxLTf3wH0D1WnyPB6TBdD5PZIK/3xV0v17S6PUAVABAOwc4sMmH8tu6nuJZ3q7+7RUX6dMjeGRCsQPq9R/hS2+v+AzJ25rCHH58tXLCmrMs7M3Le1oPlJU/Bh/bGuzOxtrrt2o6fx/a4t2EvfVgKkcu7pavK0Zk2iu0QnshoyTX2fICQAQSIu6JxJy4K/b6qU8cmhXar0BAEBamtXjQL1aUiyt0Pc8FxkACKHoNn/WooiiA4LeRfGT+I7FOccFrC+S+Ny0IunDU7XXCeQNANWC7ClJgckxXoyD5VoApUiqBGA2m4CnqcuTVnXuzUpYxWfkZf0jTdQKUCHKDktYk7jK9dQe+cAT64nzalhLoyJTLxbqH93gwI+LVBRtKHeMWBaXQM7P6vx5R0gq84EfH5tdWsyPj5Tm57km8rqPMbXdlVb0eYEDIzHZLkzQtCk0jzvZLNt3ikez5JM7xtRYns+NtnsD7Us0yduaAACoPnoAk7pS2tZVPNXi+QN9IylNh65UFmsApMXHeLztoT4+JbfMBRk0qvpWAlpV94yuc//DK4YLBbUAHYZ6mQHILA0AVd1aJdV1n02haOv6VUGd95K/j7ry45+bOq/PLrxIRtPJfzcx13nOsa881z5whQH06ntSAIrOCB2KlraqrjvGgSrcYaiSqAJnek6uvNsEj4Me6eukqbz6P2VyAAB5W5m4tudmo0ZZJe3vVkmvkbSqjKC61ywMDYoP9XaABss/DqiTI3mk4qx/nzNf+mXy4squTWy/12bSK69c+p8yHQCArK2s55Bto7Za2qbodTYgFLVyNd8vJrfpeu+f+qRI/uQm8dXLjMm/57tSxD1CUb8VtvT+2k1eGOzUKsw+UCkHgHtXKiLWBz/vU1JcOfxpLofVTmNHpZBAp9NimBkLTJpmRYsKQK9tblZrzRdcva5dBW7BXtMceu9NivQLdVAU/lA/pJ8nhPLupUzygmSvPtcx15gE9t38GmnO3YbgoBhe30PJbgkhs/lg0JsG+pTSuH58slTYqDQvqqSVIpgazBssdYLJILh5VRn0ylJ6rw2MBL/pyppiYX2xAMLme/R4CNF+PUsd+aKX88LQgPKyQh1Yob+/cBfvJbvT0lPXBVpzHgAAk7ZZpTN0gEGrbnvQ8y9Cj/FxbZI0NkkaKu2nxDhbPMGw+XKcKCp5Vee1iahsagO2k0+vN5TKmhM42RlMGqsT8bH9ozbwDf/64VZZ1yfKw3fKZGlTsarpVqtrpE/vd2akKtx0506Zs/9Ct2Gf3qxD8wCYk6cE0IZ1tB3Vw98jgAaGAT/c0GHUGEkePFd2n8st23OKT4c8/45Vn8Nu+ta71+STXwpk9d5AnRIz1VBV21ZZ0wSevMC+V3crK8xy8mES9d031qq2exqqt1vXxcTiZ3ggw5mNZpJ3mCe9sULUPIxj0YhTn/9N+nkAgILt87pXKi6k3ojat/CfhXNrimuEgrs/HimvkAEAUHlsZ1DLJBZO5ha1r/Lh45eiXfu3HzFfc4ji78rVh2bFu9Xc7rk/PzCaJ72WpyNENaWShDkJ9DNHOr80pODEI+LEzt1U9YePigaKbTS6owNoVN3PsnQqpYnEoTkCDNhWAwDSS+ekX6wKm5pR1GMlOTLJixBcqNKbqPn1rN/5TafVlHVGCFNzVoXsm1mbeNyq8xfU0xN6HOW65vSf1nQtqLNOrNxsrnO/f+Fhkld+eBgAAHKz3+65njE1xl1Tdl0NelOZfPY8PutY4WCv3DJ26IIzoT2WGwCA5ESngt6g6fp5qNEajHYMNh1ABwAQ+uKqMy92blJUF/6r72PSfjF4byV4tBZlH3s4qTtrjo/DvcoGDegEEs0qn6nsX6r7/Cq3huUKm3+o6xov35mxNWzysSuP8wDNcC2vZM6S8L1v+dY3yiolkuvC2rL2h5s95iw6M6drQV+7Lz2voAMAgDk9/rvpnauNiurjZZabiADAdP/4teoPFiw44K+61yArq629LGxqMgEATHZggF7WbOl+mBd16PddX8cOdWZGVwPer9rLZU1Lo318fnlkMmQKjxfa0fSJDIx2TdW0GTGToayzwW+IFZ7EYAJRr+96Tzu0Cj2wJjEo0GYEy5/hAQ050lA40dEzHe//+6K4ffCd0ahR5+SmzC0NSPCLiJkatmThZ8nhX792NEM42GGPttOoJLrujwghuJkp2rxoNbuqx+5Tk/y8JTWpIgCQCorVr8znOx4pN9+XEKKCj7aXtXDcF2+NgoMnj+bZKl21NKOkdOPcRRGlDy+ONK+4SPLt1BoDgCFPLNo9a25kdlle50ZCUpkrS9waIvrLZh0xveeZHm2nUcmtuYKJjr+z6vjjvwimt7uPvulkCwDoimtVa7tbOIZFIyr6uFAOAACk0GcXrLXiW16Vl32gmuDwglb6qQ9nVdcPfgQA0Oc9FxXZLtxR0ONRmINHlKuqrE4HAPdqmzRhHlG06st6y+cYPkPxrVr1Cr+YvMrB97XMKLv7529qPXjukVPdQv2iPooKOnX6YeDs2U5jJLRN3WGvuujjPDnVccqSGNfKrOLrmn7P/VDT7cK3RbdDvdxnTJ0cER2/JPzevoyi4kGbuXu20/RoJQIAhehuflz0Ql5l8cN1pBn8ydBQdMsEAE3FzYwlPRr8hlrhR5EoQ9q9P0OLNBS3yDmxng8EWaUN2Bdg7NOrq7JKqrJKTuwpevPixhXrvE7tqDFIFErgu/EA+r2t6aedppv68nc1a98M5z9s12HNSeBS+R7p4jjzMkkfFO1Qnm3+uaRvFwukDSC908z+56GXFwlOXLJ0IwUAep1SBVwHOgmAAACgOziSCaVeacWrJGSVFzIT3k/2Otm1hhobGOlGd977xx/3AgCQAJznc0l5XU1IevXV1AtUnjRXBQGPnGk47TQjgxTJn8y0p370n36dKzoMnS0cfZ5QG38d/KG1UauqkpovMaTJ+s6mtjadAZyoTLvOczIZVEqHQdHd+aO97Z6MuCf7t9Hlpd8nyLdm3R/0WsT2j9jgpf7uW+G9HjVi+07xITsFvL5mhXnZzjDHm3p5OO32livc/SxUdueyfNFL02sHbNMy6zCa+jRh/dq90VBfW1tfW3sur3LJypfWzpry3XlzZ7+B2mnuydqMsjYJOe6TRTOq/q+kbNBfUgZ12Z27ZXfuHivw3L5+9srA8uISXZNKCzQGhwLQ73eu/3YaAAAwNWXeNn40k1fV/ae1c50zjc5kxn33rnkRgNGjwW9IFX6g1QCJSev6NtpRmTRQP9A+TlPkENppKG6Rc5711/+SVViDtzPji17R3GxiONJJAETx3VIVO/pFD4stx5Ypz97MpYUtiuj6ecILjA3WXdt18K3F6W8tTn9reXYReMUk9P7xQghunin3WPc7r4EaXfTSuyITN9i9M0uCAzeQDw1CiXW/Z0wl35WrE2ZFd6VYmP6iN0uYu91cq8XpuzLk3AT+tJ4vJK88I8OqW5ZBkZhsdw7H4fF+81GnxEwllf2U9faRS28fufT2sbwCvbmFw9imJ4Bi1/VeUZlU0GiHWe/q5jajg2tXgwQpcLITKNru9T4ZUXzzbis/fOWg7R9M3lsJ7k15/z4l77mWHuPjqqnMSzG/kCNZh8WkQP7k4f11rKiw7vIvTR7Bfh6DXsY6DGojMKldf0g7O4ododb3vXJqm9oJoFCt/3Io7givgd/a0D5NJgPQa9r0JAqNCgAKSdM9O9dI/nBas+6VVd+b6jPPvmvZnRfFkJ86bf7LX0o5d7ee3U+Dn1UVVrfd05A83J06Fx2cfJgGsWzAB25dKEw2h8Nmknqv7/sWkWiOLo7OLl3ZnV0c7akAYOc8c87cEFJdoaiN6sh2cexaj8Ym1rL0Df+1Mzw+gesb4bEg5eXVsaay/HoDAKhERw/WOK5e9mFKYFgENzQpZP2ncTHd7aE0Fi+SGxTR+S+g1zdAX3MuSx0a2znmxjnBLwDq889KxUK5WCgXC8oLheSwpL4RRX31aAVpacIrfAAARz43KMKDxyEDjTktlhsQwWYBAKhzvhNpY+N+v9UrIMJj0UeJcbT67O8G6XjWjRDczBR5RAWbX4JHXCy7Ia+ixFwroTz/hxolPygueNDTkJ38erz2zooNwnvJ7s/S//qa1T0C+kPh8UIp8uK7bfWtqvpWVb2sPr+BCPSZygaiqlYOU0PWB7v6uDpFhs943s1QKWkb3k9LRWV1sXHyqkS/SDen0ODItf6kqvJ7/dwNKO5lSujPx3iyAcCO6uHmFODGZAJQWM4BXCcfe/N7T5+XEBWpr/3XfVIA18n8z8eNxWRMjXEnqu/V3zO/kNa2a/fkVB4vcuBHJzSWD9cpwJlOATu2i1OAm8NkqrUV1tyrzCdPDu3T8aW3jrYyicFnZtgSbycfN9fn44NmdMjL6gkA0rzExO1xfvM8nXxcneaEz17LJ0nqmrrv5yhMx+4X2F2xXme+LGzziZoeOcDl0G7y+pXxmyJ4ke4OPtzJC+PD5zmoq2pVAACtd4+XGWbMn/u70MkBrk6h/n6b5vt6dB9IYfh2l8518uh1/W6vvSxxCOV1Fhzg585WNOVLzH951T1xTaXWKYLf50Pcs8KW3t+OpsvCNufg8E2Brj7cKWufC/JRSy7fs+rbGLguNT1t9xLv3uutze5MmuzlTCGBX/zcrvv7rqzPaCzSVQqk0UvitiazHGmglkiLU0+kHel84FuXduIPqsTfrFv4560skkpRnZd7o/ttdAjceuzhVZPIu/jq2rKe560+WlKWvDAMAIAePd+LJMwuffhLRy3Ik7+VHBhG6z0KRptTlN28cdlWr/PvSuN3b+wauRm+41h498jN1owLu9wWvp285vMUUItqTr97YfDBNA+pf/hOtDYikAFgFxwUzVOX5j8cYUMUi2+romIS2IWDnISdtHdjUveSqnxX9JncJ/ABJ83gT2Yqqns0RBO3atsg3iOKUX35l7x9jKjX4hakMkgatbw499qBYY8g0damnWVsTQjZvpYOWtWtomtpgn47HRiu3ZKsXRKylFt7WOf33tqukX2z4vfO6hrZZ+ccyaNTGH7vveb38DiT5IurEGjXdkzy8JKkkDRJaP69xnb0wvSPTO0aufn8S0nPd4/ctKbCJnlmedvzsU691/d5UdevXHNKCF/4UtJ6CqFouX/uQtE5FQAQ9yTymJn+G2aGsymgUavKBLmHix+WMjk0bm9oj5OcO/1Jde9T15ffuRU9e2XI7eL+/54AHcpKifGlkKh5sXQm2aBokV/Pyj/U2VZvKM7J3qeJeG123MedIzdLHp6FG/zBaw9/ITUJsv/fTz3ffUP+L7Wv+ftNBvMYJpZC0vQwEne0FTcYnvf1mFzYu9HtYYXvefb//gJUFeSmUaNfS1iwkEY0NUkOnC22bjANhcmggKGtrU+X72c8PT2tOcGTsWzZsjNnzti6FG9vb7HYtqPynkARCCE0tpAC3kzbE/nLf//nl2W97rxx3jOEEEIjgRsSyCzLPNc7zABmd0YIITQyGk6/n3y63y0YadAYRooI37qK26cfCwC0Xd9TUGRVZxg0QbB9g1d5Mfrp56aXncuttW6E0HgtfezDSIPGMEJQ8tmoDHBB44+iWnigT3P9BCl97MN2GoQQQraFkQYhhJBtYaRBCCFkW9hOg8aFCNOW700cgA4B5R+vkoY/zTFCaBRYnd3ZwT8sMoTrZE8jgVHT0iQqvHXH4lzX6EkaSnZnfcifK5fF9DkFIczesLiA1X925xrokfmY0KvrisuP78q5KjIBAPC81u9MTIp1daaZlM3y21k30vaIzOVTk5Z9+5Fx79wsx/Rt65uPJu+oH34WJTO9XdYiasEQJg5ACI0R1mZ3hmcIfXPFL5UKvQFobtNDZr4QaTxdIMYZnccoC9mdJaL05QePAQCdvXDvynhR5gdp9SaADr1CBsCC/rM7kwAA5JfePXlGBCw+f0VKwo5voDExu0Lvui59zTIo/Xr7BWEzmRPiFTedzQKQWawVQmhisja7MyirK7qncG9RMz1W+nNcQIzdxMcmi9mddQ0CaQMAgGm2HgiVvEogfWQ6I8tZA1QSuVgIIJSL6LyTe/nPBmdXqPiz+bprmzPP5wAAVAvq862uIIPNsR+RnMgIoXFgGD0CSJPcg9wdCGWrNclDkM0NLbvz4yN0JsKcrl6pbwc6P4bb75zHhF4tb9YYwKRtVshkvXJhsJ/7Q3r6l1tmP36CJYTQODCkHgFs/8RXg5wBOgzyih8L72KWmjFhaNmdB9FPdudHUpxT+V7rk/ksWUWJCEBVdjiV/2HKxpNL5bfLa8p+KruUUS/ruh8icrI35QAAwI703Md8iQih8W1IkUYhLvi+icKYxJkeFBgT3HaxtGFEkkkhGxi57M5mrmtO/2kNAAAYZKIT2y/nqwDAVHXwZPJZ18gFXjPC/eJSNqxYlfvH13IGTlEOAACKizuXXxzeC0MIjT9D6+VsbFcoQaFsbTYyVz0bFHSn4ZcHNqoXGgH9ZXcepAOYxXYaRda7J7+XmIwqtVSk6/kDg5DJCzPkhRlFh76KSr2YuHrhjbKMQRPdIoQmlOGOp3kGgEKm2PWT5xyNPT2zOw/zFKY2ibR6wCnICIlCpgdnBzLA4JGGweawqQZFswJ7LyI0AfSNNCSaI5tOYnRld9YSRLuy3eDoH+dJapa1KfRG0iTO9CAvRvtdiRKAmY1xAAAgAElEQVTDzFjFWpa+crqkNDe/sV5J9kyIWR1rKttVP/jDThqLF8nVdD0z61ApqkQ6yzsHbjsdqjxXViqUtwA7bF1iHE16PM/y/g+xn/tD+gafgk/W7c/FzmcIPf2sze5s1BomBc6cGTSJRgKjViGvvFJ+u/mJ1xZZa6DszgPpJ7tzicXbDr28tBiWrFu4iMNigK5VVHP63czjgzYFIYQmHMzuPF6LmGAiTFtOdAhwjgCExiWcYRONF7SOFy7rdh4nJo12RRBCQ4QzbKJxQUD+wgs/rAiNU3hPgxBCyLYw0iCEELItjDTjmLe392hXASGEBoeRBiGEkG1hpEEIIWRbGGkmKqpx407pzTN1NSdak6ijXRmE0FPN6uzO3ZhBz74Y42q88/OlXDnORjNu0SLa354DGTs9/l5u11/iM4QQGjF972nM2Z2LJf3mObNj86OD7FSYmWbco7kSNA21+A6GGYSQzfWJNMb6O0WFd0Q1yv5mY7QPiPPW/SJsxLQ04x4NAOAZ/XCndkYIIesNoZ3Gjh0Z6a0tL6nG2XefAnTKr1ZM7o8QQiPA6khD4gTM9nlQntdozaTwaGyjORqXzDKAhCrCexqEkO1ZOZUUyXlGnGe7IKcOE1eNexEbpN+v1oOGkfZHpmS0K4MQmgisjDT2rq5sGjs+aWV85wo7l2df5dXmniiV2qxqyDYEh7gB3xs37mx6e70mYycGG4SQzVkZaRTivO8bSZ0Lk/gL5kxTluYUSq1IrYXGIL2Scq6A+varBj6JKcEHaAghG7M2u7NRo3jYEUBPAKHXtLfrcTzNuKUzPoMpIxBCT4a12Z1x1MVTRg8A8CuNBID3NAghG+sTaToab1345taAx7QLz53DbPHjnF5O0jMNkf4dOThHAELIxnDeswlKL7D/vACWflxfhfOeIYRsDB/VT1QGysE93IOjXQuE0ESA9zQIIYRsCyMNQggh28JIgxBCyLYw0iCEELItjDQIIYRsCyMNQggh27I6u/OkoLmLYpy7A1NH861LF8UPnlg90aiiJi379iPj3rlZjunb1jcfTd5R3zmzAM9r/c7EpFhXZ5pJ2Sy/nXUjbY9ImbT42/Rwxz4naThyaMOuegIAaB5bs9e9wpEfXX7wqHkMMI27JXvjch4AAOh1MlHN5bTMQ1nqAeYvCNi9+Ytk1z6rdVc379+rX/ztN+HOAABA6NV1xeXHd+VcFZksVVg28GscBvuANUtXvxDIZRpbKm+eTrtU2jzYEUzP599a+nwUh9Ghqv/31aNf3pRiGij0FOk7nsac3VnSzo+Z0mvLr+21+VfFKvOC4QEmqpnwXNelr1kGpV9vvyBsJnNCvOKms1kAsryfti0vogIAJ+jt9DhD2qF/5pgAQCeTm6/dpOCgSHpldh5/dgL7qFDRfTrZuTP/dVBKdmRPX5W46dM1puUHD1uei0L81ckt58h2AOTYxL+l0C9tvnClGQBMbSKASACQX3r35BkRsPj8FSkJO76BxsTsCr2FCo/wn8UhacWmZc4lXx44UGcfu3HFhm3av+64Kh0objHC3lr3akBtxl9PVFFCXn17xe/eaP7oq1qMNeip0SfSGOvvFNUDMLyn9Yk0QOhVLUpF77VoouLzZ/N11zZnns8BAKgW1Oeb16vU1QI1AICbhxZAWy+tEDyS3pOfxHcszjkuYH2RxOemFXUnnjAoFTVCOQHyqnL76CWLoxJYh4UWpws3SORVEgAAKk9HAFkmklaIOjeZJx1XSeRiIYBQLqLzTu7lPxucXaGyUGErMNgce9C0KTSDX/6dY58LhIKjGVdrjQDfH/YM/3hWvP/VjArLR7BDYucwqr45e62sHeBqRmbox4tig4/VlmI2KPS0GEo7zTP23vNff3nFG0lJLwRPY2MLzwRC6NXyZo0BTNpmhUzWFTaU+nag82O4rKGdzDUmgX03v0aac7chOCiG12c7jR6wOpAPJr1+ZNJPEzoTAUAdrML9v8ZO7Of+kJ7+5ZbZlMGLY0ybNhXqqrruSES1EoPzNL79QId4eU6zaxVXtZuXWu7UqphTpk0dvCiExgurZ6MxKurL8x+0KHS/Mtx8IoNmL6QQp0sbDLasGxoziJzsTTkAALAjPbd7razscCr/w5SNJ5fKb5fXlP1UdimjXjbodJ38wGie9FqejhDVlEoS5iTQzxzpfBA7NXnDj8mde2lFBRlnR+ABLZXvtT6Zz5JVlIgAVANVuP/XOHRMhiPVpFRpvZNTtj5be2h7iVIDXEd7gHZLR1DsGQxoV7Zznt+z5Xn1pf0ntEpgODg8Rh0QGmOsjzSN4opG83+VslawXxnkzRM2VOOj5InMVHXwZPJZ18gFXjPC/eJSNqxYlfvH13LKVAMdMzXJz1tSkyoCAKmgWP3KfL7jkXIlAADIss7sOii39wtd8yb76ubswsdqP3Fdc/pPawAAwCATndh+OV81zAoDAIDi4s7lF4dWAZOmXaloN1qTw6kzx6DpQWubUqM1Alhx64TQeDK8GTbb21UGO0cWBQAjzURHyOSFGfLCjKJDX0WlXkxcvfBGWcYAT71YcxK4VL5HujjOvEzSB0U7lGfrAQAMzQqRQEoIpI1u6z7/dM7txQXi4ddLkfXuye8lJqNKLRXpet57D7HCQ6bRKg1khgNDcvrAR6cBKCHxTNAqLd7QAIBRodUCx9G+9fzfP8sDgDD+JNCqBg9/CI0bw2ttsbd3oHZo1Rhm0EOERCHTA8NhwB8vvMDYYN21XQffWpz+1uL0t5ZnF4FXTELvQxqO5Bdy5v52Nf0xqmNqk0irBfK6R8PMkCvchcHmuHPYDCv21NbVNcC0AM/O+xK+J4/aWifqEWlIDAd3Z4eexdbU1nU4ewR0nt3F19NBc7+uocc5KUw2x7rSERqT+kYaEs3RxdHZpSu7s4ujPRUA7H1jwoL93bkcZzdP7+gF/k5aSbUEI83ERgvcdnHlpo2B0bGuvrH85Z8mxtGkpXkDNa44J/gFQH3+WalYKBcL5WJBeaGQHJbk1fsaqhKdy1RHvhkTQBvlCndhP/eH9LT/b2OkNY+1WvOuVMKcF1cv8OTyA19ZP8tBfPPanR7bvee9+/n2nWs9H65RlOcVaEOWrYgP5XAj5q1ePKXlRp6wR8czyuwtX6an/+E5tpWvE6GxxtrszgYjyT4gmjedageEvr2xtuBqRSN2B5jg9PLSYliybuEiDosBulZRzel3M48PlI2VHj3fiyTMLn34YEgtyJO/lRwYRivqtWvF0ZLq1XPXLc3/IGPkBm4NucLDo8o6dcBpxeo3Nn3IMLZU3jyUPvBgGgDQlv7z6PdvLV34x5TV0CrOP/U///vIYBoqkwmgaWvVjHhVEXoynvH09Bx8rydl2bJlZ86csXUp3t7eYvFjtACMjSKeWClotFHmvPf1tmlZ779/XDz8aQsQGk04KgahsY0UGOJvLDh9DsMMGr8wuzNCYxtR9tXm3452JRB6LBhp0BhGigjfuopL6mdL2/U9BUXYERih8QEjDRrDCEHJZ4LRrgRC6HFhOw1CCCHbwkiDEELItjDSIIQQsi2MNAghhGzL6uzOAEBx8ZwZ7e/BmUQGvbqxquBHMWZFmyAsZD5mLT/93paInjua8nfs/yAD4tO3fZhkyt/xuXmE/9SUjYdW1++cm1nCT/jnxThvAEKva5VIi8/lfJ1W3zpAwbSQP1cui+mzmhBmb1hcwNq5+fONruaeaVqVvCqz4MCekioVAJB9kxO3vBk4nccClUJSLr6YevF8Z88C9pqLm5/N+vydvFlfHfc4M/fo+WHPGG0fsmbpc7OmTJvmzGi+vv/tS9aMd6F4zlq9ZUG4tzNZc7/0+7PfXqjFbGdoIrA+u7O9Z8zCGczGquIf5Q+AYs8Ga6ZDR089gyDnD38RdU+GrBKZuj5V9MhVIVMzihp6H6HL3XX0uIg+LSZ89dZ1n3qc2LKjxmJmTb0offnBYwBAZy/cuzJelPlBWr0JoEOvkAGwAEBV+Y8NObeBzI2M+m3K4t309g3vikhLXt6706PqYOYfc+R6R9fp80O5HDLASE7YDABAYVC0kp+vVzXPe2WalUd4vrp9Rbj8h0PbyzXTX/zNhnX/0Zp66GeMNejpZ3V2Z7cQf1dFRfaVzklpWxqfUAXRWKeUVwmkfefAI4Si2/xZiyKKDvTupmxSN0ur8qAqr6ZUte5ISsKirw5liPoc30nXIJA2AACYZuuBUPUpS69uEsrFehALLhp9/fYs8AumiSgJXizhjX+kVrYCAMgrciqtfS0UposTk9A0K6yZYaz15pFTNwF4ybFWRhpKRGw05372X66WNwCIT2VGfbD6+RDGzzcx1KCnnrXtNPauHHp7s9HzhQVLXn9pyavPRvja9zeeDj2dBsx8bOEQ5d1LmeQFyV5Uy/vIcu5W07hhkSMzqkuvNwGNRAFQKE0kHi+S3+9pTZpmRYsKQK9tblZrH80QSgp942/p6buWeNvms831m8JoqxVLzUvae3eaKV6e0/B7hCYAa7/jtEmT7Oz9/fVlt24U6hi+IbPi58CDK4JGfIQ2IQyQ+ZiasDLz4Syf0sOLDx7tnB2ZKP6uXH1oVrxbzW1L55WoFXqyswcL4DGb/MjOsVGvLWUbyhuq9ND6Veb5yGXbst9bL6wvK76b/13pNWF3dFSf/036eQCAgu3zHq/MIZvkxACN9oHLrE37Fjle/OKfKi0wGQ52ADihGXraDeXXJEkhKvql6QEAFN9iey7w8XUubZRjqJngHm2nMTX1eA5GCG5mijYvWs2usl3xblH7KqPMRbcKivbvKmkFAIkobfEnp2L50TG80NiYbclzF+w4uCvDYmNQjwp/8dvlX9iusgAAYOzQPpC3QbsJczijicPaSGPU68HY/qArVYhGowYajf6MraqFxg8L7TQAAKC+/F3N2jfD+VkWjuWx2DSTUjZ4DLBIVfnZhhyhHnTNioZHHuuZpHmV5/Mqz6fmRO/d/Oc3Z/lm5FQPv5gR8aBNC0yGY1v5/20rBwDuGgZoWlX4Ww1NANa207S3KY3kSZO6nrkzmQww6nW/2qpa6CmhPHszlxa2KKL/XzTcBD9fvbQ07zF6henV94XyaqG8wWLrkUkq04Ej3d6a9J0UJofDcWEOvzo9z8V2dnG373nfIr17X+vk6c01LzF8+BxjTW1dj0dn5iTOTGy5QU8da7M7dzTfvq9zD4gKcXW0t+eGBPNdHtRXt+LPMQSOrgER3KCuf9PcHt2qrzmXpQ6Nde1x9SSzONyAWK/ElGV/TvGQnc25ZLHj2TAFpKxJ/XROUpJHQDA3anXCO8lcZd5dkX7wA0mhb/w1Pf0Da3sEMNyn8Pw9uU5koDi4+07h8Z17ZKkmh21J+fjzNbE9MjIbBXmFzVPmv7kgxJvjnbR04Uxt6eXynh3PAtelpqftXuJt3ctEaPywNruz3th460YuRM6MToymdLS31uUW3MLuAAiAGpHw6emE7sWqtM+3pD7yNKz6aElZ8sKwhyvocbs3xuh1Som0MO3E12mWB9MMl1QglkWErtuX4OZANqjkVZkXP9gjGvFSgByy4XcbZpm/Qc6v7wsDY/mhtUdvGi0fYaz9ft8pypYFG/e/CO33S48d/faRwTQUJoMChra2thGvKkKjDLM7j9cinlgp6AkhBbyZtifyl//+zy/LBohWCI1HOO8ZQmMDNySQWZZ5DsMMegphJjSExoaG0+8nnx7tSiBkExhp0OhjxaXMjXbrZ4O65ObXGXIc2IjQOIeRBo0+dW5qZu7guyGExilsp0EIIWRbGGkQQgjZFkYahBBCtoWRBiGEkG1Zm93ZOWLlXD/7R/ZUlf/0Q6ES5wmYCPrP7syf80V2YgAAABB6dV1xecaenOyH8/ODc/KaI7v5hqwTazeLzGPhA3Zu/nyjq/TIoQ276gkAxpJlxz4NYQky1y4vcraYqrl/Abs3f5Hs2me17urm/XtVC48ci+L2WFudlr45Vc63XHprwuJvvwl37nEIIcp9OzGnCmC0E0K7PLvo9bWzfDgUU70o+/CprNL24ZaO0KixNruzojL7p3tds0HZsb3nxLvdr8Ywg3T5e45+nWeic3jPpTy/LZ0sS8ws7ZxhjB4936PmXAk9NjCMJsrvnnZMpWYkBIXuqS/Vk2OSvAiZ7uHVtr9UzZYSUoq/OrnlHNkOgByb+LcU+qXNF640A4CpTQQE3PhweQmVE/peelR72tGvckw6SVdX6QFKB0XWjpMX73YudOjVIz/9wtATQnsu2PTOLFPWqb9faee+suL191eofn8or3nEK4aQbVmb3bnjgUL5oGvB2dd5UkutuOWJ1BCNbVqJVCwEEMqraV6J6V7RwVBqTufswI+LVBRtKHeMWBaXQM7P6rzXISSV+cCPj80uLebHR0rz81wTeV3n6i9Vc5GFmTENEnmVBACAytMRQJaJpBUPZ+pUVwvUwPN4AKCtl1YIHt5mDVQ6mNruSit656IeBInJdmGCpk2hsWZo/5ATQnsnzuK1le7/33IJAZKvfgiJWhc/3znvu9ahVRKh0TaMdhqSq48vs+VOreUHG+hpM2h2Z5KDa3ySBwtMhq7AwEjwm66sKRbWFwsgbL5Hj9mR269nqSNf9HJeGBpQXlao63sygB6pmkeaVaU/aqCE0N5Ldqelp64LHPmKAgDYT/NxNopF9eYbL231vVrg8qdhBjU07gx95CbFy2caVSaotmISdvS0sJzdmb4g/U8LOv9vkp7LvtSZ2pkcmeRFCC5U6U3U/HrW7/ym02rKOj8ypuasCtk3szbxuFXnL6inJ0Bvj6RqHmkDlO665vSf1nQtqLNOrNwsMgCMYkJokr3jJNBKtOTZKz5827Nk32f3HpgoDg4MAJwbDY0vQ440NE//yR01RQ0WkiyiCUZXuOfo4WIyN2Hu2ghx6vbKzsZymldcJPl2ao0BwJAnFu2eNTcyuyyv8xhCUpkrS9waIvrLZh0xvcfJ+k3VPNIslt6rnUYlt+YzLjr+zqrjI1/JXvRalbxV1dlkhVEGjT9DjTRsT1+Osf7HJvy0IzO1RFolgCrBGeo3m3fsrH9rV70BgBobGOlGd977xx/3AgCQAJznc0l50s5j9OqrqReoPGmuCgJ6nstiquYRZan0YbXT2BTRrnwADEeGqfTS/ncBgBE/iWxUay11kkBozBpipHHx93R4ILmJOdBQb7qrX5Wv+yZx2dFDGSKY/qI3S5i7fXuZudfI1HUr/yuBP22PtHtvZV55Rt9zmFM12/65bP+lDwuJyeYwqZq2ZtXj//giMzgOkzq0LfLuUNJed6+VMsvTg1QuJgAYnj6eIL1U17MkJpvDJGnaWqzqkIDQaLE2u7N502S+7yTVnTrs+YL6IvJuZoq4y7Z6MWgecbHshryKEqFcLJSLhfL8H2qU/KC44CdVFQeWbwQ3KNhpEgDDgxsUwfXub6LoPshOfg/TVAdEsFlWHOO9ZPdn6X99zdoeAQMlhCZ5Lt+3/eMP5nF79J4QX7kpcZq14o0QnueUWesXhZEqr/3U4+tH8l6yKz39b2+EWpeOGqHRYnV2ZwCg+XpPpbaW3cORY6hfih++q/mPnQlLrtZH89Sl+dLuoSpEsfi2KiomgV34ROpBCpn7UffIza0b0rZ2jtwc7Dh20t6NSd1LqvJd0WdyR/YGa+gJocVXD3zGeH3tivdfopikoiv/OPXoYBrqJDqAQoEDbNAYh9mdx2sRT6wUNHZNXf73T5Y0/c/m/dc0o10VhAaC854hNF4xQ0I9GrJO5WKYQWMdZkJDaLzS/PDf//HDaFcCIStgpEFjGCkifOsqbn/N3W3X9xQU4TQVCI0PGGnQGEYISj4bSwNcEELDgu00CCGEbAsjDUIIIdvCSIMQQsi2MNIghBCyLWuzOwPAJF70jBB/NxYViHZFffmtkgolzrU0QfSb3ZkUnPDPi2FVmz/ZnwUAALTA3b+sdEn7ZGuaGgDckhLeSQmL5LMImbTwSOZnafVKAACIS9/2Ie/GhsUFDT0LoHn9/sa6RW4AYFJL5Lfzig4PmNoZxmd2Z8+QV1fOCw/mONhTTM0NJZfOnr50f9DpMjG7M3oKWJvdGRxnRs8OIu5c+UnUQjB9Z8TGxHQofizCqTZRv/hR//XpHMesrD9tb7SLnftOyprfyz7flTFI3rGGjJN/+U7tHOK36M2k1OPMlOW5A+SnGYfZnRkBob5Qe+3oVYnM6DLrxeVvbpqkTT1wdcDIgdmd0VPB2uzOdo6T7Z9pvlVR324EeFAubgybw3ahQ+OD3scjBOC7atZ0feVfPiwpUgEILhyPeW/rqhC3jKKBbwYIlUIkkBKC+sJiY/rFmHVLiz6wHJzGYXZn7Y8n9v/YtXD7lOuMlOciPClXywc4ErM7o6eDte00HW33FQTbfRrbDgAmebq7kpSNGGYmjEGzOz+KHBjMBlFj1+MvXaVQQeLzAmhWFycSlUro02M8qIPvO1RjJrszg0wFlaJ9wACF2Z3RU8LqkZvt5YV5k6LnvPpyBIAd0S766Wdhiy0rhsYSy9mdWUnpf0rqsVwBAMBycCSDUq3sWqlS6cCB7kgDsHJqZL26RQYsN3sqwEgndx0j2Z1dEhc861B9PrN2oJ0wuzN6WlgdaSZ5hkT4dty7dqO2hWB5BkXMjdGprwtbsJ1mgtPl7zlxrNgEAED3evObRKvvWwZhs4ybYyG7MyNi6abXOeXpX1xrGHxnAMzujMY9ayONIz/SA6p/Kq9WdgAoFbeYvMTpIW6V15qIwY9FTzGTUlLf2bZBY6sBaAAAapXSBHSWI4D54ujgQAeVQml9rhcaa7IbqAXtI31DAwCjnt2ZEbbo3d8HtBw5eOjnwXqRYXZn9LSwtp2GQqXBrw8XCQAgk3EwDuqXqVKoAL57gIN5kR4YzCZEkgE6kvVC4vMjeLrb+fU2iTTm7M4ZVt2yDIrEZLtzOA7WNp0wQl/c+l54y/8dOvBj31Z9MoPj7OLK6LGmve5eK8Xb08M8x6g5u7OoDm9q0LjT956GRHNk00mMruzOWoJoV7YblI339d7+IdObymtbO5ieQf4cY3NuK97QoH5Vf3fzdnLi+o/CNUca7WLnvhZrKt5R/rDjGc2JH8t16GqN71ApzL3ISA5sfgTZOcRv0ZtzuMIbqWetaq/vhwPLl8+icpwmARAe3KAIk04iFQ8+CIbs5McN6lroAF2DQKEe7BjvJbv3LGdd/e/fflk26Pkp/gu2bp/H+PnkqXtknv8UAABNm6Sh6xaF5Ll836ZY5dWPUn7oTlcqvnJT8sK8FW/UfnullfvSojBSZcZP2PEMjT9WZ3duyM8vIWb4z50XRLUj2lsbCwsEd0Y28y16ioiK/vKu/Tsp8z8+zSJk0sLUE5/16K9M4kd9eCyqe5HIu/jqb9oAYOrqlV+sNqll8ttXs7alllQM9/M1VrM7O4SFejPJ8MKabS90rao4u2Nn/kAjVAfJ7ozQ+IDZncdrEU+sFIQQekzY1IIQQsi2MNIghBCyLcy5icYwzO6M0FMBIw0awzC7M0JPBXx6hhBCyLYw0iCEELItjDQIIYRsCyPNhBOxQVpzSXLzS/n7Ib8OvjdCCD0267M7kxz5cTMCec4MqlHb3FSZXyLCiZzHJcEhbsB3po0fNr69QnugfBL230II2VrfexpzdudiifLR/dxjYsKn6KuuXP3XyZ9vtdjPeCF8qg3SVKEnQq8h51VSwJngjHZNEEITQZ9IY6y/U1R4R1SjfHSmW+cpPJrqdsXdxnZNu7KusKKBNMXbC3P/jV96AgDw6RlC6Emwup3mGQCC6JphliAIwo7tYo+tPOOW3vQMkIHW36BIhBAaWdbGCqW8xcj257szAIDiHMKfygAqlfaMLauGbElSQ9G7a5eGdIxUkkyEELLE2khjrMkvERMecWuWrPxN0rNTWusaOwA68OnLuKXPc/z7L6aN+yRVGa1J2OKGELIl62ejaW8sPtdYSqXRwPjAwAx+NUjXMtxEVWj0OcQq359JPrjd/e+/2GGeIYSQTQ2xpYUw6B8YOuxcPHhsvfx+O3ZzHrc4XkZaI+Nsed8wQ2FzOGyr0xUjhNCg+kYaEs3RxdHZpSu7s4ujvfnZCtsjKMSDy3Hm+vrHLuBPahZV1WOgGb9o5F/BZO6B9ij28++mpX+5ZQ6GGoTQSLE6uzMAie0bFBRJsyMetEoqruWLlH1OhsYPGgkA+uvRwZzEAmhrVRifdI0QQk+tPpGmo/HWhW9u9bOnojb/XO0TqBF6AhimWD8jtJL65qRnTg/1MFQdv1A2CrVCCD2lcETMhBOxQVpzqvENN8bBU4w+U9FQQkN82nJPZDaORs0QQk8pzIQ24QgOcb0OWdpoLPgkueBJ1gYhNAHgPQ1CCCHbwkiDEELItjDSIIQQsi2MNAghhGwLIw1CCCHbwkgzUVGNG3dKb56pqzmBM2wihGyrdy9nmvvMoEBfrpM9zY54oJCIf8kXyTpzotk5+IZERXg425P0Lfcrc0vuYnbncYwW0f72HMjY6fH3fqY+QwihkdT7nobtzqMq7pT/+8cb12/U6qYEz32Bbw8AACRO0LPxU4g7hdnf/3xb7RyG2Z3HN5orQdNQi+9gmEEI2Vzve5omwcWmrv+3qia5vRwzmUMVtRvsuEGerBZR7i/ydgDljTtT18zw9brVcAdnxxqnaAAAz/QzwyZCCI20AdtpSCQ7MOh0BAAwnVwouma5xrzB0NqisHPkOGIrz7hFp/wKptGuBEJoYhggVlAnh4SyVRWiRgIAaDQaGAxGun/0ktfn+rMNegPQaBTM7jw+0RyNS2YZQEIV4T0NQsj2LM17RnIMeiGS03Lrp2Llw3Z/E3TodQ/aCSMBpCdTPTTyIjZIv1+tBw0j7Y9MyWhXBiE0EfR7T0Ny9H8hxp+4c/1KbXvnKr1eD9RJFEPtrexzxS47eFIAACAASURBVOJ2Ko0Ker3x1ydYUzRCBIe4Aaun/F1k2LhewxvtyiCEJoJ+cm7a+z0XMx1E134UKR8+W9G0tRjpHGemeYnq7MTuUDYrsZvz+KRXUs4VUIFn4OO9KULI9npHmkm+zz0701FWVioDtiPbxZHtYk8nAUCHtKJW48IPn+nqyHb2jfF3N9yvrsGOZ+OXzvgMpoxACD0ZvS42VLepHjQSeEQt9Oha1S78/mq5AojmitxcUtTM6BciSbqW+6U/ljQYnnRl0cjRAwD8SiMBYKcAhJCN9Yo0htrr31hK4dyhunPr6p3+Ej+j8UcvJ+mZhkj/jhycIwAhZGM4ImaC0gvsPy+ApR/XV+G8ZwghG8NH9ROVgXJwD/fgaNcCITQR4D0NQggh28JIgxBCyLYw0iCEELItjDQIIYRsCyMNQggh28JIgxBCyLasz+5MdQ2OCZjCcWTbUzTlP2UV4qRnEwg1adm3Hxn3zs1yTN+2vvlo8o76zpkFeF7rdyYmxbo600zKZvntrBtpe0TKpMXfpoc79jlJw5FDG3bVEwBA89iave4Vjvzo8oNHhQAAQONuyd643Dzhp14nE9VcTss8lKUeYP6CgN2bv0h27bNad3Xz/r36xd9+E+4MAACEXl1XXH58V85VkclShWUDv8ZhsA9Ys3T1C4FcprGl8ubptEulzYMdwfR8/q2lz0dxGB2q+n9fPfrlTSnO9YSeIr0jTWd25zstD4xUV//Y4LkvQPZFUTsAkCgkQ6vklyb1zGCn0agpGntc16WvWQalX2+/IGwmc0K84qazWQCyvJ+2LS+iAgAn6O30OEPaoX/mmABAJ5Obr92k4KBIemV2Hn92AvuoUNF9Otm5M/91UEp2ZE9flbjp0zWm5QcPCy2WLf7q5JZzZDsAcmzi31LolzZfuNIMAKY2EUAkAMgvvXvyjAhYfP6KlIQd30BjYnaF3kKFR/jP4pC0YtMy55IvDxyos4/duGLDNu1fd1yVDhS3GGFvrXs1oDbjryeqKCGvvr3id280f/RVLcYa9NSwNrszgLbxVn4jgOOMEMBIgwAA+PzZfN21zZnncwAAqgX1+eb1KnW1QA0A4OahBdDWSysEj6T35CfxHYtzjgtYXyTxuWlF0q71BqWiRignQF5Vbh+9ZHFUAuuwUG2pcINEXiUBAKDydASQZSJphahzk3mCapVELhYCCOUiOu/kXv6zwdkVKgsVtgKDzbEHTZtCM/jl3zn2uUAoOJpxtdYI8P1hz/CPZ8X7X82osHwEOyR2DqPqm7PXytoBrmZkhn68KDb4WG2p1urqITS2WZvdGU1ohF4tb9YYwKRtVshkXWFDqW8HOj+GyxrayVxjEth382ukOXcbgoNi+qbIodEDVgfywaTXj0z6aUJnIgCog1W4/9fYif3cH9LTv9wymzJ4cYxp06ZCXVXXHYmoVmJwnsa3H+gQL89pdq3iqs5kUC13alXMKdOmDl4UQuPFALPRdGZ3vtWIkWbCI3KyN+UAAMCO9NzutbKyw6n8D1M2nlwqv11eU/ZT2aWMetmg03XyA6N50mt5OkJUUypJmJNAP3NEZ94yNXnDj8mde2lFBRlndY9fcyrfa30ynyWrKBEBqAaqcP+vceiYDEeqSanSeienbH229tD2EqUGuI72AO2WjqDYMxjQrmznPL9ny/PqS/tPaJXAcHB4jDogNMYMKbszQo8wVR08mXzWNXKB14xwv7iUDStW5f7xtZwy1UDHTE3y85bUpIoAQCooVr8yn+94pFwJAACyrDO7Dsrt/ULXvMm+ujm78LHaT1zXnP7TGgAAMMhEJ7ZfzlcNs8IAAKC4uHP5xaFVwKRpVyrajdZ8fTrz0ZketLYpNVojgBW3TgiNJ/1Gmq7szj89zO6MUP8ImbwwQ16YUXToq6jUi4mrF94oyxjgqRdrTgKXyvdIF8eZl0n6oGiH8mw9AIChWSESSAmBtNFt3eefzrm9uEA8/Hopst49+b3EZFSppSJdz1RKQ6zwkGm0SgOZ4cCQnD7w0WkASkg8E7TKgb5IRoVWCxxH+9bzf/8sDwDC+JNAqxo8/CE0blib3RmhQRAShUwPDIcBpwfnBcYG667tOvjW4vS3Fqe/tTy7CLxiEnof0nAkv5Az97er6Y9RHVObRFotkNc9GmaGXOEuDDbHncNmWLGntq6uAaYFeHbel/A9edTWOlGPSENiOLg7O/Qstqa2rsPZI6Dz7C6+ng6a+3UNPc5JYbI51pWO0JhkbXZnAKAwuxZJDHu2iyPbHu/xJzZa4LaLKzdtDIyOdfWN5S//NDGOJi3NG6hxxTnBLwDq889KxUK5WCgXC8oLheSwJK/e11CV6FymOvLNmADaKFe4C/u5P6Sn/X8bI635yLfmXamEOS+uXuDJ5Qe+sn6Wg/jmtTs9tnvPe/fz7TvXej5coyjPK9CGLFsRH8rhRsxbvXhKy408YY+OZ5TZW75MT//Dc2wrXydCY43V2Z2B5DpzcTTPHHXsIxN9gagtPHMFuwtMYHp5aTEsWbdwEYfFAF2rqOb0u5nHLY+AAaBHz/ciCbNLHz4YUgvy5G8lB4bRinrtWnG0pHr13HVL8z/IGIF+AcOt8PCosk4dcFqx+o1NHzKMLZU3D6UPPJgGALSl/zz6/VtLF/4xZTW0ivNP/c//PjKYhspkAmjaWjUjXlWEnoxnPD09B9/rSVm2bNmZM2dsXYq3t7dY/BgtAGOjiCdWChptlDnvfb1tWtb77x8X4w87ND7hvGcIjW2kwBB/Y8Hpcxhm0PiF2Z0RGtuIsq82/3a0K4HQY8FIg8YwUkT41lVcUj9b2q7vKSjCjsAIjQ8YadAYRghKPhOMdiUQQo8L22kQQgjZFkYahBBCtoWRBiGEkG1hpEEIIWRbVmd3tvcMCgl157CZVBKhab5fVXirugVneZ4oLGQ+Zi0//d6WiJ47mvJ37P8gA+LTt32YZMrf8bl5hP/UlI2HVtfvnJtZwk/458U4bwBCr2uVSIvP5XydVt86QMG0kD9XLovps5oQZm9YXMDaufnzja7mnmlalbwqs+DAnpIqFQCQfZMTt7wZOJ3HApVCUi6+mHrxfGfPAvaai5ufzfr8nbxZXx33ODP36PlhzxhtH7Jm6XOzpkyb5sxovr7/7UvWjHeheM5avWVBuLczWXO/9Puz316oxWxnaCKwNrszxcXLFRrFJaVKDTHJI2xGxEKq8XRhHX5NJjyDIOcPfxF1T4asEpm6PlX0yFUhUzOKGnofocvddfS4iD4tJnz11nWfepzYsqPGYmZNvSh9+cFjAEBnL9y7Ml6U+UFavQmgQ6+QAbAAQFX5jw05t4HMjYz6bcri3fT2De+KSEte3rvTo+pg5h9z5HpH1+nzQ7kcMsBITtgMAEBhULSSn69XNc97ZZqVR3i+un1FuPyHQ9vLNdNf/M2Gdf/RmnroZ/wSoaeftdmdjTXXbtR0rW/RTuK+GjCVY1dXi7c1E55SXiWQ9p0vmRCKbvNnLYooOtC7m7JJ3SytyoOqvJpS1bojKQmLvjqUIepzfCddg0DaAABgmq0HQtWnLL26SSgX60EsuGj09duzwC+YJqIkeLGEN/6RWtkKACCvyKm09rVQmC5OTELTrLBmhrHWm0dO3QTgJcdaGWkoEbHRnPvZf7la3gAgPpUZ9cHq50MYP9/EUIOeesPK7mxHpZBAp9NimJkoBsx8bOEQ5d1LmeQFyV5Uy/vIcu5W07hhkSMzqkuvNwGNRAFQKE0kHi+S3+9pTZpmRYsKQK9tblZrH80QSgp942/p6buWePc3VvTxcf2mMNpqxVLzkvbenWaKl+c025SF0JgynOzOk7zDPOmNFaJmm9YMjSEDZD6mJqzMfDjLp/Tw4oNHO2dHJoq/K1cfmhXvVnPb0nklaoWe7OzBAlA8XgXJzrFRry1lG8obqvTQ+lXm+chl27LfWy+sLyu+m/9d6TVhd3RUn/9N+nkAgILt8x6vzCGb5MQAjfaBy6xN+xY5XvzinyotMBkOdgA4oRl62g05uzOFEx090/H+vy+KMR0ngt7tNKamHs/BCMHNTNHmRavZVbYr3i1qX2WUuehWQdH+XSWtACARpS3+5FQsPzqGFxobsy157oIdB3dlWGwM6lHhL367/AvbVRYAAIwd2gfyNmg3YQ5nNHEMLbszxS1yTqznA0FWaQM+W0ZmFtppAABAffm7mrVvhvOzLBzLY7FpJqVs8Bhgkarysw05Qj3omhUNjzzWM0nzKs/nVZ5PzYneu/nPb87yzcipHn4xI+JBmxaYDMe28v/bVg4A3DUM0LSq8Bk0mgCGkN2Z4hY551l//S9ZhTV4O4Osozx7M5cWtiii/3tnboKfr15amvcYvcL06vtCebVQ3mCx9cgklenAkW5vTfpOCpPD4bgwh1+dnudiO7u4P5KXVnr3vtbJ05trXmL48DnGmtq6Hl8ycxJnJrbcoKeOtdmd7ZxnzpkbQqorFLVRzesd7Qdo6kUTh6NrQAQ3qOvfNLdHt+przmWpQ2Nde1w9ySwONyDWKzFl2Z9TPGRncy5Z7Hg2TAEpa1I/nZOU5BEQzI1anfBOMleZd1ekH/xAUugbf01P/8DaHgEM9yk8f0+uExkoDu6+U3h85x5ZqslhW1I+/nxNbI+MzEZBXmHzlPlvLgjx5ngnLV04U1t6ubznw4HAdanpabuXeFv3MhEaP6zN7kyf7OVMIYFf/Fy/rg3N+Vk5FVZ8fdFTjRqR8OnphO7FqrTPt6Q+8jSs+mhJWfLCsIcr6HG7N8bodUqJtDDtxNdplgfTDJdUIJZFhK7bl+DmQDao5FWZFz/YIxrxUoAcsuF3G2aZv0HOr+8LA2P5obVHbxotH2Gs/X7fKcqWBRv3vwjt90uPHf32kcE0FCaDAoa2trYRrypCowyzO4/XIp5YKegJIQW8mbYn8pf//s8vywaIVgiNRzjvGUJjAzckkFmWeQ7DDHoKYSY0hMaGhtPvJ58e7UogZBMYadDoY8WlzI1262eDuuTm1xlyHNiI0DiHkQaNPnVuambu4LshhMYpbKdBCCFkWxhpEEII2RZGGoQQQraFkQYhhJBtWZ3d2cE/LDKE62RPI4FR09IkKrx1pxk7/k8U/Wd35s/5IjsxAAAACL26rrg8Y09O9sP5+cE5ec2R3XxD1om1m0XmsfABOzd/vtFVeuTQhl31BABjybJjn4awBJlrlxc5W0zV3L+A3Zu/SHbts1p3dfP+vaqFR45FcXusrU5L35wq51suvTVh8bffhDv3OIQQ5b6dmFMFMNoJoV2eXfT62lk+HIqpXpR9+FRWKc46iMYfa7M7wzOEvrnil0qF3gA0t+khM1+INJ4uEOOMzhOdLn/P0a/zTHQO77mU57elk2WJmaWdUxTRo+d71JwroccGhtFE+d3zFqnUjISg0D31pXpyTJIXIeuRaa+/VM2WPmLir05uOUe2AyDHJv4thX5p84UrzQBgahMBATc+XF5C5YS+lx7Vnnb0qxyTTtLVVXqA0kGRtePkxbudCx169chPvzD0hNCeCza9M8uUdervV9q5r6x4/f0Vqt8fysPMUGi8sTa7MyirK5RdG1rUTI+V/hwXENc/sYqiMUorkYqFAEJ5Nc0rMd0rOhhKzemcHfhxkYqiDeWOEcviEsj5WZ33OoSkMh/48bHZpcX8+Ehpfp5rIq/rXP2lai6yMLWeQSKvkgAAUHk6AsgykbTi4Uyd6mqBGngeDwC09dIKwcPbrIFKB1PbXWlF71zUgyAx2S5M0LQpNNbc4Q85IbR34ixeW+n+/y2XECD56oeQqHXx853zvmsdWiURGm3DyO5MmuQe5O5AKFuV/R+Fnj6DZncmObjGJ3mwwGToCgyMBL/pyppiYX2xAMLme/SYHbn9epY68kUv54WhAeVlhbr+S+xO1TzSrCr9UQMlhP7/27v3uKbOdF/gD7mSEEjkEmMFAYlcBG+gVKi2xQ6OHe1YtdaxHZ06vexjD/3U1unodto6OlO3nY5tnbqHOW137dHTdqi11ttHKqNopeCggBcQsMEAAUESIDcgtwXnDy4qIiyUJAR+379IsrLWg0Ie1nrf9f7CF2/Zlb5jVfTQF0pE5Dthor9drarp/BVsq7hWRQrlBCSogccZVLqzLDJ1aYw/UbtNV3o8/ydcLx417p7u7D0v/a15XV876g9mHe2KduYlLAhjCg+XWx2CvBrJ/540WVh5uesz2tGQWar9bNZLIYryQ4fNk1Oot9uimodaP0cPXLn/rZXdD8yZXy1fq7IRuTEQmusrFVObpo334FNvvxJa9O7Oa60Ovp+fiAhDpOBZBpXurFef/fYGXySWT46JToptPnKh9i5RizBqWPK37f28gKdImftsvHrHhrKuwXJh2JwE3pUdlTYiW65atWXW3ISsy7ld72E0ZTna1LQ41TtrLczkW3bWZ1TzULvr0XuN0xh1bH66VV+++vSXQ19kL9Y2o67J2DVkhS4Dnmdw6c52k95AekNTg93n6YdiYq7WXmx1SZUwfJk19eWFVF54QPDZ2o2bav5jc42NSJAcnRDk7b/9P49vJyLiEvk/quDm1ne9x2o+ueOwIKQ+x0hRt+7rrlHNQ+puR7+ncRqnYkyGVhJJRY4LR99bR0SiR8Q8u7kN83DA49zZabrTnU/1Tne+jRcRn8fnECEFHYiIyHLy0+JVn6Uu2bs7Q0WTfx4uKcnZsOFyIxERjV+1/A8pygnb6nu2NuQWZ9y5j86oZuen6/V99HvC9ZHJfQQtzQ3G+z/V4InkfuL2tkZdTysxVV9r4s8KDeYWqxkiUejEUKo/Wn3rkXxkch9uS3MjqwkJAO7CNt1ZGjlnakzkOIXcP2BccMyjM8JEpusaA9oM9GByzx1TKZakhYmEwXOSZbW5pUUlOnWJTl2iy/u+0qCMmRPrqlL8JBHxipjYMWIiUbAiJl4R3tdC0XfgjZl0M6Y6Kl4mYfGe8MVbdqb/1zNsZwT0FwjNDV327oY/vfmw4pbZE+oT5zRjZj31m7iQ0AdmPbdwOrfs9KlbLilywxdvTk//y2+msIujBnAXtunO9jabOHratBixkEv2Nr2u7ETxFczqh9vov/+68lebUhafrEkMMV/Iq+85JWYK1FeMM5NSZPkuqYMbN3drz52baWt2pXXduTnQ+2QLtr+4oOeRsXhz4oGcoT3BGnwgtPrkxztFv372qd/9gu+oV514/5vbb6YRiL2J9Hr8KsIwh3RnTz2Ey44Cw9f4ZX/9YPGN/1773ukWd5cC0B+sewbgqXzipgTXZn6TgzYDwx2S0AA8Vcv3f/zV9+4uAoAFdBoYxrjxM9KeVvQ13N38w7az5+++/iYADCfoNDCMMYVFO4fTDS4AcE8wTgMAAM6FTgMAAM6FTgMAAM6FTgMAAM7FOt25h0/MQz9PCrRf/fFojg6r0YwSfaY7c2NT/s+R6eVrP3gvk4iIhNFbLi4P2PVB2i4zEQUtSHl1/fQEpYTR1ufvObZzV01nntGc9DfeDjmzZtHZ2lsPIAx7/cyqhUFE5DBrdFdyz3/eb7QzeWa6c2jc0uUPz4iV+/nyHQ21RUe/23/0+oDLZSLdGUYA1unOnTgyZWIMx2giEQHcnXLmHz6cLc3MfGtDHSd57qvrV76u/WhzxgC5Y7UZ+9752uwfN2nhCwt2fOmzfllOP/k0HpjuLIqaEkFVp/ee1GjtAbN+vuyFl8RtOz4+2W/nQLozjAis052JiMg3ak645WKBMW7uRBfWCB4n4ulZk61l77xddN5IVHj4y6TX0p6OC8o43//JAGPUqwrrmcKa/AJ7+pGkVU+ef/PuzckD053bjn/13vHuB1e+CZy6/rH4UP7J4n7eiXRnGBkGke7MkSUkhLcVF1VgffJRZ8B059vxomNlpKrrvvxlKSvRc5UhUULWh1OpLmi8JycFC+695LsZNunOIp6AjHpTv79NSHeGEYJ1ujNXHvXgxNbiI3UW8nVVcTBc3D3dWbIg/a0FtzwuJSKS+El5ZDAbup80Gi3k5y0VErFcGtlqbtSSJMhXQDTUsa7DJN05IHXeQ34Vh45V9bcR0p1hpGCZ7sz1nzon1FSYXY24P7iNJW/bV18UOIiIvMNe+CyV9XnLAJyWuDkc0p1F8U++9Gt5cfrfT9cOvDER0p3B47FMd/YNDJQJZY8sWP5I1yacgIeWhlTlfHWhvq8dwKjhMGhqusY2hDIzkZCIyGw0OMhbIiXq/HD08/Mmo97APutFKBkbROZC01Cf0BCR29OdRdMXrns9qnHPJ7t/HGgWGdKdYaRgme6sV+d+W9e90KFYOW/2BMOF7Px6s6vKBI/iKCvR04pxUX5UbyQi7+hYGaM6189Esl64SmV8iOXKf9c4pdO4M91ZNOXnaa/NaPx/H398/M5R/XtJdwbwCL07TVe6c1GOlmRSGRFRu0VvsjD2Fv3Nn28rQ4y1xWSy4n4a6FPF1+eurE59buuMlj11nOS5zyQ7CjYW35x4JhyjTFb4dY/Gtxv1nbPIuH4yZTzPP27SwhdmK0rO7PiO1Xh9H/wkEUqJQD5GTMQEK2LiHRZNvXrgm2B4YyYpYroftJOltlA/4N9S4Yu3bFsmOfnH5/9xecD98yPnpW14WPTjvm+u8UIiHyAiamnW1Hb3FW7osndfSjac3Lr++564UvWJc5r5Dz/1m6p/nmhS/GLhdG5ZxilMPAPPwzbd2dV1gWdTnX9nne+r6x/9034Jo63P3/HVzlvmK3OVM9/+YmbPQyb3yNLfNhPR+BXL/77CYdbqrpzMfGNHUem9JisP13Rnv+lTwn14NH/lG/O7nyr9buOmvP7uUB0g3RnAMyDd2VMP4bKjAADcJ6x7BgAAzoVOAwAAzoXMTRjGkO4MMCKg08AwhnRngBEBV88AAMC50GkAAMC50GkAAMC50GlGnfg19ZVHNef+oftdXIe7awGAUYF1urM4Zu7CJP+extTecOnoEXWrS2uFIVG4WxH1tePFt+teeart42Ix5m8BgLMNJt25w1SVd1Ld9clka73XRanA7awtvNwy/iszGDkROg0AONug0p0Zq7HRgCXQRgQrQ0S4egYArtDv/TRcLodsrd3pzuTlG/7or5U8rt1cp7mSX1qtx1LOnsvq8CIeCblEzMAbAwDcj35mBHSlO6s6053t+privILc4z+cPqVqlkx88PGp450Q8g6uoqnkW8e1PRnXPlQhmQAAd3O3TtOd7pzbme5MZK9Tl1690dBg0Fap/p1V2iwKCQ/hu65OGGLWXOlfLzpefFdTntG0AH8zAIAzsUx37sVkMto4UgkfmeYeyy/Z8LtpvE82jPvrRc5QZrAAANzhznOa7nTn07emO/fi6+snaG8zo814LnmYXVgn+q4YbQYAnI5turNvRFKEd+ONRr2VEUnDp0eOadPkaNBpPJeQ10GOzhloAADOxTbd2Wbn+kYlhkwWcIixmuqqzp4srbO5ulgYOkIuEXm5uwoAGBV6dRpb1Q+fVfW1nbU650x1jisqAhcQOZIn2amJi0x6AHAB5NOMOvFr6r99yq69LvpkpwgLBACAC6DTjDqFuxVhu91dBACMJljLGQAAnAudBgAAnAudxoOp1Wp3lwAAMDB0GgAAcC50GgAAcC7MPfN4HTO/tS6KJyLOj88IsnLdXQ4AQG+s052JiB8QOi0xMlgu5pHVXFd+9rgaqWjDgNf5pd7nQ5jf/gsrywDA8MQ+3dk3NOnxqT515QXHda3E95URctAAAIAF1unOQXGRgfrSrBOqzhyBxjpXVgkAAJ6Lbbqzb6Dc21RnD50/L0LuTa0GzcVLFytMuF4DAAADYZvuLBSLOb6Rkf43Ss4c+fF8FU14ZPa0cZi4BgAAA2Kd7kxEXL3q/MUbTXpDbcGln/Ti8RH+aDUAADCQPntFd7rzDzfTne1WK9lNrZauhy0tZhIKvZFvAgAAA2Gb7mxqNth5YrGg66GPj4jsVkuHi6oEAADP1bvTdKU7X76gJZlUFiCVBfh6c4moveHKdcu4qJlxgVJfX0VcrDKgtaaiCROdAQBgIGzTncled+lMDiVMS0xN5Lebmqpzzl6qQ6MBAIABsU13JqJ2w9ULJ69ecHpJAAAwomDdM4/XkfClbWFyBxGn2t2lAAD0BZ3G43kVPCMscHcRAAB3hztiAADAudBpAADAudBpAADAudBpAADAudBpAADAuTD3bDgJWpeRnCKxavLLPvivygrbwG8AAPAAbNOd/eOXz53ke9umxuJT3+cbsE7AENJ+uOLwJ5Oj3n0vZtn06r/k498WAEYEtunO+rKsU9e4XRtxZOGzHwm6XoE2M/TaW67oVOZJ/gEcQn42AIwMbNOd21v1htbuF/wj/MWNVepGl1U5urTbiASERAYAGCn6nRHA5XLIZrH0ynDmBk6M8Gm8WmV0Zl2jWQfZiPiYqwEAIwXbdOeb+GETJwi06gqrkysbvVoqqtuVc4MjJGg2ADAiDCbdmYiIhKGRY9srq2oxMcpprNm7y6qVcbsOPPHxf0jdXQwAwH3rc5Zzd7rzqZvpzt1koRFye83xG3YX1DZaCVPWRE9QlaRtuVZhxqQAAPB8bNOduwREhvq1aq4hA82ZfCImcFRnNGgzADBC9D6n6Up3LsrRkkwqIyJqt+hNXZMCuGOVEWLjleomV1c5uniRgMiONgMAIwXrdGciEkaEjxc0Xb7W+4oaDC2OgMhGHe4uAwBgiAwi3ZmsV89+e9XZBY12HJ/JgUqJvboR5zQAMFJg3bPhJGhdRvLPJdaK/NL9F9BpAGCkQKcZTrQfrjj4obuLAAAYYrg5EAAAnAudBgAAnAudxinUarW7SwAAGC7QaQAAwLnQaQAAwLnQaZwpzPivo1WVmVWVfzMp3V0LAIC7sE13JiJxSOLUuMggiYAYk76m+FJRqQHrbPav0u9nC/3in6/7apq7KwEAYVPkYQAAFdFJREFUcB+26c4knZb4YAxz9cQpVSPjEzE1OSmpXX/8PJbaBACAAbBNd+ZIx/p6NVwqrTHZiVqL1XXTZ8sCvKmulQAAAPrDNt25vfm6npGNmyDjEJE4dFwg11CHNgMAAAPrZzWarnTnS53pzqbi/Fxx4uylT8QTcRiT6tSPJY2uKhIAADzY3TpNd7rzqe50Z3FoXHxE+7XTZ6oaGUloTPzcJIv5hxKsOAwAAAPo8+pZd7rzDzfTnaXKhGCqKC6uaDLoDbUXL5XrpZPigrgurBQAADwT23RnvkB4azYXQ0Q8Hm7GuR98H5lcLvNBtwaAka53s+hKd758QUsyqSxAKgvw9eYSkaHuulUSGTc5VOrr66uImxYptzdompi+dgnsRK/akb5ry+Jwd9cBAOBkbNOd7bV5eUXM1Mi5D8cIOIypqS7/bOFVq6urHUn4PiI+2Zqbm91dCACAk7FPd7YZVDlnVDnOL2l04E6Mi/RpyNn/L8zgA4CRDpmbzhRmPPo3fSy3w/rTHS8p4qJ9Lh87eBkL+gDAiIdO40yVfgt/6df3S7X7f7d6v2urAQBwD0wfAwAA50KnAQAA50KnAQAA50KnAQAA50KnAQAA50KnAY8XMlv/7Wc15Uerv12OVSsAhiP26c5cqXLO1OgQf5HA3tZwoyyvSIWFnAcSs+WV90OyF681v3pmueidD7YedBARN2XRPz+b4U9ERIzVXF1Q/OXm7JMqByln/z0rNeqW5zO2ZWeVODp3FbQg5dX10xOUEkZbn7/n2M5dNQYiIsmy/a+9HN+5icOgqc//Oit9V42BKGrT2o9eDLx1UbWmjL2/2lgpWL3y4BZl5/NtRl35sbMfbysqN1LUlrV/Xx14x3dgObn2ve3Gx/d8MVNxy7MVu9LX7tAxtx29q4a8je+9meEg4kWsTn35hejJIRIy6jXF6iM7jhwq7NxGtvLI2ocyP3o1d9anXwYfmLv3kPb+/pWZxc8YlZWBC/+XWGW7vz0BgHOwTXfmjEtKmvFA04UTJ6+bOQFxM2bOn9G2v6AWv9n3SHd03b4DKpIolU+tT9n4GdWlZpUSEVnytu39n1yHtzzksfU/eyOdp009dsFKpJz5hw9nSzMz39pQx0me++r6la9rP9qcYencly03a902lUMombQ4Ze36lRJj+pt7zERExrJda8+UdW1FNq2u+y/+ms+fPZxj4AXExSxfv+jP0rYX1papP9338kEeh4iXnPqX9d5H1x4+0UBEjmYVMXTm7WVFAvmU19Jnmnbt/TTbYdH07Ipshdm/f0fl6H5oVDmISLL4ie2bgss/Ofaf2TqrNHDyo1MUch5Rz1ZDicvIpaQ6I0SbARi22KY7+z8QIjReKf2pzkRELfml4yISw8Mu1V7FLe73yKjRqUuISnQq75B925UPxWaVGomI2jT1nc9XCMNS08MSY+lCIUU8PWuyteydt4vOG4kKD3+Z9Fra03FBGee7TgasenWJzka6isLDwclrlz0aLNhTRkRkNWsK6kv7WJ3O0lSsUxtJXVLfMjlu55PKycKyPI2uXENEJAixMMTTqupLVT3bmysKzRQS3ErUVlNfWnh7wzDoygvre33KT0kJk5SceX9HWRMRka40u4zlPwvXRxbgQy3N+hb2P1kdQnJSEwOAocE23Zm8iBim+w9ZhmEYjizAF6M8/bMZ9fUNFiKHoUHfZO37w5CxOBgiwe1Pcv0CH1kQLCGHzUpEvOhYGanqyo2dL1rKSvRcZUiU8M6dOaxWIuKxTCIQKZWPJUu4VqaN9XfEkt7g4IaEJCj7XILC0dKgbzQSWdsaGsxttzfC8MVbdqXvWBU9uMNxyNLudc/FAoCzsU13Nuga7WGRynEVl+ra+P5xyvEi4gqE+O3uX8WOvWuIiOjjRZ/0uYFAGfbcaqVEW1qkIpITkfe89Lfmdb3oqD+YdbSEiCR+Uh4ZzIbudxmNFvLzlgqJbv2YFnpHrUhZEOtQZ9Z0dY6gme+Wzex5/fzm9zbs6byUpnz94luvdz1tzt+Wd/k+VuUWpCw/pu55VP/5ok/2llDpp8cOJSx5I+u150pqLhf8lPf1hdMlPY3WfOi36YeIiM5uePjej9ulI+TB1mR/Xm4l/uoBGL7YpjvbK/OKAubNmLMynKjdUlNeXRcUTu0dd3k3DCRw5f63VhIRkU2r+mrDv/KMnZ3Gkr9t7+cFPEXK3Gfj1Ts2lLEZLL/ls95ScTDzvU/0XS/cPk5j1HR/RTV7nz2WR5Lpq1LmarLe+UR/PzO2bh+ncdzovOamUe1a9ME3ycrEpJApyUlvrJ47b+MnmzPMA+5N9eWrT3/J9tCC1t3faFMEXpoTQbsu3lPxAOASfXaa7nTnUzfTnYlMdQUH6y4IhEKyt9p8YpfGWBotfb0Z2NBnrtv3rcZhN5rrVZZbBznMmvryQiovPCD4bO3GTTX/sbnGRmajwUHeEilR58mKn583GfWG7hMRW27W6ztUNqujWaNvMt6yr7uP02iL68uNVF7smHBkSVpJ+vaD9/Ff2dc4DREROepzyw7llh3akZ24fe2fX5gVkZFdce+H6YNNvGbJBOWD+t1/aH7xmOjt4iHdOQAMHbbpzl0Ym7XV1s4JCA6RWXXXTZjmfK8czZr6ikJd9e1t5haWk58Wc1ekLlESkaOsRE/KcVFdy0J7R8fKGJWmvKeFWPUVhbqKktvbDBvGyoyD+jlpSX0N+QwhR73WQlJvXxZH4frIxsnlfny2u2a8VP8W5zY5lBH4WQQYvnqf03SlOxflaEkmlRERtVv0JgtDJAuOCabmhlbyDVTGK8UNpXk1+OV2Iib33DHVzCVpYYfWVVZ8fe7K6tTnts5o2VPHSZ77TLKjYGPxwBfWhJKQBEVL9+lKu1Ffrup97lK958Ll1T9b9WTemxl3P63xk0QoJQL5GDERE6yIiXdYNPXqnsNLA6PiFT2DMC2a+motRa1f+VKIOiuzRq1x+MbFrFytMGRnq1iMBoUv3rJtmeTkH5//x+WBN+7RTt4cXMkFGL7YpjsTEVcWEROTIOQwrU2a0tN5KgOBU+m//7ryV5tSfqncnaE6/84631fXP/qn/RJGW5+/46ud/TSGHn7RaV/cnMXF5B5Z+mxR79NU7eVD2Y9ueSEp5rvsvq6zERFx4+Zu7blzM23NrrSeOzeJiATxKR/uT+nZuHzXRy/v0NcXqrXxU1a9mxLkx7MZdeXHjry5TTXwKM298bISgpYAhjWv0NBQd9dw05IlSw4cOODso4SHh6vV6oG3A8/ApP2t9iVd4NLtWCMAYJjC3FDwdNyD//RThTUdPYB1zwCGKVx0AI+nyZUtzZW5uwoAuCuc0wAAgHOh0wAAgHOh0zhFeHi4u0sAABgu0GkAAMC50GkAAMC50GkAAMC57kh3Hp84My5U6uvL97JZ9XVVxbmldV1r0HP8IuJmxgf7+3KtjdfLcop+Qrrz0Ltr8jE3JOyZTSkLkhVBQodWpcralfV5prnfQGjvKWmPr10drQwig6ry+x2HP800E5Fgxcoj23npiXsPaImIBIuXf/uhZG/q7gzVbYHQtwY/E5FgwZJ/brVvn5spTX/juYa9qzfW3MeNK2NnpX40sfKVfbrHf506sei7ty/biIjvH/JscvTs8X7+Iq7NqMsrKPr8YnNL9zf/syXLFmuzXrkYuH1NxPk9md/o+9s/AAw3d95PY226VqgymOwdAunExLiH5jPHD141EnHlMQ898kBrQX5WVXtgQkL8/BmtSHd2Gb+wtC9WzjNe+HzDsSsN3oqE8KRYGTfTzBDdLRDaf8UTW9YrruzY92quZeLqJ9I+XG5atDtDNdCBjGXvr8m+QjxFwszn1y/a4m1as0415DlpfREoxkW33zh2puSagRk7Mfa5lHlj7Ef/fAXLhQOMBL07jbX2Ymn310168dgJc/wDBGS0cRQxoZJGVc5FnYnIcObq+JVTI5Du7CoTXkxdIK9Mf/bYIQ0RUXlh5elbXu0rEFqS8rRSlJv5/i5VE1GpKmt6ysrUpwO/2aYb4EhW840SndpK6sIj9ohJ2+ZNihWqzg+0MqZIJvcdZCLzHVqu5G+80vX15dq2seELF08M4l/R4AcMYAS4+zgNV+QfEeHfoTc024jIZ0wA39Kg67qcYWtq1HOkcilGeYZan8nHklnJCiooO63p7523BUILFZOUvPqSuq5VUI31ZSoaHxsiGkwpVquDhNzO9fsZq1nX0GIjR1uDXqvtFVMte+z36en/ePlB1kv9W9putNisxDSbWprtfV2G43B9eNRkbutpM+bWlmYrQ+22ZqO5BRdtATxNX6vR8CNnL54zlktkb1TnHSvVExEJhUKy2ezekYmpicLSI/lWGwmFfKQ7D7W+ko+FkrFBZC5sNhMRKV7KenGFkshYvDXxwGmivgOh/bylftRitHR/jFuMBgdXLpQSsQnxJOL5J8985kmZrbi2MwWHyc56KZuIiDam59zv93jjcs4rl4mIDh442ucGY2OnPiy6se9CzwkYc/b7o2eJiIzvfl51v4cHAJfrq9PYKy9lNfIFIv/whJgZyU36EzVdpzIOardaWk2MnSGuS6uEHrpv1qXnLXhix4s9z9xLIPRdBc18t2wmERE5mgrPv7e5qGng9+iPbFp25H4Oehuf0BlvPuxX8H3WQQz7A4wUfa6waWs1NBKRQdvmvWBxTKS8pqjBarWSQMy3XbyUVUVEvrECsprsSJ9yBav5hpYkQWMkVGkgR1OJri3Bcus1pz4Coa0Wg5EUft5cIoaIyNtPymMMVgMRkYPp/b/ucPSMxBjLdq7JLrGSpUFf2/sqmQv4hEzd+ovgmuzsD+7IbAMAzzXwSAuXyyWiluZGu7fc36fzOYH/GFm7ocGAK+YuYS7MrefGRScF9b/ZLYHQ1vqfVA5F7Dhp5yt+imgl1ZZo2ogYQ5uZeN5dL5BAyuNaHS09qXZW8/USXUWJblBtRiSTj5PLBjUI1Bef8VO3Lopozsl+/4qzQtMAwC16dRrf0Pg5McrQsUFyf3moMnGO0retvraBiNrrS6taApQzpgVKZf4RSZHjbNcrKjEvyEXUe7IzDWEv7U5dmKKIiA9bkBTY59VLJvfcMZViSVqYiMzZX6vakue8nhYWFR+8cGvqHGFN1tc6hogpUF02Bi/aNDMpPjAqZcbaVWFMyU+XjfdTneyx36fv+tuLCaxnBPSFr4h968lowdXCfVr+RMWYKMWYiTLB/ewQAIaPXtdRrBarcMKk5HAfEd+LsZrqrv37dGkdQ0TENJTm5HBnTkucn8C1NF6/cLwIN9O4jla189l9TZtSVn0409+PmlSqrzdk5/Ux+fiWQOiMw5uDHn9l9cqP1pNZVbl/3eGum2m0ZTvXHkvblLRx/+Miq7ky98w7m8/Xuvjb6cPYCSFRQi5NS94+rfspzfk1+37CYA3ACIB0Z089BACAp8AdMQAA4FzoNAAA4FzoNAAA4FzoNAAA4FzoNE6B6QAAAD3QaQAAwLnQaQAAwLnQaZxG0Lr7QHX5/utHX29VursWAAA3Yp/uLAiMTYp6QC6V+fJbik9l5mPRswHYxGuWTAiZ3fzlW4bVR8RvX3V3PQAAbnLnOY216VphwQ9Hzpw6VW6UKh+aH+nX+TyXz7U1aS5erTG5uESPpikUqmyMPNDddQAAuA/bdGeitrpLeXVE0qlxNMbFRXo0r4GykQEARji26c5wr7yovaPvGCAAgNGBbboz3CMbr7i24zdzWmPPiUva3F0MAIA79HVOY6+8lHXw1Mnjl2ooeEZysI/LixpReHv+R2qYpT16oPrb5czAmwMAjDhs051dXNYI4lj9vEF6LmjhTnFJi7trAQBwB7bpznCPBI648V4FuWgzADB69Tqn8Q2NnyY2apoMbXYvkX/YdKVvm+Zi1wkN3ydAzCdfby5xRb6yAGq3tepNCHgeSAdxvAiTKgBgFGOd7kzcwGmLEkM6z298E1IjiKnKP3CiDkMPAxESYaIzAIxmvTqN7UbJiRslfW7J1OX+34MuqGhkCYq3KAXcbJ276wAAcB/c6OE0gtbd32iT7XzVCdkeLEUDAKMYOo3T2MRrfhnq7iIAANwPazkDAIBzodMAAIBzodMAAIBzodMAAIBzodMAAIBzodOww1th31Rp2XjG9sSKDnfXAgDgWVinO/uGxsRNGSeX+Qi4TEvD9fL8SxWNoyjf2ZHB3/Ydb9JW+8o05tx3vHrc9Q8AwNad99NYm64Vqgwme4dAOjEx7qH5zPGDV43EDwgLpDp10QVDCyMOnj41/nGBfX9+9ahKXLF6qQu9HI93SInq3V0LAIDnYJvubK88faay+/nGNrFiadR4Oae6ahSd1hARWdxdAACA57mndGeOgM8li6VtlLUZonYihxBjWwAAg3Iv6c7i8Omh3nWlqtEXj9ZewmkiR+yTHRUZXggCAABgZ9Dpznx5YuI06fV/n1KbXFPhsKLiHt/jFfmudVOlbbbS3cUAAHiGwaU784MSZieHthZmXqgdVXMBeiiZ+as7rr4tPJThZcP0MwAAVgaR7swPSpj9UKT1YmZ+5Wg8nSEi4sS2BxKnFG0GAGAQ2KY7c/ynzZ4bx63MUTULpLIAIiLGZDCNssEKDhHHSg53lwEA4FHYpjt7jw3z53Np0iNzJ3Vv25CXmV06yv6293Z3AQAAnodtunNr6cGDpX08P5oIO0LjO3gGjsHdhQAAeBRkbrLDW2H//btMu5ZT9FculqIBABgMdBp2HBn8bRl8d1cBAOCJcL87AAA4FzoNAAA412jsNGq12t0lAACMIqOx0wAAgCuh0wAAgHON1k7Dmfb6gmNZS45lLd76OObfAQA4E+t0Z7/I6QlxijG+Qi7ZWxpvqPIvXW2wu6HgIdJ+8f3Mx3fJ1+2d7e/uUgAARji26c7kxVgbSi+W6a02EgZNjps2P8G+/6x6dK7oDAAAg8A23ZkMFaU9q7A0mn2Cl0fKA0hd47JCAQDAQ91DujNXPC5mnB9jaML6XwAAMLBBpTvLIlOXxvgTtdt0pcfzfxqtKTUAADAYfXUae+WlrEa+QOQfnhAzI7lJf6KmpfMFvfrstzf4IrF8ckx0UmzzkQu1oyyfBgAABq/Pq2e2VkOjQVujzs9RO0JjIuU9L9hNekNTXV3ZqUsaYWhMjNhlZQIAgMcaRLrzbbyI+Dz+SL0bh+8jk8tlIneXAQAwIrBNd5ZGzgnlNmib9VY7VyyfHBMmMv2kMbS7pWan4z/48j9em31t9/ObjugH3hoAAPrFNt3Z3mYTR0+bFiMWcsnepteVnSi+0uCWil1A4OND1NLc1OLuQgAARgLW6c6a/LOafJeU5Hb8KZMn8qszv/m3B6+BAAAwfIzWNb840155bOsvxQLqONf7JW50XKT97BcH1Yw7CgMAGHG8QkND3V3DTUuWLDlw4IC7qwAAgKE0UmePAQDAcPH/AW9YpVLY9mUnAAAAAElFTkSuQmCC;" vertex="1" parent="1">
          <mxGeometry x="977.62" y="177" width="177.38" height="203" as="geometry" />
        </mxCell>
        <mxCell id="ekqCBltRWSEwKB1lwB7P-6" value="" style="shape=image;verticalLabelPosition=bottom;labelBackgroundColor=default;verticalAlign=top;aspect=fixed;imageAspect=0;image=data:image/png,iVBORw0KGgoAAAANSUhEUgAAAhsAAADBCAIAAADpf+WKAAAACXBIWXMAAA7EAAAOxAGVKw4bAAAgAElEQVR4nOzde1wTZ7o48MfckRAChpuScgsSBFQuolAUY6WFqqWuVVY9crRb7bHFX7WslbWtHt3Wo6eH2p7SstW2enTVResqXgotKlVYoBQCApEgAYIJkpAISUgkd39/JOGaQEC88n4//CEzk5lnJjLPzLzvvM8kHx8feJosX7783LlzTzoKBEEQZNQwTzoABEEQ5DmBMgqCIAgyPlBGQZ5r2IDX5mTlLM0tSPogGv1nR5BHDDd0EnFadFSoj7OTE36SViNrb60rqW/vGbCEY/CLr8TQdLf/dblYanxMgY4/QuLyf+zV7Z+f75y9fX3H8dQMocEyyzk2alP6nJgQmgMoRRzuyR15BTwAIIWlJW1OZTLcQM7j/5x58bt8JQB5xdlt70Sor209+GmuHgDC9mz5IpV65/DhTaVRJ38Id+YUvLW07A4A0MMPFCyNAu7+WWcKNOCWyHovfXYkg2yQiMqP5X2ZJZQDYEPisi+xfHnFW5YWNmgAiIwPy1e7ZR3celg53J7QfdfvTEiMpbkS9fIO6a38oqx9PAlA0M7NX22kYfst2Jlz/I+7yXu4y2OGrMPAKdhbGb4nlTZkjvra5s/2K5KOnYjy7De1KSt7c6YUhg0YS/dds5OVGOvpRtRLeLyCrIKj+cphAgaA4D1bPqcXJm9Wvle00uHTg3tz9XZ/n1YRaCs2eEF+0Zpvu1QPtyYEQUZmJaMAaDqb2Tx5t+4Bwdk/OvTFlw2/5N5WWGZiqIzoYIyiGxweX5SPFSEi7r9+mO9QWPh5Jv8ekTpjIcPTHYAHrinL9qR73so8816J2j91WdoXK7uXHsnhAYBeKdGHJTIccrk9RO9FLFxn78ECpdw9LD6k7DgH3BJD/RVKLQUAABhRH34xzzk//+Md7ZjY+e+lr35f8tXuHLXpM1jG7NdYRZ/l23kypa3LXr0cqr/fcZHTgXMP9Y2bQSUDmE7QoOBmbS7imlcMWonUoMFlrzh8AgBI1KT9K+N5eR9lCfUARo2sTcF7JxeHAcDFJvx3Ouny5otXOwBA38UDAxTtWlFFcA/blh3VnXX8u0K9WiA1AGCHCZjim3Zi9SJF9dEdebc6SJ6RfjEhVGy+0jB8wOOMQHIl6HhVcpROEORxsJJRNG036y3/7pRN9nghznUKARRa0xSnoDg/9c1KReh8/8cV4+NFTkyf78cremdzWQsAgKi+kGuazlrFcCjJ/zyL1wlQzyuYzVqdsIr24z41AChLuHcigmMo3OLIsEgFt1wze4ZpZRpp8TXy/ETaSY56QSK1+pow+nUAgIBVc2ZouJ/uqqpQALAvnozZlrYq1C2nohMANLLqSn3MKqZzfp3cnngZjLkM9fXNeRcKAQCa2MLS/nM1SkGlqF7Tf5K+jS1qAwDQz9WAQSFtYIvM3y2oGwQAAAS62gA4CU9Uz+v9lLKJrQS6932AHqGont0vedgI+IWNCYnu/Oy1eRcEAAANbP51ewIeDp5CdSFBV4dMZ+8nACYBPLB/aQRBHsqwj5axDq4BAa4PZPIu8ykHQ42M9Oupq2oaxZ/0U8ugUUo7VFrQ93TIJBLLKZLiHRmJaymsaxm0NNEzkIETcdrNJ02FiMuDaSF0042aQd5YzPOOTyLPfoXRmV8v6TuD61t+5mISwxgM5ny3lutVpq3gmCFU4LU3mG9l1FyODMugBxHNn7lzoepO5JxEhn27Idd0A4kR40ke/REYL9YCJs+J9YRK7nXBkKWHDVirkIk61AB6eYesUzPwpgc/752/ZWdtXUwdRWiESQR4oNWOvCCCIOPA6lMvAPz0eclxHlgA3b2W0rx6GQAAYN2D5vrfr7vUrganxxjio2IoLNhUCAAAGdnFvVPdqW5EfadwSLsFkeRMAZVCbWlrUSvkeqw70dnya/HPojWvLVxClxW9qZyc2G8rdbVlsPKNNLVbSWG1OhwAAMgUZxzIlb1X9AqFGigkZ0tGMQjqLlfOT1nl+WOmHbshqT2aydiVvvHM69JbdfzaX2sv5wj7Uppb1AFuVO+yFbs/23FMbXU1D8NKwESyhxso2V1KAADPTQUbUxgAirq90eeuDxtwU+bxDQAAcGjp4YcPDB+wyOsF6C688+y29iHIM8VGRtHxawru4QkOrn6RweGxnbKrQhXWdWacTze78E6P9Y9McMq82oadK2N4eVkCfWL/GRrp1Xz9t2nky2/ytZRwO1d2/Xjd+gNRkYe5diysbzh8JvU8LXKR78zwwLj0DW+sKv7LmsJa0w3QwHYUhWD804kdAUt/3Jpdmrgsc6MdAQ9DV7T/j0V2h8QIPpTNpIOm/si/fu60+1MIgjwMGxkFtPfl9wBALukhJSYHT3cXVmlpNCqRGp+4Mt68CGbKi3+gtxafqhY9plgfiw6ZRINz8yYDyAZM16jlCvCkkLAABgAAEsUZZ5Br+loOFLwT+wrKBXUSDWnQKltOF2RpcNWFAMmmCUqFXA8ksjOAKTtTKCRQyOT9Wju0hb8Xyje8ltRmZ/o2SKTlOdLynIoj30VlXkpISSqqzdEDWG1HeSQGB6xRiiVAdnMhA18O+k6OtCey9/Zu2IDHDa9+0xJewBvRB9aGvJJfchElFQR5DOzqoo/FYgFkLSX/vPaz+aesSQaa1uqCS/WPpovOk6MQVlbq/VjMFwZN14gaeXrPEC/zYy6KJ5MBbRxBvzO+vimnLL/E2k2AgH8hi3en35JcjgwYXkGmfl9AYoZQDTxBw4DzvvTSaVHYKqbbKMM3CGQSDThQbF0pPDqDAlayS0TYUGbMSDswmoDxVHd3Lyre7pC0uqb8u3fAif4CehMFQR6LoX/ITj4RsyYrBJ3yHt0kB1ff2QynHsHNDgDQqfr1sdEYwKBRdXdrnrsn1Mr8r8uW/sDakw3fH+dLiOSgmECHX/NySpSFp3lr98e9n9Z1vETPSE2IIwqPnpYaYCwt4k2nf7+VmrB+b7jqWDsmdv6aWH1lRp3E0hnXRHT+9+q0lXEUqB1+XUTm9rNh8tzaao70HlBnr0uII4pO9iY2Ipke6amy/GZUyBp4Y3rwRSEHMMgEd5fJAAZvz+AIvVogahl4NTEo4JZjhfnJKzcdScBm1nLlpJkxNCwIRw54GPh5//G/WyO43236zzzZyEubaB9oYRKBMJpdRRBkzIZmFI1aQ3whMNbP0QE/yaDpbm/+7Xp9u8HKR59X2pLC7W92b06Pef+HBDIo2zjc46cBADpzLu52S9qSuvqrdFDy+Ge3XszhjbQuW3gVn251ei994V/Pkg0SUXnmqS9zhpxSJbyLebK4lJF6Nmmk1ZWQvC5piTvZAdSdPP7ZrXknOZa5FGbaCWbvsoaSS39YWzXs25LWYUPn7+19wzFtQ1aa5Q3HYQKW8L5ce6ZzJ2vdF1GuFOjk8U7vKCzVAMCwAY+3BwCTHtW6EQQZZBIaexh5jhE8PsiZ+0J+0Q70zjyCPAboATPyPNNKzx5ph0Uv/ojG9UKQx+Dxt+AiyGNkaLrwe9qFJx0FgkwQKKM8C15IYb0RPrhTMgAYJI0nM3nPW3c7BEGeVSijPAvu5BR+nvOkg0AQBBnBBH207Ofn96RDQBAEed5M0IyCIAiCjDuUURAEQZDxgTIKYsWDwL3atBrNLr52np2D6iMIgljLKMRp0S++svLVN95MXvlviQkvBXtZijVODp6/8s3kFMvPyqV+kx9rrE9e8J4teT+EEoi+28u370o29Wogrzj78dWW7R+af4WwPVuutnx8ZKenZUgVXFz29l9a/nIg1dJZyy08k/uX/0rt13eLMe+blu17UnCWtfX/+csnKTgAXHz2X662bP8kxfypaekbfylPijIPgE9dfekvWWlkbATrCHfda6MdC2wohjE+9YH4fwj7fAllYx4XAEGQCWeUVYEfdLeWXmsxjzuuvf+IxkZ/1gxTFRiA6BsXqbyWq45eyHA+VicHAEljOSdxTYw34RjPVArKOdbPTyO8fM08+K6WXfjBp7zekXgVPL3leyJFrgqdllPR9oj3B+P+YLJmUl3hpPEdDRhBkOedlXsUTdvN+sYmcUdHp0TYwq6TTJriOqV3qD2DRnFPLjP9dOueu2Eix0hZwm0JCY6hACE2LFLBLe/oOxUTYpmzgX/lWKM0MjjaPNiwsrRESogMnGG+w8DNjvGGSm5p73slcmkDW1Rv+Wmz5CcDh3eLMWdJxOhiwzpS3d2pjvaP2AsAABhUTBdBkFEbXVVgmOTkt/Dflr3x74mJL4e8QJ1wjTC2atbargoMM17xI1Q21nB41XLfGJb5lrCtkNdG8Y4yNVEQPWdH4hpKG0es4GGQN17Owy1K9R0ylK5e1SG7pwDQ9HR0KHsGVkPxS96TlZ25jjn4M8MhAgZAj+5AEQQZndFUBdbJhHWl9+/J1A8c3Pwjg+cm4Q1nq9smUg1v2zVrbVQFJnrHxZJufS3UatQVbH1Goq9DLq8HwMCpZ3fMC40lA0eJZfiGUaTX8/tGBCawVub1lbkXHV16+Lh5aF5D5ek65ZE58W78WwO2rrzwZvYFAICyHQseeieJDwISjeQOjHjEoooIgiAD2F8VGEDX3lLfbpovl3SC08pgPzqnrUlnfRUTjNWqwNiQ4Gh3UW6JGgBqC4XYD5mzibxSDYBGVFKifCXGl3y4ziHWb5qAV9KvAXxgO4pe3G+Wgf17Hm/zkhRqg92B8U6+t+qkvQvjUnQZBww4zaTqD7DCR1/5EUGQ54v9VYE7Bi7Q3a3QYpzJeACUUQDAelVgRiLDk0h7+8bHbwMAABaUcSxcab4eAG792qLd6xtG5JJjPEUlBfz+q5JLG9giG/d+yiun+WvfCmfkP5Kd0OfgP8nDBX2oS/mzoSIfh5IKgiCjYde4Xlgsdsg0JycKwdijROmkl74pp6wJAKA3o9BiWFRRzqk9x2VGAADSSwfWLV7ojc3nGwC0JdxqYkJ4rK9jqLr6uMj+kmby878Xv7t8SYS9rRxYR6q7I0HV1aGw87tSTGrMxyhfN3pQQIgGoUQQZBRGURXYKSAmgHRPfE+mMTg4+82e7tIjKBagjGIbgxlNV9fu4zVZChQWlshWJQbOIPJrNQAKfnkleeWqcBK0ZJUM/KAzLSjCs7fdXyUQ3el/Ztfwc/OV2Rs9sRK+PVH4Je/Zt4J87T//9LcRygv33wQYAXBWBjtGEAQZxiiqAmt1WKegaPoMAgYMmu721rJr9e0TqVl+tKYmBjJA+GNl3xR+KV+ykTE/sqC2BAD05b8K39vD1Oafqh74cIkQwfriLKv314asr97JHFDJt+l4VW1q0uxHGbwRFdNFEGTUJmhVYD8/v5aWlpGXm6AYhreu6OW7COeOoZccEQSx34R7pQSxAw9z/dgkrz9rd6JxvRAEGQVUcQuxYlLjLkLjricdBYIgzxh0j4IgCIKMD5RREARBkPGBMgqCIAgyPlBGQRAEQcYHyigIgiDI+EAZBUEQBBkfVnoPE6dFR4X6ODs54SdpNbL21rqS+vYe8zz8FJ9Z0dO93SfjQKNsbyj7pUX2WMN99gTv2fI5vTB5s/K9opUOnx7cm6sHYugnN5fHAO/z+acuSwCAuu7SlvUhyvzNBz/LB6DQXtu7LIXl6UbUiyqrj+4uuMYDANyiH7Z/yMIBQI9Cxq+s+2dm0TWOHgCAPi/rBuve1s925+oBANyiMsuTejL+66McPTl19T/3wJezTl0eNC69KQBi/0nCbxYcOSuwtRO4+OztuxL1pRlffZSjBoBp6RuPpAh3zs+rML3tT/ROK1j3mrv0+ArLwPvD7SN5xdlt7wyoG6Yvzfjsoxy99cM1ZtjFy1ckSwq23KTt3xBQcSz/RxkAkJJTlq9VFa+9ZBpAiJC0YsUmfcmq3FYdAJ7msyE+dIEXxRG0Yrm0obrqYK0CAKjhi46wPPqvWscrXntB4D9/yf45FAAAo0GlUtRyao6W3RWbytARackLw5P8XTyIoFJ0cZu5h38ViE0f9gz/2yrHk98Uq1jLt+F/2/DTXTSUEfLcGFVVYCefmKSZju0Nlb9I7wPeiQqohuNY6TsVnguSyJePKbEhofPdlZZyW7jonavTWLLTu44USWgJO5O2Z+vblxbWawAADJzinbvq9XSv2NSFGSe9nVccP/cQReCbjp06mNs7uIv6bsdwCwPAMDWJsSHBkSRuQQljLot6nNN7jWFrHwGsVz5+wohT01bMDRJxDp0VCB84eHtMjXEm48EyvqZefOJMVa2lrqXuvso8XdF08DxXOAnrMjVw/fy4D4z56WUKAFLSq/FrndtP5FfUKrEuU2iRvo5UDIjR3wvyvLOSUTRtN+st/+6UTfZ4Ic51CgEUWnALnU6T1Rdc5XUDAMC99scW5fNHf+san/EK0+1YBSU5GHONe+d1JgAAhbHkdSr/8KkjuVIDiHj7vKJPzE6KLawvBAAATXcrWyRhi6rzu/AF69ak+V7eyh/zyGr3haJ6tnLk5SwsNYkrDrEHz2IkMpwrC0+yyd8kMjyzKkTD76PJcCP224KnUF1I0NUhexQX9fip3pFE6YkrnBsqAFA0i8Q3BszXdki6GobmPaNO3KloNgJIKl38A971mepRphATPCLp2Mr833JbDAAAEmkl9xFEjCBPn1FUBXaiuZO6O3Q+Ly9K/rdXk//wYkSA09BB7pFBbBUS1pbWVtODFzA8WSwo/1lkmoENpfsRlY0cqWlwe0OloEVDZoRQB69Uwy9nq50jAgOIg+c8OrZrEtNiWNTGUr6osLEtJDiG3jfD6j4Oz9bhAgDAz3vnb9lZWxcPORy2KO+rujQGMGq7FErVSPcHuh6dEuM8k07G27v6ARzd/Oe5g06v0wCAUafSYb3pNOt1s/U9HQq11gjaHmXXffvLGCDIM2AUVYGJkydjnKZP19TWFJWrHQJC58TPg/tX2e3oVn44NgsJa/iFJUnr02IcgfdJHQQAAACWQiSDWtXX7KFWKsDPjYSFwTcTnR1KcCZPeYjAwnZuu7rT8ougbGtCQe0I9bVs1CRmMKPpouslagOPXy1gzWORzh2z1G6xto8mtiof2667PHqGsp8vlwEAKA4cbR15cVH90WpaWuKyI7FSbpu0ltd0pUmh6p2Lo2/7f6u3WX5rLr6YXq4EAKAy92+13Hppu/IqBDIA0N89eb3po0WLDk1XNLdJaltbr3DE4t70KOXuOgoAAMUFWx52HxHk6TKaqsAAgJXxKm6K7wNAZQ3VZ5F/gGt1uxSllDHR1/zMc/khqicrmw/0kRcfb/3bUYwa5R07yjVarUk8LTHQT8DP5AGAiF2pfG0hw/lYndw80+Y+DlP52CZd0f4/Ftmx3Fipy34tqKx0ifSdOnOaR1LSktf5JRmXWsWWEPu3o6jklhTf3fr1+ToBySV+XrDLreJDreYHeeJb5Vt4t8J8vWZO84iIjk8Obz6QU1HZM3iTCPKcGUVVYJ1GA7ru+5brT5VKCUQiCVXRGDNtYWn2PpE6X2qwnG0NCo0SSI6U3kVIZAooJeqhj0Zc3ckgV94DANAPeZqkt+dRymjbUQDAWk1i8jyWJ4Hhnd0SZ/odqwmOptQVWPLT0H00G0s7yvgYcgGke9A3SdfdVVbbVVbLwftEfbU8dDGt9YTUNMdGO4qhR3BP0WBUNMgJ+9fGvNFe8GNvBwStsvZ2Y+3txhNlPjvWz13JrKussrfwJoI8o+x6H8VUFbi7S67DTZ5seYzu6OgAOo36wXAfRIYnKz5cVdGvz66hTtCiIQeG0EwNVNhIuh9RyeMM6aFN9I2JIMnZjU0aALlaqQGCs2WWM84B1Er5o+o6JT//ezFx9pIIy5UInRkbor6++/DbS7PfXpr99oqCCvCNYfW/Thm8jw8BT3V396KOrZ3DQtelMQAeY/lfTHAkgKrHSmbTyZUqwDja31ClaD7fQn49zsdKK49G1aXB4olDGqCswTtS3d2pjqiFEnk2jaIqsLHj1l11UlBUaHdtq8bBJ4Qx5b6wvBM98hpPCt7l87JPUpM28AqKJNSEnbPdeBV5vTWDiU4+EZ7T6F6xqQsTnfnZWXwtACj4lZWwaV3ia4IKjpw0e+McP4XwXF/hSJJXpGew5SGUEdRtbJnpxmSyt2dwRO89il7KkUrsePA1qCaxKyswCIRfnhe1mNt+1OUc1tpEX4f84dYBMFLlY6vw8/7jf7dGcL/b9J95Y38LytDQKoX5oetDVHligws9eLGbllvVpQMAt5CPFjhy64UNEqWK5LJgXrB/T9uZvqAI7m4uQb29h9UqgWxQHjKUVfPXrwp93a316D2P9SuYhKbmynZ51wOHoOCZCyjKG62D3gqyjrku8z8XKc/ufO/kQ/QMR5AnZRRVgUHXXlNUDJGzohOi8cbuzjvFZTWoWX6c6cv3ncoiLUs5sHEVqEWcus+2ml9GAQBsSNyBs3Fahaylsnr/mqJr5lOO8lzGKec9CeuyN7oS1RIO7+jmvIK+E6H36h82ru79TVG3O/pcMQAABKSuzkrtnSE7t/arweXubehXk5gUvdAXyymo7jtXKtkl0rdTmbOJ/OFXYq3y8eN5WVZ8s+SAQ9SauEWZDliVUlpZfP0QVwsAoBTXKkMWxMasIhPwerWwXXDon1VlvVkD57F2dWLfWkRVW04O6REsarwiCXw9xuf8BTFXoHs1NGpBLMkRp5Xdk97ILz1iV2d7vKMDHrRdXV0Pv6MI8gSgqsAI8tTABr2VtS/y5n/+v7/VohfpkWcRGtcLQZ4anqFMx9q8XJROkGcVqgqMIE+NtrN/Tj37pINAkLFDGQUxI8elz492szJDWfX79zlS9HI3giAjQRkFMVMWZ+YVP+kgEAR5lqF2FARBEGR8oIyCIAiCjA+UURAEQZDxgdpREGSiwfrPmrst1tvbAQvtVf9xiiu2vWhf/UoFd9cPVbU2Xmmmzlp0aE7XX20v8BTALk5esV5dvOHnp6topp1H+FkxiqrArhEr5wc6DVhUUffrz+XyZ/wQPFpDy9wSEpf+IzvceciSbceObNgte91mxVxcQGrCO28xZ9DJoJAJ6louZV66wCannN22KWLIuoD3+dBiwH2G1uVVX9v82af5AEAKS0vanMpkuIGcx/858+J3+UoAAEbcNwUxbeZl+mBDWN9eivMDMGjUnQJRZW7h91lC01CJWNbSf/wQ7tpvYQOveEtCYQNj3jcFCUGmKRrlncq6nH2FBZxhByLrX8ZYo5bw+PlZecfzlZbuZ7i47G27EnFVuw/uOKYGgGGO8J9OB2Zfmt1gKsAMAETmnpsrp2QdTMtSAgAhcfk/9ur2z893zt6+vuN4aoZw7D3crNYkHoSwYOmyTVD+9iWBaujM8YLzeHd9nMfvl3fdtIxTSfBeM9+r61/5H99S6x5oh9+0rOra8ipTwnh0IQ40NODRC3tp+ceUmg3nmkZ9YMdj66MywhF2DNz7J6bwzMVDtsZcGBIwfnrciQTj59klZQ9/Zra1dduVrUdRFVjGLfi12TKCHYbqNy/e7W4TSiejpi35dfuKCgIAuAdvyY7TZh35tlAPAGqJ1AAksFExl5y8bP9O74bDeX8plGqcaTMWhnm64wCU+bsO1xABABe4cWVaSOPnGRWtagBQ3x1pFKlB48l38QAAXFOW7Un3vJV55r0StX/qsrQvVnYvPZIzwghT6uLdx0/ySC/EhKekrfvC+9Q7GXzLeGGy/IwzlxrNvxg1SsswBerSfce/L9GT3OkvpS/eno2TJORVjzSqWMPh45m5SpwzLebdpDVfrNSsOHLKXNPeNy5SeS1XHW0ZSH+YI2ykBI6wmcfINTDZV33lx0eZTgCowcyYSYKD9f3Oj5PJLhgVW6CQ2TOQ22NnJeAJs/UxeNoCHkVVYON9mfy+ZYZrgOvke60t9x5PlM8XhbLJNIy8m3cPQI9QVM8eeIVubaT3MJYvmVP0eSa3EwBAWl9oHlVKzhGZxoEkyvUAqpZKUYOd5wkrWyGzVjEcSvI/z+J1AtTzCmazViesov24b/iXUfTKDlFDCTSU8KsV646ls5Z815uE9F2NovohVYQBoEcgauEAcKRNRN+EbN/oEKi2tlh/Wom0iaMEkDYIyLNvJM2NJZ/iKAGAEMucDfz/OdbtfyQ4mlJXoBjuCGND7Dk01jlQ3Z1A1SVTjc9DE2xk5HSPtpq/Wooo4119NiVGxLvjVR38y3edVzGkvQ+RPPxmbowLmDmFBD1dNTerssrEMgDAeGzbGO/CqeqiMyOnOIBCeOKn3/IGfVUYl9cjPcQ38ytNX7TbzK/WhnhjAAD8U1e/AdD31AtDXrAgek0wzQNvEEsEuVcq8yQj3KDhaQFpL8+Mccer7gkvCwaMlmw9YAAA8htrXo0XlP5EYiZPd/GYZBDevL6lSGozYK/wv630aKhS+jM9XAhGMa/m66tNzXoAAGrAzLRon4ApDlSMQSwW5F4zBzwvccWOGaZhnqP//n40AMhuFmy4atkE1nFxQsKqIJqjrut64a9f3x54Ih609WEDtrWPjtOYafHBke4k0KnFHfwTP1WVqWDwMzenwP0bmNzTF4+KwCYqM3N9uD8GACBs9eokADCKDx2+ltf/AmRgwI4h8X9/Zappzo6tPgAA0pr0Y5zmYb8U6wHbs3Vrhm1HsVQFbukadHrD0vwDHO9V2zea6sTWv8xtj2bsg8zL5HpsLD2SUV3Ae1Qj1QPRM5CBE+W0m4cqVoi4PIgLoTuA1M46KpLCxqadrNmRuBz7gsRSaPGJ3mRQa0d1taw2aDTgSDT/353xih+hMq+Go6yWx8SwcAW5Yz8+Bo1S2qHXgr6nQyaRDFoP9aUPsjf4lx1c91mxXSllhJrETv7JQfrSi3zzqRbjsnbp3BgV58Cx1i7XwHdfoeE15pMgflr4R0umCkt+y2hWgIvP+pfj3u/5eddN01eCDZvucvDHnw7ed0he9sqGF71v5Lb2/5N3ZGy7bGUAACAASURBVAQvdrh7qNbyhyqp2fJFDVBDMlPp7L/nn+jsWzIoNj4tuCc3P/+KnDAvLmbT65Ed/1deOUwBGwxt7dLomfKqvx4TqmjMd1/2wavtCRgAsB6hM2OqKnYfliqJLpG0AdsYHDAAYFwiXZsyjhQL8R6bUuI/iJFvKZLqAMiTscJblbl3FR06UticuZv+ENlxpLxSC2X5Z5fn23zq5eg/fWZJxV9PGvyjY95lzaxsLi/TD7t1GwHb3EcMbe0rM73bfvv4kliGIwf50Mbe+UnGTf+CO/xTr0EBqzjXl3OsP/UadcDDb13f06HAmitb6wZceYyiKnC/ub7+LxAk7Kan8qb5KTOGMrdWK+bWf5d3IXL59oJt6znC2srG0tPV14dvexjVVgTF7yQUNhBJzhRQKXoLfKkVcj3WnegMQ4oS2yJQyjQ4V28ygOm/DG312Y97Rz5W5p9auZmnBQAgLcr+eJF5sl6UW3CZY2/YWAo1Pn3eTKL0IttUq9o7LpZ062uhVqOuYOszEn0dcnkjlUokJ2Z/3G8cYei9JTcUFmwqBACAjOyHfdlzhJrEQbOnM+81Hmq1HOtpAfGuirxLnMpOgM6akwG+H5krlBHio/zJDcWfs8U6AJBxjtb67md6e9w0N6c31926oTAAKK/clq6NdfPHtPZr2iUnRXor6wpKR6wdiaHFMyniqqITLQoAyL3KjfxT+GL/ykqu7duUab7x1K4rF7i1nQCdVWf86Tu87QoYAEB6++sysRgAtNIb3f1XajVgZSm7UagH0ItP35QujvJl/ktaawRhbdVRywLiktuLg6eHuULlMJf8AABYkNz+li2WATSXNydPpwdQoazvBsn24RocsO19xDi4TAaxoL1BoQVQizulQ9Y1juz+fsc9YNuVrUdZFRgAAIg+0z2M/Iq2J1KBbwKwXjFXwMtaevDHWEZ0DD0sNmZ76vxFGYd354y2CKP1rRg1yhYNgP3lpew1sB1FIbX8l1GX7zt+tBLnyZq/NqIlcwd3xNooABC2c9vVnQAAoJEWZ547UgIAgA0JjnYX5ZaoAaC2UIj9kDmbyCsd4VJHXbrv1IlKPQAAyfetHxLs22/ZpZ0rLtm15MgcfF4PJVRebRZaJjhSKY46RZP50s0glCh1poyCofhPIVADFp0O6x+KAxUDYgAAQ5fSfDrRGgyAwzj2Wwrvw1wyRXr6UtfIt1R4Z+/JWqHU8kfe0yW8jw2iOgLYfArhSKVQ+wXc0qHUeY8UsDnVGTpFUqu9y6wHbFQLLVe0KplS60DxJkJtD+BpPhviQ2O8KFRzJTO1YORabAaVTGXeSZ1WBXh8v/Of7cM1JOBh9lEvvl6ven/xkq+CxVyxpLah9YbkUZ0nR/H9PsaAR1EV2DKL6hPgrhP+In6quuA9V2xWzNWLSrgXSrgXMguj92/+5K05ATmFTeO4FY1argBPCgkLYAAAIFGccQa5Rm7989bQyVSiXi7pK+Rlqx1FKRA1sKGBfY7ww+aMncK3dwtH/G/ccPj4l/lKrUItESiVlpzBSGR4Emlv3/j4bQAAwIIyjoUrzR/+7k0vFwjNURGpykeRSUfgHRYc2dP0Mc++P12Mobnop/Tfh1w8jPA4hbQ4ygcaiq90D7/Y2OmMfYdZ07+Wq62Aez9osHrrYzNgfG/pcQzOvNcYl7WvzY2RVn3+f8213QZwCNi7ceYYdsGerVsP2OY+asuuXt5UMzXK1yOMEZoWxWSe/emQwAAA451YRvn9jj7gsRlFVWCzKdN9KPcFzajW1pOkF0nU4ExyGt9zoUbUyNN7hniZ+91SPJkMaOMIRr6ntvBkBQZoRNUl9j+OU1/7rg6bkrCcMfKiWom0gS1t4fWlEwBaDIsqyjm12VSTeOmRUxxS5ELvR1RS14Hq7uVOdXjo9RCmrpzlyK283dDvT0glU6jwlABzSWGs9xSy+YLbqGiWgMfUKVaKDQ/Pc/qrXqrLlfZd+Onkwh6CN81yh+Pg7D3Z0CXrey6h0xsAi+9f1lglU6jwZA/L0aBTSY8qYAyF7mb+Rj2mUBxVCqEGwIHGJPeU/t5Y220AAHCluA86kxn1gMOMooD0qA7XSPsok9y98nvVwVNXc+85RPhSTBO1OgP0nkgdydSBAQ89wpZtGQEAP/TKf5iAjUaYBIT+6x9TwMNt3bahGcXJJyIumOHj4ebu6u7DiI5jOPWI2npvULAejIDJitt3Ood8Dhk3zrSgCM9gy88LbgAAQemrM7+Yl5joHRTiGZXCei/VU17SyBvnlixl4WleT2zc+2m+QRHeS/YmxBGFBad7ew/hyAzv4L7AaG5Ey3R3z6BY34T05Z+ke0vOF17u622Mcwns25GgCCp5yCYNJb/n8TyXp/mO5UzNYEbT1bU/85o40haOtIUjLCyRucYGzngkNx3Ulz7IzvrfjZEPV+cewCOYGfOg9cyg7p5tTdc7KYvjmWFUknfAzJUMkmWG9jq7WekTlRFHD6KSvT09FsyJ2jbHZaSNEBZEBbrwOXl2/p0apde5Co/wqLV+FA8qLfmlGWEa4ZWWvgtVVUeX2MFjAdPFw5FkfsrU1nRdQVs8h+YIgKcGJE/v/WrHPWBCzNzwBW5kbzpzfbiLuJHPNQJoFAKNQ5CPCx4AiLS1sf4eA89kHXI10DxiXAl4HBY/8mXzKA/XMPtImPoGi7nAi+LhSPIP8A2jGISdpsRsaBEpCNPoMY4AGPLiCG+PgWu0coRNNEqxxoEZ4EElYPud2YcLWCdXinFTIv3Jjn37PoaAh9n6cEZTFRgAiAF+0widtc2P7E4asVExV8RukUSErTvAcqPgtAppQ96lj/bxxt6KYkNnzsXdbklbUld/lQ5KHv/s1ov9XkbBRadviE7v/VV2bu1X2XIAIMXt2RijUcsFovKsU99n8ftFRU3cv7GvDbxfTeJ+ZD+f5v9xJ+s1xogvvgw2LTGQAcIfK/um8Ev5ko2M+ZEFtfZVOH78MLTkcJrgZnntoPs4Y9eJS7+5JEZ8vH6m9h7/fL3U39/8nEQnqNh9sWd9zOyPI8gEg1osFZeVj3TbSPUf7ZsuDaXXs3DRa15NfANvkInbj+b+Vtb/ckXCPVTm8u6ixL8RLJ1xjV0nLlS6JM7/djPoVJLS1i5zO8q4B2yUXuERVr7xqjdW19xY/t/FUh0A6MUn8rnvv7ToyCyjUiOvrWqs9Qro/yExpyrXZ+7af1uxCTew9/Bot26DzX00asGJvua1EFcHAvR01VQVZ3HMj7vEdVWn6TGbNqzYoOyqqBE2MLwHrHHoETbvvji3iO//YvyRCGxf/93hA5bcPlFNW5+w7O/Evt7DYwjY5taHhaoCI8jj48iM+zbeeOhoyY1hby/9Y5fs92naMuz4KLZhIxNe3UG5telsk5X39J9GtgP2Cv/bSpfc70c+kT2SrT+lnuqA0bheCPLYYD0wXecLW62mE4+AgDCtpEKsAmfflTNIzWzhmNIJADjg5c2HqvlP4enGhicbMDpc4wllFAR5bAzNt8wvMA+Fn+yRvGj2JkcCaBTc2tKD1WN+pqksK7f7/Z6nwpMNGB2u8YQyyvPpmSvx+8wFPO6EtSVbap90EE+b9qr/+N8nHQMyGiijPJ+euRK/z1zACIIMhSpuIQiCIOMDZRQEQRBkfKCMgiAIgowPlFHshkvR7eSrM4q0y1IejLw0giDIhDOKqsAAMJkePTN0uhuZAIZumbCupqpePnHGi9Tn4PedxwXu1a1OM/x+HidCY/kjCIIMMIqqwOA8K3pusOH21V959wyOATNjY2KMsl8qJtSQkZpJLexJ+qQHzgAjVGJAEASZcEZRFRjj7OE0qaOmXtitA7hf19I+ex51Cgna7w9dxfPsaannjCAI8rQZth3FUhVY3qUFAGPXXZmB6vUCFQMAk328aFh5+0RLJwBGAD0RNT8hCIIMNZqqwN115SWTo+f9YVkEAMbQzfv1X5x7jzHUp4ORg+kEfcjrD5pyJqEilgiCIP1gqVRrVViM3Z1tLYI7dxTYqQEMj562FoUOYLLP7JhZ2NaSSja7RaSmTp/jh2+7I+kZ345PwcHBXC53XFdphYuLi0w2tpHWOjFSZyNrh37hVqP6ElaICsUgCIKY2Xp8o70vvyeXCFvKi1v0PsHT3QHAmRHpDU11dU2dcpm87WZNg8w5MNTtEdXLe3oxDC+nPri9i7gviFA2ynoeCIIgz7VRVAXGE4jQ737EAAA43IRrUMCEGGmAqc+ZpB3cexjvSHV3pzpOuBSLIAhiNoqqwPL2uxry9NAZPs5OTk6eobOmu+s6BJ0TYFDYATAAGA1YK6TOXJeZnbUn2e+xh4QgCPJ0GEVVYF1baWmVYeb0+QuCCRhDd2d7eRn79sR7zY9kYzre0QEP2q6urscaDYIgyNNjaEbRijlXxdYLumjlvOIi3kQec5z4wCfiAU6OkQ+Zg/UPne7YUXz2ysTr/oYgCGKC6qPYDZei++CAwSjBVP0PdugQLJ6hTMfavNzaiTMqDYIgyCAoo9hNn4Pfl4O3Nbft7J9Tzz7OcBAEQZ42E66vFoIgCPKIoIyCIAiCjA+UURAEQZDxgTIKgiAIMj5QRkEQBEHGB8ooyFPnQeBebVqNZhdfO4/xpGNBEGQURlUVGOvMiJvJpLs6EHQ9HWJuaRXv3kQq4AgQvGfL5/TC5M3K94pWOnx6cG+uHgCAGPrJzeUxRAAA0KglPH5+Vt7xfKWB6PlOwcYV9L7pV7LyjuQrTePWuCWy3kufHckgGySi8mN5X2YJ5QAA5BVnt70TYdqaXi4QlZ8uyM4SygGwrKX/+CHctV8wBl7xloTCBsa8bwoSgkxTNMo7lXU5+woLOPqgPZu/SaUN2QP1tc2ffVrI3HVzZTyx36pKLq1cWyUHCNq5+auNtP5Dk3XmHP9jBt8AuIDUhHfeYs6gk0EhE9S1XMq8dIFtWoS6+tLmF/O/eq9kzncnvc/NP35B8nBHmWGMT30g3kX427FJ1ka7QRDkqTWKqsAYr5iY8Kmd1Vev3VVipoSGR70c3nO2sg0VCQEAgIbDxzNzlThnWsy7SWu+WKlZceQUDwBAknvuw8MinDN1xqqETV+s1q84fJQDwIj68It5zvn5H+9ox8TOfy999fuSr3bnmMtDaksKtu7j6YnkwGTW5vTVZEX2R8eUAAAgy884c6nRvEWjRtli/qe6dN/x70v0JHf6S+mLt2fjJAl5t747804uDgOAi03473TS5c0Xr3YAgL6LB6Dhfb/m8BkSben+5TG8vN1ZQq1CpuzdEwU3a3MR11KqUiuRGgDIycv27/RuOJz3l0Kpxpk2Y2GYpzsOrA5v9tAw7g8maybVFaJ0giDPnFFUBXadSicqbtU3tncDgKq83isg2s+3pu02ekscAEArkTZxlADSBgF59o2kubFkU0bRymV8jtQA0oY6p+jkpVEs8lGOMmDVnBka7qe7qioUAOyLJ2O2pa0KdcupMF/ca2QtHKkWpE3si96xm1cs9CYc4xoAAPRdjaJ6tpWt9whELRwAjrSJ6JuQ7RsdAtVsaYMAAIBAVxsAJ+GJ6vvG3te3sUVtoH9RA4YO6S22aMBwnxqloFJUP3BQgDCWL5lT9HkmtxMAQFpfaHcFG7zjFBdHg6pDprL3EwCAARjfqjsIgjwWo6gKDJMADAbLycdgMBgw1ClOE6ohRquQiTrUAHp5h6xTY+MaWm3QaABHHJiriaSgFCYD9BqNHgDHDKECr71BYf4AlyPDMuhBxKHr0ms0AICzc4R8LIUWn+hNBv2QkfYflkyux9LpkQyrt7R6VYfsngJA09PRoewZuGls2L//d3b27mS/UQzyTwQMgF498oIIgjxlRlEVWC69p/OdzvBqqmnvwbuGMqY5AJZAnPQ4o33SmjKPbwAAgENLD1tdAEuhxqfPm0mUXmTLADwBYFrqhl9SzXN7eGU559UAVIozDuTK3uEmFQo1UEjORID+p2MiKSiFlRiib8kX9gBgAQBoq89+vNoyX5l/auVmnhYAgLQo++NF5sl6UW7BZesjfdrHLeoAN6r3t4rdn+04pq7/Lu9C5PLtBdvWc4S1lY2lp6uvc3oTqvLCm9kXAADKdix4iO2aEB8EJBrJHRix4qFXhSDI42Yjo+j4NQX38AQHV7/I4PDYTtlVoQp0/NKqKYvC41b7ARjVwoY77W5+YERPJ0zCdm67uhMAADTS4sxzR0oAiAAAkvxzuw9LnQLDVr9Fvba5oNyOVmsCa2WeuYVE3ZSb/9nh3vLFA9tRFFJLG5a6fN/xo5U4T9b8tREtmTu4D9U0PrAdRSFQAwAIeFlLD/4Yy4iOoYfFxmxPnb8o4/DuHOUwqzExsL/504pv7NwyLkWXccCA00yq/gArnHh1EhDk2WdrpEjtffk9AJBLekiJycHT3YVVHQDd7ZW57dUEIhF097WOIX8IVt9DzybMGg4f/zJfqVWoJQKlst/ZUNsh47FFBrao3W3dV1/Mu7W0rAWUCrkeSGRnAFMfOgqFBAqZ3PIpbUnB+5k8rUbfJZB1DrhUt9mOohSIGtjQwD5H+GFzxk7h27uFY+8wYa0dxbR1UQn3Qgn3QmZh9P7Nn7w1JyCnsGnMW7FGn4P/JA8X9KEu5c+GinwcSioI8qwZRVVgM4NWc19rxEzxplM10rvdE6v7sG1aibSBLW3hDUgn/bUdKy13n/+nFBKAnsuRAcMriGKaQ2KGUA08QUPvBzWyJra0iTMondhDfe27OmxKwvJH+xqHXiRRgzPJyUrDzxB4R3d39ymOdq9bMakxH6N0N3pQxh4fgiBPyNB7FCefiFmTFYJOeY9ukoOr72yGU4/gZgcAAFC9g72hq+M+ONEYEYzJHfWlQpRQ7Kbg5eYpP38rJuh8YcPp32+lJqzfG6461o6Jnb8mVl+ZUWfHoyqcS6BnsOUXI6jb2LJBD54MJb/n8aKWp/le2Mrvsb2eaRE0ConmQgSsO21GhFqrkPF4anOnCyKZHumpstx8GhWyBp46KH31JnpLQb6wRaB3Cg1eneopLyzk2XEPgQ379//68CXF2T//+WSLvQWkNWAEwNmqlYkgyNNrFFWBAQBLDQgOjiRiDPc7BfXXS3lDSxkiw6g/XtWUMn/d66Uf5VR8utXpvfSFfz1LNkhE5Zmnvsyx5/khNXH/xsTe3xR1u6PPDamoKfv5NP+PO1mvMY7k8AbPMyMy/nTS8oYjPekLVt8bjgAAFGbaCWbvsoaSS39YWyVit0giwtYdYLlRcFqFtCHv0kf7eCO3ooyVEWBC9fhAkOfFJB8fnycdwwDLly8/d+7co96Kn59fS0vLyMshTwDD8NYVvXwX4Rx6Zx5BnjET6nUS5JnAw1w/Nsnrz9qdaFwvBHnGoKrAyFNnUuMuQuOuJx0FgiCjhu5REARBkPGBMgqCIAgyPlBGQRAEQcYHyigIgiDI+EAZBUEQBBkfqK8XgiB2wi5YumKTsXjDT3cfSVUkYsDet2cIz1481DbSkhiPdzcuWuwIAFBbcHZXLar797QYLqMQp8Wz4gLwguuXS5pMo61gKAGhURHerk5Yzb273OKqxglWFXgMrBYSjvli+yfJpmFG9EpL6d9OgIFVgU30pRmffZQDi37Y/iELBwA9Chm/su6fmUXXzOPJk147sf292H6f0NTtnXXuugaASI3fmbQuyfcFN+iRyHiVVcd3lFUPM1YY0ff9onVh5w+/tU9kAAAidUn2hjRG42drL11nWK1JXOSwZ+N/Jwl2L75Ual4tOfGHze+5l6atKG6yNUaLjTLGMFxNYtMH4765xPLrKPsgoaBW0xfwEjfTYZTeKqk4uq/KUnUGCInL/7FXt39+vnP29vUdx1MzhPYOA2OFx5yEr/z5W85Ik/4twb/qPDqFjRl+etyJBOPn2SVlQ88dBnlNg9Cu2mxG8dffnvoaQ3v3T4s87N82Zuq2t+dqfzp3yCHuRJzqrz9U1aLz13iznVEmB8yaSVUpgNo7Bese/GL81PuV5QWtRlpkZMTL4fdRVeCxMvDKdu+o6gCSd2zMpvR1OzRf7ThsHtZEyy784FNe7+viCp7e9D0ZOMU7d9Xr6V6xqQszTno7rzh+jgcA6uu7DzdScMy01ZsZ9Z9lVNxRq9s0AICbvXN1xuvKc/tOfdaodqJ7zU6kuTkD2Dn6JJGa8MW6NAb/8zcvXRMAlgHWahLrtVkF15NW/imtonyfyADgwJq/LlZ5+c0ym+nEzEoZ42rTR6zVJDaZlhg4rbKqOJAxP7KgtqRvXW05Zz49rXQNDVzyVmLmScf0FcUNaNDiZ5Ne+uPP0icdBPJQbGUUJ5+ICEzjdeG0pb0ZBeMZ7EO+xyu+Ke0GkBfdnrZ6ZgCqCjxmmu47bGkbQBO7YGoiMzXG1+FwnXlsR7m0gS2ykqk13a1skYQtqs7vwhesW5Pme3krXwsg54nkAI4deqCr7pSIGkwLE2nRLGpbzpnvc6QGAGCLKnLtD4686MC69yJFX645V9CvlrCVsfQlvENZ/O92Jrx2+vg5AS0lfTY2/8zxkpEHT7FWxti0j7bG0ifPY9F4+eeKFRvXLfTElvRVMjYoTPUChOWVuuxLMeter/jIjkHSHKjuTqDqkqke5r+v28yvVntcOVqQqwAAiExYvoPMXnuuVQcAGPKC+Og1TJoHEVRKBZf92yfsLtOH8FT6BtbMBXSKo1HdzKs7dK2xwfxdk99Y82q8oPQnEjN5uovHJIPw5vUtRVIArH9Y5Ka5dH8yFnp6mvk1WT+3CkeMjeCSFB+ezKB54A2yLvGVG+UnWrUApidLM8VXK1TMmYunUQgG5fWff/6apwUghM2JWj/Li07GamXiK8WVRy0Dt3lMD9+2wN9/Moj5nEpsv7Jw/TYhFrf+WFB1pdMAAB4RCV/Nlp++7RAfQvPAG5tvluwvEssAHEPi//7KVNNHd2z1AQCQ1qQf4zQDAM7no7TYSAwAKPNy+j31wrkkvRT+6gsuHo4E6Omq4dQcLrkrHunGwnEaMy0+ONKdBDq1uIN/4qeqstHUpEYehvWMMpkRNx1b969mmdu0vomOLlPw6nap+bvRdt6TYfzdnTG3pejOcRj9Cwn3WCkkjHNjhc5lgFagH8UzGQ2/nK1eEhEYQORbO/mallF3K8AtxPcFirRldKPik+P2L38/VnRow5l8W2NN9iM5VvCP5I1r0pk1peHL6fxDm0cxfqiljLF65DLGdGZsiKx6h6xaI3x/HeOFfaKho7IZeLxqAWtxjDchh6cFMGiU0g69FvQ9HTKJZNCRp770QfYG/7KD6z4rti+lqHvEKq0GDF3dqi7dyF8VNSQyjQm5P/10pRMcXT1iyJYZDvS0ldHe/OoDfxd3EVwWs6IzFqvTfhJYznhYj9CZMVUVuw9LlUSXSJoWAMCV+S5rWsf16+83K8HRNYyOtyNccvKyRWud2k/8lF/WBe7evjEUEkDvRQo+Jibwxq9Fb+eq8C5TmVgDAPhHx++Ypc0rvHaww+ASEPpuYpwuJ/+EBMCV+cHL/rrq0ow6pfuMqLRoLNw2byJpyaK1hOZD5ysaeghhc+Zuej1cfKyiVg8AgKfQo7TXMr7tAp+o/cnRrzdePCoCFef6co6Np1761k++aDW1owzYDwzBVS/O/aWK26UjTPFe/3Lctvs/ZbCHHaMUQ1v7ykzvtt8+viSW4chBPrR+3Y+0XXIl6AF0anG3Fj1deRSsZRRKaGQw8H6tv28k9J9MJBJBq9WRpkcnRBPrL5VrtEAk4tEYscOzVUgYG5JwrCXB/ItCePQ4r/c/eL8ajgAgOrr08PEhVX47O5TgTJ4y3JZlFzOLog4kfVs+n1/J57AbfzlWV2/HiPluKcszKCQD+/fqwRu1VZNYejaz7KUfln0WixMczs4XjLyJ4coYW6tJDACurMCgDt4hAcgLG1t2hseFFLcMrXysUd6TANnNiQCgBTAUFmwqBACAjOwhIzSPlri2eEstAEDuucv2LO/q5AA94gqBUmwE6FY2W6Z7BDNjdI0ZV5uajQCgPFHsEZ/sE0MQXOn99qW3vy4TiwFAK73RDQAAjg6uGGVpi1TYDdB9VyiyY/NegUl09U85JbntAADiWzW1/edisF23Kg7xFAAAEkEZAOCmJodTuEUXT/C0ACCsYucxXlsc5HJC0uXP9PVXt+4qudtshOayKiYzcbFpJZ6ByXTFmSNVpiDF12siN0YtmFZR2woAALr28+wuFQAI+LVKf38PEojGVJxPKz5xVWz+t4J7hhf8MX0Knq0c7ioA4+AyGcSC9gaFFkAt7uz3GM0oPXqyAAAAKraMb7E4xGJIRsFQp0eHGbmXWrqtLq8Ho0Z9v9ugMwDW6gKIfQy8sr07au+5ey1Ni4LDA54UDWxH0YvtuFGwSllYnD6/OogVGBEzbXZy0pep4d+vOZ4zUgl6BxAeyhDF70n4II3/Xpa03+W4rZrEoC0pOlkSlRFaffSwzL47LdtljK3WJAZS9EJvZUkpTwMg4FcLEuayqMc5sqHrtXusYtmlnSsu2bvwGDTf5nNnhf/1TVqNQNpy9+6VerFYDwDg50nBu9Iyt4b0LWqUUvvuHwydIql40Lra+dc7fNauXRIlkHDF4tJbrQ0jPcOhuru46rq4g1fUu0Vtc/vA21ayi7cDwT9xxbm+WgmgUjjgQeFOdYSuxmbT/YRRIbxn/oId3SgeONr6javX91tNpSMWwAAAOlVPl/kjBq0eHAlj7lNKioyOWDPTi04m4E23GgKCI4CVr76XXny9XvX+4iVfBYu5YkltQ+sNCbobeXyGfNNYdzcXB5rLyuTZAGB6XyV+2R98Ky9elWs0QJiM196sKWgFAKcQAmi6dajO/BhpulvYojYQ3e6gfntk2RL2qcu9V/e22lH6cXUng1x5b+StKBvyqxryq07tq3jr0sY31vn+2Nt1yoY7OYU/5ogqEcW8egAADSpJREFUvBlZacvWlBw53tdwYrMmMYBe0aEHubrb7iZxm2WMrbajUBhxsSQ34rq8FPMEA4vhmVUx+GqdSPZwAyW7+2k4gUi5u74Xhvl7zZw2dd4CZtL08vSzTaYzvK6lZMO5VltJQWcY8vXopUf/cfEK3SuS7hEZNjc5YtrBYyU3bJdTs4NROzT1GpV5ORcPtQ+aigUAnbHf1U6/v3ddT+vn31rrsgVgyisPjxoyd1s04UZewa5WhUoPYaxlH9NG/JC27OrlTTVTo3w9whihaVFM5tmfDgnGJx5kREPecNQ1Vfz8z2umn18u1d8Do6j81ysld3Wg6rqnI7m7mgu8ElxdqEZ5hxw1ojwkA/v3c3Xe6971dbD/M0TfmAiSnN04UpeqfjSyjg69gzPJzjvLpqxzOTzPNXtZQfaU/h07u8oYO7ACw4B3aG3220uz316avWV3nTIkOIY+eDEsgxFBV98qFdqTURyo7l7u1FEcc2sMBi1gyearMoLLZPyAJg6tspbbeOLq9fcLWmGadxgBAKBFogB3jzDC0HUNy6gVtrbmFpfvOlVVS/SK9BxhcVlHVyfehelu9/qVXUKNQ5A3ecgMg7BTBU7Olh66jnRn838glUTRSRzNJnoZjTAJCPa9Wh0w1ZXQ1nyiSaHSAwDB29VhUCOSzgAEnJV1ySR3r/xedfDU1dx7DhG+qML04zP0yzBoFLJu049cptEB6Hq6FT1GAKOovlU1hRE+i+ZMdQ2Ime6lvdvERx29Hp7y2vF67Ous13rPqs60oAjPYMvPC26W6UQnnwjP2cnh75xcnujMP5nFN506nRmewRHedHccEB1fiPUMiqCSAQDIy7M3fLgzPJ7lGRDhvSh9WUqsvta+sy0AgEZ6cldRC2Pe9nRvy+kP5xLYF5VlKw/LUPJ7Hs9zeZoloRLJ9Mh+W2GQAHCRiQwCp/FaibSFI23hSBvO198C73ksc91gLIXKiPCOSWXtyZ7vySk9cd6uapgvfZCd9b8bI+1p5bZN0SXUUCKmu+ABHL2YSfS+dO0fFr4+zMOfQqJSaYunT3FUKgR6AABxHbcSfN9OCpnnRvZwdYkMCdmWEOA9/Fa8AjfN8wmjkaiO5MjQqf6gEHSNFFh7Y56A9GpibLIPxYNCDmIw184Y9tvS3829qaBHx70bQvOmkP3p9GRW3Ho/AAAhl99M8UlmkACAymDO7226EzXm9m6CSgkLCFj/avgCOzK0Tq4U46ZE+pMdcVj8SHlFeE8JNI9IRwDAejBnJ08beEFkVHClBn/m9DAqiepIMH+XhKlvsJgLvCgejiT/AN8wikHYiXp6PT6jeb5p6KgvLsZGzYp+ORKrvne3+pcq9DLKuOgprCjo2Lg8zffCVikAECJYX5xl9c5tyPrqnUwlAGBD4g6cjdMqZC2V1fvXFF0zt6+Q4vdstLzhGJ5xItzyhqOayxZFJ8elpZKdiaAUiCozT2UdG0UlXy27+MvDwV+kLdtUejgbwHpN4nF486OvjHE1WKtJ/GZ3XCypLYff2bdpfnUl/OkVhnOOEgCmpaz8JkWvlEhvXcvfnllls/PbI6C/e7KQ/wEr4cSsHkFbM5uv7u2HpdJh/aOjF8eTHTFasVhw6GJNg+luvkfw+RnYED/z7ZSZVIxWJuuqqasZIUHojI4+oe9HzqXiQSUT38gvzR2uGcFEmXvxmjY+PPnVxPXm3sPNw3+guezaX7VRa2PiP08gQI9S0C7MNYUl4x7Md9i2cMnfXzJ2Sfm1bYYYyybyLl4D0yZMPaRbGm/Yc4EpuX2imrY+YdnfiX29h4MWLtsfYc55YSmrkwCgtXzD2SZxzW9H3OZuWL9ig0bb2dF8pUG5asD9hvbGjYrIZREfvxmCN4oPHb6WpwIwasGJvua1EFcHAvR01VQVZ3HQaerxQVWBEQRBkPGBRopEEARBxgfKKAiCIMj4QGMPTzDYiPC0VZ7Wenx13dhXVjG6t+tteiGF9UY4aeh0g6TxZCbPjvcskRFQfdZHujkOnW7sqazglFl/mQxBHjnUjoIgCIKMD/TUC0EQBBkfKKMgCIIg4wNlFARBEGR8oIxiN1yKbidfnVGkXZaCBjNDEAQZalRVgQm0kJigqe7OVCe8qu7X/PKJNaiXPge/7zwucK9udZrh9/M4ESoUiCAIMoDtexRLVeB+sHistlNw87ZwwnZO1ExqYU/SOz9wftKBIAiCPH1sZRRTVeBS4f3+E3vaa0rrubclqok8NPSYCgchCIJMANYziqkqcE2zbEI91rKLEUBPRM1PCIIgQ1k7NZqqArPr76N8MpSRg+kEY8jrD0Zb4gJBEOR5NySjmKsCF9uoCozwsL8cmzT9gGYnXztv2DpRCIIgE8woqgILUXUtAACG4eXUB7d3ES/kTNKi7l4IgiB9hmQUXVPFzx3mJzqTCF5zlgbpym9UNXWjdGKCCTHSAFOK0gmCIMhgQ99HMWgUMsvJkuDaryowAOAdp0zGgxMJC1gHJ+oUMGrvyyZYrsEAYDSgf9JhIAiCPH1GNZo9ljZrabS5mLZTZEIAGFrLz11tn1h9ia2M0Y4gCILASBlF23r9h9a+Xw3tJf+X+4gDeroRH/hEPMDJMfInHQiCIMjTB1XcshsuRffBAYNRgqn6HywaggVBEGQIlFHsps/B78vBP+koEARBnlro5W8EQRBkfKCMgiAIgoyPCZpRUJF5BEGQcTdBMwqCIAgy7lBGQRAEQcbHhM0oLm/E5RYs+/H4i29FE590LAiCIM+F0VQFdvIJDg3zcqc6ErAGVcf/b+/uYpo6wziAP+XslNYitDDLIg4kETEOo1FUNsFNudAaBouYZWFZxgWwyBLDErhgXAjJ0G1mCWLGFmCJSxZmIpiAbAUNoIKb4uI22caYVRBaPk4GLR/1FLrKLhQuLKAH2p7T9v+7Km+a5t+bPrznPed5Bns679wb9dqG9+bajrQG5YHCN3Lffbmx0zAsdh4AAK8nYCowG7b+RRrq/fXK9dZLd0y0drsuPlLpgYjuM8N3/jlJoQqN2EEAAHzBYnuUx1OBrxojUtRzS/a+q+19T16PjfKrXjocG6EN6H/gtdsUIqKZWSKZ2CEAAHzCcqcCB8hZhmw23qvLCdGMfZbkMoxjBABwgWVOBV4VvS1KMWQwcO5L5hHWBxNjQdp9iUoUFQCAlVrOVGBWu2vX1pDBm1d8YHLwX3erW2jf8YP1l3cfQFUBAFgJwVOB2TU7El6Leni76TcT79mobrE5JiuZ2kqaKjr4GbGzAAB4N2FTgdk1OxL2bJz+vbGzz/u3J0REqqjg0CmuDeUEAGDlBEwFDgjdmpAUx/R1GMzyEHUYEZFjcnzSq3+L5ayMZma9+isAAEiFgPkoivD1oSxDMa8nxcwtcT83tXV79fApuYxoVuwQAAA+QcBU4Ifd9fXdbg/kSXLltldW09iwWewgAAC+wG9nOGqOJJ79INQ+PHrxzABasAAAuIDfVhRzbUdardghAAB8id/2HgYAABdDRQEAANeQ4lUvpVJYS+PMzEznxY2xMUT0cWGRSyIBAMAzSbGiLEN1TfVTK5+XfCZKEgAAvyXRisLzwlq82Gw2l3wOAAAsm2+co/A5J00D54d++mRCp372uwEAwB2W2qOoEwu++ChBdavsvU/b7UQUqcvLObglMlytIOvo/duXv6+60GX1VNAlKSsLI77V8mdOjR3br9JfYMTOAwDgjxavKGHJ2W+Hm4dINb8SMMP90XT2otEyQeq41Ix3Cgqsx4qbLZ6I+RymucBfBilO8yiQGK9uDAMA4KUWqyha3dEjqktl13aeyJhf62up6Zt73T2ijf8qbfMmtvmG3c0RBXD4ymU8AAAvtPAP8LqU3FRWX6EfWaRasNqdulcj7Ma79yVUTkg27SAFg76PAADiWGiPEpmem0r6kgbO4XTMzaxLP3E6YwORw9pTX1raKKmpwDJD/wvB2/n9WlbPycQOAwDgd5z2KEx0+oeH6MfqBtNCb3eMtJTn5xcWl53v0hzIfX+3tO6sul4XomemKqtMA0W4aRgAwNOc9iiqTVui1bHRp+sen58wRJR37ru9FdmlLTwR2S2mXgtR7z9/W7VfFx1ObrhZZ/Rw5MXtSR/XOYJysoP1nKwcDzgCAHiWU0WZuFaR3/VkKnCAZu/R4lRbTeE37dyC//Qrg1iGyOHeiM9tdkPkfxNdylZc8gIAEIPzOYqV659/yGTKbCPiOWM/ZyeKfSsvWdHTdc/ITbHauOSMJDXXfMMolXJCRLOBDNkcKCcAAOIQ0IXF/O+U5s3U7BSNSk5Wi7Hnh1NV53qkdK8XEUP0SOwMAAD+aumKYtEfT9fP/cF1VJd2PN2QUToCtdPxa2n8VgAebwQAEIVvPBDI55w0Gb60xA2sLm9FCxYAAHFItPewQMrKwohKsUMAAPg5iVYUoUO3FAqFSz4HAACWTaIVRaisjCyxIwAA+DtZVFSU2BkAAMAX+MbJPAAAiA8VBQAAXON/hJ5P7tHq8Y8AAAAASUVORK5CYII=;" vertex="1" parent="1">
          <mxGeometry x="796.6800000000001" y="177" width="175.94" height="63" as="geometry" />
        </mxCell>
        <mxCell id="ekqCBltRWSEwKB1lwB7P-7" value="" style="shape=image;verticalLabelPosition=bottom;labelBackgroundColor=default;verticalAlign=top;aspect=fixed;imageAspect=0;image=data:image/png,iVBORw0KGgoAAAANSUhEUgAAAR4AAACbCAIAAAA7oWNeAAAACXBIWXMAAA7EAAAOxAGVKw4bAAAaOUlEQVR4nO3de3gT15038N+ZGd1l+SLL+G4w2NgGzNVcAiGEAmloc2kDpenbN5uQbPbJ03bbbtNNm2abNk16SdNuutk+abfZbts3KaGbEhKSkLQBEu4Eg40x+IbvsmVblixbd2nmnPcP21wlC1say5Z/n4cnDx5rzpyZzJc5M5r5DckvKASEUKwJmixlvPsw03ktgXh3AcUeF+8OIJSYMFoIyQKjhZAsMFoIyQKjhZAsMFoIyQKjhZAsMFoIyQKjhZAsMFoIyQKjhZAsMFoIyQKjhZAshPHOkKEv2L708TnG8r/X/xEANpf8Q6ut5n+rXuhztcvQPYSmKzJ/dcm4Znh84x8uWc/uv/g7v+QFABWv2brg0bnpS184+KAsHZwoYsicvyV98MAFywCLd18iwIdKEtL4BoQ8p8hOnvdx81+GcwUAfsl7qOn17OR5AqeQoXsTxyiVgpTRSVpcpjHXmGy6eoox2ZRpzJ2kxaOpZyLnWpRJV//IINL+SziFTsGT0Z+USqWKXPmlQqkx6pRKct08fJJOo+XJ9Y0QITlJn8SPOS8AALj72z5ssg6xSEvRatRXTRztKq/ValOUfKiGQ/L5PeXzK4wpGcM/pqdklM+v8Pk9Nzs/SjjjO9fSKQ2MsaDkv3piQPQxxrTK5CFff+jZFNmLvzXb+uLR9iEAIMkb1i9TVB1618aAN6xavmxDquQMKg2c7YMT56rcDIDPKiz/QqlJGRAVSqmlrvrNlkH/cCOFwXMko0zlPvHJiY+cSaHmDbXQcEuZs3hHmUkZFJVK1tF07o0Gm2d4rjm+k1L6Ii1RaRW2S2f+eNHmi7xlHC57Vd2ppaWrahorAWBR8YqqulMOl31cmxclknFE6/5lT2YaCg82veoJDF093Rt0Hmx69eHVP+0Zatl19sfjWLg2Z/4WTefLf2vuZ/ys2aUVqdpqt5tLK9pezB0/fOC0UxL0BTvWLb1t4OO/DTAA4JL17mMf/dQeZADa/BDzhjyrCrkUPq14R6ni9NEPjw1KvC5n+7olnx48/GZPEAC41GTpyNFfDohC8ryHby2p6Dh+xHUzp2sOp626/pMlJSsB4FzDKYfTNo5NgRLOOAaEA94+ACCEv/FXwxOHPzAOoj8Q1BjLZiXpeKm3rfYds5sByc3J5rs7m0SFQaPWStZam2LeLN3wwIwOdp8ZCLKw845jKTm5mULXpZODEgBI7u5DbYGSHKMwshRLtUNkAMEh6yWPOk1706NChK4Yx1Hr/bpXjja/8cOt+w42vuYJDF6erlUabp93/9Pv3eUKOMa38EDvxdca5m8oW7VBB9bejkO1TfUeLkmjMhjLHjBdTop/yDF6zkOpxMaYN3S4Qi5Fr1YO2b2jJ4nM4fUJJqUawA8AkjQSX6AiJdzNJislybikZOXwgHDx/FVVdXjgmtHGd67lFd2EEAV/TREoBa8ihPhEd9jZGDDgeIEAMAAiqAUYvQ4S7Gyt/X+ttZxCv3BRxbZyz7+f7HL6fEOd1b+udUhh2ws3rzlMF0IsxeUNGHQaDjwSAABJ0apFb8AHMNEjVIo+bWnpqvONlTZHHwCcb6xcWrqq6uJJPN2ascZ3hZCM/DfEDhhy4gjJ6XIYslcYVYJCP3/+vLKRZJL0whWPLpmlI0CDXrtP5DieB9Zl7qF5xauSBQJAlMYta1dvTLtxDBpyXiAqY0VRTpYi4ieZucsSyCm6JUUgAII+Z2OBst5sC45rY1xDrdLWNJzud4wMifsdfTUNp9Uq7cRbRNPc+I5aIg32u8yrCj57sPHVIA0AgIJTrp59l9XVOfxjaHSw9d1W4451m9ZTX0tTa71nNgAAMFt3hzm3/Jt3lLlBoQlY3z9jHgIAe+PrdYu2r/3UejEISs7RcWH3wI0HsNDzCoasDfNTK63dFgcb+5Ngb9p9sXz72k23ShIviC2NZ/f3RpEs6LGZr5tiG7RG0R6a9sZ9N0ZuctG2pd/OTy37oO73AHBH6c52+8W/Vv/cPNgUaVEcrwAaoNedERGlSq2BgNMvXfv1GKdRq7igzy2NcXUuxLyEEMYYAKjyVzyR2/eL4x3usZbCa9W86A8E4nnHBt6NkZDGHa3pQZ2cvaF8YenA6V/VDkzWDRkThtFKSOO+PXdaIGq9QWG98OdLUz9XKFElZrSYo6t+X7w7gWY2fF4LIVlgtBCSBUYLIVlgtBCSBUYLIVlgtBCSBUYLIVlgtBCShZBtzMtMyxvrvnUkGwasx97ZbGmOd0dQ7HFZqfmYq3ghQLJS8+PdCyQLHBAiJAuht9diTDcJQmLeTDjFiaJo67fm5OKBKwGR/ILCePchKkZThs3aBwBFxaGfjmlqrJ/cHiEEgANChGSC0UJIFhgthGSB0UJIFgkaLcKr9IYkLV72RHGTgDsfl77k7vs2laYqAhfeeHFfpDpTCMkjFtEiKkP2vFyTXuqrbewOW3p9svD5y9eXpnobP36/prU7UgVehOQSdbSIJq2wJJ329NmFtFh0KHqUUiZZG6pqm27i5T0IySQG51riQFNLW49nrFKck4m6nC5KdEl6vDESxVPURy3mHbIDAFFG/KTcOKU+SStwyqx0HUfcEV9ViZCsEugyhmHx5/5pcy4HTBxqPvj+afsUOYqiGSqBouW69NGeQQ2vzlm2cdX6DQsbdlcPYbpQ3CRQtMSBzqYBANJnWLIyV6dXAwxFngkhmUR/GYMQQghHOEKAcBxHSJwvH3D6JB0B15Arvt1AM130F9+TshaUGBXDeSory2Bey/nmHm8ch2IKpZJA0qwcU2r3gMMdzUuzEJq46K8QDnXXftIdi67ECO2+UNtXtnLFtofLa/FuDBQ3CXSuNYL5Ow784eWanMwUpQfvxkBxk3jRAgCQPNaOFnzfKYqnBL3zHaF4w2ghJAuMFkKySJxzLazchKYUPGohJAuMFkKywGghJAuMFkKywGihWOMzVz3w1M9f/v3zXyrm492XOEqcK4RoitAs3/blBT3/873nq+yBmfzAXAyixWlM2Xm5yVqBBZz2rpbewWmzQTnDlmfuWl3z3nPvpj32m6X2n+35cy0FILPuvvPp/5POAzBKvbb+6rdO7/7Q5mNXTZfEIXP34dc+ee+chwIApy65d/X2T2dn6ai9oWXv7yorLWO0A9r1tz//lTzF5W6Ifbv/+YODNgjdvpD9wMufWmu4+lEdWv/Knhf/7uFXrPvF44Xq0d9Idaf/7Zk6Gw3XPgNOU/q5Vds2Z2dqJWtd095XqqqtLPx2mCCi0Gp5R1PHwLTZDWQS/UMl2vT8XGGgqaHZxycXzM7P99Vdcoix6NokkIJBJgUZEyWRUumqwjnBymOP/7LVR3jjwkU7v37b5yxv7aqll6f7BWXubasf++fVA98+dMzO1MuX79wE7zy352SfUHL/7Tsfnd/2o7p+Gq4dCQCkprPPjX4GGJVEBkDCtG959bHXdhGiumX9j7faf/50bY/EqEQZgHj22Le+fEJ764Znt9p++W/nzUEqjiYiVPugWb5850b61k/++olVtej/3v7gY55nn63vp2NthwlgXqeL6fU6Dvpn9s3RUZ9rEYF5LH1WlyiJ/gGrk2nVqlj0a1IwSQwyUaRMoiKlonjVkYExKlEqBq01Dafa1AWFOu6q6ZLf136w8YJknJNLADjTnDRlQ+uJdl/A66r9uGuwwJjDRWoHqBiUgsN/REavXe617TMq0mBQCooAjIoBKRik0vAMlImiJEoUGBODknhNJG5snxiyDMpWc2W7P+AZOrvryCvvWP0RtwMxrPrHX/zuP578TN5NnzZRj9urTtLe7McTVtTRokPWzh4PAwAgSp2G+Hz+6Hs1SZhob+1r6wsA85gvWHtDVSdV5+aX5wZ7zN5rR0gkZUl+kWqoy8IAgOM5xujIzJRSjrtxq4ZpJ5xr2o8R1n+u01Ky6IF7Zxdlq/khe+1Zm3PksDbGdgg6bRaLpdfhu8meEJUpN4PvMVtnfEWt2F3G4DTGvCywNgxOl9EgAIgXdh24AADge/+F/qt/oViy8tn/WsEIr1H6m947+mZ1cHjANjwdeEEDztP/c/iodWQgF06odgAA+KIVz+5aMfx337FD3/qPTvGqz1/b/kSEbF9qr33pJ57NdxZ98dNr0gN9B145vq9m+HHwsNsBmPfinhe+f1PL1Kz92q/+aalA/daq/33pcP8MP9OKWbSIOiW/2Ch2tIb8p3/6ES9U/ezldj9lfrffL1033Wy6e9Mj2fV7Dw9GrA4Qrh2pqfKH379447/s420/nDDtM3dz897/bN5LhKyNa7/+leUd3zxa7ZnoMq7nPfbSo8eAKE23ffWpR7Y2/WhvJ55rRYsoDXnFmVxPe0d/olwVYsGg0+EbGromD6PT3XXv1rUVl22cO7LxqEQJ4UYOXhxHJEojtTPmcq9vP0b4/A1LNy5UEwBgouVwS5MiNc8U8+81WcBuHaBavSbWDU870W9aQZdVnKXu7+iw+oEjhIw5QEoMzNbywVFu7d2zDQQAqLXVHpg/Z02BSqnWL1ifk9Jp64p8osEJCl4x/Ecg1/1fuLb9MdoggsALPAeECApe4K/+9I3tM5qec88Di5fmqgRBNXtz0fyAvSPiGRHRlH3+8R9+9+G1Nx9CZXKKyjWANSBjUNEpLV2n5HVzF+UBAAAdbK3scCT6dhWb3qu3/KTstvzWfe3Md+bsH2av3v7Utvu1kr2xdddvG/oj7bF80bIf/GnZaGMj32uFaz9cI8KytaPfa+V894/ll7/XCtM+Nb995FVdxT1Pb/tHHR1q7zrwqzM1kUeDiiRjVnaWMkV9s/9iEoHnQZWWrhd6h8RE3w/GQvILCuPdh6gYTRk2a1+8e4GuIJq5mx988M7FOcHDP/3unxtn7AkXRgshWeDtuQjJAqOFkCwwWgjJAqOFkCxmYrSMpox4dwElvpkYLYQmAUYLIVlgtBCSBUYLIVlgtNB0JJi23bH5i1lTuWIURgtNQ+qMvIXQU9k3lW9QjP7Od0P2lXcZAwv2tl1ocyXoDc/hKh8JeQ//bpnt2X17m6+94z10pafR6Vuys5KYo7Xj/f8+daR1jHvEw1aGAgAAZcW/3PfwCufbT7z7XicDAAhbAcqbcfed3ytt+M7zzR4GfNnKZ7/G/elrJ+vE2FV0Iqaitf+Sb33pYEv26k1bvaefq+6XuIztd1asUhIAEC1VPzjZ5ZtIy9dRLsw3uc2nWuKcrFDre+W3MXiXseXCaQswIFrjnCKDu9+ToLkCGG/lo3CVnrTLVzy8hez/xZvHO0n+Xesf+3p557fOto65m4SrDAVKU2mRq61dX7pAu7/TzQBADFcBaoynQmJV0SkoSYxSCahImUQpAwBq3bN//5uEy5i35iupE233WkSbtcLkPnthMO7lN0Ks7xUxeICfMQZEnVYwL8XX2tbjivv6yidE5aMx9sLhSk81J9p9QYDaj7sGv2fM4aCfcsbCVEVdzZEmbxCg6d3Trw1pfRzA2P8CD1eGAmqtaTjVVrK6UMfVDlEAvjC7WOx953jajvJM3QfNLgYAjIqMAnCXK0BF/D8yxnoRw6pHnn5kkW3vz3/2bsQH8plIKaOSBEykIFFGhhunDICJ7MZNRfSmedsWzS5OUojegaqL5/eZXSIAADerYNGOsqxsIdjR3u3MyvFUHfhr3+XZiSkvL89h3j06NuIMRd/YYDjw3plzIgBJ/eymFfrzB17voQB8/tzF9xWb0nnCqK+55fxf6m1uAADQpc+7r7xgroaX/IOVF2o+sHglGJ63wmRpp2mzsnTKoO3S7jNtZgnCtxNyfS+LSW0Mokifk2UgbqtaKTjFxH3+7drKR65IZUDCVXriuCvTmcdW+YEtXAs3GqkMtW+4MhSXtShTe6nm/MXgHXdnzVM1V09stDXWeg1XdBq4uYpOQe9g64DXx5hzsL8tEBx7FqLMvKciX7p46rlOj5Be/FDF4nWO4x+5GFHlfHaR0Vp95DddXu2ssp0F0H7NbIblebrmRkvEx22JOufTC/QNRz980S7xutx7l+Qt0Nk/cTOiyLynIi9Qc+yZLr8qrfiRNUucH508MrzShE/nbL8+3OARUu68dc1nCnr/q8ULYdqJtL4xiRaTBjva/Sp1Wm7BHL7lksWfqOEKX/lo/Ii6YOeLqxcKAGLPX/7145NDY304dGUoTjt/YZL5mNXTEWyRbimdx1VHOkcSylc+89vlDAB4QRdsibxe46joBAD+3vpXegEAXI2V7ZE+TPSpedC/t2PITQH6Os+7CwpSeHCJnEabBgOnut0BBoFeS3Mg8+qdVDDmLVX2vXMz+xilQcqnGFJzgi6bu+uNY+aR5Sal5bH+PRafBOAZMNe45sxN5Y+4RQAAJpmtdg8AiIMtDrFcqybgZWHaibS+sanoRANuV8DtchHtggydosefKNVn5MT85t1PvrPXOO/RpzIUkZ6OD1kZiugzywqcjb/3MdHW1KK4c1EaVxuhdIBYV/3Cf7Z5AbjipU88FJP1mDiO4+nl6qaUMcaRiFUC+PkFWbyluv4mal2xQPe+s7o75pTcX6JLU4HNUv/amXaLBMBxClXOlzZnDNen4wWp9aqZRsetrKHq7z8b/mu4diKIOlqCId2kcPbY/AyAUQbXl1CZwcJVeqKUEsIRJrntbq9SZDBaDTe84cpQ1w33VKXZharkoh/s2ARABF6RnJnB9feM3VQwMDTo9TDgXSKL9zcvlEocP9oHjhBCGQMA6vXYIHthlq6x26vNmFWogo7ROYgyc3lmsPpEf+DqdhhQ4EZ3ZI7nQBrJB+3vbnituwEAeFXm9g3l69M7d/dSoDToM+/6W23zzR4AwrQTQfTVc4namJuRquE5QZ1m0lKPN3HPtcbE86MVlBTDO0y4Sk/U1jIQLClcW6hSKLVFt8/O6u3vmEgxQK6wPEM6+vG3H9r1jYd2ffPJmu7crOKUWJfTmkBFp5CYLygSrSFbyQs8J3CEADDXgBnSK/IMWp5PNuUu0g61OyQAYH7z2+f6jQvWfX/rbV+aBbYr1ZiJITu32NtdOXDNHka9DrM/ddnsFC0nmHLyShWDHYMAAFzS3K9+Zs3tyTwBIBzPEyYBAwDmspu59IpsvYoQTXLBjluXr00aa7OFayeSqI9adLCnvT83t6w0n6O+wf42szuBLxGGxyVv+dH9W0Z+YJ273/nxnoFwlZ48Zyr/O3/19ifu26FnA5dad790wTyBL2j4tJIFXMPrPcN7Hu3uOm8tKytVHDkW29H4uCs6heHsajyYveThrXOVBNhgw78farIEet6uTLpv0eqnliokr/1sTfXRkYt+rL/z/K87zwMAcMbPZ2eR4clEu6Qg1dJR23PdCorW/ZXNny+veGqhQnTbPjlTU+ljAECdne9fSrt33eY7BI5Jvs6O2tf7GACwQM9bp5M+X77m6RUK5h+svXTxrHOsTRaunUhmYtmZqVmphjfe85NNt19zcJBqfrPn96emUaHv2OF4DgjhDKbSnRWGM4eOH3IxPrn4G7emHDtw+qR3WoyLMFpo6uHSFz65bnYyYUGf80JDzRstjunzjo7L8K2QaOqh/bXP7q2Ndy+ihNfzEJIFRgshWWC0EJLFTIwWXsNAk2AmRguhSYDRQkgWGC2EZIHRQkgWfHJKjB6rjhOtTuf1uCcyJzFu+s5L/7ptZQFvvnjJNuE3ciMU0gyOFnhbjr57qF5/687PJJ/7qB5fvotiKmYDQi5pzvwFc5KmcmG4ECR3d+eAxHPTrNtoGohRtLikjJxUn6XLNZULw4VCUmal8zarDQ9ZKMZiEi2iNuWnit2Wgen34D5nzEj19CV0hTcUHzGIFlGaMk3E1tUbICqtVjXNrjk6HU7BOCtdFevHc9FMF/1lDEVK/jyDp9Vs94MmZ06B3m0bnMyH96K4jAEAwJxd9pQtDz765fvu/dxnl7Gqw3g5A8VGtM9rEXW6Ue/qq3NSGKs865TFz73rS2v6/vzEM8esCVviDcVF9DXfCcen5JQuzwIAwvHB3hh0ajJJEgWv04G5QjEWbbSYr7flQv9IRTBN9pzs6Ls0qaQes0UoyTJy5yJUGUNofKJ/nYIkBaXhS+5EmHZ7J6dOTVJBkkE3HQezaEqLZW0M5ulorIthezIjxk3fef4LOfamo7sPtk237+PQlDcTKzohNAmm2bdQCE0XGC2EZIHRQkgWGC2EZCGoNfp49yFaw6uQl5cb8redneaQ0xGSFR61EJIFRgshWWC0EJIFRgshWSRStHi13qBXC3g7IJoKEuj9Wlz6yi8+tDadOjtOvLXnaKcPHxNB8RR1tLi0Nf/w2MbskaMftZ/4028/7IrLHfBssPbvbznL1mxafMstJWf/Uu3GbKE4isVRi9pO/umVQyN5YjReT5Ywn729zgEFaxcbxUAQc4XiKyYDQp4DSuMWqasRVUqKFpz2QXxIBMVZLKLFGZZ94ZsLJep3tFcd3H+yI54vSFfwhIIqLcOU6vJR6nc5vfHrC5rReGP6rKgaYL6+xurq6rNV1Re7FSWf2pDVV9U0MIkHMKVSEQwEASA52QAA/r4eb0bZ8pVrVq6sWFGiaDvb3OkYmrzeIDQq+qMWC3icAQAAGDpxsmnZxpxU0tIXr+MW0ZSs31Ck7juz/1S7Wwo6+qfCKBXNSNEXS5tzy6aM9vdPmUUAYJQRQghA3IaEgkqtZM628+fqsYwMiqtovzJmAb8q55Z1y7K1CrVpwZJCYumezOHgDd1xOxw+zpCSgu9HQHEW9YCQWo7tO751646vfkodtLdUvv1BcyAW/ZoIXm1IMWUYCPA6rYoAXn9H8RSDcy1/96k3XzkVg75EiUtf+YWH1poIHWo434zfF6M4S6Abndhg7d/+2kWc1u7eITxioXhLpGj57B1N9nj3AqFhiXTnO0JTCEYLIVlgtBCSheDzuuLdh6jo9NrhVWhqrI93XxC6Ao9aCMkCo4WQLP4/wGXO4ohiV00AAAAASUVORK5CYII=;" vertex="1" parent="1">
          <mxGeometry x="193.5" y="177" width="208.5" height="113" as="geometry" />
        </mxCell>
      </root>
    </mxGraphModel>
  </diagram>
</mxfile>
